<?xml version="1.0" encoding="UTF-8" standalone="no"?>
<!DOCTYPE svg PUBLIC "-//W3C//DTD SVG 1.1//EN"
 "http://www.w3.org/Graphics/SVG/1.1/DTD/svg11.dtd">
<!-- Generated by graphviz version 2.43.0 (0)
 -->
<!-- Title: minioManager Pages: 1 -->
<svg width="101pt" height="322pt"
 viewBox="0.00 0.00 101.00 322.00" xmlns="http://www.w3.org/2000/svg" xmlns:xlink="http://www.w3.org/1999/xlink">

<svg id="main" version="1.1" xmlns="http://www.w3.org/2000/svg" xmlns:xlink="http://www.w3.org/1999/xlink" xml:space="preserve" onload="init(evt)">
<style type="text/css"><![CDATA[
.node, .edge {opacity: 0.7;}
.node.selected, .edge.selected {opacity: 1;}
.edge:hover path { stroke: red; }
.edge:hover polygon { stroke: red; fill: red; }
]]></style>
<script type="application/ecmascript" xlink:href="svg.min.js"/>
<svg id="graph" class="graph">
<g id="graph0" class="graph" transform="scale(1 1) rotate(0) translate(4 318)">
<title>minioManager</title>
<!-- Node1 -->
<g id="Node000001" class="node">
<title>Node1</title>
<g id="a_Node000001"><a xlink:title="use MinIO mc CLI command from MATLAB (mc alias&#45;based auth)">
<polygon fill="#999999" stroke="transparent" points="93,-229 0,-229 0,0 93,0 93,-229"/>
<text text-anchor="start" x="13" y="-216.5" font-family="Iosevka" font-size="10.00">minioManager</text>
<text text-anchor="start" x="4.5" y="-201.5" font-family="Iosevka" font-size="10.00">+</text>
<text text-anchor="start" x="15.5" y="-201.5" font-family="Iosevka" font-size="10.00">ENDPOINT</text>
<text text-anchor="start" x="4.5" y="-186.5" font-family="Iosevka" font-size="10.00">+</text>
<text text-anchor="start" x="15.5" y="-186.5" font-family="Iosevka" font-size="10.00">ALIAS</text>
<text text-anchor="start" x="4.5" y="-171.5" font-family="Iosevka" font-size="10.00">+</text>
<text text-anchor="start" x="15.5" y="-171.5" font-family="Iosevka" font-size="10.00">LOCAL</text>
<text text-anchor="start" x="4.5" y="-156.5" font-family="Iosevka" font-size="10.00">+</text>
<text text-anchor="start" x="15.5" y="-156.5" font-family="Iosevka" font-size="10.00">ACCESS_KEY</text>
<text text-anchor="start" x="4.5" y="-141.5" font-family="Iosevka" font-size="10.00">+</text>
<text text-anchor="start" x="15.5" y="-141.5" font-family="Iosevka" font-size="10.00">SECRET_KEY</text>
<text text-anchor="start" x="4.5" y="-126.5" font-family="Iosevka" font-size="10.00">+</text>
<text text-anchor="start" x="15.5" y="-126.5" font-family="Iosevka" font-size="10.00">minioManager()</text>
<text text-anchor="start" x="4.5" y="-111.5" font-family="Iosevka" font-size="10.00">+</text>
<text text-anchor="start" x="15.5" y="-111.5" font-family="Iosevka" font-size="10.00">delete()</text>
<text text-anchor="start" x="4.5" y="-96.5" font-family="Iosevka" font-size="10.00">+</text>
<text text-anchor="start" x="15.5" y="-96.5" font-family="Iosevka" font-size="10.00">setupAlias()</text>
<text text-anchor="start" x="4.5" y="-81.5" font-family="Iosevka" font-size="10.00">+</text>
<text text-anchor="start" x="15.5" y="-81.5" font-family="Iosevka" font-size="10.00">list()</text>
<text text-anchor="start" x="4.5" y="-66.5" font-family="Iosevka" font-size="10.00">+</text>
<text text-anchor="start" x="15.5" y="-66.5" font-family="Iosevka" font-size="10.00">checkBucket()</text>
<text text-anchor="start" x="4.5" y="-51.5" font-family="Iosevka" font-size="10.00">+</text>
<text text-anchor="start" x="15.5" y="-51.5" font-family="Iosevka" font-size="10.00">createBucket()</text>
<text text-anchor="start" x="4.5" y="-36.5" font-family="Iosevka" font-size="10.00">+</text>
<text text-anchor="start" x="15.5" y="-36.5" font-family="Iosevka" font-size="10.00">find()</text>
<text text-anchor="start" x="4.5" y="-21.5" font-family="Iosevka" font-size="10.00">+</text>
<text text-anchor="start" x="15.5" y="-21.5" font-family="Iosevka" font-size="10.00">get()</text>
<text text-anchor="start" x="4.5" y="-6.5" font-family="Iosevka" font-size="10.00">+</text>
<text text-anchor="start" x="15.5" y="-6.5" font-family="Iosevka" font-size="10.00">copyFiles()</text>
<polygon fill="#666666" stroke="#666666" points="0.5,-211.5 0.5,-211.5 93.5,-211.5 93.5,-211.5 0.5,-211.5"/>
<polygon fill="#666666" stroke="#666666" points="0.5,-136.5 0.5,-136.5 13.5,-136.5 13.5,-136.5 0.5,-136.5"/>
<polygon fill="#666666" stroke="#666666" points="13.5,-136.5 13.5,-136.5 93.5,-136.5 93.5,-136.5 13.5,-136.5"/>
<polygon fill="none" stroke="#666666" points="0,0 0,-229 93,-229 93,0 0,0"/>
</a>
</g>
</g>
<!-- Node2 -->
<g id="Node000002" class="node">
<title>Node2</title>
<g id="a_Node000002"><a xlink:title=" ">
<polygon fill="white" stroke="transparent" points="67.5,-314 25.5,-314 25.5,-265 67.5,-265 67.5,-314"/>
<text text-anchor="start" x="30.5" y="-301.5" font-family="Iosevka" font-size="10.00">handle</text>
<text text-anchor="start" x="45" y="-286.5" font-family="Iosevka" font-size="10.00"> </text>
<text text-anchor="start" x="45" y="-271.5" font-family="Iosevka" font-size="10.00"> </text>
<polygon fill="#666666" stroke="#666666" points="25.5,-296.5 25.5,-296.5 67.5,-296.5 67.5,-296.5 25.5,-296.5"/>
<polygon fill="#666666" stroke="#666666" points="25.5,-281.5 25.5,-281.5 67.5,-281.5 67.5,-281.5 25.5,-281.5"/>
<polygon fill="none" stroke="#666666" points="25.5,-265 25.5,-314 67.5,-314 67.5,-265 25.5,-265"/>
</a>
</g>
</g>
<!-- Node2&#45;&gt;Node1 -->
<g id="edge1_Node000001_Node000002" class="edge">
<title>Node2&#45;&gt;Node1</title>
<g id="a_edge1_Node000001_Node000002"><a xlink:title=" ">
<path fill="none" stroke="#63b8ff" d="M46.5,-254.77C46.5,-246.96 46.5,-238.21 46.5,-229.01"/>
<polygon fill="none" stroke="#63b8ff" points="43,-254.81 46.5,-264.81 50,-254.81 43,-254.81"/>
</a>
</g>
</g>
</g>
</svg>
</svg>

<style type='text/css'>
<![CDATA[
[data-mouse-over-selected='false'] { opacity: 0.7; }
[data-mouse-over-selected='true']  { opacity: 1.0; }
]]>
</style>
<script type="application/ecmascript"><![CDATA[
document.addEventListener('DOMContentLoaded', (event) => {
  highlightEdges();
  highlightAdjacentNodes();
});
]]></script>
</svg>
