<?xml version="1.0" encoding="UTF-8" standalone="no"?>
<!DOCTYPE svg PUBLIC "-//W3C//DTD SVG 1.1//EN"
 "http://www.w3.org/Graphics/SVG/1.1/DTD/svg11.dtd">
<!-- Generated by graphviz version 2.50.0 (20211204.2007)
 -->
<!-- Title: arduinoIOPort Pages: 1 -->
<svg width="127pt" height="270pt"
 viewBox="0.00 0.00 127.00 270.00" xmlns="http://www.w3.org/2000/svg" xmlns:xlink="http://www.w3.org/1999/xlink">
<g id="graph0" class="graph" transform="scale(1 1) rotate(0) translate(4 266)">
<title>arduinoIOPort</title>
<!-- Node1 -->
<g id="node1" class="node">
<title>Node1</title>
<g id="a_node1"><a xlink:title="arduinoIOPort &#45; modified legacy ardino interface using PTB IOPort interface for serial communication ...">
<polygon fill="#bfbfbf" stroke="black" points="0,-0.5 0,-167.5 119,-167.5 119,-0.5 0,-0.5"/>
<text text-anchor="middle" x="59.5" y="-155.5" font-family="Iosevka" font-size="10.00">arduinoIOPort</text>
<polyline fill="none" stroke="black" points="0,-148.5 119,-148.5 "/>
<text text-anchor="middle" x="59.5" y="-136.5" font-family="Iosevka" font-size="10.00"> </text>
<polyline fill="none" stroke="black" points="0,-129.5 119,-129.5 "/>
<text text-anchor="start" x="8" y="-117.5" font-family="Iosevka" font-size="10.00">+ arduinoIOPort()</text>
<text text-anchor="start" x="8" y="-106.5" font-family="Iosevka" font-size="10.00">+ close()</text>
<text text-anchor="start" x="8" y="-95.5" font-family="Iosevka" font-size="10.00">+ delete()</text>
<text text-anchor="start" x="8" y="-84.5" font-family="Iosevka" font-size="10.00">+ disp()</text>
<text text-anchor="start" x="8" y="-73.5" font-family="Iosevka" font-size="10.00">+ serial()</text>
<text text-anchor="start" x="8" y="-62.5" font-family="Iosevka" font-size="10.00">+ flush()</text>
<text text-anchor="start" x="8" y="-51.5" font-family="Iosevka" font-size="10.00">+ pinMode()</text>
<text text-anchor="start" x="8" y="-40.5" font-family="Iosevka" font-size="10.00">+ digitalRead()</text>
<text text-anchor="start" x="8" y="-29.5" font-family="Iosevka" font-size="10.00">+ digitalWrite()</text>
<text text-anchor="start" x="8" y="-18.5" font-family="Iosevka" font-size="10.00">+ timedTTL()</text>
<text text-anchor="start" x="8" y="-7.5" font-family="Iosevka" font-size="10.00">and 9 more...</text>
</a>
</g>
</g>
<!-- Node2 -->
<g id="node2" class="node">
<title>Node2</title>
<g id="a_node2"><a xlink:title=" ">
<polygon fill="none" stroke="black" points="33,-204.5 33,-261.5 86,-261.5 86,-204.5 33,-204.5"/>
<text text-anchor="middle" x="59.5" y="-249.5" font-family="Iosevka" font-size="10.00">handle</text>
<polyline fill="none" stroke="black" points="33,-242.5 86,-242.5 "/>
<text text-anchor="middle" x="59.5" y="-230.5" font-family="Iosevka" font-size="10.00"> </text>
<polyline fill="none" stroke="black" points="33,-223.5 86,-223.5 "/>
<text text-anchor="middle" x="59.5" y="-211.5" font-family="Iosevka" font-size="10.00"> </text>
</a>
</g>
</g>
<!-- Node2&#45;&gt;Node1 -->
<g id="edge1" class="edge">
<title>Node2&#45;&gt;Node1</title>
<path fill="none" stroke="midnightblue" d="M59.5,-194.35C59.5,-186.08 59.5,-177.01 59.5,-167.74"/>
<polygon fill="none" stroke="midnightblue" points="56,-194.35 59.5,-204.35 63,-194.35 56,-194.35"/>
</g>
</g>
</svg>
