<?xml version="1.0" encoding="UTF-8" standalone="no"?>
<!DOCTYPE svg PUBLIC "-//W3C//DTD SVG 1.1//EN"
 "http://www.w3.org/Graphics/SVG/1.1/DTD/svg11.dtd">
<!-- Generated by graphviz version 2.43.0 (0)
 -->
<!-- Title: tobiiManager Pages: 1 -->
<svg width="264pt" height="1602pt"
 viewBox="0.00 0.00 263.50 1602.00" xmlns="http://www.w3.org/2000/svg" xmlns:xlink="http://www.w3.org/1999/xlink">
<g id="graph0" class="graph" transform="scale(1 1) rotate(0) translate(4 1598)">
<title>tobiiManager</title>
<!-- Node1 -->
<g id="Node000001" class="node">
<title>Node1</title>
<g id="a_Node000001"><a xlink:title="Manages the Tobii eyetrackers.">
<polygon fill="#999999" stroke="transparent" points="184,-394 78,-394 78,0 184,0 184,-394"/>
<text text-anchor="start" x="99.5" y="-382" font-family="Iosevka" font-size="10.00">tobiiManager</text>
<text text-anchor="start" x="82" y="-367" font-family="Iosevka" font-size="10.00">+</text>
<text text-anchor="start" x="93" y="-367" font-family="Iosevka" font-size="10.00">type</text>
<text text-anchor="start" x="82" y="-352" font-family="Iosevka" font-size="10.00">+</text>
<text text-anchor="start" x="93" y="-352" font-family="Iosevka" font-size="10.00">calibration</text>
<text text-anchor="start" x="82" y="-337" font-family="Iosevka" font-size="10.00">+</text>
<text text-anchor="start" x="93" y="-337" font-family="Iosevka" font-size="10.00">address</text>
<text text-anchor="start" x="82" y="-322" font-family="Iosevka" font-size="10.00">+</text>
<text text-anchor="start" x="93" y="-322" font-family="Iosevka" font-size="10.00">settings</text>
<text text-anchor="start" x="82" y="-307" font-family="Iosevka" font-size="10.00">+</text>
<text text-anchor="start" x="93" y="-307" font-family="Iosevka" font-size="10.00">tobii</text>
<text text-anchor="start" x="82" y="-292" font-family="Iosevka" font-size="10.00">+</text>
<text text-anchor="start" x="93" y="-292" font-family="Iosevka" font-size="10.00">sampletime</text>
<text text-anchor="start" x="82" y="-277" font-family="Iosevka" font-size="10.00">+</text>
<text text-anchor="start" x="93" y="-277" font-family="Iosevka" font-size="10.00">calib</text>
<text text-anchor="start" x="82" y="-262" font-family="Iosevka" font-size="10.00">#</text>
<text text-anchor="start" x="93" y="-262" font-family="Iosevka" font-size="10.00">rewardProvider</text>
<text text-anchor="start" x="82" y="-247" font-family="Iosevka" font-size="10.00">#</text>
<text text-anchor="start" x="93" y="-247" font-family="Iosevka" font-size="10.00">calController</text>
<text text-anchor="start" x="82" y="-232" font-family="Iosevka" font-size="10.00">#</text>
<text text-anchor="start" x="93" y="-232" font-family="Iosevka" font-size="10.00">systemTime</text>
<text text-anchor="start" x="82" y="-217" font-family="Iosevka" font-size="10.00">#</text>
<text text-anchor="start" x="93" y="-217" font-family="Iosevka" font-size="10.00">calibData</text>
<text text-anchor="start" x="82" y="-202" font-family="Iosevka" font-size="10.00">#</text>
<text text-anchor="start" x="93" y="-202" font-family="Iosevka" font-size="10.00">calStim</text>
<text text-anchor="start" x="82" y="-187" font-family="Iosevka" font-size="10.00">#</text>
<text text-anchor="start" x="93" y="-187" font-family="Iosevka" font-size="10.00">isCollectedData</text>
<text text-anchor="start" x="82" y="-172" font-family="Iosevka" font-size="10.00">#</text>
<text text-anchor="start" x="93" y="-172" font-family="Iosevka" font-size="10.00">allowedProperties</text>
<text text-anchor="start" x="82" y="-157" font-family="Iosevka" font-size="10.00">+</text>
<text text-anchor="start" x="93" y="-157" font-family="Iosevka" font-size="10.00">tobiiManager()</text>
<text text-anchor="start" x="82" y="-142" font-family="Iosevka" font-size="10.00">+</text>
<text text-anchor="start" x="93" y="-142" font-family="Iosevka" font-size="10.00">initialise()</text>
<text text-anchor="start" x="82" y="-127" font-family="Iosevka" font-size="10.00">+</text>
<text text-anchor="start" x="93" y="-127" font-family="Iosevka" font-size="10.00">trackerSetup()</text>
<text text-anchor="start" x="82" y="-112" font-family="Iosevka" font-size="10.00">+</text>
<text text-anchor="start" x="93" y="-112" font-family="Iosevka" font-size="10.00">startRecording()</text>
<text text-anchor="start" x="82" y="-97" font-family="Iosevka" font-size="10.00">+</text>
<text text-anchor="start" x="93" y="-97" font-family="Iosevka" font-size="10.00">stopRecording()</text>
<text text-anchor="start" x="82" y="-82" font-family="Iosevka" font-size="10.00">+</text>
<text text-anchor="start" x="93" y="-82" font-family="Iosevka" font-size="10.00">getSample()</text>
<text text-anchor="start" x="82" y="-67" font-family="Iosevka" font-size="10.00">+</text>
<text text-anchor="start" x="93" y="-67" font-family="Iosevka" font-size="10.00">drawEyePositions()</text>
<text text-anchor="start" x="82" y="-52" font-family="Iosevka" font-size="10.00">+</text>
<text text-anchor="start" x="93" y="-52" font-family="Iosevka" font-size="10.00">saveData()</text>
<text text-anchor="start" x="82" y="-37" font-family="Iosevka" font-size="10.00">+</text>
<text text-anchor="start" x="93" y="-37" font-family="Iosevka" font-size="10.00">trackerMessage()</text>
<text text-anchor="start" x="82" y="-22" font-family="Iosevka" font-size="10.00">+</text>
<text text-anchor="start" x="93" y="-22" font-family="Iosevka" font-size="10.00">close()</text>
<text text-anchor="start" x="93" y="-7" font-family="Iosevka" font-size="10.00">and 17 more...</text>
<polygon fill="#666666" stroke="#666666" points="78,-377 78,-377 184,-377 184,-377 78,-377"/>
<polygon fill="#666666" stroke="#666666" points="78,-167 78,-167 91,-167 91,-167 78,-167"/>
<polygon fill="#666666" stroke="#666666" points="91,-167 91,-167 184,-167 184,-167 91,-167"/>
<polygon fill="none" stroke="#666666" points="78,0 78,-394 184,-394 184,0 78,0"/>
</a>
</g>
</g>
<!-- Node2 -->
<g id="Node000002" class="node">
<title>Node2</title>
<g id="a_Node000002"><a xlink:href="classeyetracker_core.html" target="_top" xlink:title=" ">
<polygon fill="white" stroke="transparent" points="126,-839 0,-839 0,-430 126,-430 126,-839"/>
<text text-anchor="start" x="27" y="-826.5" font-family="Iosevka" font-size="10.00">eyetrackerCore</text>
<text text-anchor="start" x="4" y="-811.5" font-family="Iosevka" font-size="10.00">+</text>
<text text-anchor="start" x="15" y="-811.5" font-family="Iosevka" font-size="10.00">type</text>
<text text-anchor="start" x="4" y="-796.5" font-family="Iosevka" font-size="10.00">+</text>
<text text-anchor="start" x="15" y="-796.5" font-family="Iosevka" font-size="10.00">fixation</text>
<text text-anchor="start" x="4" y="-781.5" font-family="Iosevka" font-size="10.00">+</text>
<text text-anchor="start" x="15" y="-781.5" font-family="Iosevka" font-size="10.00">exclusionZone</text>
<text text-anchor="start" x="4" y="-766.5" font-family="Iosevka" font-size="10.00">+</text>
<text text-anchor="start" x="15" y="-766.5" font-family="Iosevka" font-size="10.00">fixInit</text>
<text text-anchor="start" x="4" y="-751.5" font-family="Iosevka" font-size="10.00">+</text>
<text text-anchor="start" x="15" y="-751.5" font-family="Iosevka" font-size="10.00">offset</text>
<text text-anchor="start" x="4" y="-736.5" font-family="Iosevka" font-size="10.00">+</text>
<text text-anchor="start" x="15" y="-736.5" font-family="Iosevka" font-size="10.00">sampleRate</text>
<text text-anchor="start" x="4" y="-721.5" font-family="Iosevka" font-size="10.00">+</text>
<text text-anchor="start" x="15" y="-721.5" font-family="Iosevka" font-size="10.00">isDummy</text>
<text text-anchor="start" x="4" y="-706.5" font-family="Iosevka" font-size="10.00">+</text>
<text text-anchor="start" x="15" y="-706.5" font-family="Iosevka" font-size="10.00">recordData</text>
<text text-anchor="start" x="4" y="-691.5" font-family="Iosevka" font-size="10.00">+</text>
<text text-anchor="start" x="15" y="-691.5" font-family="Iosevka" font-size="10.00">useOperatorScreen</text>
<text text-anchor="start" x="4" y="-676.5" font-family="Iosevka" font-size="10.00">+</text>
<text text-anchor="start" x="15" y="-676.5" font-family="Iosevka" font-size="10.00">ignoreBlinks</text>
<text text-anchor="start" x="15" y="-661.5" font-family="Iosevka" font-size="10.00">and 48 more...</text>
<text text-anchor="start" x="4" y="-646.5" font-family="Iosevka" font-size="10.00">+</text>
<text text-anchor="start" x="15" y="-646.5" font-family="Iosevka" font-size="10.00">initialise()</text>
<text text-anchor="start" x="4" y="-631.5" font-family="Iosevka" font-size="10.00">+</text>
<text text-anchor="start" x="15" y="-631.5" font-family="Iosevka" font-size="10.00">close()</text>
<text text-anchor="start" x="4" y="-616.5" font-family="Iosevka" font-size="10.00">+</text>
<text text-anchor="start" x="15" y="-616.5" font-family="Iosevka" font-size="10.00">checkConnection()</text>
<text text-anchor="start" x="4" y="-601.5" font-family="Iosevka" font-size="10.00">+</text>
<text text-anchor="start" x="15" y="-601.5" font-family="Iosevka" font-size="10.00">updateDefaults()</text>
<text text-anchor="start" x="4" y="-586.5" font-family="Iosevka" font-size="10.00">+</text>
<text text-anchor="start" x="15" y="-586.5" font-family="Iosevka" font-size="10.00">trackerSetup()</text>
<text text-anchor="start" x="4" y="-571.5" font-family="Iosevka" font-size="10.00">+</text>
<text text-anchor="start" x="15" y="-571.5" font-family="Iosevka" font-size="10.00">startRecording()</text>
<text text-anchor="start" x="4" y="-556.5" font-family="Iosevka" font-size="10.00">+</text>
<text text-anchor="start" x="15" y="-556.5" font-family="Iosevka" font-size="10.00">stopRecording()</text>
<text text-anchor="start" x="4" y="-541.5" font-family="Iosevka" font-size="10.00">+</text>
<text text-anchor="start" x="15" y="-541.5" font-family="Iosevka" font-size="10.00">getSample()</text>
<text text-anchor="start" x="4" y="-526.5" font-family="Iosevka" font-size="10.00">+</text>
<text text-anchor="start" x="15" y="-526.5" font-family="Iosevka" font-size="10.00">trackerMessage()</text>
<text text-anchor="start" x="4" y="-511.5" font-family="Iosevka" font-size="10.00">+</text>
<text text-anchor="start" x="15" y="-511.5" font-family="Iosevka" font-size="10.00">statusMessage()</text>
<text text-anchor="start" x="15" y="-496.5" font-family="Iosevka" font-size="10.00">and 38 more...</text>
<text text-anchor="start" x="4" y="-481.5" font-family="Iosevka" font-size="10.00">#</text>
<text text-anchor="start" x="15" y="-481.5" font-family="Iosevka" font-size="10.00">drawValidationResults()</text>
<text text-anchor="start" x="4" y="-466.5" font-family="Iosevka" font-size="10.00">#</text>
<text text-anchor="start" x="15" y="-466.5" font-family="Iosevka" font-size="10.00">drawDriftOffset()</text>
<text text-anchor="start" x="4" y="-451.5" font-family="Iosevka" font-size="10.00">#</text>
<text text-anchor="start" x="15" y="-451.5" font-family="Iosevka" font-size="10.00">toDegrees()</text>
<text text-anchor="start" x="4" y="-436.5" font-family="Iosevka" font-size="10.00">#</text>
<text text-anchor="start" x="15" y="-436.5" font-family="Iosevka" font-size="10.00">toPixels()</text>
<polygon fill="#666666" stroke="#666666" points="0,-821.5 0,-821.5 126,-821.5 126,-821.5 0,-821.5"/>
<polygon fill="#666666" stroke="#666666" points="0,-656.5 0,-656.5 13,-656.5 13,-656.5 0,-656.5"/>
<polygon fill="#666666" stroke="#666666" points="13,-656.5 13,-656.5 126,-656.5 126,-656.5 13,-656.5"/>
<polygon fill="none" stroke="#666666" points="0,-430 0,-839 126,-839 126,-430 0,-430"/>
</a>
</g>
</g>
<!-- Node2&#45;&gt;Node1 -->
<g id="edge1_Node000001_Node000002" class="edge">
<title>Node2&#45;&gt;Node1</title>
<g id="a_edge1_Node000001_Node000002"><a xlink:title=" ">
<path fill="none" stroke="#63b8ff" d="M96.37,-419.77C97.7,-411.25 99.04,-402.71 100.36,-394.22"/>
<polygon fill="none" stroke="#63b8ff" points="92.89,-419.36 94.81,-429.78 99.81,-420.44 92.89,-419.36"/>
</a>
</g>
</g>
<!-- Node3 -->
<g id="Node000003" class="node">
<title>Node3</title>
<g id="a_Node000003"><a xlink:href="classopticka_core.html" target="_top" xlink:title="optickaCore base class inherited by other opticka classes.">
<polygon fill="white" stroke="transparent" points="149.5,-1509 18.5,-1509 18.5,-875 149.5,-875 149.5,-1509"/>
<text text-anchor="start" x="57" y="-1497" font-family="Iosevka" font-size="10.00">optickaCore</text>
<text text-anchor="start" x="23" y="-1482" font-family="Iosevka" font-size="10.00">+</text>
<text text-anchor="start" x="34" y="-1482" font-family="Iosevka" font-size="10.00">name</text>
<text text-anchor="start" x="23" y="-1467" font-family="Iosevka" font-size="10.00">+</text>
<text text-anchor="start" x="34" y="-1467" font-family="Iosevka" font-size="10.00">comment</text>
<text text-anchor="start" x="23" y="-1452" font-family="Iosevka" font-size="10.00">+</text>
<text text-anchor="start" x="34" y="-1452" font-family="Iosevka" font-size="10.00">verbose</text>
<text text-anchor="start" x="23" y="-1437" font-family="Iosevka" font-size="10.00">+</text>
<text text-anchor="start" x="34" y="-1437" font-family="Iosevka" font-size="10.00">optickaVersion</text>
<text text-anchor="start" x="23" y="-1422" font-family="Iosevka" font-size="10.00">+</text>
<text text-anchor="start" x="34" y="-1422" font-family="Iosevka" font-size="10.00">dateStamp</text>
<text text-anchor="start" x="23" y="-1407" font-family="Iosevka" font-size="10.00">+</text>
<text text-anchor="start" x="34" y="-1407" font-family="Iosevka" font-size="10.00">uuid</text>
<text text-anchor="start" x="23" y="-1392" font-family="Iosevka" font-size="10.00">+</text>
<text text-anchor="start" x="34" y="-1392" font-family="Iosevka" font-size="10.00">paths</text>
<text text-anchor="start" x="23" y="-1377" font-family="Iosevka" font-size="10.00">+</text>
<text text-anchor="start" x="34" y="-1377" font-family="Iosevka" font-size="10.00">fullName</text>
<text text-anchor="start" x="23" y="-1362" font-family="Iosevka" font-size="10.00">#</text>
<text text-anchor="start" x="34" y="-1362" font-family="Iosevka" font-size="10.00">cloning</text>
<text text-anchor="start" x="23" y="-1347" font-family="Iosevka" font-size="10.00">#</text>
<text text-anchor="start" x="34" y="-1347" font-family="Iosevka" font-size="10.00">mversion</text>
<text text-anchor="start" x="23" y="-1332" font-family="Iosevka" font-size="10.00">#</text>
<text text-anchor="start" x="34" y="-1332" font-family="Iosevka" font-size="10.00">sansFont</text>
<text text-anchor="start" x="23" y="-1317" font-family="Iosevka" font-size="10.00">#</text>
<text text-anchor="start" x="34" y="-1317" font-family="Iosevka" font-size="10.00">monoFont</text>
<text text-anchor="start" x="23" y="-1302" font-family="Iosevka" font-size="10.00">#</text>
<text text-anchor="start" x="34" y="-1302" font-family="Iosevka" font-size="10.00">className</text>
<text text-anchor="start" x="23" y="-1287" font-family="Iosevka" font-size="10.00">#</text>
<text text-anchor="start" x="34" y="-1287" font-family="Iosevka" font-size="10.00">savePrefix</text>
<text text-anchor="start" x="23" y="-1272" font-family="Iosevka" font-size="10.00">#</text>
<text text-anchor="start" x="34" y="-1272" font-family="Iosevka" font-size="10.00">fullName_</text>
<text text-anchor="start" x="23" y="-1257" font-family="Iosevka" font-size="10.00">+</text>
<text text-anchor="start" x="34" y="-1257" font-family="Iosevka" font-size="10.00">optickaCore()</text>
<text text-anchor="start" x="23" y="-1242" font-family="Iosevka" font-size="10.00">+</text>
<text text-anchor="start" x="34" y="-1242" font-family="Iosevka" font-size="10.00">fullName()</text>
<text text-anchor="start" x="23" y="-1227" font-family="Iosevka" font-size="10.00">+</text>
<text text-anchor="start" x="34" y="-1227" font-family="Iosevka" font-size="10.00">getALF()</text>
<text text-anchor="start" x="23" y="-1212" font-family="Iosevka" font-size="10.00">+</text>
<text text-anchor="start" x="34" y="-1212" font-family="Iosevka" font-size="10.00">makeReport()</text>
<text text-anchor="start" x="23" y="-1197" font-family="Iosevka" font-size="10.00">+</text>
<text text-anchor="start" x="34" y="-1197" font-family="Iosevka" font-size="10.00">findAttributes()</text>
<text text-anchor="start" x="23" y="-1182" font-family="Iosevka" font-size="10.00">+</text>
<text text-anchor="start" x="34" y="-1182" font-family="Iosevka" font-size="10.00">findAttributesandType()</text>
<text text-anchor="start" x="23" y="-1167" font-family="Iosevka" font-size="10.00">+</text>
<text text-anchor="start" x="34" y="-1167" font-family="Iosevka" font-size="10.00">findPropertyDefault()</text>
<text text-anchor="start" x="23" y="-1152" font-family="Iosevka" font-size="10.00">+</text>
<text text-anchor="start" x="34" y="-1152" font-family="Iosevka" font-size="10.00">clone()</text>
<text text-anchor="start" x="23" y="-1137" font-family="Iosevka" font-size="10.00">+</text>
<text text-anchor="start" x="34" y="-1137" font-family="Iosevka" font-size="10.00">checkSuperclasses()</text>
<text text-anchor="start" x="23" y="-1122" font-family="Iosevka" font-size="10.00">+</text>
<text text-anchor="start" x="34" y="-1122" font-family="Iosevka" font-size="10.00">editProperties()</text>
<text text-anchor="start" x="23" y="-1107" font-family="Iosevka" font-size="10.00">+</text>
<text text-anchor="start" x="34" y="-1107" font-family="Iosevka" font-size="10.00">setProp()</text>
<text text-anchor="start" x="23" y="-1092" font-family="Iosevka" font-size="10.00">+</text>
<text text-anchor="start" x="34" y="-1092" font-family="Iosevka" font-size="10.00">initialiseSaveFile()</text>
<text text-anchor="start" x="23" y="-1077" font-family="Iosevka" font-size="10.00">+</text>
<text text-anchor="start" x="34" y="-1077" font-family="Iosevka" font-size="10.00">checkPaths()</text>
<text text-anchor="start" x="23" y="-1062" font-family="Iosevka" font-size="10.00">+</text>
<text text-anchor="start" x="34" y="-1062" font-family="Iosevka" font-size="10.00">initialiseGlobals()</text>
<text text-anchor="start" x="23" y="-1047" font-family="Iosevka" font-size="10.00">+</text>
<text text-anchor="start" x="34" y="-1047" font-family="Iosevka" font-size="10.00">makeArgs()</text>
<text text-anchor="start" x="23" y="-1032" font-family="Iosevka" font-size="10.00">+</text>
<text text-anchor="start" x="34" y="-1032" font-family="Iosevka" font-size="10.00">addDefaults()</text>
<text text-anchor="start" x="23" y="-1017" font-family="Iosevka" font-size="10.00">+</text>
<text text-anchor="start" x="34" y="-1017" font-family="Iosevka" font-size="10.00">hasKey()</text>
<text text-anchor="start" x="23" y="-1002" font-family="Iosevka" font-size="10.00">+</text>
<text text-anchor="start" x="34" y="-1002" font-family="Iosevka" font-size="10.00">getKeys()</text>
<text text-anchor="start" x="23" y="-987" font-family="Iosevka" font-size="10.00">#</text>
<text text-anchor="start" x="34" y="-987" font-family="Iosevka" font-size="10.00">parseArgs()</text>
<text text-anchor="start" x="23" y="-972" font-family="Iosevka" font-size="10.00">#</text>
<text text-anchor="start" x="34" y="-972" font-family="Iosevka" font-size="10.00">addArgs()</text>
<text text-anchor="start" x="23" y="-957" font-family="Iosevka" font-size="10.00">#</text>
<text text-anchor="start" x="34" y="-957" font-family="Iosevka" font-size="10.00">setPaths()</text>
<text text-anchor="start" x="23" y="-942" font-family="Iosevka" font-size="10.00">#</text>
<text text-anchor="start" x="34" y="-942" font-family="Iosevka" font-size="10.00">getFonts()</text>
<text text-anchor="start" x="23" y="-927" font-family="Iosevka" font-size="10.00">#</text>
<text text-anchor="start" x="34" y="-927" font-family="Iosevka" font-size="10.00">toStructure()</text>
<text text-anchor="start" x="23" y="-912" font-family="Iosevka" font-size="10.00">#</text>
<text text-anchor="start" x="34" y="-912" font-family="Iosevka" font-size="10.00">getType()</text>
<text text-anchor="start" x="23" y="-897" font-family="Iosevka" font-size="10.00">#</text>
<text text-anchor="start" x="34" y="-897" font-family="Iosevka" font-size="10.00">logOutput()</text>
<text text-anchor="start" x="23" y="-882" font-family="Iosevka" font-size="10.00">#</text>
<text text-anchor="start" x="34" y="-882" font-family="Iosevka" font-size="10.00">salutation()</text>
<polygon fill="#666666" stroke="#666666" points="19,-1492 19,-1492 150,-1492 150,-1492 19,-1492"/>
<polygon fill="#666666" stroke="#666666" points="19,-1267 19,-1267 32,-1267 32,-1267 19,-1267"/>
<polygon fill="#666666" stroke="#666666" points="32,-1267 32,-1267 150,-1267 150,-1267 32,-1267"/>
<polygon fill="none" stroke="#666666" points="18.5,-875 18.5,-1509 149.5,-1509 149.5,-875 18.5,-875"/>
</a>
</g>
</g>
<!-- Node3&#45;&gt;Node2 -->
<g id="edge2_Node000002_Node000003" class="edge">
<title>Node3&#45;&gt;Node2</title>
<g id="a_edge2_Node000002_Node000003"><a xlink:title=" ">
<path fill="none" stroke="#63b8ff" d="M71.66,-864.65C71.34,-856.1 71.02,-847.62 70.7,-839.23"/>
<polygon fill="none" stroke="#63b8ff" points="68.17,-864.85 72.04,-874.71 75.16,-864.58 68.17,-864.85"/>
</a>
</g>
</g>
<!-- Node4 -->
<g id="Node000004" class="node">
<title>Node4</title>
<g id="a_Node000004"><a xlink:title=" ">
<polygon fill="white" stroke="transparent" points="152,-1594 110,-1594 110,-1545 152,-1545 152,-1594"/>
<text text-anchor="start" x="115" y="-1581.5" font-family="Iosevka" font-size="10.00">handle</text>
<text text-anchor="start" x="129.5" y="-1566.5" font-family="Iosevka" font-size="10.00"> </text>
<text text-anchor="start" x="129.5" y="-1551.5" font-family="Iosevka" font-size="10.00"> </text>
<polygon fill="#666666" stroke="#666666" points="110,-1576.5 110,-1576.5 152,-1576.5 152,-1576.5 110,-1576.5"/>
<polygon fill="#666666" stroke="#666666" points="110,-1561.5 110,-1561.5 152,-1561.5 152,-1561.5 110,-1561.5"/>
<polygon fill="none" stroke="#666666" points="110,-1545 110,-1594 152,-1594 152,-1545 110,-1545"/>
</a>
</g>
</g>
<!-- Node4&#45;&gt;Node3 -->
<g id="edge3_Node000003_Node000004" class="edge">
<title>Node4&#45;&gt;Node3</title>
<g id="a_edge3_Node000003_Node000004"><a xlink:title=" ">
<path fill="none" stroke="#63b8ff" d="M126.78,-1534.76C125.83,-1527.19 124.75,-1518.56 123.57,-1509.1"/>
<polygon fill="none" stroke="#63b8ff" points="123.31,-1535.24 128.02,-1544.73 130.26,-1534.37 123.31,-1535.24"/>
</a>
</g>
</g>
<!-- Node5 -->
<g id="Node000005" class="node">
<title>Node5</title>
<g id="a_Node000005"><a xlink:href="classeyetracker_smooth.html" target="_top" xlink:title="Smoothes incoming eye sample data.">
<polygon fill="white" stroke="transparent" points="255.5,-689 144.5,-689 144.5,-580 255.5,-580 255.5,-689"/>
<text text-anchor="start" x="157.5" y="-676.5" font-family="Iosevka" font-size="10.00">eyetrackerSmooth</text>
<text text-anchor="start" x="149" y="-661.5" font-family="Iosevka" font-size="10.00">+</text>
<text text-anchor="start" x="160" y="-661.5" font-family="Iosevka" font-size="10.00">smoothing</text>
<text text-anchor="start" x="149" y="-646.5" font-family="Iosevka" font-size="10.00">+</text>
<text text-anchor="start" x="160" y="-646.5" font-family="Iosevka" font-size="10.00">smoothingTime</text>
<text text-anchor="start" x="149" y="-631.5" font-family="Iosevka" font-size="10.00">+</text>
<text text-anchor="start" x="160" y="-631.5" font-family="Iosevka" font-size="10.00">eyetrackerSmooth()</text>
<text text-anchor="start" x="149" y="-616.5" font-family="Iosevka" font-size="10.00">+</text>
<text text-anchor="start" x="160" y="-616.5" font-family="Iosevka" font-size="10.00">smoothingTime()</text>
<text text-anchor="start" x="149" y="-601.5" font-family="Iosevka" font-size="10.00">+</text>
<text text-anchor="start" x="160" y="-601.5" font-family="Iosevka" font-size="10.00">doSmoothing()</text>
<text text-anchor="start" x="149" y="-586.5" font-family="Iosevka" font-size="10.00">+</text>
<text text-anchor="start" x="160" y="-586.5" font-family="Iosevka" font-size="10.00">heuristicFilter()</text>
<polygon fill="#666666" stroke="#666666" points="145,-671.5 145,-671.5 256,-671.5 256,-671.5 145,-671.5"/>
<polygon fill="#666666" stroke="#666666" points="145,-641.5 145,-641.5 158,-641.5 158,-641.5 145,-641.5"/>
<polygon fill="#666666" stroke="#666666" points="158,-641.5 158,-641.5 256,-641.5 256,-641.5 158,-641.5"/>
<polygon fill="none" stroke="#666666" points="144.5,-580 144.5,-689 255.5,-689 255.5,-580 144.5,-580"/>
</a>
</g>
</g>
<!-- Node4&#45;&gt;Node5 -->
<g id="edge5_Node000005_Node000004" class="edge">
<title>Node4&#45;&gt;Node5</title>
<g id="a_edge5_Node000005_Node000004"><a xlink:title=" ">
<path fill="none" stroke="#63b8ff" d="M148.52,-1535.74C152.31,-1527.25 155.83,-1517.97 158,-1509 231.17,-1206.09 214.01,-827.4 204.33,-689.16"/>
<polygon fill="none" stroke="#63b8ff" points="145.29,-1534.39 144.19,-1544.92 151.62,-1537.38 145.29,-1534.39"/>
</a>
</g>
</g>
<!-- Node5&#45;&gt;Node1 -->
<g id="edge4_Node000001_Node000005" class="edge">
<title>Node5&#45;&gt;Node1</title>
<g id="a_edge4_Node000001_Node000005"><a xlink:title=" ">
<path fill="none" stroke="#63b8ff" d="M189.9,-569.74C182.53,-523.24 172.12,-457.54 162.1,-394.29"/>
<polygon fill="none" stroke="#63b8ff" points="186.45,-570.33 191.47,-579.66 193.36,-569.24 186.45,-570.33"/>
</a>
</g>
</g>
</g>
</svg>
