<?xml version="1.0" encoding="UTF-8" standalone="no"?>
<!DOCTYPE svg PUBLIC "-//W3C//DTD SVG 1.1//EN"
 "http://www.w3.org/Graphics/SVG/1.1/DTD/svg11.dtd">
<!-- Generated by graphviz version 2.43.0 (0)
 -->
<!-- Title: dataConnection Pages: 1 -->
<svg width="120pt" height="435pt"
 viewBox="0.00 0.00 120.00 435.00" xmlns="http://www.w3.org/2000/svg" xmlns:xlink="http://www.w3.org/1999/xlink">
<g id="graph0" class="graph" transform="scale(1 1) rotate(0) translate(4 431)">
<title>dataConnection</title>
<!-- Node1 -->
<g id="node1" class="node">
<title>Node1</title>
<g id="a_node1"><a xlink:title="dataConnection Connects and manages a socket connection">
<polygon fill="#bfbfbf" stroke="black" points="0,-0.5 0,-332.5 112,-332.5 112,-0.5 0,-0.5"/>
<text text-anchor="middle" x="56" y="-320.5" font-family="Iosevka" font-size="10.00">dataConnection</text>
<polyline fill="none" stroke="black" points="0,-313.5 112,-313.5 "/>
<text text-anchor="start" x="8" y="-301.5" font-family="Iosevka" font-size="10.00">+ type</text>
<text text-anchor="start" x="8" y="-290.5" font-family="Iosevka" font-size="10.00">+ protocol</text>
<text text-anchor="start" x="8" y="-279.5" font-family="Iosevka" font-size="10.00">+ lPort</text>
<text text-anchor="start" x="8" y="-268.5" font-family="Iosevka" font-size="10.00">+ rPort</text>
<text text-anchor="start" x="8" y="-257.5" font-family="Iosevka" font-size="10.00">+ lAddress</text>
<text text-anchor="start" x="8" y="-246.5" font-family="Iosevka" font-size="10.00">+ rAddress</text>
<text text-anchor="start" x="8" y="-235.5" font-family="Iosevka" font-size="10.00">+ autoOpen</text>
<text text-anchor="start" x="8" y="-224.5" font-family="Iosevka" font-size="10.00">+ dataOut</text>
<text text-anchor="start" x="8" y="-213.5" font-family="Iosevka" font-size="10.00">+ dataType</text>
<text text-anchor="start" x="8" y="-202.5" font-family="Iosevka" font-size="10.00">+ verbosity</text>
<text text-anchor="start" x="8" y="-191.5" font-family="Iosevka" font-size="10.00">+ autoServer</text>
<text text-anchor="start" x="8" y="-180.5" font-family="Iosevka" font-size="10.00">+ readTimeOut</text>
<text text-anchor="start" x="8" y="-169.5" font-family="Iosevka" font-size="10.00">+ writeTimeOut</text>
<text text-anchor="start" x="8" y="-158.5" font-family="Iosevka" font-size="10.00">+ readSize</text>
<text text-anchor="start" x="8" y="-147.5" font-family="Iosevka" font-size="10.00">+ cleanup</text>
<polyline fill="none" stroke="black" points="0,-140.5 112,-140.5 "/>
<text text-anchor="start" x="8" y="-128.5" font-family="Iosevka" font-size="10.00">+ dataConnection()</text>
<text text-anchor="start" x="8" y="-117.5" font-family="Iosevka" font-size="10.00">+ open()</text>
<text text-anchor="start" x="8" y="-106.5" font-family="Iosevka" font-size="10.00">+ close()</text>
<text text-anchor="start" x="8" y="-95.5" font-family="Iosevka" font-size="10.00">+ closeAll()</text>
<text text-anchor="start" x="8" y="-84.5" font-family="Iosevka" font-size="10.00">+ checkData()</text>
<text text-anchor="start" x="8" y="-73.5" font-family="Iosevka" font-size="10.00">+ flush()</text>
<text text-anchor="start" x="8" y="-62.5" font-family="Iosevka" font-size="10.00">+ readline()</text>
<text text-anchor="start" x="8" y="-51.5" font-family="Iosevka" font-size="10.00">+ readLines()</text>
<text text-anchor="start" x="8" y="-40.5" font-family="Iosevka" font-size="10.00">+ read()</text>
<text text-anchor="start" x="8" y="-29.5" font-family="Iosevka" font-size="10.00">+ write()</text>
<text text-anchor="start" x="8" y="-18.5" font-family="Iosevka" font-size="10.00">and 6 more...</text>
<text text-anchor="start" x="8" y="-7.5" font-family="Iosevka" font-size="10.00">+ loadobj()</text>
</a>
</g>
</g>
<!-- Node2 -->
<g id="node2" class="node">
<title>Node2</title>
<g id="a_node2"><a xlink:title=" ">
<polygon fill="none" stroke="#bfbfbf" points="31,-369.5 31,-426.5 81,-426.5 81,-369.5 31,-369.5"/>
<text text-anchor="middle" x="56" y="-414.5" font-family="Iosevka" font-size="10.00">handle</text>
<polyline fill="none" stroke="#bfbfbf" points="31,-407.5 81,-407.5 "/>
<text text-anchor="middle" x="56" y="-395.5" font-family="Iosevka" font-size="10.00"> </text>
<polyline fill="none" stroke="#bfbfbf" points="31,-388.5 81,-388.5 "/>
<text text-anchor="middle" x="56" y="-376.5" font-family="Iosevka" font-size="10.00"> </text>
</a>
</g>
</g>
<!-- Node2&#45;&gt;Node1 -->
<g id="edge1" class="edge">
<title>Node2&#45;&gt;Node1</title>
<path fill="none" stroke="midnightblue" d="M56,-359.08C56,-351.13 56,-342.28 56,-332.85"/>
<polygon fill="none" stroke="midnightblue" points="52.5,-359.32 56,-369.32 59.5,-359.32 52.5,-359.32"/>
</g>
</g>
</svg>
