<?xml version="1.0" encoding="UTF-8" standalone="no"?>
<!DOCTYPE svg PUBLIC "-//W3C//DTD SVG 1.1//EN"
 "http://www.w3.org/Graphics/SVG/1.1/DTD/svg11.dtd">
<!-- Generated by graphviz version 2.43.0 (0)
 -->
<!-- Title: eyeOccluder Pages: 1 -->
<svg width="150pt" height="672pt"
 viewBox="0.00 0.00 150.00 672.00" xmlns="http://www.w3.org/2000/svg" xmlns:xlink="http://www.w3.org/1999/xlink">
<g id="graph0" class="graph" transform="scale(1 1) rotate(0) translate(4 668)">
<title>eyeOccluder</title>
<!-- Node1 -->
<g id="node1" class="node">
<title>Node1</title>
<g id="a_node1"><a xlink:title=" ">
<polygon fill="#bfbfbf" stroke="black" points="14.5,-0.5 14.5,-145.5 127.5,-145.5 127.5,-0.5 14.5,-0.5"/>
<text text-anchor="middle" x="71" y="-133.5" font-family="Iosevka" font-size="10.00">eyeOccluder</text>
<polyline fill="none" stroke="black" points="14.5,-126.5 127.5,-126.5 "/>
<text text-anchor="start" x="22.5" y="-114.5" font-family="Iosevka" font-size="10.00">+ verbose</text>
<text text-anchor="start" x="22.5" y="-103.5" font-family="Iosevka" font-size="10.00">+ address</text>
<polyline fill="none" stroke="black" points="14.5,-96.5 127.5,-96.5 "/>
<text text-anchor="start" x="22.5" y="-84.5" font-family="Iosevka" font-size="10.00">+ eyeOccluder()</text>
<text text-anchor="start" x="22.5" y="-73.5" font-family="Iosevka" font-size="10.00">+ open()</text>
<text text-anchor="start" x="22.5" y="-62.5" font-family="Iosevka" font-size="10.00">+ close()</text>
<text text-anchor="start" x="22.5" y="-51.5" font-family="Iosevka" font-size="10.00">+ bothEyesOpen()</text>
<text text-anchor="start" x="22.5" y="-40.5" font-family="Iosevka" font-size="10.00">+ bothEyesClosed()</text>
<text text-anchor="start" x="22.5" y="-29.5" font-family="Iosevka" font-size="10.00">+ leftEyeClosed()</text>
<text text-anchor="start" x="22.5" y="-18.5" font-family="Iosevka" font-size="10.00">+ rightEyeClosed()</text>
<text text-anchor="start" x="22.5" y="-7.5" font-family="Iosevka" font-size="10.00">+ delete()</text>
</a>
</g>
</g>
<!-- Node2 -->
<g id="node2" class="node">
<title>Node2</title>
<g id="a_node2"><a xlink:href="classopticka_core.html" target="_top" xlink:title="optickaCore base class inherited by other opticka classes.">
<polygon fill="none" stroke="black" points="0,-182.5 0,-569.5 142,-569.5 142,-182.5 0,-182.5"/>
<text text-anchor="middle" x="71" y="-557.5" font-family="Iosevka" font-size="10.00">optickaCore</text>
<polyline fill="none" stroke="black" points="0,-550.5 142,-550.5 "/>
<text text-anchor="start" x="8" y="-538.5" font-family="Iosevka" font-size="10.00">+ name</text>
<text text-anchor="start" x="8" y="-527.5" font-family="Iosevka" font-size="10.00">+ comment</text>
<text text-anchor="start" x="8" y="-516.5" font-family="Iosevka" font-size="10.00">+ verbose</text>
<text text-anchor="start" x="8" y="-505.5" font-family="Iosevka" font-size="10.00">+ dateStamp</text>
<text text-anchor="start" x="8" y="-494.5" font-family="Iosevka" font-size="10.00">+ uuid</text>
<text text-anchor="start" x="8" y="-483.5" font-family="Iosevka" font-size="10.00">+ paths</text>
<text text-anchor="start" x="8" y="-472.5" font-family="Iosevka" font-size="10.00">+ fullName</text>
<text text-anchor="start" x="8" y="-461.5" font-family="Iosevka" font-size="10.00"># cloning</text>
<text text-anchor="start" x="8" y="-450.5" font-family="Iosevka" font-size="10.00"># mversion</text>
<text text-anchor="start" x="8" y="-439.5" font-family="Iosevka" font-size="10.00"># className</text>
<text text-anchor="start" x="8" y="-428.5" font-family="Iosevka" font-size="10.00"># savePrefix</text>
<polyline fill="none" stroke="black" points="0,-421.5 142,-421.5 "/>
<text text-anchor="start" x="8" y="-409.5" font-family="Iosevka" font-size="10.00">+ optickaCore()</text>
<text text-anchor="start" x="8" y="-398.5" font-family="Iosevka" font-size="10.00">+ fullName()</text>
<text text-anchor="start" x="8" y="-387.5" font-family="Iosevka" font-size="10.00">+ initialiseSaveFile()</text>
<text text-anchor="start" x="8" y="-376.5" font-family="Iosevka" font-size="10.00">+ findAttributes()</text>
<text text-anchor="start" x="8" y="-365.5" font-family="Iosevka" font-size="10.00">+ findAttributesandType()</text>
<text text-anchor="start" x="8" y="-354.5" font-family="Iosevka" font-size="10.00">+ findPropertyDefault()</text>
<text text-anchor="start" x="8" y="-343.5" font-family="Iosevka" font-size="10.00">+ clone()</text>
<text text-anchor="start" x="8" y="-332.5" font-family="Iosevka" font-size="10.00">+ checkSuperclasses()</text>
<text text-anchor="start" x="8" y="-321.5" font-family="Iosevka" font-size="10.00">+ editProperties()</text>
<text text-anchor="start" x="8" y="-310.5" font-family="Iosevka" font-size="10.00">+ setProp()</text>
<text text-anchor="start" x="8" y="-299.5" font-family="Iosevka" font-size="10.00">+ checkPaths()</text>
<text text-anchor="start" x="8" y="-288.5" font-family="Iosevka" font-size="10.00">+ makeArgs()</text>
<text text-anchor="start" x="8" y="-277.5" font-family="Iosevka" font-size="10.00">+ addDefaults()</text>
<text text-anchor="start" x="8" y="-266.5" font-family="Iosevka" font-size="10.00">+ hasKey()</text>
<text text-anchor="start" x="8" y="-255.5" font-family="Iosevka" font-size="10.00"># parseArgs()</text>
<text text-anchor="start" x="8" y="-244.5" font-family="Iosevka" font-size="10.00"># addArgs()</text>
<text text-anchor="start" x="8" y="-233.5" font-family="Iosevka" font-size="10.00"># setPaths()</text>
<text text-anchor="start" x="8" y="-222.5" font-family="Iosevka" font-size="10.00"># toStructure()</text>
<text text-anchor="start" x="8" y="-211.5" font-family="Iosevka" font-size="10.00"># getType()</text>
<text text-anchor="start" x="8" y="-200.5" font-family="Iosevka" font-size="10.00"># salutation()</text>
<text text-anchor="start" x="8" y="-189.5" font-family="Iosevka" font-size="10.00"># LogOutput()</text>
</a>
</g>
</g>
<!-- Node2&#45;&gt;Node1 -->
<g id="edge1" class="edge">
<title>Node2&#45;&gt;Node1</title>
<path fill="none" stroke="midnightblue" d="M71,-172.18C71,-163.02 71,-154.14 71,-145.73"/>
<polygon fill="none" stroke="midnightblue" points="67.5,-172.24 71,-182.24 74.5,-172.24 67.5,-172.24"/>
</g>
<!-- Node3 -->
<g id="node3" class="node">
<title>Node3</title>
<g id="a_node3"><a xlink:title=" ">
<polygon fill="none" stroke="#bfbfbf" points="46,-606.5 46,-663.5 96,-663.5 96,-606.5 46,-606.5"/>
<text text-anchor="middle" x="71" y="-651.5" font-family="Iosevka" font-size="10.00">handle</text>
<polyline fill="none" stroke="#bfbfbf" points="46,-644.5 96,-644.5 "/>
<text text-anchor="middle" x="71" y="-632.5" font-family="Iosevka" font-size="10.00"> </text>
<polyline fill="none" stroke="#bfbfbf" points="46,-625.5 96,-625.5 "/>
<text text-anchor="middle" x="71" y="-613.5" font-family="Iosevka" font-size="10.00"> </text>
</a>
</g>
</g>
<!-- Node3&#45;&gt;Node2 -->
<g id="edge2" class="edge">
<title>Node3&#45;&gt;Node2</title>
<path fill="none" stroke="midnightblue" d="M71,-596.46C71,-588.38 71,-579.31 71,-569.58"/>
<polygon fill="none" stroke="midnightblue" points="67.5,-596.5 71,-606.5 74.5,-596.5 67.5,-596.5"/>
</g>
</g>
</svg>
