<?xml version="1.0" encoding="UTF-8" standalone="no"?>
<!DOCTYPE svg PUBLIC "-//W3C//DTD SVG 1.1//EN"
 "http://www.w3.org/Graphics/SVG/1.1/DTD/svg11.dtd">
<!-- Generated by graphviz version 2.50.0 (20211204.2007)
 -->
<!-- Title: ioManager Pages: 1 -->
<svg width="175pt" height="716pt"
 viewBox="0.00 0.00 175.00 716.00" xmlns="http://www.w3.org/2000/svg" xmlns:xlink="http://www.w3.org/1999/xlink">
<g id="graph0" class="graph" transform="scale(1 1) rotate(0) translate(4 712)">
<title>ioManager</title>
<!-- Node1 -->
<g id="node1" class="node">
<title>Node1</title>
<g id="a_node1"><a xlink:title="Input Output manager, currently just a dummy class.">
<polygon fill="#bfbfbf" stroke="black" points="21,-0.5 21,-222.5 146,-222.5 146,-0.5 21,-0.5"/>
<text text-anchor="middle" x="83.5" y="-210.5" font-family="Iosevka" font-size="10.00">ioManager</text>
<polyline fill="none" stroke="black" points="21,-203.5 146,-203.5 "/>
<text text-anchor="start" x="29" y="-191.5" font-family="Iosevka" font-size="10.00">+ verbose</text>
<text text-anchor="start" x="29" y="-180.5" font-family="Iosevka" font-size="10.00">+ io</text>
<text text-anchor="start" x="29" y="-169.5" font-family="Iosevka" font-size="10.00">+ silentMode</text>
<text text-anchor="start" x="29" y="-158.5" font-family="Iosevka" font-size="10.00">+ isOpen</text>
<text text-anchor="start" x="29" y="-147.5" font-family="Iosevka" font-size="10.00">+ sendValue</text>
<text text-anchor="start" x="29" y="-136.5" font-family="Iosevka" font-size="10.00">+ lastValue</text>
<polyline fill="none" stroke="black" points="21,-129.5 146,-129.5 "/>
<text text-anchor="start" x="29" y="-117.5" font-family="Iosevka" font-size="10.00">+ ioManager()</text>
<text text-anchor="start" x="29" y="-106.5" font-family="Iosevka" font-size="10.00">+ open()</text>
<text text-anchor="start" x="29" y="-95.5" font-family="Iosevka" font-size="10.00">+ close()</text>
<text text-anchor="start" x="29" y="-84.5" font-family="Iosevka" font-size="10.00">+ resetStrobe()</text>
<text text-anchor="start" x="29" y="-73.5" font-family="Iosevka" font-size="10.00">+ triggerStrobe()</text>
<text text-anchor="start" x="29" y="-62.5" font-family="Iosevka" font-size="10.00">+ prepareStrobe()</text>
<text text-anchor="start" x="29" y="-51.5" font-family="Iosevka" font-size="10.00">+ sendStrobe()</text>
<text text-anchor="start" x="29" y="-40.5" font-family="Iosevka" font-size="10.00">+ strobeServer()</text>
<text text-anchor="start" x="29" y="-29.5" font-family="Iosevka" font-size="10.00">+ sendTTL()</text>
<text text-anchor="start" x="29" y="-18.5" font-family="Iosevka" font-size="10.00">+ startRecording()</text>
<text text-anchor="start" x="29" y="-7.5" font-family="Iosevka" font-size="10.00">and 12 more...</text>
</a>
</g>
</g>
<!-- Node2 -->
<g id="node2" class="node">
<title>Node2</title>
<g id="a_node2"><a xlink:href="$classopticka_core.html" xlink:title="optickaCore base class inherited by many other opticka classes.">
<polygon fill="none" stroke="black" points="0,-259.5 0,-613.5 167,-613.5 167,-259.5 0,-259.5"/>
<text text-anchor="middle" x="83.5" y="-601.5" font-family="Iosevka" font-size="10.00">optickaCore</text>
<polyline fill="none" stroke="black" points="0,-594.5 167,-594.5 "/>
<text text-anchor="start" x="8" y="-582.5" font-family="Iosevka" font-size="10.00">+ name</text>
<text text-anchor="start" x="8" y="-571.5" font-family="Iosevka" font-size="10.00">+ comment</text>
<text text-anchor="start" x="8" y="-560.5" font-family="Iosevka" font-size="10.00">+ verbose</text>
<text text-anchor="start" x="8" y="-549.5" font-family="Iosevka" font-size="10.00">+ dateStamp</text>
<text text-anchor="start" x="8" y="-538.5" font-family="Iosevka" font-size="10.00">+ uuid</text>
<text text-anchor="start" x="8" y="-527.5" font-family="Iosevka" font-size="10.00">+ paths</text>
<text text-anchor="start" x="8" y="-516.5" font-family="Iosevka" font-size="10.00">+ fullName</text>
<text text-anchor="start" x="8" y="-505.5" font-family="Iosevka" font-size="10.00"># cloning</text>
<text text-anchor="start" x="8" y="-494.5" font-family="Iosevka" font-size="10.00"># mversion</text>
<text text-anchor="start" x="8" y="-483.5" font-family="Iosevka" font-size="10.00"># className</text>
<text text-anchor="start" x="8" y="-472.5" font-family="Iosevka" font-size="10.00"># savePrefix</text>
<polyline fill="none" stroke="black" points="0,-465.5 167,-465.5 "/>
<text text-anchor="start" x="8" y="-453.5" font-family="Iosevka" font-size="10.00">+ optickaCore()</text>
<text text-anchor="start" x="8" y="-442.5" font-family="Iosevka" font-size="10.00">+ fullName()</text>
<text text-anchor="start" x="8" y="-431.5" font-family="Iosevka" font-size="10.00">+ initialiseSaveFile()</text>
<text text-anchor="start" x="8" y="-420.5" font-family="Iosevka" font-size="10.00">+ findAttributes()</text>
<text text-anchor="start" x="8" y="-409.5" font-family="Iosevka" font-size="10.00">+ findAttributesandType()</text>
<text text-anchor="start" x="8" y="-398.5" font-family="Iosevka" font-size="10.00">+ clone()</text>
<text text-anchor="start" x="8" y="-387.5" font-family="Iosevka" font-size="10.00">+ checkSuperclasses()</text>
<text text-anchor="start" x="8" y="-376.5" font-family="Iosevka" font-size="10.00">+ editProperties()</text>
<text text-anchor="start" x="8" y="-365.5" font-family="Iosevka" font-size="10.00">+ set()</text>
<text text-anchor="start" x="8" y="-354.5" font-family="Iosevka" font-size="10.00">+ checkPaths()</text>
<text text-anchor="start" x="8" y="-343.5" font-family="Iosevka" font-size="10.00">+ makeArgs()</text>
<text text-anchor="start" x="8" y="-332.5" font-family="Iosevka" font-size="10.00">+ addDefaults()</text>
<text text-anchor="start" x="8" y="-321.5" font-family="Iosevka" font-size="10.00"># parseArgs()</text>
<text text-anchor="start" x="8" y="-310.5" font-family="Iosevka" font-size="10.00"># addArgs()</text>
<text text-anchor="start" x="8" y="-299.5" font-family="Iosevka" font-size="10.00"># setPaths()</text>
<text text-anchor="start" x="8" y="-288.5" font-family="Iosevka" font-size="10.00"># toStructure()</text>
<text text-anchor="start" x="8" y="-277.5" font-family="Iosevka" font-size="10.00"># getType()</text>
<text text-anchor="start" x="8" y="-266.5" font-family="Iosevka" font-size="10.00"># salutation()</text>
</a>
</g>
</g>
<!-- Node2&#45;&gt;Node1 -->
<g id="edge1" class="edge">
<title>Node2&#45;&gt;Node1</title>
<path fill="none" stroke="midnightblue" d="M83.5,-249.21C83.5,-240.26 83.5,-231.42 83.5,-222.79"/>
<polygon fill="none" stroke="midnightblue" points="80,-249.35 83.5,-259.35 87,-249.35 80,-249.35"/>
</g>
<!-- Node3 -->
<g id="node3" class="node">
<title>Node3</title>
<g id="a_node3"><a xlink:title=" ">
<polygon fill="none" stroke="black" points="57,-650.5 57,-707.5 110,-707.5 110,-650.5 57,-650.5"/>
<text text-anchor="middle" x="83.5" y="-695.5" font-family="Iosevka" font-size="10.00">handle</text>
<polyline fill="none" stroke="black" points="57,-688.5 110,-688.5 "/>
<text text-anchor="middle" x="83.5" y="-676.5" font-family="Iosevka" font-size="10.00"> </text>
<polyline fill="none" stroke="black" points="57,-669.5 110,-669.5 "/>
<text text-anchor="middle" x="83.5" y="-657.5" font-family="Iosevka" font-size="10.00"> </text>
</a>
</g>
</g>
<!-- Node3&#45;&gt;Node2 -->
<g id="edge2" class="edge">
<title>Node3&#45;&gt;Node2</title>
<path fill="none" stroke="midnightblue" d="M83.5,-640.18C83.5,-632.22 83.5,-623.35 83.5,-613.87"/>
<polygon fill="none" stroke="midnightblue" points="80,-640.41 83.5,-650.41 87,-640.41 80,-640.41"/>
</g>
</g>
</svg>
