<?xml version="1.0" encoding="UTF-8" standalone="no"?>
<!DOCTYPE svg PUBLIC "-//W3C//DTD SVG 1.1//EN"
 "http://www.w3.org/Graphics/SVG/1.1/DTD/svg11.dtd">
<!-- Generated by graphviz version 2.43.0 (0)
 -->
<!-- Title: taskSequence Pages: 1 -->
<svg width="260pt" height="742pt"
 viewBox="0.00 0.00 260.00 742.00" xmlns="http://www.w3.org/2000/svg" xmlns:xlink="http://www.w3.org/1999/xlink">
<g id="graph0" class="graph" transform="scale(1 1) rotate(0) translate(4 738)">
<title>taskSequence</title>
<!-- Node1 -->
<g id="node1" class="node">
<title>Node1</title>
<g id="a_node1"><a xlink:title="Block&#45;based variable randomisation manager.">
<polygon fill="#999999" stroke="#666666" points="201,-283 75,-283 75,0 201,0 201,-283"/>
<text text-anchor="middle" x="138" y="-271" font-family="Iosevka" font-size="10.00">{taskSequence</text>
<text text-anchor="start" x="83" y="-260" font-family="Iosevka" font-size="10.00">|+ nVar</text>
<text text-anchor="start" x="83" y="-249" font-family="Iosevka" font-size="10.00">+ blockVar</text>
<text text-anchor="start" x="83" y="-238" font-family="Iosevka" font-size="10.00">+ trialVar</text>
<text text-anchor="start" x="83" y="-227" font-family="Iosevka" font-size="10.00">+ nBlocks</text>
<text text-anchor="start" x="83" y="-216" font-family="Iosevka" font-size="10.00">+ randomise</text>
<text text-anchor="start" x="83" y="-205" font-family="Iosevka" font-size="10.00">+ addBlank</text>
<text text-anchor="start" x="83" y="-194" font-family="Iosevka" font-size="10.00">+ realTime</text>
<text text-anchor="start" x="83" y="-183" font-family="Iosevka" font-size="10.00">+ randomSeed</text>
<text text-anchor="start" x="83" y="-172" font-family="Iosevka" font-size="10.00">+ randomGenerator</text>
<text text-anchor="start" x="83" y="-161" font-family="Iosevka" font-size="10.00">+ verbose</text>
<text text-anchor="start" x="83" y="-150" font-family="Iosevka" font-size="10.00">and 6 more...</text>
<text text-anchor="start" x="83" y="-139" font-family="Iosevka" font-size="10.00">|+ taskSequence()</text>
<text text-anchor="start" x="83" y="-128" font-family="Iosevka" font-size="10.00">+ initialiseGenerator()</text>
<text text-anchor="start" x="83" y="-117" font-family="Iosevka" font-size="10.00">+ resetRandom()</text>
<text text-anchor="start" x="83" y="-106" font-family="Iosevka" font-size="10.00">+ randomiseTask()</text>
<text text-anchor="start" x="83" y="-95" font-family="Iosevka" font-size="10.00">+ initialise()</text>
<text text-anchor="start" x="83" y="-84" font-family="Iosevka" font-size="10.00">+ backup()</text>
<text text-anchor="start" x="83" y="-73" font-family="Iosevka" font-size="10.00">+ updateTask()</text>
<text text-anchor="start" x="83" y="-62" font-family="Iosevka" font-size="10.00">+ findRun()</text>
<text text-anchor="start" x="83" y="-51" font-family="Iosevka" font-size="10.00">+ rewindTask()</text>
<text text-anchor="start" x="83" y="-40" font-family="Iosevka" font-size="10.00">+ resetRun()</text>
<text text-anchor="start" x="83" y="-29" font-family="Iosevka" font-size="10.00">and 10 more...</text>
<text text-anchor="start" x="83" y="-18" font-family="Iosevka" font-size="10.00">+ cellStruct()</text>
<text text-anchor="middle" x="138" y="-7" font-family="Iosevka" font-size="10.00">}</text>
</a>
</g>
</g>
<!-- Node2 -->
<g id="node2" class="node">
<title>Node2</title>
<g id="a_node2"><a xlink:href="classopticka_core.html" target="_top" xlink:title="optickaCore base class inherited by many other opticka classes.">
<polygon fill="white" stroke="#666666" points="142,-668 0,-668 0,-319 142,-319 142,-668"/>
<text text-anchor="middle" x="71" y="-656" font-family="Iosevka" font-size="10.00">{optickaCore</text>
<text text-anchor="start" x="8" y="-645" font-family="Iosevka" font-size="10.00">|+ name</text>
<text text-anchor="start" x="8" y="-634" font-family="Iosevka" font-size="10.00">+ comment</text>
<text text-anchor="start" x="8" y="-623" font-family="Iosevka" font-size="10.00">+ verbose</text>
<text text-anchor="start" x="8" y="-612" font-family="Iosevka" font-size="10.00">+ dateStamp</text>
<text text-anchor="start" x="8" y="-601" font-family="Iosevka" font-size="10.00">+ uuid</text>
<text text-anchor="start" x="8" y="-590" font-family="Iosevka" font-size="10.00">+ paths</text>
<text text-anchor="start" x="8" y="-579" font-family="Iosevka" font-size="10.00">+ fullName</text>
<text text-anchor="start" x="8" y="-568" font-family="Iosevka" font-size="10.00"># cloning</text>
<text text-anchor="start" x="8" y="-557" font-family="Iosevka" font-size="10.00"># mversion</text>
<text text-anchor="start" x="8" y="-546" font-family="Iosevka" font-size="10.00"># className</text>
<text text-anchor="start" x="8" y="-535" font-family="Iosevka" font-size="10.00"># savePrefix</text>
<text text-anchor="start" x="8" y="-524" font-family="Iosevka" font-size="10.00">|+ optickaCore()</text>
<text text-anchor="start" x="8" y="-513" font-family="Iosevka" font-size="10.00">+ fullName()</text>
<text text-anchor="start" x="8" y="-502" font-family="Iosevka" font-size="10.00">+ initialiseSaveFile()</text>
<text text-anchor="start" x="8" y="-491" font-family="Iosevka" font-size="10.00">+ findAttributes()</text>
<text text-anchor="start" x="8" y="-480" font-family="Iosevka" font-size="10.00">+ findAttributesandType()</text>
<text text-anchor="start" x="8" y="-469" font-family="Iosevka" font-size="10.00">+ clone()</text>
<text text-anchor="start" x="8" y="-458" font-family="Iosevka" font-size="10.00">+ checkSuperclasses()</text>
<text text-anchor="start" x="8" y="-447" font-family="Iosevka" font-size="10.00">+ editProperties()</text>
<text text-anchor="start" x="8" y="-436" font-family="Iosevka" font-size="10.00">+ setProp()</text>
<text text-anchor="start" x="8" y="-425" font-family="Iosevka" font-size="10.00">+ checkPaths()</text>
<text text-anchor="start" x="8" y="-414" font-family="Iosevka" font-size="10.00">+ makeArgs()</text>
<text text-anchor="start" x="8" y="-403" font-family="Iosevka" font-size="10.00">+ addDefaults()</text>
<text text-anchor="start" x="8" y="-392" font-family="Iosevka" font-size="10.00"># parseArgs()</text>
<text text-anchor="start" x="8" y="-381" font-family="Iosevka" font-size="10.00"># addArgs()</text>
<text text-anchor="start" x="8" y="-370" font-family="Iosevka" font-size="10.00"># setPaths()</text>
<text text-anchor="start" x="8" y="-359" font-family="Iosevka" font-size="10.00"># toStructure()</text>
<text text-anchor="start" x="8" y="-348" font-family="Iosevka" font-size="10.00"># getType()</text>
<text text-anchor="start" x="8" y="-337" font-family="Iosevka" font-size="10.00"># salutation()</text>
<text text-anchor="middle" x="71" y="-326" font-family="Iosevka" font-size="10.00">}</text>
</a>
</g>
</g>
<!-- Node2&#45;&gt;Node1 -->
<g id="edge1" class="edge">
<title>Node2&#45;&gt;Node1</title>
<path fill="none" stroke="#63b8ff" d="M106.18,-308.71C107.82,-300.15 109.46,-291.6 111.07,-283.17"/>
<polygon fill="none" stroke="#63b8ff" points="102.7,-308.3 104.25,-318.78 109.57,-309.62 102.7,-308.3"/>
</g>
<!-- Node3 -->
<g id="node3" class="node">
<title>Node3</title>
<g id="a_node3"><a xlink:title=" ">
<polygon fill="white" stroke="#666666" points="99,-734 43,-734 43,-704 99,-704 99,-734"/>
<text text-anchor="middle" x="71" y="-722" font-family="Iosevka" font-size="10.00">{handle</text>
<text text-anchor="middle" x="71" y="-711" font-family="Iosevka" font-size="10.00">||}</text>
</a>
</g>
</g>
<!-- Node3&#45;&gt;Node2 -->
<g id="edge2" class="edge">
<title>Node3&#45;&gt;Node2</title>
<path fill="none" stroke="#63b8ff" d="M71,-693.46C71,-686.25 71,-677.76 71,-668.42"/>
<polygon fill="none" stroke="#63b8ff" points="67.5,-693.68 71,-703.68 74.5,-693.68 67.5,-693.68"/>
</g>
<!-- Node4 -->
<g id="node4" class="node">
<title>Node4</title>
<g id="a_node4"><a xlink:title=" ">
<polygon fill="white" stroke="#666666" points="252,-508.5 160,-508.5 160,-478.5 252,-478.5 252,-508.5"/>
<text text-anchor="middle" x="206" y="-496.5" font-family="Iosevka" font-size="10.00">{dynamicprops</text>
<text text-anchor="middle" x="206" y="-485.5" font-family="Iosevka" font-size="10.00">||}</text>
</a>
</g>
</g>
<!-- Node4&#45;&gt;Node1 -->
<g id="edge3" class="edge">
<title>Node4&#45;&gt;Node1</title>
<path fill="none" stroke="#63b8ff" d="M201.28,-468.19C193.84,-429.92 178.86,-352.8 165.34,-283.21"/>
<polygon fill="none" stroke="#63b8ff" points="197.91,-469.2 203.25,-478.35 204.78,-467.86 197.91,-469.2"/>
</g>
</g>
</svg>
