<?xml version="1.0" encoding="UTF-8" standalone="no"?>
<!DOCTYPE svg PUBLIC "-//W3C//DTD SVG 1.1//EN"
 "http://www.w3.org/Graphics/SVG/1.1/DTD/svg11.dtd">
<!-- Generated by graphviz version 2.43.0 (0)
 -->
<!-- Title: magstimManager Pages: 1 -->
<svg width="150pt" height="705pt"
 viewBox="0.00 0.00 150.00 705.00" xmlns="http://www.w3.org/2000/svg" xmlns:xlink="http://www.w3.org/1999/xlink">
<g id="graph0" class="graph" transform="scale(1 1) rotate(0) translate(4 701)">
<title>magstimManager</title>
<!-- Node1 -->
<g id="node1" class="node">
<title>Node1</title>
<g id="a_node1"><a xlink:title="magstimManager &#45; controls a MagStim Rapid TMS system using a LabJack">
<polygon fill="#bfbfbf" stroke="black" points="10,-0.5 10,-178.5 132,-178.5 132,-0.5 10,-0.5"/>
<text text-anchor="middle" x="71" y="-166.5" font-family="Iosevka" font-size="10.00">magstimManager</text>
<polyline fill="none" stroke="black" points="10,-159.5 132,-159.5 "/>
<text text-anchor="start" x="18" y="-147.5" font-family="Iosevka" font-size="10.00">+ defaultTTL</text>
<text text-anchor="start" x="18" y="-136.5" font-family="Iosevka" font-size="10.00">+ silentMode</text>
<text text-anchor="start" x="18" y="-125.5" font-family="Iosevka" font-size="10.00">+ lJ</text>
<text text-anchor="start" x="18" y="-114.5" font-family="Iosevka" font-size="10.00">+ stimulateTime</text>
<text text-anchor="start" x="18" y="-103.5" font-family="Iosevka" font-size="10.00">+ frequency</text>
<text text-anchor="start" x="18" y="-92.5" font-family="Iosevka" font-size="10.00">+ rewardTime</text>
<text text-anchor="start" x="18" y="-81.5" font-family="Iosevka" font-size="10.00">+ verbose</text>
<text text-anchor="start" x="18" y="-70.5" font-family="Iosevka" font-size="10.00">+ isOpen</text>
<polyline fill="none" stroke="black" points="10,-63.5 132,-63.5 "/>
<text text-anchor="start" x="18" y="-51.5" font-family="Iosevka" font-size="10.00">+ magstimManager()</text>
<text text-anchor="start" x="18" y="-40.5" font-family="Iosevka" font-size="10.00">+ open()</text>
<text text-anchor="start" x="18" y="-29.5" font-family="Iosevka" font-size="10.00">+ close()</text>
<text text-anchor="start" x="18" y="-18.5" font-family="Iosevka" font-size="10.00">+ delete()</text>
<text text-anchor="start" x="18" y="-7.5" font-family="Iosevka" font-size="10.00">+ stimulate()</text>
</a>
</g>
</g>
<!-- Node2 -->
<g id="node2" class="node">
<title>Node2</title>
<g id="a_node2"><a xlink:href="classopticka_core.html" target="_top" xlink:title="optickaCore base class inherited by other opticka classes.">
<polygon fill="none" stroke="black" points="0,-215.5 0,-602.5 142,-602.5 142,-215.5 0,-215.5"/>
<text text-anchor="middle" x="71" y="-590.5" font-family="Iosevka" font-size="10.00">optickaCore</text>
<polyline fill="none" stroke="black" points="0,-583.5 142,-583.5 "/>
<text text-anchor="start" x="8" y="-571.5" font-family="Iosevka" font-size="10.00">+ name</text>
<text text-anchor="start" x="8" y="-560.5" font-family="Iosevka" font-size="10.00">+ comment</text>
<text text-anchor="start" x="8" y="-549.5" font-family="Iosevka" font-size="10.00">+ verbose</text>
<text text-anchor="start" x="8" y="-538.5" font-family="Iosevka" font-size="10.00">+ dateStamp</text>
<text text-anchor="start" x="8" y="-527.5" font-family="Iosevka" font-size="10.00">+ uuid</text>
<text text-anchor="start" x="8" y="-516.5" font-family="Iosevka" font-size="10.00">+ paths</text>
<text text-anchor="start" x="8" y="-505.5" font-family="Iosevka" font-size="10.00">+ fullName</text>
<text text-anchor="start" x="8" y="-494.5" font-family="Iosevka" font-size="10.00"># cloning</text>
<text text-anchor="start" x="8" y="-483.5" font-family="Iosevka" font-size="10.00"># mversion</text>
<text text-anchor="start" x="8" y="-472.5" font-family="Iosevka" font-size="10.00"># className</text>
<text text-anchor="start" x="8" y="-461.5" font-family="Iosevka" font-size="10.00"># savePrefix</text>
<polyline fill="none" stroke="black" points="0,-454.5 142,-454.5 "/>
<text text-anchor="start" x="8" y="-442.5" font-family="Iosevka" font-size="10.00">+ optickaCore()</text>
<text text-anchor="start" x="8" y="-431.5" font-family="Iosevka" font-size="10.00">+ fullName()</text>
<text text-anchor="start" x="8" y="-420.5" font-family="Iosevka" font-size="10.00">+ initialiseSaveFile()</text>
<text text-anchor="start" x="8" y="-409.5" font-family="Iosevka" font-size="10.00">+ findAttributes()</text>
<text text-anchor="start" x="8" y="-398.5" font-family="Iosevka" font-size="10.00">+ findAttributesandType()</text>
<text text-anchor="start" x="8" y="-387.5" font-family="Iosevka" font-size="10.00">+ findPropertyDefault()</text>
<text text-anchor="start" x="8" y="-376.5" font-family="Iosevka" font-size="10.00">+ clone()</text>
<text text-anchor="start" x="8" y="-365.5" font-family="Iosevka" font-size="10.00">+ checkSuperclasses()</text>
<text text-anchor="start" x="8" y="-354.5" font-family="Iosevka" font-size="10.00">+ editProperties()</text>
<text text-anchor="start" x="8" y="-343.5" font-family="Iosevka" font-size="10.00">+ setProp()</text>
<text text-anchor="start" x="8" y="-332.5" font-family="Iosevka" font-size="10.00">+ checkPaths()</text>
<text text-anchor="start" x="8" y="-321.5" font-family="Iosevka" font-size="10.00">+ makeArgs()</text>
<text text-anchor="start" x="8" y="-310.5" font-family="Iosevka" font-size="10.00">+ addDefaults()</text>
<text text-anchor="start" x="8" y="-299.5" font-family="Iosevka" font-size="10.00">+ hasKey()</text>
<text text-anchor="start" x="8" y="-288.5" font-family="Iosevka" font-size="10.00"># parseArgs()</text>
<text text-anchor="start" x="8" y="-277.5" font-family="Iosevka" font-size="10.00"># addArgs()</text>
<text text-anchor="start" x="8" y="-266.5" font-family="Iosevka" font-size="10.00"># setPaths()</text>
<text text-anchor="start" x="8" y="-255.5" font-family="Iosevka" font-size="10.00"># toStructure()</text>
<text text-anchor="start" x="8" y="-244.5" font-family="Iosevka" font-size="10.00"># getType()</text>
<text text-anchor="start" x="8" y="-233.5" font-family="Iosevka" font-size="10.00"># salutation()</text>
<text text-anchor="start" x="8" y="-222.5" font-family="Iosevka" font-size="10.00"># LogOutput()</text>
</a>
</g>
</g>
<!-- Node2&#45;&gt;Node1 -->
<g id="edge1" class="edge">
<title>Node2&#45;&gt;Node1</title>
<path fill="none" stroke="midnightblue" d="M71,-204.82C71,-195.8 71,-187 71,-178.53"/>
<polygon fill="none" stroke="midnightblue" points="67.5,-205.07 71,-215.07 74.5,-205.07 67.5,-205.07"/>
</g>
<!-- Node3 -->
<g id="node3" class="node">
<title>Node3</title>
<g id="a_node3"><a xlink:title=" ">
<polygon fill="none" stroke="#bfbfbf" points="46,-639.5 46,-696.5 96,-696.5 96,-639.5 46,-639.5"/>
<text text-anchor="middle" x="71" y="-684.5" font-family="Iosevka" font-size="10.00">handle</text>
<polyline fill="none" stroke="#bfbfbf" points="46,-677.5 96,-677.5 "/>
<text text-anchor="middle" x="71" y="-665.5" font-family="Iosevka" font-size="10.00"> </text>
<polyline fill="none" stroke="#bfbfbf" points="46,-658.5 96,-658.5 "/>
<text text-anchor="middle" x="71" y="-646.5" font-family="Iosevka" font-size="10.00"> </text>
</a>
</g>
</g>
<!-- Node3&#45;&gt;Node2 -->
<g id="edge2" class="edge">
<title>Node3&#45;&gt;Node2</title>
<path fill="none" stroke="midnightblue" d="M71,-629.46C71,-621.38 71,-612.31 71,-602.58"/>
<polygon fill="none" stroke="midnightblue" points="67.5,-629.5 71,-639.5 74.5,-629.5 67.5,-629.5"/>
</g>
</g>
</svg>
