<?xml version="1.0" encoding="UTF-8" standalone="no"?>
<!DOCTYPE svg PUBLIC "-//W3C//DTD SVG 1.1//EN"
 "http://www.w3.org/Graphics/SVG/1.1/DTD/svg11.dtd">
<!-- Generated by graphviz version 2.43.0 (0)
 -->
<!-- Title: alyxManager Pages: 1 -->
<svg width="139pt" height="1397pt"
 viewBox="0.00 0.00 139.00 1397.00" xmlns="http://www.w3.org/2000/svg" xmlns:xlink="http://www.w3.org/1999/xlink">
<g id="graph0" class="graph" transform="scale(1 1) rotate(0) translate(4 1393)">
<title>alyxManager</title>
<!-- Node1 -->
<g id="Node000001" class="node">
<title>Node1</title>
<g id="a_Node000001"><a xlink:title=" ">
<polygon fill="#999999" stroke="transparent" points="121,-634 10,-634 10,0 121,0 121,-634"/>
<text text-anchor="start" x="35.5" y="-622" font-family="Iosevka" font-size="10.00">alyxManager</text>
<text text-anchor="start" x="14.5" y="-607" font-family="Iosevka" font-size="10.00">+</text>
<text text-anchor="start" x="25.5" y="-607" font-family="Iosevka" font-size="10.00">baseURL</text>
<text text-anchor="start" x="14.5" y="-592" font-family="Iosevka" font-size="10.00">+</text>
<text text-anchor="start" x="25.5" y="-592" font-family="Iosevka" font-size="10.00">user</text>
<text text-anchor="start" x="14.5" y="-577" font-family="Iosevka" font-size="10.00">+</text>
<text text-anchor="start" x="25.5" y="-577" font-family="Iosevka" font-size="10.00">lab</text>
<text text-anchor="start" x="14.5" y="-562" font-family="Iosevka" font-size="10.00">+</text>
<text text-anchor="start" x="25.5" y="-562" font-family="Iosevka" font-size="10.00">subject</text>
<text text-anchor="start" x="14.5" y="-547" font-family="Iosevka" font-size="10.00">+</text>
<text text-anchor="start" x="25.5" y="-547" font-family="Iosevka" font-size="10.00">queueDir</text>
<text text-anchor="start" x="14.5" y="-532" font-family="Iosevka" font-size="10.00">+</text>
<text text-anchor="start" x="25.5" y="-532" font-family="Iosevka" font-size="10.00">sessionURL</text>
<text text-anchor="start" x="14.5" y="-517" font-family="Iosevka" font-size="10.00">+</text>
<text text-anchor="start" x="25.5" y="-517" font-family="Iosevka" font-size="10.00">sessionParentURL</text>
<text text-anchor="start" x="14.5" y="-502" font-family="Iosevka" font-size="10.00">+</text>
<text text-anchor="start" x="25.5" y="-502" font-family="Iosevka" font-size="10.00">pageLimit</text>
<text text-anchor="start" x="14.5" y="-487" font-family="Iosevka" font-size="10.00">+</text>
<text text-anchor="start" x="25.5" y="-487" font-family="Iosevka" font-size="10.00">verbose</text>
<text text-anchor="start" x="14.5" y="-472" font-family="Iosevka" font-size="10.00">+</text>
<text text-anchor="start" x="25.5" y="-472" font-family="Iosevka" font-size="10.00">webOptions</text>
<text text-anchor="start" x="14.5" y="-457" font-family="Iosevka" font-size="10.00">+</text>
<text text-anchor="start" x="25.5" y="-457" font-family="Iosevka" font-size="10.00">loggedIn</text>
<text text-anchor="start" x="14.5" y="-442" font-family="Iosevka" font-size="10.00">#</text>
<text text-anchor="start" x="25.5" y="-442" font-family="Iosevka" font-size="10.00">token</text>
<text text-anchor="start" x="14.5" y="-427" font-family="Iosevka" font-size="10.00">#</text>
<text text-anchor="start" x="25.5" y="-427" font-family="Iosevka" font-size="10.00">cache</text>
<text text-anchor="start" x="14.5" y="-412" font-family="Iosevka" font-size="10.00">+</text>
<text text-anchor="start" x="25.5" y="-412" font-family="Iosevka" font-size="10.00">alyxManager()</text>
<text text-anchor="start" x="14.5" y="-397" font-family="Iosevka" font-size="10.00">+</text>
<text text-anchor="start" x="25.5" y="-397" font-family="Iosevka" font-size="10.00">hasSecrets()</text>
<text text-anchor="start" x="14.5" y="-382" font-family="Iosevka" font-size="10.00">+</text>
<text text-anchor="start" x="25.5" y="-382" font-family="Iosevka" font-size="10.00">setSecrets()</text>
<text text-anchor="start" x="14.5" y="-367" font-family="Iosevka" font-size="10.00">+</text>
<text text-anchor="start" x="25.5" y="-367" font-family="Iosevka" font-size="10.00">logout()</text>
<text text-anchor="start" x="14.5" y="-352" font-family="Iosevka" font-size="10.00">+</text>
<text text-anchor="start" x="25.5" y="-352" font-family="Iosevka" font-size="10.00">login()</text>
<text text-anchor="start" x="14.5" y="-337" font-family="Iosevka" font-size="10.00">+</text>
<text text-anchor="start" x="25.5" y="-337" font-family="Iosevka" font-size="10.00">hasEntry()</text>
<text text-anchor="start" x="14.5" y="-322" font-family="Iosevka" font-size="10.00">+</text>
<text text-anchor="start" x="25.5" y="-322" font-family="Iosevka" font-size="10.00">getData()</text>
<text text-anchor="start" x="14.5" y="-307" font-family="Iosevka" font-size="10.00">+</text>
<text text-anchor="start" x="25.5" y="-307" font-family="Iosevka" font-size="10.00">postData()</text>
<text text-anchor="start" x="14.5" y="-292" font-family="Iosevka" font-size="10.00">+</text>
<text text-anchor="start" x="25.5" y="-292" font-family="Iosevka" font-size="10.00">getSessions()</text>
<text text-anchor="start" x="14.5" y="-277" font-family="Iosevka" font-size="10.00">+</text>
<text text-anchor="start" x="25.5" y="-277" font-family="Iosevka" font-size="10.00">processValue()</text>
<text text-anchor="start" x="25.5" y="-262" font-family="Iosevka" font-size="10.00">and 16 more...</text>
<text text-anchor="start" x="14.5" y="-247" font-family="Iosevka" font-size="10.00">+</text>
<text text-anchor="start" x="25.5" y="-247" font-family="Iosevka" font-size="10.00">ensureCell()</text>
<text text-anchor="start" x="14.5" y="-232" font-family="Iosevka" font-size="10.00">+</text>
<text text-anchor="start" x="25.5" y="-232" font-family="Iosevka" font-size="10.00">cellflat()</text>
<text text-anchor="start" x="14.5" y="-217" font-family="Iosevka" font-size="10.00">+</text>
<text text-anchor="start" x="25.5" y="-217" font-family="Iosevka" font-size="10.00">rmEmpty()</text>
<text text-anchor="start" x="14.5" y="-202" font-family="Iosevka" font-size="10.00">+</text>
<text text-anchor="start" x="25.5" y="-202" font-family="Iosevka" font-size="10.00">mapToCell()</text>
<text text-anchor="start" x="14.5" y="-187" font-family="Iosevka" font-size="10.00">+</text>
<text text-anchor="start" x="25.5" y="-187" font-family="Iosevka" font-size="10.00">catStructs()</text>
<text text-anchor="start" x="14.5" y="-172" font-family="Iosevka" font-size="10.00">+</text>
<text text-anchor="start" x="25.5" y="-172" font-family="Iosevka" font-size="10.00">valueTable()</text>
<text text-anchor="start" x="14.5" y="-157" font-family="Iosevka" font-size="10.00">+</text>
<text text-anchor="start" x="25.5" y="-157" font-family="Iosevka" font-size="10.00">pick()</text>
<text text-anchor="start" x="14.5" y="-142" font-family="Iosevka" font-size="10.00">+</text>
<text text-anchor="start" x="25.5" y="-142" font-family="Iosevka" font-size="10.00">isAProp()</text>
<text text-anchor="start" x="14.5" y="-127" font-family="Iosevka" font-size="10.00">+</text>
<text text-anchor="start" x="25.5" y="-127" font-family="Iosevka" font-size="10.00">namedArg()</text>
<text text-anchor="start" x="14.5" y="-112" font-family="Iosevka" font-size="10.00">+</text>
<text text-anchor="start" x="25.5" y="-112" font-family="Iosevka" font-size="10.00">url2eid()</text>
<text text-anchor="start" x="14.5" y="-97" font-family="Iosevka" font-size="10.00">+</text>
<text text-anchor="start" x="25.5" y="-97" font-family="Iosevka" font-size="10.00">parseAlyxInstance()</text>
<text text-anchor="start" x="14.5" y="-82" font-family="Iosevka" font-size="10.00">+</text>
<text text-anchor="start" x="25.5" y="-82" font-family="Iosevka" font-size="10.00">iff()</text>
<text text-anchor="start" x="14.5" y="-67" font-family="Iosevka" font-size="10.00">#</text>
<text text-anchor="start" x="25.5" y="-67" font-family="Iosevka" font-size="10.00">getToken()</text>
<text text-anchor="start" x="14.5" y="-52" font-family="Iosevka" font-size="10.00">#</text>
<text text-anchor="start" x="25.5" y="-52" font-family="Iosevka" font-size="10.00">makeEndpoint()</text>
<text text-anchor="start" x="14.5" y="-37" font-family="Iosevka" font-size="10.00">#</text>
<text text-anchor="start" x="25.5" y="-37" font-family="Iosevka" font-size="10.00">jsonPost()</text>
<text text-anchor="start" x="14.5" y="-22" font-family="Iosevka" font-size="10.00">#</text>
<text text-anchor="start" x="25.5" y="-22" font-family="Iosevka" font-size="10.00">flushQueue()</text>
<text text-anchor="start" x="14.5" y="-7" font-family="Iosevka" font-size="10.00">#</text>
<text text-anchor="start" x="25.5" y="-7" font-family="Iosevka" font-size="10.00">delete()</text>
<polygon fill="#666666" stroke="#666666" points="10.5,-617 10.5,-617 121.5,-617 121.5,-617 10.5,-617"/>
<polygon fill="#666666" stroke="#666666" points="10.5,-422 10.5,-422 23.5,-422 23.5,-422 10.5,-422"/>
<polygon fill="#666666" stroke="#666666" points="23.5,-422 23.5,-422 121.5,-422 121.5,-422 23.5,-422"/>
<polygon fill="none" stroke="#666666" points="10,0 10,-634 121,-634 121,0 10,0"/>
</a>
</g>
</g>
<!-- Node2 -->
<g id="Node000002" class="node">
<title>Node2</title>
<g id="a_Node000002"><a xlink:href="classopticka_core.html" target="_top" xlink:title="optickaCore base class inherited by other opticka classes.">
<polygon fill="white" stroke="transparent" points="131,-1304 0,-1304 0,-670 131,-670 131,-1304"/>
<text text-anchor="start" x="38.5" y="-1292" font-family="Iosevka" font-size="10.00">optickaCore</text>
<text text-anchor="start" x="4.5" y="-1277" font-family="Iosevka" font-size="10.00">+</text>
<text text-anchor="start" x="15.5" y="-1277" font-family="Iosevka" font-size="10.00">name</text>
<text text-anchor="start" x="4.5" y="-1262" font-family="Iosevka" font-size="10.00">+</text>
<text text-anchor="start" x="15.5" y="-1262" font-family="Iosevka" font-size="10.00">comment</text>
<text text-anchor="start" x="4.5" y="-1247" font-family="Iosevka" font-size="10.00">+</text>
<text text-anchor="start" x="15.5" y="-1247" font-family="Iosevka" font-size="10.00">verbose</text>
<text text-anchor="start" x="4.5" y="-1232" font-family="Iosevka" font-size="10.00">+</text>
<text text-anchor="start" x="15.5" y="-1232" font-family="Iosevka" font-size="10.00">optickaVersion</text>
<text text-anchor="start" x="4.5" y="-1217" font-family="Iosevka" font-size="10.00">+</text>
<text text-anchor="start" x="15.5" y="-1217" font-family="Iosevka" font-size="10.00">dateStamp</text>
<text text-anchor="start" x="4.5" y="-1202" font-family="Iosevka" font-size="10.00">+</text>
<text text-anchor="start" x="15.5" y="-1202" font-family="Iosevka" font-size="10.00">uuid</text>
<text text-anchor="start" x="4.5" y="-1187" font-family="Iosevka" font-size="10.00">+</text>
<text text-anchor="start" x="15.5" y="-1187" font-family="Iosevka" font-size="10.00">paths</text>
<text text-anchor="start" x="4.5" y="-1172" font-family="Iosevka" font-size="10.00">+</text>
<text text-anchor="start" x="15.5" y="-1172" font-family="Iosevka" font-size="10.00">fullName</text>
<text text-anchor="start" x="4.5" y="-1157" font-family="Iosevka" font-size="10.00">#</text>
<text text-anchor="start" x="15.5" y="-1157" font-family="Iosevka" font-size="10.00">cloning</text>
<text text-anchor="start" x="4.5" y="-1142" font-family="Iosevka" font-size="10.00">#</text>
<text text-anchor="start" x="15.5" y="-1142" font-family="Iosevka" font-size="10.00">mversion</text>
<text text-anchor="start" x="4.5" y="-1127" font-family="Iosevka" font-size="10.00">#</text>
<text text-anchor="start" x="15.5" y="-1127" font-family="Iosevka" font-size="10.00">sansFont</text>
<text text-anchor="start" x="4.5" y="-1112" font-family="Iosevka" font-size="10.00">#</text>
<text text-anchor="start" x="15.5" y="-1112" font-family="Iosevka" font-size="10.00">monoFont</text>
<text text-anchor="start" x="4.5" y="-1097" font-family="Iosevka" font-size="10.00">#</text>
<text text-anchor="start" x="15.5" y="-1097" font-family="Iosevka" font-size="10.00">className</text>
<text text-anchor="start" x="4.5" y="-1082" font-family="Iosevka" font-size="10.00">#</text>
<text text-anchor="start" x="15.5" y="-1082" font-family="Iosevka" font-size="10.00">savePrefix</text>
<text text-anchor="start" x="4.5" y="-1067" font-family="Iosevka" font-size="10.00">#</text>
<text text-anchor="start" x="15.5" y="-1067" font-family="Iosevka" font-size="10.00">fullName_</text>
<text text-anchor="start" x="4.5" y="-1052" font-family="Iosevka" font-size="10.00">+</text>
<text text-anchor="start" x="15.5" y="-1052" font-family="Iosevka" font-size="10.00">optickaCore()</text>
<text text-anchor="start" x="4.5" y="-1037" font-family="Iosevka" font-size="10.00">+</text>
<text text-anchor="start" x="15.5" y="-1037" font-family="Iosevka" font-size="10.00">fullName()</text>
<text text-anchor="start" x="4.5" y="-1022" font-family="Iosevka" font-size="10.00">+</text>
<text text-anchor="start" x="15.5" y="-1022" font-family="Iosevka" font-size="10.00">getALF()</text>
<text text-anchor="start" x="4.5" y="-1007" font-family="Iosevka" font-size="10.00">+</text>
<text text-anchor="start" x="15.5" y="-1007" font-family="Iosevka" font-size="10.00">makeReport()</text>
<text text-anchor="start" x="4.5" y="-992" font-family="Iosevka" font-size="10.00">+</text>
<text text-anchor="start" x="15.5" y="-992" font-family="Iosevka" font-size="10.00">findAttributes()</text>
<text text-anchor="start" x="4.5" y="-977" font-family="Iosevka" font-size="10.00">+</text>
<text text-anchor="start" x="15.5" y="-977" font-family="Iosevka" font-size="10.00">findAttributesandType()</text>
<text text-anchor="start" x="4.5" y="-962" font-family="Iosevka" font-size="10.00">+</text>
<text text-anchor="start" x="15.5" y="-962" font-family="Iosevka" font-size="10.00">findPropertyDefault()</text>
<text text-anchor="start" x="4.5" y="-947" font-family="Iosevka" font-size="10.00">+</text>
<text text-anchor="start" x="15.5" y="-947" font-family="Iosevka" font-size="10.00">clone()</text>
<text text-anchor="start" x="4.5" y="-932" font-family="Iosevka" font-size="10.00">+</text>
<text text-anchor="start" x="15.5" y="-932" font-family="Iosevka" font-size="10.00">checkSuperclasses()</text>
<text text-anchor="start" x="4.5" y="-917" font-family="Iosevka" font-size="10.00">+</text>
<text text-anchor="start" x="15.5" y="-917" font-family="Iosevka" font-size="10.00">editProperties()</text>
<text text-anchor="start" x="4.5" y="-902" font-family="Iosevka" font-size="10.00">+</text>
<text text-anchor="start" x="15.5" y="-902" font-family="Iosevka" font-size="10.00">setProp()</text>
<text text-anchor="start" x="4.5" y="-887" font-family="Iosevka" font-size="10.00">+</text>
<text text-anchor="start" x="15.5" y="-887" font-family="Iosevka" font-size="10.00">initialiseSaveFile()</text>
<text text-anchor="start" x="4.5" y="-872" font-family="Iosevka" font-size="10.00">+</text>
<text text-anchor="start" x="15.5" y="-872" font-family="Iosevka" font-size="10.00">checkPaths()</text>
<text text-anchor="start" x="4.5" y="-857" font-family="Iosevka" font-size="10.00">+</text>
<text text-anchor="start" x="15.5" y="-857" font-family="Iosevka" font-size="10.00">initialiseGlobals()</text>
<text text-anchor="start" x="4.5" y="-842" font-family="Iosevka" font-size="10.00">+</text>
<text text-anchor="start" x="15.5" y="-842" font-family="Iosevka" font-size="10.00">makeArgs()</text>
<text text-anchor="start" x="4.5" y="-827" font-family="Iosevka" font-size="10.00">+</text>
<text text-anchor="start" x="15.5" y="-827" font-family="Iosevka" font-size="10.00">addDefaults()</text>
<text text-anchor="start" x="4.5" y="-812" font-family="Iosevka" font-size="10.00">+</text>
<text text-anchor="start" x="15.5" y="-812" font-family="Iosevka" font-size="10.00">hasKey()</text>
<text text-anchor="start" x="4.5" y="-797" font-family="Iosevka" font-size="10.00">+</text>
<text text-anchor="start" x="15.5" y="-797" font-family="Iosevka" font-size="10.00">getKeys()</text>
<text text-anchor="start" x="4.5" y="-782" font-family="Iosevka" font-size="10.00">#</text>
<text text-anchor="start" x="15.5" y="-782" font-family="Iosevka" font-size="10.00">parseArgs()</text>
<text text-anchor="start" x="4.5" y="-767" font-family="Iosevka" font-size="10.00">#</text>
<text text-anchor="start" x="15.5" y="-767" font-family="Iosevka" font-size="10.00">addArgs()</text>
<text text-anchor="start" x="4.5" y="-752" font-family="Iosevka" font-size="10.00">#</text>
<text text-anchor="start" x="15.5" y="-752" font-family="Iosevka" font-size="10.00">setPaths()</text>
<text text-anchor="start" x="4.5" y="-737" font-family="Iosevka" font-size="10.00">#</text>
<text text-anchor="start" x="15.5" y="-737" font-family="Iosevka" font-size="10.00">getFonts()</text>
<text text-anchor="start" x="4.5" y="-722" font-family="Iosevka" font-size="10.00">#</text>
<text text-anchor="start" x="15.5" y="-722" font-family="Iosevka" font-size="10.00">toStructure()</text>
<text text-anchor="start" x="4.5" y="-707" font-family="Iosevka" font-size="10.00">#</text>
<text text-anchor="start" x="15.5" y="-707" font-family="Iosevka" font-size="10.00">getType()</text>
<text text-anchor="start" x="4.5" y="-692" font-family="Iosevka" font-size="10.00">#</text>
<text text-anchor="start" x="15.5" y="-692" font-family="Iosevka" font-size="10.00">logOutput()</text>
<text text-anchor="start" x="4.5" y="-677" font-family="Iosevka" font-size="10.00">#</text>
<text text-anchor="start" x="15.5" y="-677" font-family="Iosevka" font-size="10.00">salutation()</text>
<polygon fill="#666666" stroke="#666666" points="0.5,-1287 0.5,-1287 131.5,-1287 131.5,-1287 0.5,-1287"/>
<polygon fill="#666666" stroke="#666666" points="0.5,-1062 0.5,-1062 13.5,-1062 13.5,-1062 0.5,-1062"/>
<polygon fill="#666666" stroke="#666666" points="13.5,-1062 13.5,-1062 131.5,-1062 131.5,-1062 13.5,-1062"/>
<polygon fill="none" stroke="#666666" points="0,-670 0,-1304 131,-1304 131,-670 0,-670"/>
</a>
</g>
</g>
<!-- Node2&#45;&gt;Node1 -->
<g id="edge1_Node000001_Node000002" class="edge">
<title>Node2&#45;&gt;Node1</title>
<g id="a_edge1_Node000001_Node000002"><a xlink:title=" ">
<path fill="none" stroke="#63b8ff" d="M65.5,-659.36C65.5,-650.97 65.5,-642.56 65.5,-634.17"/>
<polygon fill="none" stroke="#63b8ff" points="62,-659.61 65.5,-669.61 69,-659.61 62,-659.61"/>
</a>
</g>
</g>
<!-- Node3 -->
<g id="Node000003" class="node">
<title>Node3</title>
<g id="a_Node000003"><a xlink:title=" ">
<polygon fill="white" stroke="transparent" points="86.5,-1389 44.5,-1389 44.5,-1340 86.5,-1340 86.5,-1389"/>
<text text-anchor="start" x="49.5" y="-1376.5" font-family="Iosevka" font-size="10.00">handle</text>
<text text-anchor="start" x="64" y="-1361.5" font-family="Iosevka" font-size="10.00"> </text>
<text text-anchor="start" x="64" y="-1346.5" font-family="Iosevka" font-size="10.00"> </text>
<polygon fill="#666666" stroke="#666666" points="44.5,-1371.5 44.5,-1371.5 86.5,-1371.5 86.5,-1371.5 44.5,-1371.5"/>
<polygon fill="#666666" stroke="#666666" points="44.5,-1356.5 44.5,-1356.5 86.5,-1356.5 86.5,-1356.5 44.5,-1356.5"/>
<polygon fill="none" stroke="#666666" points="44.5,-1340 44.5,-1389 86.5,-1389 86.5,-1340 44.5,-1340"/>
</a>
</g>
</g>
<!-- Node3&#45;&gt;Node2 -->
<g id="edge2_Node000002_Node000003" class="edge">
<title>Node3&#45;&gt;Node2</title>
<g id="a_edge2_Node000002_Node000003"><a xlink:title=" ">
<path fill="none" stroke="#63b8ff" d="M65.5,-1329.49C65.5,-1321.99 65.5,-1313.45 65.5,-1304.1"/>
<polygon fill="none" stroke="#63b8ff" points="62,-1329.73 65.5,-1339.73 69,-1329.73 62,-1329.73"/>
</a>
</g>
</g>
</g>
</svg>
