<?xml version="1.0" encoding="UTF-8" standalone="no"?>
<!DOCTYPE svg PUBLIC "-//W3C//DTD SVG 1.1//EN"
 "http://www.w3.org/Graphics/SVG/1.1/DTD/svg11.dtd">
<!-- Generated by graphviz version 2.50.0 (20211204.2007)
 -->
<!-- Title: eyeOccluder Pages: 1 -->
<svg width="175pt" height="639pt"
 viewBox="0.00 0.00 175.00 639.00" xmlns="http://www.w3.org/2000/svg" xmlns:xlink="http://www.w3.org/1999/xlink">
<g id="graph0" class="graph" transform="scale(1 1) rotate(0) translate(4 635)">
<title>eyeOccluder</title>
<!-- Node1 -->
<g id="node1" class="node">
<title>Node1</title>
<g id="a_node1"><a xlink:title=" ">
<polygon fill="#bfbfbf" stroke="black" points="21,-0.5 21,-145.5 146,-145.5 146,-0.5 21,-0.5"/>
<text text-anchor="middle" x="83.5" y="-133.5" font-family="Iosevka" font-size="10.00">eyeOccluder</text>
<polyline fill="none" stroke="black" points="21,-126.5 146,-126.5 "/>
<text text-anchor="start" x="29" y="-114.5" font-family="Iosevka" font-size="10.00">+ verbose</text>
<text text-anchor="start" x="29" y="-103.5" font-family="Iosevka" font-size="10.00">+ address</text>
<polyline fill="none" stroke="black" points="21,-96.5 146,-96.5 "/>
<text text-anchor="start" x="29" y="-84.5" font-family="Iosevka" font-size="10.00">+ eyeOccluder()</text>
<text text-anchor="start" x="29" y="-73.5" font-family="Iosevka" font-size="10.00">+ open()</text>
<text text-anchor="start" x="29" y="-62.5" font-family="Iosevka" font-size="10.00">+ close()</text>
<text text-anchor="start" x="29" y="-51.5" font-family="Iosevka" font-size="10.00">+ bothEyesOpen()</text>
<text text-anchor="start" x="29" y="-40.5" font-family="Iosevka" font-size="10.00">+ bothEyesClosed()</text>
<text text-anchor="start" x="29" y="-29.5" font-family="Iosevka" font-size="10.00">+ leftEyeClosed()</text>
<text text-anchor="start" x="29" y="-18.5" font-family="Iosevka" font-size="10.00">+ rightEyeClosed()</text>
<text text-anchor="start" x="29" y="-7.5" font-family="Iosevka" font-size="10.00">+ delete()</text>
</a>
</g>
</g>
<!-- Node2 -->
<g id="node2" class="node">
<title>Node2</title>
<g id="a_node2"><a xlink:href="$classopticka_core.html" xlink:title="optickaCore base class inherited by many other opticka classes.">
<polygon fill="none" stroke="black" points="0,-182.5 0,-536.5 167,-536.5 167,-182.5 0,-182.5"/>
<text text-anchor="middle" x="83.5" y="-524.5" font-family="Iosevka" font-size="10.00">optickaCore</text>
<polyline fill="none" stroke="black" points="0,-517.5 167,-517.5 "/>
<text text-anchor="start" x="8" y="-505.5" font-family="Iosevka" font-size="10.00">+ name</text>
<text text-anchor="start" x="8" y="-494.5" font-family="Iosevka" font-size="10.00">+ comment</text>
<text text-anchor="start" x="8" y="-483.5" font-family="Iosevka" font-size="10.00">+ verbose</text>
<text text-anchor="start" x="8" y="-472.5" font-family="Iosevka" font-size="10.00">+ dateStamp</text>
<text text-anchor="start" x="8" y="-461.5" font-family="Iosevka" font-size="10.00">+ uuid</text>
<text text-anchor="start" x="8" y="-450.5" font-family="Iosevka" font-size="10.00">+ paths</text>
<text text-anchor="start" x="8" y="-439.5" font-family="Iosevka" font-size="10.00">+ fullName</text>
<text text-anchor="start" x="8" y="-428.5" font-family="Iosevka" font-size="10.00"># cloning</text>
<text text-anchor="start" x="8" y="-417.5" font-family="Iosevka" font-size="10.00"># mversion</text>
<text text-anchor="start" x="8" y="-406.5" font-family="Iosevka" font-size="10.00"># className</text>
<text text-anchor="start" x="8" y="-395.5" font-family="Iosevka" font-size="10.00"># savePrefix</text>
<polyline fill="none" stroke="black" points="0,-388.5 167,-388.5 "/>
<text text-anchor="start" x="8" y="-376.5" font-family="Iosevka" font-size="10.00">+ optickaCore()</text>
<text text-anchor="start" x="8" y="-365.5" font-family="Iosevka" font-size="10.00">+ fullName()</text>
<text text-anchor="start" x="8" y="-354.5" font-family="Iosevka" font-size="10.00">+ initialiseSaveFile()</text>
<text text-anchor="start" x="8" y="-343.5" font-family="Iosevka" font-size="10.00">+ findAttributes()</text>
<text text-anchor="start" x="8" y="-332.5" font-family="Iosevka" font-size="10.00">+ findAttributesandType()</text>
<text text-anchor="start" x="8" y="-321.5" font-family="Iosevka" font-size="10.00">+ clone()</text>
<text text-anchor="start" x="8" y="-310.5" font-family="Iosevka" font-size="10.00">+ checkSuperclasses()</text>
<text text-anchor="start" x="8" y="-299.5" font-family="Iosevka" font-size="10.00">+ editProperties()</text>
<text text-anchor="start" x="8" y="-288.5" font-family="Iosevka" font-size="10.00">+ set()</text>
<text text-anchor="start" x="8" y="-277.5" font-family="Iosevka" font-size="10.00">+ checkPaths()</text>
<text text-anchor="start" x="8" y="-266.5" font-family="Iosevka" font-size="10.00">+ makeArgs()</text>
<text text-anchor="start" x="8" y="-255.5" font-family="Iosevka" font-size="10.00">+ addDefaults()</text>
<text text-anchor="start" x="8" y="-244.5" font-family="Iosevka" font-size="10.00"># parseArgs()</text>
<text text-anchor="start" x="8" y="-233.5" font-family="Iosevka" font-size="10.00"># addArgs()</text>
<text text-anchor="start" x="8" y="-222.5" font-family="Iosevka" font-size="10.00"># setPaths()</text>
<text text-anchor="start" x="8" y="-211.5" font-family="Iosevka" font-size="10.00"># toStructure()</text>
<text text-anchor="start" x="8" y="-200.5" font-family="Iosevka" font-size="10.00"># getType()</text>
<text text-anchor="start" x="8" y="-189.5" font-family="Iosevka" font-size="10.00"># salutation()</text>
</a>
</g>
</g>
<!-- Node2&#45;&gt;Node1 -->
<g id="edge1" class="edge">
<title>Node2&#45;&gt;Node1</title>
<path fill="none" stroke="midnightblue" d="M83.5,-172.31C83.5,-163.14 83.5,-154.23 83.5,-145.77"/>
<polygon fill="none" stroke="midnightblue" points="80,-172.37 83.5,-182.37 87,-172.37 80,-172.37"/>
</g>
<!-- Node3 -->
<g id="node3" class="node">
<title>Node3</title>
<g id="a_node3"><a xlink:title=" ">
<polygon fill="none" stroke="black" points="57,-573.5 57,-630.5 110,-630.5 110,-573.5 57,-573.5"/>
<text text-anchor="middle" x="83.5" y="-618.5" font-family="Iosevka" font-size="10.00">handle</text>
<polyline fill="none" stroke="black" points="57,-611.5 110,-611.5 "/>
<text text-anchor="middle" x="83.5" y="-599.5" font-family="Iosevka" font-size="10.00"> </text>
<polyline fill="none" stroke="black" points="57,-592.5 110,-592.5 "/>
<text text-anchor="middle" x="83.5" y="-580.5" font-family="Iosevka" font-size="10.00"> </text>
</a>
</g>
</g>
<!-- Node3&#45;&gt;Node2 -->
<g id="edge2" class="edge">
<title>Node3&#45;&gt;Node2</title>
<path fill="none" stroke="midnightblue" d="M83.5,-563.18C83.5,-555.22 83.5,-546.35 83.5,-536.87"/>
<polygon fill="none" stroke="midnightblue" points="80,-563.41 83.5,-573.41 87,-563.41 80,-563.41"/>
</g>
</g>
</svg>
