<?xml version="1.0" encoding="UTF-8" standalone="no"?>
<!DOCTYPE svg PUBLIC "-//W3C//DTD SVG 1.1//EN"
 "http://www.w3.org/Graphics/SVG/1.1/DTD/svg11.dtd">
<!-- Generated by graphviz version 2.50.0 (20211204.2007)
 -->
<!-- Title: animationManager Pages: 1 -->
<svg width="175pt" height="694pt"
 viewBox="0.00 0.00 175.00 694.00" xmlns="http://www.w3.org/2000/svg" xmlns:xlink="http://www.w3.org/1999/xlink">
<g id="graph0" class="graph" transform="scale(1 1) rotate(0) translate(4 690)">
<title>animationManager</title>
<!-- Node1 -->
<g id="node1" class="node">
<title>Node1</title>
<g id="a_node1"><a xlink:title="ANIMATIONMANAGER TODO provides per frame paths for stimuli.">
<polygon fill="#bfbfbf" stroke="black" points="15,-0.5 15,-200.5 152,-200.5 152,-0.5 15,-0.5"/>
<text text-anchor="middle" x="83.5" y="-188.5" font-family="Iosevka" font-size="10.00">animationManager</text>
<polyline fill="none" stroke="black" points="15,-181.5 152,-181.5 "/>
<text text-anchor="start" x="23" y="-169.5" font-family="Iosevka" font-size="10.00">+ type</text>
<text text-anchor="start" x="23" y="-158.5" font-family="Iosevka" font-size="10.00">+ length</text>
<text text-anchor="start" x="23" y="-147.5" font-family="Iosevka" font-size="10.00">+ angleVariance</text>
<text text-anchor="start" x="23" y="-136.5" font-family="Iosevka" font-size="10.00">+ boundsCheck</text>
<text text-anchor="start" x="23" y="-125.5" font-family="Iosevka" font-size="10.00">+ verbose</text>
<text text-anchor="start" x="23" y="-114.5" font-family="Iosevka" font-size="10.00">+ seed</text>
<polyline fill="none" stroke="black" points="15,-107.5 152,-107.5 "/>
<text text-anchor="start" x="23" y="-95.5" font-family="Iosevka" font-size="10.00">+ animationManager()</text>
<text text-anchor="start" x="23" y="-84.5" font-family="Iosevka" font-size="10.00">+ setup()</text>
<text text-anchor="start" x="23" y="-73.5" font-family="Iosevka" font-size="10.00">+ update()</text>
<text text-anchor="start" x="23" y="-62.5" font-family="Iosevka" font-size="10.00">+ reset()</text>
<text text-anchor="start" x="23" y="-51.5" font-family="Iosevka" font-size="10.00">+ d2r()</text>
<text text-anchor="start" x="23" y="-40.5" font-family="Iosevka" font-size="10.00">+ r2d()</text>
<text text-anchor="start" x="23" y="-29.5" font-family="Iosevka" font-size="10.00">+ findDistance()</text>
<text text-anchor="start" x="23" y="-18.5" font-family="Iosevka" font-size="10.00">+ updatePosition()</text>
<text text-anchor="start" x="23" y="-7.5" font-family="Iosevka" font-size="10.00">+ bezier()</text>
</a>
</g>
</g>
<!-- Node2 -->
<g id="node2" class="node">
<title>Node2</title>
<g id="a_node2"><a xlink:href="classopticka_core.html" target="_top" xlink:title="optickaCore base class inherited by many other opticka classes.">
<polygon fill="none" stroke="black" points="0,-237.5 0,-591.5 167,-591.5 167,-237.5 0,-237.5"/>
<text text-anchor="middle" x="83.5" y="-579.5" font-family="Iosevka" font-size="10.00">optickaCore</text>
<polyline fill="none" stroke="black" points="0,-572.5 167,-572.5 "/>
<text text-anchor="start" x="8" y="-560.5" font-family="Iosevka" font-size="10.00">+ name</text>
<text text-anchor="start" x="8" y="-549.5" font-family="Iosevka" font-size="10.00">+ comment</text>
<text text-anchor="start" x="8" y="-538.5" font-family="Iosevka" font-size="10.00">+ verbose</text>
<text text-anchor="start" x="8" y="-527.5" font-family="Iosevka" font-size="10.00">+ dateStamp</text>
<text text-anchor="start" x="8" y="-516.5" font-family="Iosevka" font-size="10.00">+ uuid</text>
<text text-anchor="start" x="8" y="-505.5" font-family="Iosevka" font-size="10.00">+ paths</text>
<text text-anchor="start" x="8" y="-494.5" font-family="Iosevka" font-size="10.00">+ fullName</text>
<text text-anchor="start" x="8" y="-483.5" font-family="Iosevka" font-size="10.00"># cloning</text>
<text text-anchor="start" x="8" y="-472.5" font-family="Iosevka" font-size="10.00"># mversion</text>
<text text-anchor="start" x="8" y="-461.5" font-family="Iosevka" font-size="10.00"># className</text>
<text text-anchor="start" x="8" y="-450.5" font-family="Iosevka" font-size="10.00"># savePrefix</text>
<polyline fill="none" stroke="black" points="0,-443.5 167,-443.5 "/>
<text text-anchor="start" x="8" y="-431.5" font-family="Iosevka" font-size="10.00">+ optickaCore()</text>
<text text-anchor="start" x="8" y="-420.5" font-family="Iosevka" font-size="10.00">+ fullName()</text>
<text text-anchor="start" x="8" y="-409.5" font-family="Iosevka" font-size="10.00">+ initialiseSaveFile()</text>
<text text-anchor="start" x="8" y="-398.5" font-family="Iosevka" font-size="10.00">+ findAttributes()</text>
<text text-anchor="start" x="8" y="-387.5" font-family="Iosevka" font-size="10.00">+ findAttributesandType()</text>
<text text-anchor="start" x="8" y="-376.5" font-family="Iosevka" font-size="10.00">+ clone()</text>
<text text-anchor="start" x="8" y="-365.5" font-family="Iosevka" font-size="10.00">+ checkSuperclasses()</text>
<text text-anchor="start" x="8" y="-354.5" font-family="Iosevka" font-size="10.00">+ editProperties()</text>
<text text-anchor="start" x="8" y="-343.5" font-family="Iosevka" font-size="10.00">+ set()</text>
<text text-anchor="start" x="8" y="-332.5" font-family="Iosevka" font-size="10.00">+ checkPaths()</text>
<text text-anchor="start" x="8" y="-321.5" font-family="Iosevka" font-size="10.00">+ makeArgs()</text>
<text text-anchor="start" x="8" y="-310.5" font-family="Iosevka" font-size="10.00">+ addDefaults()</text>
<text text-anchor="start" x="8" y="-299.5" font-family="Iosevka" font-size="10.00"># parseArgs()</text>
<text text-anchor="start" x="8" y="-288.5" font-family="Iosevka" font-size="10.00"># addArgs()</text>
<text text-anchor="start" x="8" y="-277.5" font-family="Iosevka" font-size="10.00"># setPaths()</text>
<text text-anchor="start" x="8" y="-266.5" font-family="Iosevka" font-size="10.00"># toStructure()</text>
<text text-anchor="start" x="8" y="-255.5" font-family="Iosevka" font-size="10.00"># getType()</text>
<text text-anchor="start" x="8" y="-244.5" font-family="Iosevka" font-size="10.00"># salutation()</text>
</a>
</g>
</g>
<!-- Node2&#45;&gt;Node1 -->
<g id="edge1" class="edge">
<title>Node2&#45;&gt;Node1</title>
<path fill="none" stroke="midnightblue" d="M83.5,-227.17C83.5,-218.12 83.5,-209.21 83.5,-200.57"/>
<polygon fill="none" stroke="midnightblue" points="80,-227.44 83.5,-237.44 87,-227.44 80,-227.44"/>
</g>
<!-- Node3 -->
<g id="node3" class="node">
<title>Node3</title>
<g id="a_node3"><a xlink:title=" ">
<polygon fill="none" stroke="black" points="57,-628.5 57,-685.5 110,-685.5 110,-628.5 57,-628.5"/>
<text text-anchor="middle" x="83.5" y="-673.5" font-family="Iosevka" font-size="10.00">handle</text>
<polyline fill="none" stroke="black" points="57,-666.5 110,-666.5 "/>
<text text-anchor="middle" x="83.5" y="-654.5" font-family="Iosevka" font-size="10.00"> </text>
<polyline fill="none" stroke="black" points="57,-647.5 110,-647.5 "/>
<text text-anchor="middle" x="83.5" y="-635.5" font-family="Iosevka" font-size="10.00"> </text>
</a>
</g>
</g>
<!-- Node3&#45;&gt;Node2 -->
<g id="edge2" class="edge">
<title>Node3&#45;&gt;Node2</title>
<path fill="none" stroke="midnightblue" d="M83.5,-618.18C83.5,-610.22 83.5,-601.35 83.5,-591.87"/>
<polygon fill="none" stroke="midnightblue" points="80,-618.41 83.5,-628.41 87,-618.41 80,-618.41"/>
</g>
</g>
</svg>
