<?xml version="1.0" encoding="UTF-8" standalone="no"?>
<!DOCTYPE svg PUBLIC "-//W3C//DTD SVG 1.1//EN"
 "http://www.w3.org/Graphics/SVG/1.1/DTD/svg11.dtd">
<!-- Generated by graphviz version 2.50.0 (20211204.2007)
 -->
<!-- Title: movieStimulus Pages: 1 -->
<svg width="282pt" height="1382pt"
 viewBox="0.00 0.00 282.00 1382.00" xmlns="http://www.w3.org/2000/svg" xmlns:xlink="http://www.w3.org/1999/xlink">
<g id="graph0" class="graph" transform="scale(1 1) rotate(0) translate(4 1378)">
<title>movieStimulus</title>
<!-- Node1 -->
<g id="node1" class="node">
<title>Node1</title>
<g id="a_node1"><a xlink:title="movieStimulus is the class for movie based stimulus objects">
<polygon fill="#bfbfbf" stroke="black" points="88,-0.5 88,-310.5 225,-310.5 225,-0.5 88,-0.5"/>
<text text-anchor="middle" x="156.5" y="-298.5" font-family="Iosevka" font-size="10.00">movieStimulus</text>
<polyline fill="none" stroke="black" points="88,-291.5 225,-291.5 "/>
<text text-anchor="start" x="96" y="-279.5" font-family="Iosevka" font-size="10.00">+ type</text>
<text text-anchor="start" x="96" y="-268.5" font-family="Iosevka" font-size="10.00">+ direction</text>
<text text-anchor="start" x="96" y="-257.5" font-family="Iosevka" font-size="10.00">+ lockAngle</text>
<text text-anchor="start" x="96" y="-246.5" font-family="Iosevka" font-size="10.00">+ fileName</text>
<text text-anchor="start" x="96" y="-235.5" font-family="Iosevka" font-size="10.00">+ blocking</text>
<text text-anchor="start" x="96" y="-224.5" font-family="Iosevka" font-size="10.00">+ pixelFormat</text>
<text text-anchor="start" x="96" y="-213.5" font-family="Iosevka" font-size="10.00">+ preloadSecs</text>
<text text-anchor="start" x="96" y="-202.5" font-family="Iosevka" font-size="10.00">+ specialFlagsOpen</text>
<text text-anchor="start" x="96" y="-191.5" font-family="Iosevka" font-size="10.00">+ specialFlagsFrame</text>
<text text-anchor="start" x="96" y="-180.5" font-family="Iosevka" font-size="10.00">+ specialFlags2Frame</text>
<text text-anchor="start" x="96" y="-169.5" font-family="Iosevka" font-size="10.00">and 16 more...</text>
<text text-anchor="start" x="96" y="-158.5" font-family="Iosevka" font-size="10.00"># msrcMode</text>
<text text-anchor="start" x="96" y="-147.5" font-family="Iosevka" font-size="10.00"># mdstMode</text>
<text text-anchor="start" x="96" y="-136.5" font-family="Iosevka" font-size="10.00"># allowedProperties</text>
<text text-anchor="start" x="96" y="-125.5" font-family="Iosevka" font-size="10.00"># ignoreProperties</text>
<polyline fill="none" stroke="black" points="88,-118.5 225,-118.5 "/>
<text text-anchor="start" x="96" y="-106.5" font-family="Iosevka" font-size="10.00">+ movieStimulus()</text>
<text text-anchor="start" x="96" y="-95.5" font-family="Iosevka" font-size="10.00">+ setup()</text>
<text text-anchor="start" x="96" y="-84.5" font-family="Iosevka" font-size="10.00">+ update()</text>
<text text-anchor="start" x="96" y="-73.5" font-family="Iosevka" font-size="10.00">+ updatePositions()</text>
<text text-anchor="start" x="96" y="-62.5" font-family="Iosevka" font-size="10.00">+ draw()</text>
<text text-anchor="start" x="96" y="-51.5" font-family="Iosevka" font-size="10.00">+ animate()</text>
<text text-anchor="start" x="96" y="-40.5" font-family="Iosevka" font-size="10.00">+ reset()</text>
<text text-anchor="start" x="96" y="-29.5" font-family="Iosevka" font-size="10.00">+ findFile()</text>
<text text-anchor="start" x="96" y="-18.5" font-family="Iosevka" font-size="10.00"># setRect()</text>
<text text-anchor="start" x="96" y="-7.5" font-family="Iosevka" font-size="10.00"># checkFileName()</text>
</a>
</g>
</g>
<!-- Node2 -->
<g id="node2" class="node">
<title>Node2</title>
<g id="a_node2"><a xlink:href="classbase_stimulus.html" target="_top" xlink:title="baseStimulus is the superclass for all opticka stimulus objects">
<polygon fill="none" stroke="black" points="79,-347.5 79,-888.5 234,-888.5 234,-347.5 79,-347.5"/>
<text text-anchor="middle" x="156.5" y="-876.5" font-family="Iosevka" font-size="10.00">baseStimulus</text>
<polyline fill="none" stroke="black" points="79,-869.5 234,-869.5 "/>
<text text-anchor="start" x="87" y="-857.5" font-family="Iosevka" font-size="10.00">+ xPosition</text>
<text text-anchor="start" x="87" y="-846.5" font-family="Iosevka" font-size="10.00">+ yPosition</text>
<text text-anchor="start" x="87" y="-835.5" font-family="Iosevka" font-size="10.00">+ size</text>
<text text-anchor="start" x="87" y="-824.5" font-family="Iosevka" font-size="10.00">+ colour</text>
<text text-anchor="start" x="87" y="-813.5" font-family="Iosevka" font-size="10.00">+ alpha</text>
<text text-anchor="start" x="87" y="-802.5" font-family="Iosevka" font-size="10.00">+ startPosition</text>
<text text-anchor="start" x="87" y="-791.5" font-family="Iosevka" font-size="10.00">+ speed</text>
<text text-anchor="start" x="87" y="-780.5" font-family="Iosevka" font-size="10.00">+ angle</text>
<text text-anchor="start" x="87" y="-769.5" font-family="Iosevka" font-size="10.00">+ delayTime</text>
<text text-anchor="start" x="87" y="-758.5" font-family="Iosevka" font-size="10.00">+ offTime</text>
<text text-anchor="start" x="87" y="-747.5" font-family="Iosevka" font-size="10.00">and 17 more...</text>
<text text-anchor="start" x="87" y="-736.5" font-family="Iosevka" font-size="10.00"># family</text>
<text text-anchor="start" x="87" y="-725.5" font-family="Iosevka" font-size="10.00"># texture</text>
<text text-anchor="start" x="87" y="-714.5" font-family="Iosevka" font-size="10.00"># handles</text>
<text text-anchor="start" x="87" y="-703.5" font-family="Iosevka" font-size="10.00"># sM</text>
<text text-anchor="start" x="87" y="-692.5" font-family="Iosevka" font-size="10.00"># screenVals</text>
<text text-anchor="start" x="87" y="-681.5" font-family="Iosevka" font-size="10.00"># isSetup</text>
<text text-anchor="start" x="87" y="-670.5" font-family="Iosevka" font-size="10.00"># isGUI</text>
<text text-anchor="start" x="87" y="-659.5" font-family="Iosevka" font-size="10.00"># mouseValid</text>
<text text-anchor="start" x="87" y="-648.5" font-family="Iosevka" font-size="10.00"># mouseX</text>
<text text-anchor="start" x="87" y="-637.5" font-family="Iosevka" font-size="10.00"># mouseY</text>
<text text-anchor="start" x="87" y="-626.5" font-family="Iosevka" font-size="10.00">and 9 more...</text>
<polyline fill="none" stroke="black" points="79,-619.5 234,-619.5 "/>
<text text-anchor="start" x="87" y="-607.5" font-family="Iosevka" font-size="10.00">+ setup()</text>
<text text-anchor="start" x="87" y="-596.5" font-family="Iosevka" font-size="10.00">+ draw()</text>
<text text-anchor="start" x="87" y="-585.5" font-family="Iosevka" font-size="10.00">+ animate()</text>
<text text-anchor="start" x="87" y="-574.5" font-family="Iosevka" font-size="10.00">+ update()</text>
<text text-anchor="start" x="87" y="-563.5" font-family="Iosevka" font-size="10.00">+ reset()</text>
<text text-anchor="start" x="87" y="-552.5" font-family="Iosevka" font-size="10.00">+ baseStimulus()</text>
<text text-anchor="start" x="87" y="-541.5" font-family="Iosevka" font-size="10.00">+ colour()</text>
<text text-anchor="start" x="87" y="-530.5" font-family="Iosevka" font-size="10.00">+ alpha()</text>
<text text-anchor="start" x="87" y="-519.5" font-family="Iosevka" font-size="10.00">+ delta()</text>
<text text-anchor="start" x="87" y="-508.5" font-family="Iosevka" font-size="10.00">+ dX()</text>
<text text-anchor="start" x="87" y="-497.5" font-family="Iosevka" font-size="10.00">and 13 more...</text>
<text text-anchor="start" x="87" y="-486.5" font-family="Iosevka" font-size="10.00">+ d2r()</text>
<text text-anchor="start" x="87" y="-475.5" font-family="Iosevka" font-size="10.00">+ r2d()</text>
<text text-anchor="start" x="87" y="-464.5" font-family="Iosevka" font-size="10.00">+ findDistance()</text>
<text text-anchor="start" x="87" y="-453.5" font-family="Iosevka" font-size="10.00">+ updatePosition()</text>
<text text-anchor="start" x="87" y="-442.5" font-family="Iosevka" font-size="10.00"># doProperties()</text>
<text text-anchor="start" x="87" y="-431.5" font-family="Iosevka" font-size="10.00"># setRect()</text>
<text text-anchor="start" x="87" y="-420.5" font-family="Iosevka" font-size="10.00"># setAnimationDelta()</text>
<text text-anchor="start" x="87" y="-409.5" font-family="Iosevka" font-size="10.00"># computePosition()</text>
<text text-anchor="start" x="87" y="-398.5" font-family="Iosevka" font-size="10.00"># set_xPositionOut()</text>
<text text-anchor="start" x="87" y="-387.5" font-family="Iosevka" font-size="10.00"># set_yPositionOut()</text>
<text text-anchor="start" x="87" y="-376.5" font-family="Iosevka" font-size="10.00"># toStructure()</text>
<text text-anchor="start" x="87" y="-365.5" font-family="Iosevka" font-size="10.00"># removeTmpProperties()</text>
<text text-anchor="start" x="87" y="-354.5" font-family="Iosevka" font-size="10.00"># delete()</text>
</a>
</g>
</g>
<!-- Node2&#45;&gt;Node1 -->
<g id="edge1" class="edge">
<title>Node2&#45;&gt;Node1</title>
<path fill="none" stroke="midnightblue" d="M156.5,-337.26C156.5,-328.26 156.5,-319.37 156.5,-310.64"/>
<polygon fill="none" stroke="midnightblue" points="153,-337.46 156.5,-347.46 160,-337.46 153,-337.46"/>
</g>
<!-- Node3 -->
<g id="node3" class="node">
<title>Node3</title>
<g id="a_node3"><a xlink:href="classopticka_core.html" target="_top" xlink:title="optickaCore base class inherited by many other opticka classes.">
<polygon fill="none" stroke="black" points="0,-925.5 0,-1279.5 167,-1279.5 167,-925.5 0,-925.5"/>
<text text-anchor="middle" x="83.5" y="-1267.5" font-family="Iosevka" font-size="10.00">optickaCore</text>
<polyline fill="none" stroke="black" points="0,-1260.5 167,-1260.5 "/>
<text text-anchor="start" x="8" y="-1248.5" font-family="Iosevka" font-size="10.00">+ name</text>
<text text-anchor="start" x="8" y="-1237.5" font-family="Iosevka" font-size="10.00">+ comment</text>
<text text-anchor="start" x="8" y="-1226.5" font-family="Iosevka" font-size="10.00">+ verbose</text>
<text text-anchor="start" x="8" y="-1215.5" font-family="Iosevka" font-size="10.00">+ dateStamp</text>
<text text-anchor="start" x="8" y="-1204.5" font-family="Iosevka" font-size="10.00">+ uuid</text>
<text text-anchor="start" x="8" y="-1193.5" font-family="Iosevka" font-size="10.00">+ paths</text>
<text text-anchor="start" x="8" y="-1182.5" font-family="Iosevka" font-size="10.00">+ fullName</text>
<text text-anchor="start" x="8" y="-1171.5" font-family="Iosevka" font-size="10.00"># cloning</text>
<text text-anchor="start" x="8" y="-1160.5" font-family="Iosevka" font-size="10.00"># mversion</text>
<text text-anchor="start" x="8" y="-1149.5" font-family="Iosevka" font-size="10.00"># className</text>
<text text-anchor="start" x="8" y="-1138.5" font-family="Iosevka" font-size="10.00"># savePrefix</text>
<polyline fill="none" stroke="black" points="0,-1131.5 167,-1131.5 "/>
<text text-anchor="start" x="8" y="-1119.5" font-family="Iosevka" font-size="10.00">+ optickaCore()</text>
<text text-anchor="start" x="8" y="-1108.5" font-family="Iosevka" font-size="10.00">+ fullName()</text>
<text text-anchor="start" x="8" y="-1097.5" font-family="Iosevka" font-size="10.00">+ initialiseSaveFile()</text>
<text text-anchor="start" x="8" y="-1086.5" font-family="Iosevka" font-size="10.00">+ findAttributes()</text>
<text text-anchor="start" x="8" y="-1075.5" font-family="Iosevka" font-size="10.00">+ findAttributesandType()</text>
<text text-anchor="start" x="8" y="-1064.5" font-family="Iosevka" font-size="10.00">+ clone()</text>
<text text-anchor="start" x="8" y="-1053.5" font-family="Iosevka" font-size="10.00">+ checkSuperclasses()</text>
<text text-anchor="start" x="8" y="-1042.5" font-family="Iosevka" font-size="10.00">+ editProperties()</text>
<text text-anchor="start" x="8" y="-1031.5" font-family="Iosevka" font-size="10.00">+ set()</text>
<text text-anchor="start" x="8" y="-1020.5" font-family="Iosevka" font-size="10.00">+ checkPaths()</text>
<text text-anchor="start" x="8" y="-1009.5" font-family="Iosevka" font-size="10.00">+ makeArgs()</text>
<text text-anchor="start" x="8" y="-998.5" font-family="Iosevka" font-size="10.00">+ addDefaults()</text>
<text text-anchor="start" x="8" y="-987.5" font-family="Iosevka" font-size="10.00"># parseArgs()</text>
<text text-anchor="start" x="8" y="-976.5" font-family="Iosevka" font-size="10.00"># addArgs()</text>
<text text-anchor="start" x="8" y="-965.5" font-family="Iosevka" font-size="10.00"># setPaths()</text>
<text text-anchor="start" x="8" y="-954.5" font-family="Iosevka" font-size="10.00"># toStructure()</text>
<text text-anchor="start" x="8" y="-943.5" font-family="Iosevka" font-size="10.00"># getType()</text>
<text text-anchor="start" x="8" y="-932.5" font-family="Iosevka" font-size="10.00"># salutation()</text>
</a>
</g>
</g>
<!-- Node3&#45;&gt;Node2 -->
<g id="edge2" class="edge">
<title>Node3&#45;&gt;Node2</title>
<path fill="none" stroke="midnightblue" d="M111.7,-915.1C113.02,-906.4 114.35,-897.61 115.69,-888.76"/>
<polygon fill="none" stroke="midnightblue" points="108.2,-914.85 110.16,-925.26 115.12,-915.89 108.2,-914.85"/>
</g>
<!-- Node4 -->
<g id="node4" class="node">
<title>Node4</title>
<g id="a_node4"><a xlink:title=" ">
<polygon fill="none" stroke="black" points="57,-1316.5 57,-1373.5 110,-1373.5 110,-1316.5 57,-1316.5"/>
<text text-anchor="middle" x="83.5" y="-1361.5" font-family="Iosevka" font-size="10.00">handle</text>
<polyline fill="none" stroke="black" points="57,-1354.5 110,-1354.5 "/>
<text text-anchor="middle" x="83.5" y="-1342.5" font-family="Iosevka" font-size="10.00"> </text>
<polyline fill="none" stroke="black" points="57,-1335.5 110,-1335.5 "/>
<text text-anchor="middle" x="83.5" y="-1323.5" font-family="Iosevka" font-size="10.00"> </text>
</a>
</g>
</g>
<!-- Node4&#45;&gt;Node3 -->
<g id="edge3" class="edge">
<title>Node4&#45;&gt;Node3</title>
<path fill="none" stroke="midnightblue" d="M83.5,-1306.18C83.5,-1298.22 83.5,-1289.35 83.5,-1279.87"/>
<polygon fill="none" stroke="midnightblue" points="80,-1306.41 83.5,-1316.41 87,-1306.41 80,-1306.41"/>
</g>
<!-- Node5 -->
<g id="node5" class="node">
<title>Node5</title>
<g id="a_node5"><a xlink:title=" ">
<polygon fill="none" stroke="black" points="185,-1074 185,-1131 274,-1131 274,-1074 185,-1074"/>
<text text-anchor="middle" x="229.5" y="-1119" font-family="Iosevka" font-size="10.00">dynamicprops</text>
<polyline fill="none" stroke="black" points="185,-1112 274,-1112 "/>
<text text-anchor="middle" x="229.5" y="-1100" font-family="Iosevka" font-size="10.00"> </text>
<polyline fill="none" stroke="black" points="185,-1093 274,-1093 "/>
<text text-anchor="middle" x="229.5" y="-1081" font-family="Iosevka" font-size="10.00"> </text>
</a>
</g>
</g>
<!-- Node5&#45;&gt;Node2 -->
<g id="edge4" class="edge">
<title>Node5&#45;&gt;Node2</title>
<path fill="none" stroke="midnightblue" d="M223.8,-1063.86C217.81,-1024.23 207.8,-958.09 197.31,-888.77"/>
<polygon fill="none" stroke="midnightblue" points="220.36,-1064.46 225.31,-1073.83 227.28,-1063.41 220.36,-1064.46"/>
</g>
</g>
</svg>
