<?xml version="1.0" encoding="UTF-8" standalone="no"?>
<!DOCTYPE svg PUBLIC "-//W3C//DTD SVG 1.1//EN"
 "http://www.w3.org/Graphics/SVG/1.1/DTD/svg11.dtd">
<!-- Generated by graphviz version 2.50.0 (20211204.2007)
 -->
<!-- Title: dPixxManager Pages: 1 -->
<svg width="175pt" height="738pt"
 viewBox="0.00 0.00 175.00 738.00" xmlns="http://www.w3.org/2000/svg" xmlns:xlink="http://www.w3.org/1999/xlink">
<g id="graph0" class="graph" transform="scale(1 1) rotate(0) translate(4 734)">
<title>dPixxManager</title>
<!-- Node1 -->
<g id="node1" class="node">
<title>Node1</title>
<g id="a_node1"><a xlink:title="DataPixx Communication Class.">
<polygon fill="#bfbfbf" stroke="black" points="21,-0.5 21,-244.5 146,-244.5 146,-0.5 21,-0.5"/>
<text text-anchor="middle" x="83.5" y="-232.5" font-family="Iosevka" font-size="10.00">dPixxManager</text>
<polyline fill="none" stroke="black" points="21,-225.5 146,-225.5 "/>
<text text-anchor="start" x="29" y="-213.5" font-family="Iosevka" font-size="10.00">+ verbose</text>
<text text-anchor="start" x="29" y="-202.5" font-family="Iosevka" font-size="10.00">+ strobeLine</text>
<text text-anchor="start" x="29" y="-191.5" font-family="Iosevka" font-size="10.00">+ stimOFFValue</text>
<text text-anchor="start" x="29" y="-180.5" font-family="Iosevka" font-size="10.00">+ silentMode</text>
<text text-anchor="start" x="29" y="-169.5" font-family="Iosevka" font-size="10.00">+ nBits</text>
<text text-anchor="start" x="29" y="-158.5" font-family="Iosevka" font-size="10.00">+ isOpen</text>
<text text-anchor="start" x="29" y="-147.5" font-family="Iosevka" font-size="10.00">+ sendValue</text>
<text text-anchor="start" x="29" y="-136.5" font-family="Iosevka" font-size="10.00">+ lastValue</text>
<polyline fill="none" stroke="black" points="21,-129.5 146,-129.5 "/>
<text text-anchor="start" x="29" y="-117.5" font-family="Iosevka" font-size="10.00">+ dPixxManager()</text>
<text text-anchor="start" x="29" y="-106.5" font-family="Iosevka" font-size="10.00">+ open()</text>
<text text-anchor="start" x="29" y="-95.5" font-family="Iosevka" font-size="10.00">+ close()</text>
<text text-anchor="start" x="29" y="-84.5" font-family="Iosevka" font-size="10.00">+ sendStrobe()</text>
<text text-anchor="start" x="29" y="-73.5" font-family="Iosevka" font-size="10.00">+ prepareStrobe()</text>
<text text-anchor="start" x="29" y="-62.5" font-family="Iosevka" font-size="10.00">+ triggerStrobe()</text>
<text text-anchor="start" x="29" y="-51.5" font-family="Iosevka" font-size="10.00">+ resetStrobe()</text>
<text text-anchor="start" x="29" y="-40.5" font-family="Iosevka" font-size="10.00">+ rstart()</text>
<text text-anchor="start" x="29" y="-29.5" font-family="Iosevka" font-size="10.00">+ rstop()</text>
<text text-anchor="start" x="29" y="-18.5" font-family="Iosevka" font-size="10.00">+ startRecording()</text>
<text text-anchor="start" x="29" y="-7.5" font-family="Iosevka" font-size="10.00">and 10 more...</text>
</a>
</g>
</g>
<!-- Node2 -->
<g id="node2" class="node">
<title>Node2</title>
<g id="a_node2"><a xlink:href="classopticka_core.html" target="_top" xlink:title="optickaCore base class inherited by many other opticka classes.">
<polygon fill="none" stroke="black" points="0,-281.5 0,-635.5 167,-635.5 167,-281.5 0,-281.5"/>
<text text-anchor="middle" x="83.5" y="-623.5" font-family="Iosevka" font-size="10.00">optickaCore</text>
<polyline fill="none" stroke="black" points="0,-616.5 167,-616.5 "/>
<text text-anchor="start" x="8" y="-604.5" font-family="Iosevka" font-size="10.00">+ name</text>
<text text-anchor="start" x="8" y="-593.5" font-family="Iosevka" font-size="10.00">+ comment</text>
<text text-anchor="start" x="8" y="-582.5" font-family="Iosevka" font-size="10.00">+ verbose</text>
<text text-anchor="start" x="8" y="-571.5" font-family="Iosevka" font-size="10.00">+ dateStamp</text>
<text text-anchor="start" x="8" y="-560.5" font-family="Iosevka" font-size="10.00">+ uuid</text>
<text text-anchor="start" x="8" y="-549.5" font-family="Iosevka" font-size="10.00">+ paths</text>
<text text-anchor="start" x="8" y="-538.5" font-family="Iosevka" font-size="10.00">+ fullName</text>
<text text-anchor="start" x="8" y="-527.5" font-family="Iosevka" font-size="10.00"># cloning</text>
<text text-anchor="start" x="8" y="-516.5" font-family="Iosevka" font-size="10.00"># mversion</text>
<text text-anchor="start" x="8" y="-505.5" font-family="Iosevka" font-size="10.00"># className</text>
<text text-anchor="start" x="8" y="-494.5" font-family="Iosevka" font-size="10.00"># savePrefix</text>
<polyline fill="none" stroke="black" points="0,-487.5 167,-487.5 "/>
<text text-anchor="start" x="8" y="-475.5" font-family="Iosevka" font-size="10.00">+ optickaCore()</text>
<text text-anchor="start" x="8" y="-464.5" font-family="Iosevka" font-size="10.00">+ fullName()</text>
<text text-anchor="start" x="8" y="-453.5" font-family="Iosevka" font-size="10.00">+ initialiseSaveFile()</text>
<text text-anchor="start" x="8" y="-442.5" font-family="Iosevka" font-size="10.00">+ findAttributes()</text>
<text text-anchor="start" x="8" y="-431.5" font-family="Iosevka" font-size="10.00">+ findAttributesandType()</text>
<text text-anchor="start" x="8" y="-420.5" font-family="Iosevka" font-size="10.00">+ clone()</text>
<text text-anchor="start" x="8" y="-409.5" font-family="Iosevka" font-size="10.00">+ checkSuperclasses()</text>
<text text-anchor="start" x="8" y="-398.5" font-family="Iosevka" font-size="10.00">+ editProperties()</text>
<text text-anchor="start" x="8" y="-387.5" font-family="Iosevka" font-size="10.00">+ set()</text>
<text text-anchor="start" x="8" y="-376.5" font-family="Iosevka" font-size="10.00">+ checkPaths()</text>
<text text-anchor="start" x="8" y="-365.5" font-family="Iosevka" font-size="10.00">+ makeArgs()</text>
<text text-anchor="start" x="8" y="-354.5" font-family="Iosevka" font-size="10.00">+ addDefaults()</text>
<text text-anchor="start" x="8" y="-343.5" font-family="Iosevka" font-size="10.00"># parseArgs()</text>
<text text-anchor="start" x="8" y="-332.5" font-family="Iosevka" font-size="10.00"># addArgs()</text>
<text text-anchor="start" x="8" y="-321.5" font-family="Iosevka" font-size="10.00"># setPaths()</text>
<text text-anchor="start" x="8" y="-310.5" font-family="Iosevka" font-size="10.00"># toStructure()</text>
<text text-anchor="start" x="8" y="-299.5" font-family="Iosevka" font-size="10.00"># getType()</text>
<text text-anchor="start" x="8" y="-288.5" font-family="Iosevka" font-size="10.00"># salutation()</text>
</a>
</g>
</g>
<!-- Node2&#45;&gt;Node1 -->
<g id="edge1" class="edge">
<title>Node2&#45;&gt;Node1</title>
<path fill="none" stroke="midnightblue" d="M83.5,-271.07C83.5,-262.11 83.5,-253.22 83.5,-244.52"/>
<polygon fill="none" stroke="midnightblue" points="80,-271.21 83.5,-281.21 87,-271.21 80,-271.21"/>
</g>
<!-- Node3 -->
<g id="node3" class="node">
<title>Node3</title>
<g id="a_node3"><a xlink:title=" ">
<polygon fill="none" stroke="black" points="57,-672.5 57,-729.5 110,-729.5 110,-672.5 57,-672.5"/>
<text text-anchor="middle" x="83.5" y="-717.5" font-family="Iosevka" font-size="10.00">handle</text>
<polyline fill="none" stroke="black" points="57,-710.5 110,-710.5 "/>
<text text-anchor="middle" x="83.5" y="-698.5" font-family="Iosevka" font-size="10.00"> </text>
<polyline fill="none" stroke="black" points="57,-691.5 110,-691.5 "/>
<text text-anchor="middle" x="83.5" y="-679.5" font-family="Iosevka" font-size="10.00"> </text>
</a>
</g>
</g>
<!-- Node3&#45;&gt;Node2 -->
<g id="edge2" class="edge">
<title>Node3&#45;&gt;Node2</title>
<path fill="none" stroke="midnightblue" d="M83.5,-662.18C83.5,-654.22 83.5,-645.35 83.5,-635.87"/>
<polygon fill="none" stroke="midnightblue" points="80,-662.41 83.5,-672.41 87,-662.41 80,-662.41"/>
</g>
</g>
</svg>
