<?xml version="1.0" encoding="UTF-8" standalone="no"?>
<!DOCTYPE svg PUBLIC "-//W3C//DTD SVG 1.1//EN"
 "http://www.w3.org/Graphics/SVG/1.1/DTD/svg11.dtd">
<!-- Generated by graphviz version 2.43.0 (0)
 -->
<!-- Title: parseOpxSpikes Pages: 1 -->
<svg width="121pt" height="226pt"
 viewBox="0.00 0.00 121.00 226.00" xmlns="http://www.w3.org/2000/svg" xmlns:xlink="http://www.w3.org/1999/xlink">
<g id="graph0" class="graph" transform="scale(1 1) rotate(0) translate(4 222)">
<title>parseOpxSpikes</title>
<!-- Node1 -->
<g id="node1" class="node">
<title>Node1</title>
<g id="a_node1"><a xlink:title=" ">
<polygon fill="#bfbfbf" stroke="black" points="0,-0.5 0,-123.5 113,-123.5 113,-0.5 0,-0.5"/>
<text text-anchor="middle" x="56.5" y="-111.5" font-family="Iosevka" font-size="10.00">parseOpxSpikes</text>
<polyline fill="none" stroke="black" points="0,-104.5 113,-104.5 "/>
<text text-anchor="start" x="8" y="-92.5" font-family="Iosevka" font-size="10.00">+ stimulus</text>
<polyline fill="none" stroke="black" points="0,-85.5 113,-85.5 "/>
<text text-anchor="start" x="8" y="-73.5" font-family="Iosevka" font-size="10.00">+ parseOpxSpikes()</text>
<text text-anchor="start" x="8" y="-62.5" font-family="Iosevka" font-size="10.00">+ initialize()</text>
<text text-anchor="start" x="8" y="-51.5" font-family="Iosevka" font-size="10.00">+ parseRun()</text>
<text text-anchor="start" x="8" y="-40.5" font-family="Iosevka" font-size="10.00">+ parseNextRun()</text>
<text text-anchor="start" x="8" y="-29.5" font-family="Iosevka" font-size="10.00">+ parseRuns()</text>
<text text-anchor="start" x="8" y="-18.5" font-family="Iosevka" font-size="10.00">+ parseAllRuns()</text>
<text text-anchor="start" x="8" y="-7.5" font-family="Iosevka" font-size="10.00">+ parseBursts()</text>
</a>
</g>
</g>
<!-- Node2 -->
<g id="node2" class="node">
<title>Node2</title>
<g id="a_node2"><a xlink:title=" ">
<polygon fill="none" stroke="#bfbfbf" points="31.5,-160.5 31.5,-217.5 81.5,-217.5 81.5,-160.5 31.5,-160.5"/>
<text text-anchor="middle" x="56.5" y="-205.5" font-family="Iosevka" font-size="10.00">handle</text>
<polyline fill="none" stroke="#bfbfbf" points="31.5,-198.5 81.5,-198.5 "/>
<text text-anchor="middle" x="56.5" y="-186.5" font-family="Iosevka" font-size="10.00"> </text>
<polyline fill="none" stroke="#bfbfbf" points="31.5,-179.5 81.5,-179.5 "/>
<text text-anchor="middle" x="56.5" y="-167.5" font-family="Iosevka" font-size="10.00"> </text>
</a>
</g>
</g>
<!-- Node2&#45;&gt;Node1 -->
<g id="edge1" class="edge">
<title>Node2&#45;&gt;Node1</title>
<path fill="none" stroke="midnightblue" d="M56.5,-150.1C56.5,-141.74 56.5,-132.68 56.5,-123.67"/>
<polygon fill="none" stroke="midnightblue" points="53,-150.26 56.5,-160.26 60,-150.26 53,-150.26"/>
</g>
</g>
</svg>
