<?xml version="1.0" encoding="UTF-8" standalone="no"?>
<!DOCTYPE svg PUBLIC "-//W3C//DTD SVG 1.1//EN"
 "http://www.w3.org/Graphics/SVG/1.1/DTD/svg11.dtd">
<!-- Generated by graphviz version 2.50.0 (20211204.2007)
 -->
<!-- Title: opxOnline Pages: 1 -->
<svg width="121pt" height="402pt"
 viewBox="0.00 0.00 121.00 402.00" xmlns="http://www.w3.org/2000/svg" xmlns:xlink="http://www.w3.org/1999/xlink">
<g id="graph0" class="graph" transform="scale(1 1) rotate(0) translate(4 398)">
<title>opxOnline</title>
<!-- Node1 -->
<g id="node1" class="node">
<title>Node1</title>
<g id="a_node1"><a xlink:title="opxOnline Provides an interface between Opticka and the Plexon for online data display">
<polygon fill="#bfbfbf" stroke="black" points="0,-0.5 0,-299.5 113,-299.5 113,-0.5 0,-0.5"/>
<text text-anchor="middle" x="56.5" y="-287.5" font-family="Iosevka" font-size="10.00">opxOnline</text>
<polyline fill="none" stroke="black" points="0,-280.5 113,-280.5 "/>
<text text-anchor="start" x="8" y="-268.5" font-family="Iosevka" font-size="10.00">+ type</text>
<text text-anchor="start" x="8" y="-257.5" font-family="Iosevka" font-size="10.00">+ eventStart</text>
<text text-anchor="start" x="8" y="-246.5" font-family="Iosevka" font-size="10.00">+ eventEnd</text>
<text text-anchor="start" x="8" y="-235.5" font-family="Iosevka" font-size="10.00">+ maxWait</text>
<text text-anchor="start" x="8" y="-224.5" font-family="Iosevka" font-size="10.00">+ autoRun</text>
<text text-anchor="start" x="8" y="-213.5" font-family="Iosevka" font-size="10.00">+ protocol</text>
<text text-anchor="start" x="8" y="-202.5" font-family="Iosevka" font-size="10.00">+ rAddress</text>
<text text-anchor="start" x="8" y="-191.5" font-family="Iosevka" font-size="10.00">+ rPort</text>
<text text-anchor="start" x="8" y="-180.5" font-family="Iosevka" font-size="10.00">+ lAddress</text>
<text text-anchor="start" x="8" y="-169.5" font-family="Iosevka" font-size="10.00">+ lPort</text>
<text text-anchor="start" x="8" y="-158.5" font-family="Iosevka" font-size="10.00">and 6 more...</text>
<polyline fill="none" stroke="black" points="0,-151.5 113,-151.5 "/>
<text text-anchor="start" x="8" y="-139.5" font-family="Iosevka" font-size="10.00">+ opxOnline()</text>
<text text-anchor="start" x="8" y="-128.5" font-family="Iosevka" font-size="10.00">+ listenMaster()</text>
<text text-anchor="start" x="8" y="-117.5" font-family="Iosevka" font-size="10.00">+ listenSlave()</text>
<text text-anchor="start" x="8" y="-106.5" font-family="Iosevka" font-size="10.00">+ parseData()</text>
<text text-anchor="start" x="8" y="-95.5" font-family="Iosevka" font-size="10.00">+ collectData()</text>
<text text-anchor="start" x="8" y="-84.5" font-family="Iosevka" font-size="10.00">+ plot()</text>
<text text-anchor="start" x="8" y="-73.5" font-family="Iosevka" font-size="10.00">+ plotData()</text>
<text text-anchor="start" x="8" y="-62.5" font-family="Iosevka" font-size="10.00">+ selectIndex()</text>
<text text-anchor="start" x="8" y="-51.5" font-family="Iosevka" font-size="10.00">+ plotPSTH()</text>
<text text-anchor="start" x="8" y="-40.5" font-family="Iosevka" font-size="10.00">+ plotCurve()</text>
<text text-anchor="start" x="8" y="-29.5" font-family="Iosevka" font-size="10.00">and 10 more...</text>
<text text-anchor="start" x="8" y="-18.5" font-family="Iosevka" font-size="10.00">+ loadobj()</text>
<text text-anchor="start" x="8" y="-7.5" font-family="Iosevka" font-size="10.00">+ saveobj()</text>
</a>
</g>
</g>
<!-- Node2 -->
<g id="node2" class="node">
<title>Node2</title>
<g id="a_node2"><a xlink:title=" ">
<polygon fill="none" stroke="black" points="30,-336.5 30,-393.5 83,-393.5 83,-336.5 30,-336.5"/>
<text text-anchor="middle" x="56.5" y="-381.5" font-family="Iosevka" font-size="10.00">handle</text>
<polyline fill="none" stroke="black" points="30,-374.5 83,-374.5 "/>
<text text-anchor="middle" x="56.5" y="-362.5" font-family="Iosevka" font-size="10.00"> </text>
<polyline fill="none" stroke="black" points="30,-355.5 83,-355.5 "/>
<text text-anchor="middle" x="56.5" y="-343.5" font-family="Iosevka" font-size="10.00"> </text>
</a>
</g>
</g>
<!-- Node2&#45;&gt;Node1 -->
<g id="edge1" class="edge">
<title>Node2&#45;&gt;Node1</title>
<path fill="none" stroke="midnightblue" d="M56.5,-325.92C56.5,-318 56.5,-309.19 56.5,-299.87"/>
<polygon fill="none" stroke="midnightblue" points="53,-326.15 56.5,-336.15 60,-326.15 53,-326.15"/>
</g>
</g>
</svg>
