<?xml version="1.0" encoding="UTF-8" standalone="no"?>
<!DOCTYPE svg PUBLIC "-//W3C//DTD SVG 1.1//EN"
 "http://www.w3.org/Graphics/SVG/1.1/DTD/svg11.dtd">
<!-- Generated by graphviz version 2.50.0 (20211204.2007)
 -->
<!-- Title: plusplusManager Pages: 1 -->
<svg width="175pt" height="771pt"
 viewBox="0.00 0.00 175.00 771.00" xmlns="http://www.w3.org/2000/svg" xmlns:xlink="http://www.w3.org/1999/xlink">
<g id="graph0" class="graph" transform="scale(1 1) rotate(0) translate(4 767)">
<title>plusplusManager</title>
<!-- Node1 -->
<g id="node1" class="node">
<title>Node1</title>
<g id="a_node1"><a xlink:title="Display++ Communication Class.">
<polygon fill="#bfbfbf" stroke="black" points="12,-0.5 12,-277.5 155,-277.5 155,-0.5 12,-0.5"/>
<text text-anchor="middle" x="83.5" y="-265.5" font-family="Iosevka" font-size="10.00">plusplusManager</text>
<polyline fill="none" stroke="black" points="12,-258.5 155,-258.5 "/>
<text text-anchor="start" x="20" y="-246.5" font-family="Iosevka" font-size="10.00">+ verbose</text>
<text text-anchor="start" x="20" y="-235.5" font-family="Iosevka" font-size="10.00">+ strobeMode</text>
<text text-anchor="start" x="20" y="-224.5" font-family="Iosevka" font-size="10.00">+ strobeLine</text>
<text text-anchor="start" x="20" y="-213.5" font-family="Iosevka" font-size="10.00">+ sM</text>
<text text-anchor="start" x="20" y="-202.5" font-family="Iosevka" font-size="10.00">+ mask</text>
<text text-anchor="start" x="20" y="-191.5" font-family="Iosevka" font-size="10.00">+ repetitions</text>
<text text-anchor="start" x="20" y="-180.5" font-family="Iosevka" font-size="10.00">+ command</text>
<text text-anchor="start" x="20" y="-169.5" font-family="Iosevka" font-size="10.00">+ nWindows</text>
<text text-anchor="start" x="20" y="-158.5" font-family="Iosevka" font-size="10.00">+ sendData</text>
<text text-anchor="start" x="20" y="-147.5" font-family="Iosevka" font-size="10.00">+ sendMask</text>
<text text-anchor="start" x="20" y="-136.5" font-family="Iosevka" font-size="10.00">and 6 more...</text>
<polyline fill="none" stroke="black" points="12,-129.5 155,-129.5 "/>
<text text-anchor="start" x="20" y="-117.5" font-family="Iosevka" font-size="10.00">+ plusplusManager()</text>
<text text-anchor="start" x="20" y="-106.5" font-family="Iosevka" font-size="10.00">+ open()</text>
<text text-anchor="start" x="20" y="-95.5" font-family="Iosevka" font-size="10.00">+ sendStrobe()</text>
<text text-anchor="start" x="20" y="-84.5" font-family="Iosevka" font-size="10.00">+ prepareStrobe()</text>
<text text-anchor="start" x="20" y="-73.5" font-family="Iosevka" font-size="10.00">+ triggerStrobe()</text>
<text text-anchor="start" x="20" y="-62.5" font-family="Iosevka" font-size="10.00">+ sendStrobeAndFlip()</text>
<text text-anchor="start" x="20" y="-51.5" font-family="Iosevka" font-size="10.00">+ sendTTL()</text>
<text text-anchor="start" x="20" y="-40.5" font-family="Iosevka" font-size="10.00">+ resetStrobe()</text>
<text text-anchor="start" x="20" y="-29.5" font-family="Iosevka" font-size="10.00">+ statusScreen()</text>
<text text-anchor="start" x="20" y="-18.5" font-family="Iosevka" font-size="10.00">+ bitsMode()</text>
<text text-anchor="start" x="20" y="-7.5" font-family="Iosevka" font-size="10.00">and 16 more...</text>
</a>
</g>
</g>
<!-- Node2 -->
<g id="node2" class="node">
<title>Node2</title>
<g id="a_node2"><a xlink:href="classopticka_core.html" target="_top" xlink:title="optickaCore base class inherited by many other opticka classes.">
<polygon fill="none" stroke="black" points="0,-314.5 0,-668.5 167,-668.5 167,-314.5 0,-314.5"/>
<text text-anchor="middle" x="83.5" y="-656.5" font-family="Iosevka" font-size="10.00">optickaCore</text>
<polyline fill="none" stroke="black" points="0,-649.5 167,-649.5 "/>
<text text-anchor="start" x="8" y="-637.5" font-family="Iosevka" font-size="10.00">+ name</text>
<text text-anchor="start" x="8" y="-626.5" font-family="Iosevka" font-size="10.00">+ comment</text>
<text text-anchor="start" x="8" y="-615.5" font-family="Iosevka" font-size="10.00">+ verbose</text>
<text text-anchor="start" x="8" y="-604.5" font-family="Iosevka" font-size="10.00">+ dateStamp</text>
<text text-anchor="start" x="8" y="-593.5" font-family="Iosevka" font-size="10.00">+ uuid</text>
<text text-anchor="start" x="8" y="-582.5" font-family="Iosevka" font-size="10.00">+ paths</text>
<text text-anchor="start" x="8" y="-571.5" font-family="Iosevka" font-size="10.00">+ fullName</text>
<text text-anchor="start" x="8" y="-560.5" font-family="Iosevka" font-size="10.00"># cloning</text>
<text text-anchor="start" x="8" y="-549.5" font-family="Iosevka" font-size="10.00"># mversion</text>
<text text-anchor="start" x="8" y="-538.5" font-family="Iosevka" font-size="10.00"># className</text>
<text text-anchor="start" x="8" y="-527.5" font-family="Iosevka" font-size="10.00"># savePrefix</text>
<polyline fill="none" stroke="black" points="0,-520.5 167,-520.5 "/>
<text text-anchor="start" x="8" y="-508.5" font-family="Iosevka" font-size="10.00">+ optickaCore()</text>
<text text-anchor="start" x="8" y="-497.5" font-family="Iosevka" font-size="10.00">+ fullName()</text>
<text text-anchor="start" x="8" y="-486.5" font-family="Iosevka" font-size="10.00">+ initialiseSaveFile()</text>
<text text-anchor="start" x="8" y="-475.5" font-family="Iosevka" font-size="10.00">+ findAttributes()</text>
<text text-anchor="start" x="8" y="-464.5" font-family="Iosevka" font-size="10.00">+ findAttributesandType()</text>
<text text-anchor="start" x="8" y="-453.5" font-family="Iosevka" font-size="10.00">+ clone()</text>
<text text-anchor="start" x="8" y="-442.5" font-family="Iosevka" font-size="10.00">+ checkSuperclasses()</text>
<text text-anchor="start" x="8" y="-431.5" font-family="Iosevka" font-size="10.00">+ editProperties()</text>
<text text-anchor="start" x="8" y="-420.5" font-family="Iosevka" font-size="10.00">+ set()</text>
<text text-anchor="start" x="8" y="-409.5" font-family="Iosevka" font-size="10.00">+ checkPaths()</text>
<text text-anchor="start" x="8" y="-398.5" font-family="Iosevka" font-size="10.00">+ makeArgs()</text>
<text text-anchor="start" x="8" y="-387.5" font-family="Iosevka" font-size="10.00">+ addDefaults()</text>
<text text-anchor="start" x="8" y="-376.5" font-family="Iosevka" font-size="10.00"># parseArgs()</text>
<text text-anchor="start" x="8" y="-365.5" font-family="Iosevka" font-size="10.00"># addArgs()</text>
<text text-anchor="start" x="8" y="-354.5" font-family="Iosevka" font-size="10.00"># setPaths()</text>
<text text-anchor="start" x="8" y="-343.5" font-family="Iosevka" font-size="10.00"># toStructure()</text>
<text text-anchor="start" x="8" y="-332.5" font-family="Iosevka" font-size="10.00"># getType()</text>
<text text-anchor="start" x="8" y="-321.5" font-family="Iosevka" font-size="10.00"># salutation()</text>
</a>
</g>
</g>
<!-- Node2&#45;&gt;Node1 -->
<g id="edge1" class="edge">
<title>Node2&#45;&gt;Node1</title>
<path fill="none" stroke="midnightblue" d="M83.5,-304.34C83.5,-295.36 83.5,-286.43 83.5,-277.63"/>
<polygon fill="none" stroke="midnightblue" points="80,-304.48 83.5,-314.48 87,-304.48 80,-304.48"/>
</g>
<!-- Node3 -->
<g id="node3" class="node">
<title>Node3</title>
<g id="a_node3"><a xlink:title=" ">
<polygon fill="none" stroke="black" points="57,-705.5 57,-762.5 110,-762.5 110,-705.5 57,-705.5"/>
<text text-anchor="middle" x="83.5" y="-750.5" font-family="Iosevka" font-size="10.00">handle</text>
<polyline fill="none" stroke="black" points="57,-743.5 110,-743.5 "/>
<text text-anchor="middle" x="83.5" y="-731.5" font-family="Iosevka" font-size="10.00"> </text>
<polyline fill="none" stroke="black" points="57,-724.5 110,-724.5 "/>
<text text-anchor="middle" x="83.5" y="-712.5" font-family="Iosevka" font-size="10.00"> </text>
</a>
</g>
</g>
<!-- Node3&#45;&gt;Node2 -->
<g id="edge2" class="edge">
<title>Node3&#45;&gt;Node2</title>
<path fill="none" stroke="midnightblue" d="M83.5,-695.18C83.5,-687.22 83.5,-678.35 83.5,-668.87"/>
<polygon fill="none" stroke="midnightblue" points="80,-695.41 83.5,-705.41 87,-695.41 80,-695.41"/>
</g>
</g>
</svg>
