<?xml version="1.0" encoding="UTF-8" standalone="no"?>
<!DOCTYPE svg PUBLIC "-//W3C//DTD SVG 1.1//EN"
 "http://www.w3.org/Graphics/SVG/1.1/DTD/svg11.dtd">
<!-- Generated by graphviz version 2.43.0 (0)
 -->
<!-- Title: taskSequence Pages: 1 -->
<svg width="254pt" height="815pt"
 viewBox="0.00 0.00 254.00 815.00" xmlns="http://www.w3.org/2000/svg" xmlns:xlink="http://www.w3.org/1999/xlink">
<g id="graph0" class="graph" transform="scale(1 1) rotate(0) translate(4 811)">
<title>taskSequence</title>
<!-- Node1 -->
<g id="node1" class="node">
<title>Node1</title>
<g id="a_node1"><a xlink:title="Block&#45;based variable randomisation manager.">
<polygon fill="#bfbfbf" stroke="black" points="74,-0.5 74,-288.5 200,-288.5 200,-0.5 74,-0.5"/>
<text text-anchor="middle" x="137" y="-276.5" font-family="Iosevka" font-size="10.00">taskSequence</text>
<polyline fill="none" stroke="black" points="74,-269.5 200,-269.5 "/>
<text text-anchor="start" x="82" y="-257.5" font-family="Iosevka" font-size="10.00">+ nVar</text>
<text text-anchor="start" x="82" y="-246.5" font-family="Iosevka" font-size="10.00">+ blockVar</text>
<text text-anchor="start" x="82" y="-235.5" font-family="Iosevka" font-size="10.00">+ trialVar</text>
<text text-anchor="start" x="82" y="-224.5" font-family="Iosevka" font-size="10.00">+ nBlocks</text>
<text text-anchor="start" x="82" y="-213.5" font-family="Iosevka" font-size="10.00">+ randomise</text>
<text text-anchor="start" x="82" y="-202.5" font-family="Iosevka" font-size="10.00">+ addBlank</text>
<text text-anchor="start" x="82" y="-191.5" font-family="Iosevka" font-size="10.00">+ realTime</text>
<text text-anchor="start" x="82" y="-180.5" font-family="Iosevka" font-size="10.00">+ randomSeed</text>
<text text-anchor="start" x="82" y="-169.5" font-family="Iosevka" font-size="10.00">+ randomGenerator</text>
<text text-anchor="start" x="82" y="-158.5" font-family="Iosevka" font-size="10.00">+ verbose</text>
<text text-anchor="start" x="82" y="-147.5" font-family="Iosevka" font-size="10.00">and 6 more...</text>
<polyline fill="none" stroke="black" points="74,-140.5 200,-140.5 "/>
<text text-anchor="start" x="82" y="-128.5" font-family="Iosevka" font-size="10.00">+ taskSequence()</text>
<text text-anchor="start" x="82" y="-117.5" font-family="Iosevka" font-size="10.00">+ initialiseGenerator()</text>
<text text-anchor="start" x="82" y="-106.5" font-family="Iosevka" font-size="10.00">+ resetRandom()</text>
<text text-anchor="start" x="82" y="-95.5" font-family="Iosevka" font-size="10.00">+ randomiseTask()</text>
<text text-anchor="start" x="82" y="-84.5" font-family="Iosevka" font-size="10.00">+ initialise()</text>
<text text-anchor="start" x="82" y="-73.5" font-family="Iosevka" font-size="10.00">+ backup()</text>
<text text-anchor="start" x="82" y="-62.5" font-family="Iosevka" font-size="10.00">+ updateTask()</text>
<text text-anchor="start" x="82" y="-51.5" font-family="Iosevka" font-size="10.00">+ findRun()</text>
<text text-anchor="start" x="82" y="-40.5" font-family="Iosevka" font-size="10.00">+ rewindTask()</text>
<text text-anchor="start" x="82" y="-29.5" font-family="Iosevka" font-size="10.00">+ resetRun()</text>
<text text-anchor="start" x="82" y="-18.5" font-family="Iosevka" font-size="10.00">and 11 more...</text>
<text text-anchor="start" x="82" y="-7.5" font-family="Iosevka" font-size="10.00">+ cellStruct()</text>
</a>
</g>
</g>
<!-- Node2 -->
<g id="node2" class="node">
<title>Node2</title>
<g id="a_node2"><a xlink:href="classopticka_core.html" target="_top" xlink:title="optickaCore base class inherited by other opticka classes.">
<polygon fill="none" stroke="black" points="0,-325.5 0,-712.5 142,-712.5 142,-325.5 0,-325.5"/>
<text text-anchor="middle" x="71" y="-700.5" font-family="Iosevka" font-size="10.00">optickaCore</text>
<polyline fill="none" stroke="black" points="0,-693.5 142,-693.5 "/>
<text text-anchor="start" x="8" y="-681.5" font-family="Iosevka" font-size="10.00">+ name</text>
<text text-anchor="start" x="8" y="-670.5" font-family="Iosevka" font-size="10.00">+ comment</text>
<text text-anchor="start" x="8" y="-659.5" font-family="Iosevka" font-size="10.00">+ verbose</text>
<text text-anchor="start" x="8" y="-648.5" font-family="Iosevka" font-size="10.00">+ dateStamp</text>
<text text-anchor="start" x="8" y="-637.5" font-family="Iosevka" font-size="10.00">+ uuid</text>
<text text-anchor="start" x="8" y="-626.5" font-family="Iosevka" font-size="10.00">+ paths</text>
<text text-anchor="start" x="8" y="-615.5" font-family="Iosevka" font-size="10.00">+ fullName</text>
<text text-anchor="start" x="8" y="-604.5" font-family="Iosevka" font-size="10.00"># cloning</text>
<text text-anchor="start" x="8" y="-593.5" font-family="Iosevka" font-size="10.00"># mversion</text>
<text text-anchor="start" x="8" y="-582.5" font-family="Iosevka" font-size="10.00"># className</text>
<text text-anchor="start" x="8" y="-571.5" font-family="Iosevka" font-size="10.00"># savePrefix</text>
<polyline fill="none" stroke="black" points="0,-564.5 142,-564.5 "/>
<text text-anchor="start" x="8" y="-552.5" font-family="Iosevka" font-size="10.00">+ optickaCore()</text>
<text text-anchor="start" x="8" y="-541.5" font-family="Iosevka" font-size="10.00">+ fullName()</text>
<text text-anchor="start" x="8" y="-530.5" font-family="Iosevka" font-size="10.00">+ initialiseSaveFile()</text>
<text text-anchor="start" x="8" y="-519.5" font-family="Iosevka" font-size="10.00">+ findAttributes()</text>
<text text-anchor="start" x="8" y="-508.5" font-family="Iosevka" font-size="10.00">+ findAttributesandType()</text>
<text text-anchor="start" x="8" y="-497.5" font-family="Iosevka" font-size="10.00">+ findPropertyDefault()</text>
<text text-anchor="start" x="8" y="-486.5" font-family="Iosevka" font-size="10.00">+ clone()</text>
<text text-anchor="start" x="8" y="-475.5" font-family="Iosevka" font-size="10.00">+ checkSuperclasses()</text>
<text text-anchor="start" x="8" y="-464.5" font-family="Iosevka" font-size="10.00">+ editProperties()</text>
<text text-anchor="start" x="8" y="-453.5" font-family="Iosevka" font-size="10.00">+ setProp()</text>
<text text-anchor="start" x="8" y="-442.5" font-family="Iosevka" font-size="10.00">+ checkPaths()</text>
<text text-anchor="start" x="8" y="-431.5" font-family="Iosevka" font-size="10.00">+ makeArgs()</text>
<text text-anchor="start" x="8" y="-420.5" font-family="Iosevka" font-size="10.00">+ addDefaults()</text>
<text text-anchor="start" x="8" y="-409.5" font-family="Iosevka" font-size="10.00">+ hasKey()</text>
<text text-anchor="start" x="8" y="-398.5" font-family="Iosevka" font-size="10.00"># parseArgs()</text>
<text text-anchor="start" x="8" y="-387.5" font-family="Iosevka" font-size="10.00"># addArgs()</text>
<text text-anchor="start" x="8" y="-376.5" font-family="Iosevka" font-size="10.00"># setPaths()</text>
<text text-anchor="start" x="8" y="-365.5" font-family="Iosevka" font-size="10.00"># toStructure()</text>
<text text-anchor="start" x="8" y="-354.5" font-family="Iosevka" font-size="10.00"># getType()</text>
<text text-anchor="start" x="8" y="-343.5" font-family="Iosevka" font-size="10.00"># salutation()</text>
<text text-anchor="start" x="8" y="-332.5" font-family="Iosevka" font-size="10.00"># LogOutput()</text>
</a>
</g>
</g>
<!-- Node2&#45;&gt;Node1 -->
<g id="edge1" class="edge">
<title>Node2&#45;&gt;Node1</title>
<path fill="none" stroke="midnightblue" d="M106.9,-315.36C108.49,-306.41 110.07,-297.51 111.62,-288.75"/>
<polygon fill="none" stroke="midnightblue" points="103.41,-315.02 105.11,-325.48 110.3,-316.24 103.41,-315.02"/>
</g>
<!-- Node3 -->
<g id="node3" class="node">
<title>Node3</title>
<g id="a_node3"><a xlink:title=" ">
<polygon fill="none" stroke="#bfbfbf" points="46,-749.5 46,-806.5 96,-806.5 96,-749.5 46,-749.5"/>
<text text-anchor="middle" x="71" y="-794.5" font-family="Iosevka" font-size="10.00">handle</text>
<polyline fill="none" stroke="#bfbfbf" points="46,-787.5 96,-787.5 "/>
<text text-anchor="middle" x="71" y="-775.5" font-family="Iosevka" font-size="10.00"> </text>
<polyline fill="none" stroke="#bfbfbf" points="46,-768.5 96,-768.5 "/>
<text text-anchor="middle" x="71" y="-756.5" font-family="Iosevka" font-size="10.00"> </text>
</a>
</g>
</g>
<!-- Node3&#45;&gt;Node2 -->
<g id="edge2" class="edge">
<title>Node3&#45;&gt;Node2</title>
<path fill="none" stroke="midnightblue" d="M71,-739.46C71,-731.38 71,-722.31 71,-712.58"/>
<polygon fill="none" stroke="midnightblue" points="67.5,-739.5 71,-749.5 74.5,-739.5 67.5,-739.5"/>
</g>
<!-- Node4 -->
<g id="node4" class="node">
<title>Node4</title>
<g id="a_node4"><a xlink:title=" ">
<polygon fill="none" stroke="#bfbfbf" points="160,-490.5 160,-547.5 246,-547.5 246,-490.5 160,-490.5"/>
<text text-anchor="middle" x="203" y="-535.5" font-family="Iosevka" font-size="10.00">dynamicprops</text>
<polyline fill="none" stroke="#bfbfbf" points="160,-528.5 246,-528.5 "/>
<text text-anchor="middle" x="203" y="-516.5" font-family="Iosevka" font-size="10.00"> </text>
<polyline fill="none" stroke="#bfbfbf" points="160,-509.5 246,-509.5 "/>
<text text-anchor="middle" x="203" y="-497.5" font-family="Iosevka" font-size="10.00"> </text>
</a>
</g>
</g>
<!-- Node4&#45;&gt;Node1 -->
<g id="edge3" class="edge">
<title>Node4&#45;&gt;Node1</title>
<path fill="none" stroke="midnightblue" d="M196.35,-480.44C188.4,-435.58 174.63,-357.89 162.36,-288.63"/>
<polygon fill="none" stroke="midnightblue" points="192.9,-481.07 198.09,-490.31 199.79,-479.85 192.9,-481.07"/>
</g>
</g>
</svg>
