<?xml version="1.0" encoding="UTF-8" standalone="no"?>
<!DOCTYPE svg PUBLIC "-//W3C//DTD SVG 1.1//EN"
 "http://www.w3.org/Graphics/SVG/1.1/DTD/svg11.dtd">
<!-- Generated by graphviz version 2.43.0 (0)
 -->
<!-- Title: tittaCalMovieStimulus Pages: 1 -->
<svg width="152pt" height="303pt"
 viewBox="0.00 0.00 152.00 303.00" xmlns="http://www.w3.org/2000/svg" xmlns:xlink="http://www.w3.org/1999/xlink">
<g id="graph0" class="graph" transform="scale(1 1) rotate(0) translate(4 299)">
<title>tittaCalMovieStimulus</title>
<!-- Node1 -->
<g id="node1" class="node">
<title>Node1</title>
<g id="a_node1"><a xlink:title="plays an animated movie for a calibration stimulus">
<polygon fill="#bfbfbf" stroke="black" points="0,-0.5 0,-200.5 144,-200.5 144,-0.5 0,-0.5"/>
<text text-anchor="middle" x="72" y="-188.5" font-family="Iosevka" font-size="10.00">tittaCalMovieStimulus</text>
<polyline fill="none" stroke="black" points="0,-181.5 144,-181.5 "/>
<text text-anchor="start" x="8" y="-169.5" font-family="Iosevka" font-size="10.00">+ doShrink</text>
<text text-anchor="start" x="8" y="-158.5" font-family="Iosevka" font-size="10.00">+ shrinkTime</text>
<text text-anchor="start" x="8" y="-147.5" font-family="Iosevka" font-size="10.00">+ doMove</text>
<text text-anchor="start" x="8" y="-136.5" font-family="Iosevka" font-size="10.00">+ moveTime</text>
<text text-anchor="start" x="8" y="-125.5" font-family="Iosevka" font-size="10.00">+ moveWithAcceleration</text>
<text text-anchor="start" x="8" y="-114.5" font-family="Iosevka" font-size="10.00">+ doOscillate</text>
<text text-anchor="start" x="8" y="-103.5" font-family="Iosevka" font-size="10.00">+ oscillatePeriod</text>
<text text-anchor="start" x="8" y="-92.5" font-family="Iosevka" font-size="10.00">+ blinkInterval</text>
<text text-anchor="start" x="8" y="-81.5" font-family="Iosevka" font-size="10.00">+ blinkCount</text>
<text text-anchor="start" x="8" y="-70.5" font-family="Iosevka" font-size="10.00">+ fixBackSizeBlink</text>
<text text-anchor="start" x="8" y="-59.5" font-family="Iosevka" font-size="10.00">and 8 more...</text>
<polyline fill="none" stroke="black" points="0,-52.5 144,-52.5 "/>
<text text-anchor="start" x="8" y="-40.5" font-family="Iosevka" font-size="10.00">+ tittaCalMovieStimulus()</text>
<text text-anchor="start" x="8" y="-29.5" font-family="Iosevka" font-size="10.00">+ setCleanState()</text>
<text text-anchor="start" x="8" y="-18.5" font-family="Iosevka" font-size="10.00">+ initialise()</text>
<text text-anchor="start" x="8" y="-7.5" font-family="Iosevka" font-size="10.00">+ doDraw()</text>
</a>
</g>
</g>
<!-- Node2 -->
<g id="node2" class="node">
<title>Node2</title>
<g id="a_node2"><a xlink:title=" ">
<polygon fill="none" stroke="#bfbfbf" points="47,-237.5 47,-294.5 97,-294.5 97,-237.5 47,-237.5"/>
<text text-anchor="middle" x="72" y="-282.5" font-family="Iosevka" font-size="10.00">handle</text>
<polyline fill="none" stroke="#bfbfbf" points="47,-275.5 97,-275.5 "/>
<text text-anchor="middle" x="72" y="-263.5" font-family="Iosevka" font-size="10.00"> </text>
<polyline fill="none" stroke="#bfbfbf" points="47,-256.5 97,-256.5 "/>
<text text-anchor="middle" x="72" y="-244.5" font-family="Iosevka" font-size="10.00"> </text>
</a>
</g>
</g>
<!-- Node2&#45;&gt;Node1 -->
<g id="edge1" class="edge">
<title>Node2&#45;&gt;Node1</title>
<path fill="none" stroke="midnightblue" d="M72,-227.04C72,-218.87 72,-209.87 72,-200.55"/>
<polygon fill="none" stroke="midnightblue" points="68.5,-227.26 72,-237.26 75.5,-227.26 68.5,-227.26"/>
</g>
</g>
</svg>
