<?xml version="1.0" encoding="UTF-8" standalone="no"?>
<!DOCTYPE svg PUBLIC "-//W3C//DTD SVG 1.1//EN"
 "http://www.w3.org/Graphics/SVG/1.1/DTD/svg11.dtd">
<!-- Generated by graphviz version 2.50.0 (20211204.2007)
 -->
<!-- Title: arduinoSerial Pages: 1 -->
<svg width="127pt" height="314pt"
 viewBox="0.00 0.00 127.00 314.00" xmlns="http://www.w3.org/2000/svg" xmlns:xlink="http://www.w3.org/1999/xlink">
<g id="graph0" class="graph" transform="scale(1 1) rotate(0) translate(4 310)">
<title>arduinoSerial</title>
<!-- Node1 -->
<g id="node1" class="node">
<title>Node1</title>
<g id="a_node1"><a xlink:title=" ">
<polygon fill="#bfbfbf" stroke="black" points="0,-0.5 0,-211.5 119,-211.5 119,-0.5 0,-0.5"/>
<text text-anchor="middle" x="59.5" y="-199.5" font-family="Iosevka" font-size="10.00">arduinoSerial</text>
<polyline fill="none" stroke="black" points="0,-192.5 119,-192.5 "/>
<text text-anchor="start" x="8" y="-180.5" font-family="Iosevka" font-size="10.00">+ chks</text>
<text text-anchor="start" x="8" y="-169.5" font-family="Iosevka" font-size="10.00">+ chkp</text>
<polyline fill="none" stroke="black" points="0,-162.5 119,-162.5 "/>
<text text-anchor="start" x="8" y="-150.5" font-family="Iosevka" font-size="10.00">+ arduinoSerial()</text>
<text text-anchor="start" x="8" y="-139.5" font-family="Iosevka" font-size="10.00">+ delete()</text>
<text text-anchor="start" x="8" y="-128.5" font-family="Iosevka" font-size="10.00">+ disp()</text>
<text text-anchor="start" x="8" y="-117.5" font-family="Iosevka" font-size="10.00">+ serial()</text>
<text text-anchor="start" x="8" y="-106.5" font-family="Iosevka" font-size="10.00">+ flush()</text>
<text text-anchor="start" x="8" y="-95.5" font-family="Iosevka" font-size="10.00">+ pinMode()</text>
<text text-anchor="start" x="8" y="-84.5" font-family="Iosevka" font-size="10.00">+ digitalRead()</text>
<text text-anchor="start" x="8" y="-73.5" font-family="Iosevka" font-size="10.00">+ digitalWrite()</text>
<text text-anchor="start" x="8" y="-62.5" font-family="Iosevka" font-size="10.00">+ timedTTL()</text>
<text text-anchor="start" x="8" y="-51.5" font-family="Iosevka" font-size="10.00">+ analogRead()</text>
<text text-anchor="start" x="8" y="-40.5" font-family="Iosevka" font-size="10.00">and 18 more...</text>
<text text-anchor="start" x="8" y="-29.5" font-family="Iosevka" font-size="10.00">+ checknum()</text>
<text text-anchor="start" x="8" y="-18.5" font-family="Iosevka" font-size="10.00">+ checkstr()</text>
<text text-anchor="start" x="8" y="-7.5" font-family="Iosevka" font-size="10.00">+ checkser()</text>
</a>
</g>
</g>
<!-- Node2 -->
<g id="node2" class="node">
<title>Node2</title>
<g id="a_node2"><a xlink:title=" ">
<polygon fill="none" stroke="black" points="33,-248.5 33,-305.5 86,-305.5 86,-248.5 33,-248.5"/>
<text text-anchor="middle" x="59.5" y="-293.5" font-family="Iosevka" font-size="10.00">handle</text>
<polyline fill="none" stroke="black" points="33,-286.5 86,-286.5 "/>
<text text-anchor="middle" x="59.5" y="-274.5" font-family="Iosevka" font-size="10.00"> </text>
<polyline fill="none" stroke="black" points="33,-267.5 86,-267.5 "/>
<text text-anchor="middle" x="59.5" y="-255.5" font-family="Iosevka" font-size="10.00"> </text>
</a>
</g>
</g>
<!-- Node2&#45;&gt;Node1 -->
<g id="edge1" class="edge">
<title>Node2&#45;&gt;Node1</title>
<path fill="none" stroke="midnightblue" d="M59.5,-238.23C59.5,-230.04 59.5,-220.99 59.5,-211.58"/>
<polygon fill="none" stroke="midnightblue" points="56,-238.47 59.5,-248.47 63,-238.47 56,-238.47"/>
</g>
</g>
</svg>
