<?xml version="1.0" encoding="UTF-8" standalone="no"?>
<!DOCTYPE svg PUBLIC "-//W3C//DTD SVG 1.1//EN"
 "http://www.w3.org/Graphics/SVG/1.1/DTD/svg11.dtd">
<!-- Generated by graphviz version 2.50.0 (20211204.2007)
 -->
<!-- Title: sendSerialIOPort Pages: 1 -->
<svg width="127pt" height="281pt"
 viewBox="0.00 0.00 127.00 281.00" xmlns="http://www.w3.org/2000/svg" xmlns:xlink="http://www.w3.org/1999/xlink">
<g id="graph0" class="graph" transform="scale(1 1) rotate(0) translate(4 277)">
<title>sendSerialIOPort</title>
<!-- Node1 -->
<g id="node1" class="node">
<title>Node1</title>
<g id="a_node1"><a xlink:title=" ">
<polygon fill="#bfbfbf" stroke="black" points="0,-0.5 0,-178.5 119,-178.5 119,-0.5 0,-0.5"/>
<text text-anchor="middle" x="59.5" y="-166.5" font-family="Iosevka" font-size="10.00">sendSerialIOPort</text>
<polyline fill="none" stroke="black" points="0,-159.5 119,-159.5 "/>
<text text-anchor="start" x="8" y="-147.5" font-family="Iosevka" font-size="10.00">+ name</text>
<text text-anchor="start" x="8" y="-136.5" font-family="Iosevka" font-size="10.00">+ baudRate</text>
<text text-anchor="start" x="8" y="-125.5" font-family="Iosevka" font-size="10.00">+ silentMode</text>
<text text-anchor="start" x="8" y="-114.5" font-family="Iosevka" font-size="10.00">+ verbosity</text>
<text text-anchor="start" x="8" y="-103.5" font-family="Iosevka" font-size="10.00">+ openNow</text>
<polyline fill="none" stroke="black" points="0,-96.5 119,-96.5 "/>
<text text-anchor="start" x="8" y="-84.5" font-family="Iosevka" font-size="10.00">+ sendSerial()</text>
<text text-anchor="start" x="8" y="-73.5" font-family="Iosevka" font-size="10.00">+ open()</text>
<text text-anchor="start" x="8" y="-62.5" font-family="Iosevka" font-size="10.00">+ find()</text>
<text text-anchor="start" x="8" y="-51.5" font-family="Iosevka" font-size="10.00">+ close()</text>
<text text-anchor="start" x="8" y="-40.5" font-family="Iosevka" font-size="10.00">+ setRTS()</text>
<text text-anchor="start" x="8" y="-29.5" font-family="Iosevka" font-size="10.00">+ toggleRTSLine()</text>
<text text-anchor="start" x="8" y="-18.5" font-family="Iosevka" font-size="10.00">+ setDTR()</text>
<text text-anchor="start" x="8" y="-7.5" font-family="Iosevka" font-size="10.00">+ toggleDTRLine()</text>
</a>
</g>
</g>
<!-- Node2 -->
<g id="node2" class="node">
<title>Node2</title>
<g id="a_node2"><a xlink:title=" ">
<polygon fill="none" stroke="black" points="33,-215.5 33,-272.5 86,-272.5 86,-215.5 33,-215.5"/>
<text text-anchor="middle" x="59.5" y="-260.5" font-family="Iosevka" font-size="10.00">handle</text>
<polyline fill="none" stroke="black" points="33,-253.5 86,-253.5 "/>
<text text-anchor="middle" x="59.5" y="-241.5" font-family="Iosevka" font-size="10.00"> </text>
<polyline fill="none" stroke="black" points="33,-234.5 86,-234.5 "/>
<text text-anchor="middle" x="59.5" y="-222.5" font-family="Iosevka" font-size="10.00"> </text>
</a>
</g>
</g>
<!-- Node2&#45;&gt;Node1 -->
<g id="edge1" class="edge">
<title>Node2&#45;&gt;Node1</title>
<path fill="none" stroke="midnightblue" d="M59.5,-205.37C59.5,-197.09 59.5,-187.98 59.5,-178.62"/>
<polygon fill="none" stroke="midnightblue" points="56,-205.38 59.5,-215.38 63,-205.38 56,-205.38"/>
</g>
</g>
</svg>
