<?xml version="1.0" encoding="UTF-8" standalone="no"?>
<!DOCTYPE svg PUBLIC "-//W3C//DTD SVG 1.1//EN"
 "http://www.w3.org/Graphics/SVG/1.1/DTD/svg11.dtd">
<!-- Generated by graphviz version 2.43.0 (0)
 -->
<!-- Title: plaidStimulus Pages: 1 -->
<svg width="254pt" height="1217pt"
 viewBox="0.00 0.00 254.00 1217.00" xmlns="http://www.w3.org/2000/svg" xmlns:xlink="http://www.w3.org/1999/xlink">
<g id="graph0" class="graph" transform="scale(1 1) rotate(0) translate(4 1213)">
<title>plaidStimulus</title>
<!-- Node1 -->
<g id="node1" class="node">
<title>Node1</title>
<g id="a_node1"><a xlink:title="plaidStimulus TODO">
<polygon fill="#bfbfbf" stroke="black" points="86,-0.5 86,-123.5 188,-123.5 188,-0.5 86,-0.5"/>
<text text-anchor="middle" x="137" y="-111.5" font-family="Iosevka" font-size="10.00">plaidStimulus</text>
<polyline fill="none" stroke="black" points="86,-104.5 188,-104.5 "/>
<text text-anchor="start" x="94" y="-92.5" font-family="Iosevka" font-size="10.00">+ sf1</text>
<text text-anchor="start" x="94" y="-81.5" font-family="Iosevka" font-size="10.00">+ sf2</text>
<text text-anchor="start" x="94" y="-70.5" font-family="Iosevka" font-size="10.00">+ tf1</text>
<text text-anchor="start" x="94" y="-59.5" font-family="Iosevka" font-size="10.00">+ tf2</text>
<text text-anchor="start" x="94" y="-48.5" font-family="Iosevka" font-size="10.00">+ procedural</text>
<polyline fill="none" stroke="black" points="86,-41.5 188,-41.5 "/>
<text text-anchor="start" x="94" y="-29.5" font-family="Iosevka" font-size="10.00">+ plaidStimulus()</text>
<text text-anchor="start" x="94" y="-18.5" font-family="Iosevka" font-size="10.00">+ getColors()</text>
<text text-anchor="start" x="94" y="-7.5" font-family="Iosevka" font-size="10.00">+ setup()</text>
</a>
</g>
</g>
<!-- Node2 -->
<g id="node2" class="node">
<title>Node2</title>
<g id="a_node2"><a xlink:href="classbase_stimulus.html" target="_top" xlink:title="baseStimulus is the superclass for all opticka stimulus objects">
<polygon fill="none" stroke="black" points="57,-160.5 57,-690.5 217,-690.5 217,-160.5 57,-160.5"/>
<text text-anchor="middle" x="137" y="-678.5" font-family="Iosevka" font-size="10.00">baseStimulus</text>
<polyline fill="none" stroke="black" points="57,-671.5 217,-671.5 "/>
<text text-anchor="start" x="65" y="-659.5" font-family="Iosevka" font-size="10.00">+ xPosition</text>
<text text-anchor="start" x="65" y="-648.5" font-family="Iosevka" font-size="10.00">+ yPosition</text>
<text text-anchor="start" x="65" y="-637.5" font-family="Iosevka" font-size="10.00">+ size</text>
<text text-anchor="start" x="65" y="-626.5" font-family="Iosevka" font-size="10.00">+ colour</text>
<text text-anchor="start" x="65" y="-615.5" font-family="Iosevka" font-size="10.00">+ alpha</text>
<text text-anchor="start" x="65" y="-604.5" font-family="Iosevka" font-size="10.00">+ startPosition</text>
<text text-anchor="start" x="65" y="-593.5" font-family="Iosevka" font-size="10.00">+ speed</text>
<text text-anchor="start" x="65" y="-582.5" font-family="Iosevka" font-size="10.00">+ angle</text>
<text text-anchor="start" x="65" y="-571.5" font-family="Iosevka" font-size="10.00">+ delayTime</text>
<text text-anchor="start" x="65" y="-560.5" font-family="Iosevka" font-size="10.00">+ offTime</text>
<text text-anchor="start" x="65" y="-549.5" font-family="Iosevka" font-size="10.00">and 17 more...</text>
<text text-anchor="start" x="65" y="-538.5" font-family="Iosevka" font-size="10.00"># family</text>
<text text-anchor="start" x="65" y="-527.5" font-family="Iosevka" font-size="10.00"># texture</text>
<text text-anchor="start" x="65" y="-516.5" font-family="Iosevka" font-size="10.00"># handles</text>
<text text-anchor="start" x="65" y="-505.5" font-family="Iosevka" font-size="10.00"># sM</text>
<text text-anchor="start" x="65" y="-494.5" font-family="Iosevka" font-size="10.00"># screenVals</text>
<text text-anchor="start" x="65" y="-483.5" font-family="Iosevka" font-size="10.00"># isSetup</text>
<text text-anchor="start" x="65" y="-472.5" font-family="Iosevka" font-size="10.00"># isGUI</text>
<text text-anchor="start" x="65" y="-461.5" font-family="Iosevka" font-size="10.00"># mouseValid</text>
<text text-anchor="start" x="65" y="-450.5" font-family="Iosevka" font-size="10.00"># mouseX</text>
<text text-anchor="start" x="65" y="-439.5" font-family="Iosevka" font-size="10.00"># mouseY</text>
<text text-anchor="start" x="65" y="-428.5" font-family="Iosevka" font-size="10.00">and 10 more...</text>
<polyline fill="none" stroke="black" points="57,-421.5 217,-421.5 "/>
<text text-anchor="start" x="65" y="-409.5" font-family="Iosevka" font-size="10.00">+ setup()</text>
<text text-anchor="start" x="65" y="-398.5" font-family="Iosevka" font-size="10.00">+ draw()</text>
<text text-anchor="start" x="65" y="-387.5" font-family="Iosevka" font-size="10.00">+ animate()</text>
<text text-anchor="start" x="65" y="-376.5" font-family="Iosevka" font-size="10.00">+ update()</text>
<text text-anchor="start" x="65" y="-365.5" font-family="Iosevka" font-size="10.00">+ reset()</text>
<text text-anchor="start" x="65" y="-354.5" font-family="Iosevka" font-size="10.00">+ baseStimulus()</text>
<text text-anchor="start" x="65" y="-343.5" font-family="Iosevka" font-size="10.00">+ colour()</text>
<text text-anchor="start" x="65" y="-332.5" font-family="Iosevka" font-size="10.00">+ alpha()</text>
<text text-anchor="start" x="65" y="-321.5" font-family="Iosevka" font-size="10.00">+ delta()</text>
<text text-anchor="start" x="65" y="-310.5" font-family="Iosevka" font-size="10.00">+ dX()</text>
<text text-anchor="start" x="65" y="-299.5" font-family="Iosevka" font-size="10.00">and 15 more...</text>
<text text-anchor="start" x="65" y="-288.5" font-family="Iosevka" font-size="10.00">+ d2r()</text>
<text text-anchor="start" x="65" y="-277.5" font-family="Iosevka" font-size="10.00">+ r2d()</text>
<text text-anchor="start" x="65" y="-266.5" font-family="Iosevka" font-size="10.00">+ findDistance()</text>
<text text-anchor="start" x="65" y="-255.5" font-family="Iosevka" font-size="10.00">+ updatePosition()</text>
<text text-anchor="start" x="65" y="-244.5" font-family="Iosevka" font-size="10.00"># addRuntimeProperties()</text>
<text text-anchor="start" x="65" y="-233.5" font-family="Iosevka" font-size="10.00"># updateRuntimeProperties()</text>
<text text-anchor="start" x="65" y="-222.5" font-family="Iosevka" font-size="10.00"># setRect()</text>
<text text-anchor="start" x="65" y="-211.5" font-family="Iosevka" font-size="10.00"># setAnimationDelta()</text>
<text text-anchor="start" x="65" y="-200.5" font-family="Iosevka" font-size="10.00"># computePosition()</text>
<text text-anchor="start" x="65" y="-189.5" font-family="Iosevka" font-size="10.00"># toStructure()</text>
<text text-anchor="start" x="65" y="-178.5" font-family="Iosevka" font-size="10.00"># removeTmpProperties()</text>
<text text-anchor="start" x="65" y="-167.5" font-family="Iosevka" font-size="10.00"># delete()</text>
</a>
</g>
</g>
<!-- Node2&#45;&gt;Node1 -->
<g id="edge1" class="edge">
<title>Node2&#45;&gt;Node1</title>
<path fill="none" stroke="midnightblue" d="M137,-150.09C137,-140.79 137,-131.95 137,-123.72"/>
<polygon fill="none" stroke="midnightblue" points="133.5,-150.35 137,-160.35 140.5,-150.35 133.5,-150.35"/>
</g>
<!-- Node3 -->
<g id="node3" class="node">
<title>Node3</title>
<g id="a_node3"><a xlink:href="classopticka_core.html" target="_top" xlink:title="optickaCore base class inherited by other opticka classes.">
<polygon fill="none" stroke="black" points="0,-727.5 0,-1114.5 142,-1114.5 142,-727.5 0,-727.5"/>
<text text-anchor="middle" x="71" y="-1102.5" font-family="Iosevka" font-size="10.00">optickaCore</text>
<polyline fill="none" stroke="black" points="0,-1095.5 142,-1095.5 "/>
<text text-anchor="start" x="8" y="-1083.5" font-family="Iosevka" font-size="10.00">+ name</text>
<text text-anchor="start" x="8" y="-1072.5" font-family="Iosevka" font-size="10.00">+ comment</text>
<text text-anchor="start" x="8" y="-1061.5" font-family="Iosevka" font-size="10.00">+ verbose</text>
<text text-anchor="start" x="8" y="-1050.5" font-family="Iosevka" font-size="10.00">+ dateStamp</text>
<text text-anchor="start" x="8" y="-1039.5" font-family="Iosevka" font-size="10.00">+ uuid</text>
<text text-anchor="start" x="8" y="-1028.5" font-family="Iosevka" font-size="10.00">+ paths</text>
<text text-anchor="start" x="8" y="-1017.5" font-family="Iosevka" font-size="10.00">+ fullName</text>
<text text-anchor="start" x="8" y="-1006.5" font-family="Iosevka" font-size="10.00"># cloning</text>
<text text-anchor="start" x="8" y="-995.5" font-family="Iosevka" font-size="10.00"># mversion</text>
<text text-anchor="start" x="8" y="-984.5" font-family="Iosevka" font-size="10.00"># className</text>
<text text-anchor="start" x="8" y="-973.5" font-family="Iosevka" font-size="10.00"># savePrefix</text>
<polyline fill="none" stroke="black" points="0,-966.5 142,-966.5 "/>
<text text-anchor="start" x="8" y="-954.5" font-family="Iosevka" font-size="10.00">+ optickaCore()</text>
<text text-anchor="start" x="8" y="-943.5" font-family="Iosevka" font-size="10.00">+ fullName()</text>
<text text-anchor="start" x="8" y="-932.5" font-family="Iosevka" font-size="10.00">+ initialiseSaveFile()</text>
<text text-anchor="start" x="8" y="-921.5" font-family="Iosevka" font-size="10.00">+ findAttributes()</text>
<text text-anchor="start" x="8" y="-910.5" font-family="Iosevka" font-size="10.00">+ findAttributesandType()</text>
<text text-anchor="start" x="8" y="-899.5" font-family="Iosevka" font-size="10.00">+ findPropertyDefault()</text>
<text text-anchor="start" x="8" y="-888.5" font-family="Iosevka" font-size="10.00">+ clone()</text>
<text text-anchor="start" x="8" y="-877.5" font-family="Iosevka" font-size="10.00">+ checkSuperclasses()</text>
<text text-anchor="start" x="8" y="-866.5" font-family="Iosevka" font-size="10.00">+ editProperties()</text>
<text text-anchor="start" x="8" y="-855.5" font-family="Iosevka" font-size="10.00">+ setProp()</text>
<text text-anchor="start" x="8" y="-844.5" font-family="Iosevka" font-size="10.00">+ checkPaths()</text>
<text text-anchor="start" x="8" y="-833.5" font-family="Iosevka" font-size="10.00">+ makeArgs()</text>
<text text-anchor="start" x="8" y="-822.5" font-family="Iosevka" font-size="10.00">+ addDefaults()</text>
<text text-anchor="start" x="8" y="-811.5" font-family="Iosevka" font-size="10.00">+ hasKey()</text>
<text text-anchor="start" x="8" y="-800.5" font-family="Iosevka" font-size="10.00"># parseArgs()</text>
<text text-anchor="start" x="8" y="-789.5" font-family="Iosevka" font-size="10.00"># addArgs()</text>
<text text-anchor="start" x="8" y="-778.5" font-family="Iosevka" font-size="10.00"># setPaths()</text>
<text text-anchor="start" x="8" y="-767.5" font-family="Iosevka" font-size="10.00"># toStructure()</text>
<text text-anchor="start" x="8" y="-756.5" font-family="Iosevka" font-size="10.00"># getType()</text>
<text text-anchor="start" x="8" y="-745.5" font-family="Iosevka" font-size="10.00"># salutation()</text>
<text text-anchor="start" x="8" y="-734.5" font-family="Iosevka" font-size="10.00"># LogOutput()</text>
</a>
</g>
</g>
<!-- Node3&#45;&gt;Node2 -->
<g id="edge2" class="edge">
<title>Node3&#45;&gt;Node2</title>
<path fill="none" stroke="midnightblue" d="M98.08,-717.52C99.26,-708.71 100.45,-699.82 101.64,-690.9"/>
<polygon fill="none" stroke="midnightblue" points="94.61,-717.06 96.75,-727.43 101.55,-717.99 94.61,-717.06"/>
</g>
<!-- Node4 -->
<g id="node4" class="node">
<title>Node4</title>
<g id="a_node4"><a xlink:title=" ">
<polygon fill="none" stroke="#bfbfbf" points="46,-1151.5 46,-1208.5 96,-1208.5 96,-1151.5 46,-1151.5"/>
<text text-anchor="middle" x="71" y="-1196.5" font-family="Iosevka" font-size="10.00">handle</text>
<polyline fill="none" stroke="#bfbfbf" points="46,-1189.5 96,-1189.5 "/>
<text text-anchor="middle" x="71" y="-1177.5" font-family="Iosevka" font-size="10.00"> </text>
<polyline fill="none" stroke="#bfbfbf" points="46,-1170.5 96,-1170.5 "/>
<text text-anchor="middle" x="71" y="-1158.5" font-family="Iosevka" font-size="10.00"> </text>
</a>
</g>
</g>
<!-- Node4&#45;&gt;Node3 -->
<g id="edge3" class="edge">
<title>Node4&#45;&gt;Node3</title>
<path fill="none" stroke="midnightblue" d="M71,-1141.46C71,-1133.38 71,-1124.31 71,-1114.58"/>
<polygon fill="none" stroke="midnightblue" points="67.5,-1141.5 71,-1151.5 74.5,-1141.5 67.5,-1141.5"/>
</g>
<!-- Node5 -->
<g id="node5" class="node">
<title>Node5</title>
<g id="a_node5"><a xlink:title=" ">
<polygon fill="none" stroke="#bfbfbf" points="160,-892.5 160,-949.5 246,-949.5 246,-892.5 160,-892.5"/>
<text text-anchor="middle" x="203" y="-937.5" font-family="Iosevka" font-size="10.00">dynamicprops</text>
<polyline fill="none" stroke="#bfbfbf" points="160,-930.5 246,-930.5 "/>
<text text-anchor="middle" x="203" y="-918.5" font-family="Iosevka" font-size="10.00"> </text>
<polyline fill="none" stroke="#bfbfbf" points="160,-911.5 246,-911.5 "/>
<text text-anchor="middle" x="203" y="-899.5" font-family="Iosevka" font-size="10.00"> </text>
</a>
</g>
</g>
<!-- Node5&#45;&gt;Node2 -->
<g id="edge4" class="edge">
<title>Node5&#45;&gt;Node2</title>
<path fill="none" stroke="midnightblue" d="M197.95,-882.25C192.25,-839.6 182.44,-766.24 172.33,-690.68"/>
<polygon fill="none" stroke="midnightblue" points="194.52,-882.96 199.31,-892.41 201.45,-882.03 194.52,-882.96"/>
</g>
</g>
</svg>
