<?xml version="1.0" encoding="UTF-8" standalone="no"?>
<!DOCTYPE svg PUBLIC "-//W3C//DTD SVG 1.1//EN"
 "http://www.w3.org/Graphics/SVG/1.1/DTD/svg11.dtd">
<!-- Generated by graphviz version 2.43.0 (0)
 -->
<!-- Title: animationManager Pages: 1 -->
<svg width="150pt" height="749pt"
 viewBox="0.00 0.00 150.00 749.00" xmlns="http://www.w3.org/2000/svg" xmlns:xlink="http://www.w3.org/1999/xlink">
<g id="graph0" class="graph" transform="scale(1 1) rotate(0) translate(4 745)">
<title>animationManager</title>
<!-- Node1 -->
<g id="node1" class="node">
<title>Node1</title>
<g id="a_node1"><a xlink:title="ANIMATIONMANAGER TODO provides per frame paths for stimuli.">
<polygon fill="#bfbfbf" stroke="black" points="7,-0.5 7,-222.5 135,-222.5 135,-0.5 7,-0.5"/>
<text text-anchor="middle" x="71" y="-210.5" font-family="Iosevka" font-size="10.00">animationManager</text>
<polyline fill="none" stroke="black" points="7,-203.5 135,-203.5 "/>
<text text-anchor="start" x="15" y="-191.5" font-family="Iosevka" font-size="10.00">+ type</text>
<text text-anchor="start" x="15" y="-180.5" font-family="Iosevka" font-size="10.00">+ params</text>
<text text-anchor="start" x="15" y="-169.5" font-family="Iosevka" font-size="10.00">+ angleVariance</text>
<text text-anchor="start" x="15" y="-158.5" font-family="Iosevka" font-size="10.00">+ boundsCheck</text>
<text text-anchor="start" x="15" y="-147.5" font-family="Iosevka" font-size="10.00">+ verbose</text>
<text text-anchor="start" x="15" y="-136.5" font-family="Iosevka" font-size="10.00">+ seed</text>
<text text-anchor="start" x="15" y="-125.5" font-family="Iosevka" font-size="10.00">+ length</text>
<polyline fill="none" stroke="black" points="7,-118.5 135,-118.5 "/>
<text text-anchor="start" x="15" y="-106.5" font-family="Iosevka" font-size="10.00">+ animationManager()</text>
<text text-anchor="start" x="15" y="-95.5" font-family="Iosevka" font-size="10.00">+ setup()</text>
<text text-anchor="start" x="15" y="-84.5" font-family="Iosevka" font-size="10.00">+ animate()</text>
<text text-anchor="start" x="15" y="-73.5" font-family="Iosevka" font-size="10.00">+ update()</text>
<text text-anchor="start" x="15" y="-62.5" font-family="Iosevka" font-size="10.00">+ reset()</text>
<text text-anchor="start" x="15" y="-51.5" font-family="Iosevka" font-size="10.00">+ d2r()</text>
<text text-anchor="start" x="15" y="-40.5" font-family="Iosevka" font-size="10.00">+ r2d()</text>
<text text-anchor="start" x="15" y="-29.5" font-family="Iosevka" font-size="10.00">+ findDistance()</text>
<text text-anchor="start" x="15" y="-18.5" font-family="Iosevka" font-size="10.00">+ updatePosition()</text>
<text text-anchor="start" x="15" y="-7.5" font-family="Iosevka" font-size="10.00">+ bezier()</text>
</a>
</g>
</g>
<!-- Node2 -->
<g id="node2" class="node">
<title>Node2</title>
<g id="a_node2"><a xlink:href="classopticka_core.html" target="_top" xlink:title="optickaCore base class inherited by other opticka classes.">
<polygon fill="none" stroke="black" points="0,-259.5 0,-646.5 142,-646.5 142,-259.5 0,-259.5"/>
<text text-anchor="middle" x="71" y="-634.5" font-family="Iosevka" font-size="10.00">optickaCore</text>
<polyline fill="none" stroke="black" points="0,-627.5 142,-627.5 "/>
<text text-anchor="start" x="8" y="-615.5" font-family="Iosevka" font-size="10.00">+ name</text>
<text text-anchor="start" x="8" y="-604.5" font-family="Iosevka" font-size="10.00">+ comment</text>
<text text-anchor="start" x="8" y="-593.5" font-family="Iosevka" font-size="10.00">+ verbose</text>
<text text-anchor="start" x="8" y="-582.5" font-family="Iosevka" font-size="10.00">+ dateStamp</text>
<text text-anchor="start" x="8" y="-571.5" font-family="Iosevka" font-size="10.00">+ uuid</text>
<text text-anchor="start" x="8" y="-560.5" font-family="Iosevka" font-size="10.00">+ paths</text>
<text text-anchor="start" x="8" y="-549.5" font-family="Iosevka" font-size="10.00">+ fullName</text>
<text text-anchor="start" x="8" y="-538.5" font-family="Iosevka" font-size="10.00"># cloning</text>
<text text-anchor="start" x="8" y="-527.5" font-family="Iosevka" font-size="10.00"># mversion</text>
<text text-anchor="start" x="8" y="-516.5" font-family="Iosevka" font-size="10.00"># className</text>
<text text-anchor="start" x="8" y="-505.5" font-family="Iosevka" font-size="10.00"># savePrefix</text>
<polyline fill="none" stroke="black" points="0,-498.5 142,-498.5 "/>
<text text-anchor="start" x="8" y="-486.5" font-family="Iosevka" font-size="10.00">+ optickaCore()</text>
<text text-anchor="start" x="8" y="-475.5" font-family="Iosevka" font-size="10.00">+ fullName()</text>
<text text-anchor="start" x="8" y="-464.5" font-family="Iosevka" font-size="10.00">+ initialiseSaveFile()</text>
<text text-anchor="start" x="8" y="-453.5" font-family="Iosevka" font-size="10.00">+ findAttributes()</text>
<text text-anchor="start" x="8" y="-442.5" font-family="Iosevka" font-size="10.00">+ findAttributesandType()</text>
<text text-anchor="start" x="8" y="-431.5" font-family="Iosevka" font-size="10.00">+ findPropertyDefault()</text>
<text text-anchor="start" x="8" y="-420.5" font-family="Iosevka" font-size="10.00">+ clone()</text>
<text text-anchor="start" x="8" y="-409.5" font-family="Iosevka" font-size="10.00">+ checkSuperclasses()</text>
<text text-anchor="start" x="8" y="-398.5" font-family="Iosevka" font-size="10.00">+ editProperties()</text>
<text text-anchor="start" x="8" y="-387.5" font-family="Iosevka" font-size="10.00">+ setProp()</text>
<text text-anchor="start" x="8" y="-376.5" font-family="Iosevka" font-size="10.00">+ checkPaths()</text>
<text text-anchor="start" x="8" y="-365.5" font-family="Iosevka" font-size="10.00">+ makeArgs()</text>
<text text-anchor="start" x="8" y="-354.5" font-family="Iosevka" font-size="10.00">+ addDefaults()</text>
<text text-anchor="start" x="8" y="-343.5" font-family="Iosevka" font-size="10.00">+ hasKey()</text>
<text text-anchor="start" x="8" y="-332.5" font-family="Iosevka" font-size="10.00"># parseArgs()</text>
<text text-anchor="start" x="8" y="-321.5" font-family="Iosevka" font-size="10.00"># addArgs()</text>
<text text-anchor="start" x="8" y="-310.5" font-family="Iosevka" font-size="10.00"># setPaths()</text>
<text text-anchor="start" x="8" y="-299.5" font-family="Iosevka" font-size="10.00"># toStructure()</text>
<text text-anchor="start" x="8" y="-288.5" font-family="Iosevka" font-size="10.00"># getType()</text>
<text text-anchor="start" x="8" y="-277.5" font-family="Iosevka" font-size="10.00"># salutation()</text>
<text text-anchor="start" x="8" y="-266.5" font-family="Iosevka" font-size="10.00"># LogOutput()</text>
</a>
</g>
</g>
<!-- Node2&#45;&gt;Node1 -->
<g id="edge1" class="edge">
<title>Node2&#45;&gt;Node1</title>
<path fill="none" stroke="midnightblue" d="M71,-249.17C71,-240.12 71,-231.19 71,-222.51"/>
<polygon fill="none" stroke="midnightblue" points="67.5,-249.44 71,-259.44 74.5,-249.44 67.5,-249.44"/>
</g>
<!-- Node3 -->
<g id="node3" class="node">
<title>Node3</title>
<g id="a_node3"><a xlink:title=" ">
<polygon fill="none" stroke="#bfbfbf" points="46,-683.5 46,-740.5 96,-740.5 96,-683.5 46,-683.5"/>
<text text-anchor="middle" x="71" y="-728.5" font-family="Iosevka" font-size="10.00">handle</text>
<polyline fill="none" stroke="#bfbfbf" points="46,-721.5 96,-721.5 "/>
<text text-anchor="middle" x="71" y="-709.5" font-family="Iosevka" font-size="10.00"> </text>
<polyline fill="none" stroke="#bfbfbf" points="46,-702.5 96,-702.5 "/>
<text text-anchor="middle" x="71" y="-690.5" font-family="Iosevka" font-size="10.00"> </text>
</a>
</g>
</g>
<!-- Node3&#45;&gt;Node2 -->
<g id="edge2" class="edge">
<title>Node3&#45;&gt;Node2</title>
<path fill="none" stroke="midnightblue" d="M71,-673.46C71,-665.38 71,-656.31 71,-646.58"/>
<polygon fill="none" stroke="midnightblue" points="67.5,-673.5 71,-683.5 74.5,-673.5 67.5,-673.5"/>
</g>
</g>
</svg>
