<?xml version="1.0" encoding="UTF-8" standalone="no"?>
<!DOCTYPE svg PUBLIC "-//W3C//DTD SVG 1.1//EN"
 "http://www.w3.org/Graphics/SVG/1.1/DTD/svg11.dtd">
<!-- Generated by graphviz version 2.43.0 (0)
 -->
<!-- Title: touchManager Pages: 1 -->
<svg width="150pt" height="533pt"
 viewBox="0.00 0.00 150.00 533.00" xmlns="http://www.w3.org/2000/svg" xmlns:xlink="http://www.w3.org/1999/xlink">
<g id="graph0" class="graph" transform="scale(1 1) rotate(0) translate(4 529)">
<title>touchManager</title>
<!-- Node1 -->
<g id="node1" class="node">
<title>Node1</title>
<g id="a_node1"><a xlink:title=" ">
<polygon fill="#999999" stroke="#666666" points="125,-74 17,-74 17,0 125,0 125,-74"/>
<text text-anchor="middle" x="71" y="-62" font-family="Iosevka" font-size="10.00">{touchManager</text>
<text text-anchor="start" x="25" y="-51" font-family="Iosevka" font-size="10.00">|+ nTouchScreens</text>
<text text-anchor="start" x="25" y="-40" font-family="Iosevka" font-size="10.00">+ devices</text>
<text text-anchor="start" x="25" y="-29" font-family="Iosevka" font-size="10.00">|+ touchManager()</text>
<text text-anchor="start" x="25" y="-18" font-family="Iosevka" font-size="10.00">+ setup()</text>
<text text-anchor="middle" x="71" y="-7" font-family="Iosevka" font-size="10.00">}</text>
</a>
</g>
</g>
<!-- Node2 -->
<g id="node2" class="node">
<title>Node2</title>
<g id="a_node2"><a xlink:href="classopticka_core.html" target="_top" xlink:title="optickaCore base class inherited by many other opticka classes.">
<polygon fill="white" stroke="#666666" points="142,-459 0,-459 0,-110 142,-110 142,-459"/>
<text text-anchor="middle" x="71" y="-447" font-family="Iosevka" font-size="10.00">{optickaCore</text>
<text text-anchor="start" x="8" y="-436" font-family="Iosevka" font-size="10.00">|+ name</text>
<text text-anchor="start" x="8" y="-425" font-family="Iosevka" font-size="10.00">+ comment</text>
<text text-anchor="start" x="8" y="-414" font-family="Iosevka" font-size="10.00">+ verbose</text>
<text text-anchor="start" x="8" y="-403" font-family="Iosevka" font-size="10.00">+ dateStamp</text>
<text text-anchor="start" x="8" y="-392" font-family="Iosevka" font-size="10.00">+ uuid</text>
<text text-anchor="start" x="8" y="-381" font-family="Iosevka" font-size="10.00">+ paths</text>
<text text-anchor="start" x="8" y="-370" font-family="Iosevka" font-size="10.00">+ fullName</text>
<text text-anchor="start" x="8" y="-359" font-family="Iosevka" font-size="10.00"># cloning</text>
<text text-anchor="start" x="8" y="-348" font-family="Iosevka" font-size="10.00"># mversion</text>
<text text-anchor="start" x="8" y="-337" font-family="Iosevka" font-size="10.00"># className</text>
<text text-anchor="start" x="8" y="-326" font-family="Iosevka" font-size="10.00"># savePrefix</text>
<text text-anchor="start" x="8" y="-315" font-family="Iosevka" font-size="10.00">|+ optickaCore()</text>
<text text-anchor="start" x="8" y="-304" font-family="Iosevka" font-size="10.00">+ fullName()</text>
<text text-anchor="start" x="8" y="-293" font-family="Iosevka" font-size="10.00">+ initialiseSaveFile()</text>
<text text-anchor="start" x="8" y="-282" font-family="Iosevka" font-size="10.00">+ findAttributes()</text>
<text text-anchor="start" x="8" y="-271" font-family="Iosevka" font-size="10.00">+ findAttributesandType()</text>
<text text-anchor="start" x="8" y="-260" font-family="Iosevka" font-size="10.00">+ clone()</text>
<text text-anchor="start" x="8" y="-249" font-family="Iosevka" font-size="10.00">+ checkSuperclasses()</text>
<text text-anchor="start" x="8" y="-238" font-family="Iosevka" font-size="10.00">+ editProperties()</text>
<text text-anchor="start" x="8" y="-227" font-family="Iosevka" font-size="10.00">+ setProp()</text>
<text text-anchor="start" x="8" y="-216" font-family="Iosevka" font-size="10.00">+ checkPaths()</text>
<text text-anchor="start" x="8" y="-205" font-family="Iosevka" font-size="10.00">+ makeArgs()</text>
<text text-anchor="start" x="8" y="-194" font-family="Iosevka" font-size="10.00">+ addDefaults()</text>
<text text-anchor="start" x="8" y="-183" font-family="Iosevka" font-size="10.00"># parseArgs()</text>
<text text-anchor="start" x="8" y="-172" font-family="Iosevka" font-size="10.00"># addArgs()</text>
<text text-anchor="start" x="8" y="-161" font-family="Iosevka" font-size="10.00"># setPaths()</text>
<text text-anchor="start" x="8" y="-150" font-family="Iosevka" font-size="10.00"># toStructure()</text>
<text text-anchor="start" x="8" y="-139" font-family="Iosevka" font-size="10.00"># getType()</text>
<text text-anchor="start" x="8" y="-128" font-family="Iosevka" font-size="10.00"># salutation()</text>
<text text-anchor="middle" x="71" y="-117" font-family="Iosevka" font-size="10.00">}</text>
</a>
</g>
</g>
<!-- Node2&#45;&gt;Node1 -->
<g id="edge1" class="edge">
<title>Node2&#45;&gt;Node1</title>
<path fill="none" stroke="#63b8ff" d="M71,-99.76C71,-90.53 71,-81.92 71,-74.23"/>
<polygon fill="none" stroke="#63b8ff" points="67.5,-100 71,-110 74.5,-100 67.5,-100"/>
</g>
<!-- Node3 -->
<g id="node3" class="node">
<title>Node3</title>
<g id="a_node3"><a xlink:title=" ">
<polygon fill="white" stroke="#666666" points="99,-525 43,-525 43,-495 99,-495 99,-525"/>
<text text-anchor="middle" x="71" y="-513" font-family="Iosevka" font-size="10.00">{handle</text>
<text text-anchor="middle" x="71" y="-502" font-family="Iosevka" font-size="10.00">||}</text>
</a>
</g>
</g>
<!-- Node3&#45;&gt;Node2 -->
<g id="edge2" class="edge">
<title>Node3&#45;&gt;Node2</title>
<path fill="none" stroke="#63b8ff" d="M71,-484.46C71,-477.25 71,-468.76 71,-459.42"/>
<polygon fill="none" stroke="#63b8ff" points="67.5,-484.68 71,-494.68 74.5,-484.68 67.5,-484.68"/>
</g>
</g>
</svg>
