<?xml version="1.0" encoding="UTF-8" standalone="no"?>
<!DOCTYPE svg PUBLIC "-//W3C//DTD SVG 1.1//EN"
 "http://www.w3.org/Graphics/SVG/1.1/DTD/svg11.dtd">
<!-- Generated by graphviz version 2.50.0 (20211204.2007)
 -->
<!-- Title: plxReader Pages: 1 -->
<svg width="175pt" height="815pt"
 viewBox="0.00 0.00 175.00 815.00" xmlns="http://www.w3.org/2000/svg" xmlns:xlink="http://www.w3.org/1999/xlink">
<g id="graph0" class="graph" transform="scale(1 1) rotate(0) translate(4 811)">
<title>plxReader</title>
<!-- Node1 -->
<g id="node1" class="node">
<title>Node1</title>
<g id="a_node1"><a xlink:title=" ">
<polygon fill="#bfbfbf" stroke="black" points="9,-0.5 9,-321.5 158,-321.5 158,-0.5 9,-0.5"/>
<text text-anchor="middle" x="83.5" y="-309.5" font-family="Iosevka" font-size="10.00">plxReader</text>
<polyline fill="none" stroke="black" points="9,-302.5 158,-302.5 "/>
<text text-anchor="start" x="17" y="-290.5" font-family="Iosevka" font-size="10.00">+ file</text>
<text text-anchor="start" x="17" y="-279.5" font-family="Iosevka" font-size="10.00">+ dir</text>
<text text-anchor="start" x="17" y="-268.5" font-family="Iosevka" font-size="10.00">+ matfile</text>
<text text-anchor="start" x="17" y="-257.5" font-family="Iosevka" font-size="10.00">+ matdir</text>
<text text-anchor="start" x="17" y="-246.5" font-family="Iosevka" font-size="10.00">+ edffile</text>
<text text-anchor="start" x="17" y="-235.5" font-family="Iosevka" font-size="10.00">+ eventWindow</text>
<text text-anchor="start" x="17" y="-224.5" font-family="Iosevka" font-size="10.00">+ eventSearchWindow</text>
<text text-anchor="start" x="17" y="-213.5" font-family="Iosevka" font-size="10.00">+ startOffset</text>
<text text-anchor="start" x="17" y="-202.5" font-family="Iosevka" font-size="10.00">+ saccadeRealign</text>
<text text-anchor="start" x="17" y="-191.5" font-family="Iosevka" font-size="10.00">+ channelReduction</text>
<text text-anchor="start" x="17" y="-180.5" font-family="Iosevka" font-size="10.00">and 9 more...</text>
<text text-anchor="start" x="17" y="-169.5" font-family="Iosevka" font-size="10.00"># isPL2</text>
<text text-anchor="start" x="17" y="-158.5" font-family="Iosevka" font-size="10.00"># isEDF</text>
<text text-anchor="start" x="17" y="-147.5" font-family="Iosevka" font-size="10.00"># trodality</text>
<polyline fill="none" stroke="black" points="9,-140.5 158,-140.5 "/>
<text text-anchor="start" x="17" y="-128.5" font-family="Iosevka" font-size="10.00">+ plxReader()</text>
<text text-anchor="start" x="17" y="-117.5" font-family="Iosevka" font-size="10.00">+ parse()</text>
<text text-anchor="start" x="17" y="-106.5" font-family="Iosevka" font-size="10.00">+ reparse()</text>
<text text-anchor="start" x="17" y="-95.5" font-family="Iosevka" font-size="10.00">+ parseEvents()</text>
<text text-anchor="start" x="17" y="-84.5" font-family="Iosevka" font-size="10.00">+ lazyParse()</text>
<text text-anchor="start" x="17" y="-73.5" font-family="Iosevka" font-size="10.00">+ readLFPs()</text>
<text text-anchor="start" x="17" y="-62.5" font-family="Iosevka" font-size="10.00">+ isEDF()</text>
<text text-anchor="start" x="17" y="-51.5" font-family="Iosevka" font-size="10.00">+ isPL2()</text>
<text text-anchor="start" x="17" y="-40.5" font-family="Iosevka" font-size="10.00">+ trodality()</text>
<text text-anchor="start" x="17" y="-29.5" font-family="Iosevka" font-size="10.00">+ getFieldTripSpikes()</text>
<text text-anchor="start" x="17" y="-18.5" font-family="Iosevka" font-size="10.00">and 12 more...</text>
<text text-anchor="start" x="17" y="-7.5" font-family="Iosevka" font-size="10.00">+ loadMat()</text>
</a>
</g>
</g>
<!-- Node2 -->
<g id="node2" class="node">
<title>Node2</title>
<g id="a_node2"><a xlink:href="classopticka_core.html" target="_top" xlink:title="optickaCore base class inherited by many other opticka classes.">
<polygon fill="none" stroke="black" points="0,-358.5 0,-712.5 167,-712.5 167,-358.5 0,-358.5"/>
<text text-anchor="middle" x="83.5" y="-700.5" font-family="Iosevka" font-size="10.00">optickaCore</text>
<polyline fill="none" stroke="black" points="0,-693.5 167,-693.5 "/>
<text text-anchor="start" x="8" y="-681.5" font-family="Iosevka" font-size="10.00">+ name</text>
<text text-anchor="start" x="8" y="-670.5" font-family="Iosevka" font-size="10.00">+ comment</text>
<text text-anchor="start" x="8" y="-659.5" font-family="Iosevka" font-size="10.00">+ verbose</text>
<text text-anchor="start" x="8" y="-648.5" font-family="Iosevka" font-size="10.00">+ dateStamp</text>
<text text-anchor="start" x="8" y="-637.5" font-family="Iosevka" font-size="10.00">+ uuid</text>
<text text-anchor="start" x="8" y="-626.5" font-family="Iosevka" font-size="10.00">+ paths</text>
<text text-anchor="start" x="8" y="-615.5" font-family="Iosevka" font-size="10.00">+ fullName</text>
<text text-anchor="start" x="8" y="-604.5" font-family="Iosevka" font-size="10.00"># cloning</text>
<text text-anchor="start" x="8" y="-593.5" font-family="Iosevka" font-size="10.00"># mversion</text>
<text text-anchor="start" x="8" y="-582.5" font-family="Iosevka" font-size="10.00"># className</text>
<text text-anchor="start" x="8" y="-571.5" font-family="Iosevka" font-size="10.00"># savePrefix</text>
<polyline fill="none" stroke="black" points="0,-564.5 167,-564.5 "/>
<text text-anchor="start" x="8" y="-552.5" font-family="Iosevka" font-size="10.00">+ optickaCore()</text>
<text text-anchor="start" x="8" y="-541.5" font-family="Iosevka" font-size="10.00">+ fullName()</text>
<text text-anchor="start" x="8" y="-530.5" font-family="Iosevka" font-size="10.00">+ initialiseSaveFile()</text>
<text text-anchor="start" x="8" y="-519.5" font-family="Iosevka" font-size="10.00">+ findAttributes()</text>
<text text-anchor="start" x="8" y="-508.5" font-family="Iosevka" font-size="10.00">+ findAttributesandType()</text>
<text text-anchor="start" x="8" y="-497.5" font-family="Iosevka" font-size="10.00">+ clone()</text>
<text text-anchor="start" x="8" y="-486.5" font-family="Iosevka" font-size="10.00">+ checkSuperclasses()</text>
<text text-anchor="start" x="8" y="-475.5" font-family="Iosevka" font-size="10.00">+ editProperties()</text>
<text text-anchor="start" x="8" y="-464.5" font-family="Iosevka" font-size="10.00">+ set()</text>
<text text-anchor="start" x="8" y="-453.5" font-family="Iosevka" font-size="10.00">+ checkPaths()</text>
<text text-anchor="start" x="8" y="-442.5" font-family="Iosevka" font-size="10.00">+ makeArgs()</text>
<text text-anchor="start" x="8" y="-431.5" font-family="Iosevka" font-size="10.00">+ addDefaults()</text>
<text text-anchor="start" x="8" y="-420.5" font-family="Iosevka" font-size="10.00"># parseArgs()</text>
<text text-anchor="start" x="8" y="-409.5" font-family="Iosevka" font-size="10.00"># addArgs()</text>
<text text-anchor="start" x="8" y="-398.5" font-family="Iosevka" font-size="10.00"># setPaths()</text>
<text text-anchor="start" x="8" y="-387.5" font-family="Iosevka" font-size="10.00"># toStructure()</text>
<text text-anchor="start" x="8" y="-376.5" font-family="Iosevka" font-size="10.00"># getType()</text>
<text text-anchor="start" x="8" y="-365.5" font-family="Iosevka" font-size="10.00"># salutation()</text>
</a>
</g>
</g>
<!-- Node2&#45;&gt;Node1 -->
<g id="edge1" class="edge">
<title>Node2&#45;&gt;Node1</title>
<path fill="none" stroke="midnightblue" d="M83.5,-348.3C83.5,-339.4 83.5,-330.5 83.5,-321.68"/>
<polygon fill="none" stroke="midnightblue" points="80,-348.34 83.5,-358.34 87,-348.34 80,-348.34"/>
</g>
<!-- Node3 -->
<g id="node3" class="node">
<title>Node3</title>
<g id="a_node3"><a xlink:title=" ">
<polygon fill="none" stroke="black" points="57,-749.5 57,-806.5 110,-806.5 110,-749.5 57,-749.5"/>
<text text-anchor="middle" x="83.5" y="-794.5" font-family="Iosevka" font-size="10.00">handle</text>
<polyline fill="none" stroke="black" points="57,-787.5 110,-787.5 "/>
<text text-anchor="middle" x="83.5" y="-775.5" font-family="Iosevka" font-size="10.00"> </text>
<polyline fill="none" stroke="black" points="57,-768.5 110,-768.5 "/>
<text text-anchor="middle" x="83.5" y="-756.5" font-family="Iosevka" font-size="10.00"> </text>
</a>
</g>
</g>
<!-- Node3&#45;&gt;Node2 -->
<g id="edge2" class="edge">
<title>Node3&#45;&gt;Node2</title>
<path fill="none" stroke="midnightblue" d="M83.5,-739.18C83.5,-731.22 83.5,-722.35 83.5,-712.87"/>
<polygon fill="none" stroke="midnightblue" points="80,-739.41 83.5,-749.41 87,-739.41 80,-739.41"/>
</g>
</g>
</svg>
