<?xml version="1.0" encoding="UTF-8" standalone="no"?>
<!DOCTYPE svg PUBLIC "-//W3C//DTD SVG 1.1//EN"
 "http://www.w3.org/Graphics/SVG/1.1/DTD/svg11.dtd">
<!-- Generated by graphviz version 2.43.0 (0)
 -->
<!-- Title: userFunctions Pages: 1 -->
<svg width="158pt" height="307pt"
 viewBox="0.00 0.00 158.00 307.00" xmlns="http://www.w3.org/2000/svg" xmlns:xlink="http://www.w3.org/1999/xlink">

<svg id="main" version="1.1" xmlns="http://www.w3.org/2000/svg" xmlns:xlink="http://www.w3.org/1999/xlink" xml:space="preserve" onload="init(evt)">
<style type="text/css"><![CDATA[
.node, .edge {opacity: 0.7;}
.node.selected, .edge.selected {opacity: 1;}
.edge:hover path { stroke: red; }
.edge:hover polygon { stroke: red; fill: red; }
]]></style>
<script type="application/ecmascript" xlink:href="svg.min.js"/>
<svg id="graph" class="graph">
<g id="graph0" class="graph" transform="scale(1 1) rotate(0) translate(4 303)">
<title>userFunctions</title>
<!-- Node1 -->
<g id="Node000001" class="node">
<title>Node1</title>
<g id="a_Node000001"><a xlink:title="Customised user functions for a task run.">
<polygon fill="#999999" stroke="transparent" points="150,-214 0,-214 0,0 150,0 150,-214"/>
<text text-anchor="start" x="42" y="-202" font-family="Iosevka" font-size="10.00">userFunctions</text>
<text text-anchor="start" x="4" y="-187" font-family="Iosevka" font-size="10.00">+</text>
<text text-anchor="start" x="15" y="-187" font-family="Iosevka" font-size="10.00">rE</text>
<text text-anchor="start" x="4" y="-172" font-family="Iosevka" font-size="10.00">+</text>
<text text-anchor="start" x="15" y="-172" font-family="Iosevka" font-size="10.00">sM</text>
<text text-anchor="start" x="4" y="-157" font-family="Iosevka" font-size="10.00">+</text>
<text text-anchor="start" x="15" y="-157" font-family="Iosevka" font-size="10.00">s</text>
<text text-anchor="start" x="4" y="-142" font-family="Iosevka" font-size="10.00">+</text>
<text text-anchor="start" x="15" y="-142" font-family="Iosevka" font-size="10.00">task</text>
<text text-anchor="start" x="4" y="-127" font-family="Iosevka" font-size="10.00">+</text>
<text text-anchor="start" x="15" y="-127" font-family="Iosevka" font-size="10.00">stims</text>
<text text-anchor="start" x="4" y="-112" font-family="Iosevka" font-size="10.00">+</text>
<text text-anchor="start" x="15" y="-112" font-family="Iosevka" font-size="10.00">rM</text>
<text text-anchor="start" x="4" y="-97" font-family="Iosevka" font-size="10.00">+</text>
<text text-anchor="start" x="15" y="-97" font-family="Iosevka" font-size="10.00">io</text>
<text text-anchor="start" x="4" y="-82" font-family="Iosevka" font-size="10.00">+</text>
<text text-anchor="start" x="15" y="-82" font-family="Iosevka" font-size="10.00">eT</text>
<text text-anchor="start" x="4" y="-67" font-family="Iosevka" font-size="10.00">+</text>
<text text-anchor="start" x="15" y="-67" font-family="Iosevka" font-size="10.00">verbose</text>
<text text-anchor="start" x="4" y="-52" font-family="Iosevka" font-size="10.00">+</text>
<text text-anchor="start" x="15" y="-52" font-family="Iosevka" font-size="10.00">userFunctions()</text>
<text text-anchor="start" x="4" y="-37" font-family="Iosevka" font-size="10.00">+</text>
<text text-anchor="start" x="15" y="-37" font-family="Iosevka" font-size="10.00">setDelayTimeWithStaircase()</text>
<text text-anchor="start" x="4" y="-22" font-family="Iosevka" font-size="10.00">+</text>
<text text-anchor="start" x="15" y="-22" font-family="Iosevka" font-size="10.00">resetDelayTime()</text>
<text text-anchor="start" x="4" y="-7" font-family="Iosevka" font-size="10.00">+</text>
<text text-anchor="start" x="15" y="-7" font-family="Iosevka" font-size="10.00">testFunction()</text>
<polygon fill="#666666" stroke="#666666" points="0,-197 0,-197 150,-197 150,-197 0,-197"/>
<polygon fill="#666666" stroke="#666666" points="0,-62 0,-62 13,-62 13,-62 0,-62"/>
<polygon fill="#666666" stroke="#666666" points="13,-62 13,-62 150,-62 150,-62 13,-62"/>
<polygon fill="none" stroke="#666666" points="0,0 0,-214 150,-214 150,0 0,0"/>
</a>
</g>
</g>
<!-- Node2 -->
<g id="Node000002" class="node">
<title>Node2</title>
<g id="a_Node000002"><a xlink:title=" ">
<polygon fill="white" stroke="transparent" points="96,-299 54,-299 54,-250 96,-250 96,-299"/>
<text text-anchor="start" x="59" y="-286.5" font-family="Iosevka" font-size="10.00">handle</text>
<text text-anchor="start" x="73.5" y="-271.5" font-family="Iosevka" font-size="10.00"> </text>
<text text-anchor="start" x="73.5" y="-256.5" font-family="Iosevka" font-size="10.00"> </text>
<polygon fill="#666666" stroke="#666666" points="54,-281.5 54,-281.5 96,-281.5 96,-281.5 54,-281.5"/>
<polygon fill="#666666" stroke="#666666" points="54,-266.5 54,-266.5 96,-266.5 96,-266.5 54,-266.5"/>
<polygon fill="none" stroke="#666666" points="54,-250 54,-299 96,-299 96,-250 54,-250"/>
</a>
</g>
</g>
<!-- Node2&#45;&gt;Node1 -->
<g id="edge1_Node000001_Node000002" class="edge">
<title>Node2&#45;&gt;Node1</title>
<g id="a_edge1_Node000001_Node000002"><a xlink:title=" ">
<path fill="none" stroke="#63b8ff" d="M75,-239.75C75,-231.93 75,-223.21 75,-214.07"/>
<polygon fill="none" stroke="#63b8ff" points="71.5,-239.79 75,-249.79 78.5,-239.79 71.5,-239.79"/>
</a>
</g>
</g>
</g>
</svg>
</svg>

<style type='text/css'>
<![CDATA[
[data-mouse-over-selected='false'] { opacity: 0.7; }
[data-mouse-over-selected='true']  { opacity: 1.0; }
]]>
</style>
<script type="application/ecmascript"><![CDATA[
document.addEventListener('DOMContentLoaded', (event) => {
  highlightEdges();
  highlightAdjacentNodes();
});
]]></script>
</svg>
