<?xml version="1.0" encoding="UTF-8" standalone="no"?>
<!DOCTYPE svg PUBLIC "-//W3C//DTD SVG 1.1//EN"
 "http://www.w3.org/Graphics/SVG/1.1/DTD/svg11.dtd">
<!-- Generated by graphviz version 2.43.0 (0)
 -->
<!-- Title: nirSmartManager Pages: 1 -->
<svg width="139pt" height="1082pt"
 viewBox="0.00 0.00 139.00 1082.00" xmlns="http://www.w3.org/2000/svg" xmlns:xlink="http://www.w3.org/1999/xlink">
<g id="graph0" class="graph" transform="scale(1 1) rotate(0) translate(4 1078)">
<title>nirSmartManager</title>
<!-- Node1 -->
<g id="Node000001" class="node">
<title>Node1</title>
<g id="a_Node000001"><a xlink:title="nirSmart fNIRS Sync manager">
<polygon fill="#999999" stroke="transparent" points="119.5,-319 11.5,-319 11.5,0 119.5,0 119.5,-319"/>
<text text-anchor="start" x="24" y="-306.5" font-family="Iosevka" font-size="10.00">nirSmartManager</text>
<text text-anchor="start" x="15.5" y="-291.5" font-family="Iosevka" font-size="10.00">+</text>
<text text-anchor="start" x="26.5" y="-291.5" font-family="Iosevka" font-size="10.00">ip</text>
<text text-anchor="start" x="15.5" y="-276.5" font-family="Iosevka" font-size="10.00">+</text>
<text text-anchor="start" x="26.5" y="-276.5" font-family="Iosevka" font-size="10.00">port</text>
<text text-anchor="start" x="15.5" y="-261.5" font-family="Iosevka" font-size="10.00">+</text>
<text text-anchor="start" x="26.5" y="-261.5" font-family="Iosevka" font-size="10.00">io</text>
<text text-anchor="start" x="15.5" y="-246.5" font-family="Iosevka" font-size="10.00">+</text>
<text text-anchor="start" x="26.5" y="-246.5" font-family="Iosevka" font-size="10.00">silentMode</text>
<text text-anchor="start" x="15.5" y="-231.5" font-family="Iosevka" font-size="10.00">+</text>
<text text-anchor="start" x="26.5" y="-231.5" font-family="Iosevka" font-size="10.00">stimOFFValue</text>
<text text-anchor="start" x="15.5" y="-216.5" font-family="Iosevka" font-size="10.00">+</text>
<text text-anchor="start" x="26.5" y="-216.5" font-family="Iosevka" font-size="10.00">verbose</text>
<text text-anchor="start" x="15.5" y="-201.5" font-family="Iosevka" font-size="10.00">+</text>
<text text-anchor="start" x="26.5" y="-201.5" font-family="Iosevka" font-size="10.00">isOpen</text>
<text text-anchor="start" x="15.5" y="-186.5" font-family="Iosevka" font-size="10.00">+</text>
<text text-anchor="start" x="26.5" y="-186.5" font-family="Iosevka" font-size="10.00">sendValue</text>
<text text-anchor="start" x="15.5" y="-171.5" font-family="Iosevka" font-size="10.00">+</text>
<text text-anchor="start" x="26.5" y="-171.5" font-family="Iosevka" font-size="10.00">lastValue</text>
<text text-anchor="start" x="15.5" y="-156.5" font-family="Iosevka" font-size="10.00">+</text>
<text text-anchor="start" x="26.5" y="-156.5" font-family="Iosevka" font-size="10.00">nirSmartManager()</text>
<text text-anchor="start" x="15.5" y="-141.5" font-family="Iosevka" font-size="10.00">+</text>
<text text-anchor="start" x="26.5" y="-141.5" font-family="Iosevka" font-size="10.00">open()</text>
<text text-anchor="start" x="15.5" y="-126.5" font-family="Iosevka" font-size="10.00">+</text>
<text text-anchor="start" x="26.5" y="-126.5" font-family="Iosevka" font-size="10.00">close()</text>
<text text-anchor="start" x="15.5" y="-111.5" font-family="Iosevka" font-size="10.00">+</text>
<text text-anchor="start" x="26.5" y="-111.5" font-family="Iosevka" font-size="10.00">prepareStrobe()</text>
<text text-anchor="start" x="15.5" y="-96.5" font-family="Iosevka" font-size="10.00">+</text>
<text text-anchor="start" x="26.5" y="-96.5" font-family="Iosevka" font-size="10.00">sendStrobe()</text>
<text text-anchor="start" x="15.5" y="-81.5" font-family="Iosevka" font-size="10.00">+</text>
<text text-anchor="start" x="26.5" y="-81.5" font-family="Iosevka" font-size="10.00">resetStrobe()</text>
<text text-anchor="start" x="15.5" y="-66.5" font-family="Iosevka" font-size="10.00">+</text>
<text text-anchor="start" x="26.5" y="-66.5" font-family="Iosevka" font-size="10.00">triggerStrobe()</text>
<text text-anchor="start" x="15.5" y="-51.5" font-family="Iosevka" font-size="10.00">+</text>
<text text-anchor="start" x="26.5" y="-51.5" font-family="Iosevka" font-size="10.00">strobeServer()</text>
<text text-anchor="start" x="15.5" y="-36.5" font-family="Iosevka" font-size="10.00">+</text>
<text text-anchor="start" x="26.5" y="-36.5" font-family="Iosevka" font-size="10.00">sendTTL()</text>
<text text-anchor="start" x="15.5" y="-21.5" font-family="Iosevka" font-size="10.00">+</text>
<text text-anchor="start" x="26.5" y="-21.5" font-family="Iosevka" font-size="10.00">startRecording()</text>
<text text-anchor="start" x="26.5" y="-6.5" font-family="Iosevka" font-size="10.00">and 11 more...</text>
<polygon fill="#666666" stroke="#666666" points="11.5,-301.5 11.5,-301.5 119.5,-301.5 119.5,-301.5 11.5,-301.5"/>
<polygon fill="#666666" stroke="#666666" points="11.5,-166.5 11.5,-166.5 24.5,-166.5 24.5,-166.5 11.5,-166.5"/>
<polygon fill="#666666" stroke="#666666" points="24.5,-166.5 24.5,-166.5 119.5,-166.5 119.5,-166.5 24.5,-166.5"/>
<polygon fill="none" stroke="#666666" points="11.5,0 11.5,-319 119.5,-319 119.5,0 11.5,0"/>
</a>
</g>
</g>
<!-- Node2 -->
<g id="Node000002" class="node">
<title>Node2</title>
<g id="a_Node000002"><a xlink:href="classopticka_core.html" target="_top" xlink:title="optickaCore base class inherited by other opticka classes.">
<polygon fill="white" stroke="transparent" points="131,-989 0,-989 0,-355 131,-355 131,-989"/>
<text text-anchor="start" x="38.5" y="-977" font-family="Iosevka" font-size="10.00">optickaCore</text>
<text text-anchor="start" x="4.5" y="-962" font-family="Iosevka" font-size="10.00">+</text>
<text text-anchor="start" x="15.5" y="-962" font-family="Iosevka" font-size="10.00">name</text>
<text text-anchor="start" x="4.5" y="-947" font-family="Iosevka" font-size="10.00">+</text>
<text text-anchor="start" x="15.5" y="-947" font-family="Iosevka" font-size="10.00">comment</text>
<text text-anchor="start" x="4.5" y="-932" font-family="Iosevka" font-size="10.00">+</text>
<text text-anchor="start" x="15.5" y="-932" font-family="Iosevka" font-size="10.00">verbose</text>
<text text-anchor="start" x="4.5" y="-917" font-family="Iosevka" font-size="10.00">+</text>
<text text-anchor="start" x="15.5" y="-917" font-family="Iosevka" font-size="10.00">optickaVersion</text>
<text text-anchor="start" x="4.5" y="-902" font-family="Iosevka" font-size="10.00">+</text>
<text text-anchor="start" x="15.5" y="-902" font-family="Iosevka" font-size="10.00">dateStamp</text>
<text text-anchor="start" x="4.5" y="-887" font-family="Iosevka" font-size="10.00">+</text>
<text text-anchor="start" x="15.5" y="-887" font-family="Iosevka" font-size="10.00">uuid</text>
<text text-anchor="start" x="4.5" y="-872" font-family="Iosevka" font-size="10.00">+</text>
<text text-anchor="start" x="15.5" y="-872" font-family="Iosevka" font-size="10.00">paths</text>
<text text-anchor="start" x="4.5" y="-857" font-family="Iosevka" font-size="10.00">+</text>
<text text-anchor="start" x="15.5" y="-857" font-family="Iosevka" font-size="10.00">fullName</text>
<text text-anchor="start" x="4.5" y="-842" font-family="Iosevka" font-size="10.00">#</text>
<text text-anchor="start" x="15.5" y="-842" font-family="Iosevka" font-size="10.00">cloning</text>
<text text-anchor="start" x="4.5" y="-827" font-family="Iosevka" font-size="10.00">#</text>
<text text-anchor="start" x="15.5" y="-827" font-family="Iosevka" font-size="10.00">mversion</text>
<text text-anchor="start" x="4.5" y="-812" font-family="Iosevka" font-size="10.00">#</text>
<text text-anchor="start" x="15.5" y="-812" font-family="Iosevka" font-size="10.00">sansFont</text>
<text text-anchor="start" x="4.5" y="-797" font-family="Iosevka" font-size="10.00">#</text>
<text text-anchor="start" x="15.5" y="-797" font-family="Iosevka" font-size="10.00">monoFont</text>
<text text-anchor="start" x="4.5" y="-782" font-family="Iosevka" font-size="10.00">#</text>
<text text-anchor="start" x="15.5" y="-782" font-family="Iosevka" font-size="10.00">className</text>
<text text-anchor="start" x="4.5" y="-767" font-family="Iosevka" font-size="10.00">#</text>
<text text-anchor="start" x="15.5" y="-767" font-family="Iosevka" font-size="10.00">savePrefix</text>
<text text-anchor="start" x="4.5" y="-752" font-family="Iosevka" font-size="10.00">#</text>
<text text-anchor="start" x="15.5" y="-752" font-family="Iosevka" font-size="10.00">fullName_</text>
<text text-anchor="start" x="4.5" y="-737" font-family="Iosevka" font-size="10.00">+</text>
<text text-anchor="start" x="15.5" y="-737" font-family="Iosevka" font-size="10.00">optickaCore()</text>
<text text-anchor="start" x="4.5" y="-722" font-family="Iosevka" font-size="10.00">+</text>
<text text-anchor="start" x="15.5" y="-722" font-family="Iosevka" font-size="10.00">fullName()</text>
<text text-anchor="start" x="4.5" y="-707" font-family="Iosevka" font-size="10.00">+</text>
<text text-anchor="start" x="15.5" y="-707" font-family="Iosevka" font-size="10.00">getALF()</text>
<text text-anchor="start" x="4.5" y="-692" font-family="Iosevka" font-size="10.00">+</text>
<text text-anchor="start" x="15.5" y="-692" font-family="Iosevka" font-size="10.00">makeReport()</text>
<text text-anchor="start" x="4.5" y="-677" font-family="Iosevka" font-size="10.00">+</text>
<text text-anchor="start" x="15.5" y="-677" font-family="Iosevka" font-size="10.00">findAttributes()</text>
<text text-anchor="start" x="4.5" y="-662" font-family="Iosevka" font-size="10.00">+</text>
<text text-anchor="start" x="15.5" y="-662" font-family="Iosevka" font-size="10.00">findAttributesandType()</text>
<text text-anchor="start" x="4.5" y="-647" font-family="Iosevka" font-size="10.00">+</text>
<text text-anchor="start" x="15.5" y="-647" font-family="Iosevka" font-size="10.00">findPropertyDefault()</text>
<text text-anchor="start" x="4.5" y="-632" font-family="Iosevka" font-size="10.00">+</text>
<text text-anchor="start" x="15.5" y="-632" font-family="Iosevka" font-size="10.00">clone()</text>
<text text-anchor="start" x="4.5" y="-617" font-family="Iosevka" font-size="10.00">+</text>
<text text-anchor="start" x="15.5" y="-617" font-family="Iosevka" font-size="10.00">checkSuperclasses()</text>
<text text-anchor="start" x="4.5" y="-602" font-family="Iosevka" font-size="10.00">+</text>
<text text-anchor="start" x="15.5" y="-602" font-family="Iosevka" font-size="10.00">editProperties()</text>
<text text-anchor="start" x="4.5" y="-587" font-family="Iosevka" font-size="10.00">+</text>
<text text-anchor="start" x="15.5" y="-587" font-family="Iosevka" font-size="10.00">setProp()</text>
<text text-anchor="start" x="4.5" y="-572" font-family="Iosevka" font-size="10.00">+</text>
<text text-anchor="start" x="15.5" y="-572" font-family="Iosevka" font-size="10.00">initialiseSaveFile()</text>
<text text-anchor="start" x="4.5" y="-557" font-family="Iosevka" font-size="10.00">+</text>
<text text-anchor="start" x="15.5" y="-557" font-family="Iosevka" font-size="10.00">checkPaths()</text>
<text text-anchor="start" x="4.5" y="-542" font-family="Iosevka" font-size="10.00">+</text>
<text text-anchor="start" x="15.5" y="-542" font-family="Iosevka" font-size="10.00">initialiseGlobals()</text>
<text text-anchor="start" x="4.5" y="-527" font-family="Iosevka" font-size="10.00">+</text>
<text text-anchor="start" x="15.5" y="-527" font-family="Iosevka" font-size="10.00">makeArgs()</text>
<text text-anchor="start" x="4.5" y="-512" font-family="Iosevka" font-size="10.00">+</text>
<text text-anchor="start" x="15.5" y="-512" font-family="Iosevka" font-size="10.00">addDefaults()</text>
<text text-anchor="start" x="4.5" y="-497" font-family="Iosevka" font-size="10.00">+</text>
<text text-anchor="start" x="15.5" y="-497" font-family="Iosevka" font-size="10.00">hasKey()</text>
<text text-anchor="start" x="4.5" y="-482" font-family="Iosevka" font-size="10.00">+</text>
<text text-anchor="start" x="15.5" y="-482" font-family="Iosevka" font-size="10.00">getKeys()</text>
<text text-anchor="start" x="4.5" y="-467" font-family="Iosevka" font-size="10.00">#</text>
<text text-anchor="start" x="15.5" y="-467" font-family="Iosevka" font-size="10.00">parseArgs()</text>
<text text-anchor="start" x="4.5" y="-452" font-family="Iosevka" font-size="10.00">#</text>
<text text-anchor="start" x="15.5" y="-452" font-family="Iosevka" font-size="10.00">addArgs()</text>
<text text-anchor="start" x="4.5" y="-437" font-family="Iosevka" font-size="10.00">#</text>
<text text-anchor="start" x="15.5" y="-437" font-family="Iosevka" font-size="10.00">setPaths()</text>
<text text-anchor="start" x="4.5" y="-422" font-family="Iosevka" font-size="10.00">#</text>
<text text-anchor="start" x="15.5" y="-422" font-family="Iosevka" font-size="10.00">getFonts()</text>
<text text-anchor="start" x="4.5" y="-407" font-family="Iosevka" font-size="10.00">#</text>
<text text-anchor="start" x="15.5" y="-407" font-family="Iosevka" font-size="10.00">toStructure()</text>
<text text-anchor="start" x="4.5" y="-392" font-family="Iosevka" font-size="10.00">#</text>
<text text-anchor="start" x="15.5" y="-392" font-family="Iosevka" font-size="10.00">getType()</text>
<text text-anchor="start" x="4.5" y="-377" font-family="Iosevka" font-size="10.00">#</text>
<text text-anchor="start" x="15.5" y="-377" font-family="Iosevka" font-size="10.00">logOutput()</text>
<text text-anchor="start" x="4.5" y="-362" font-family="Iosevka" font-size="10.00">#</text>
<text text-anchor="start" x="15.5" y="-362" font-family="Iosevka" font-size="10.00">salutation()</text>
<polygon fill="#666666" stroke="#666666" points="0.5,-972 0.5,-972 131.5,-972 131.5,-972 0.5,-972"/>
<polygon fill="#666666" stroke="#666666" points="0.5,-747 0.5,-747 13.5,-747 13.5,-747 0.5,-747"/>
<polygon fill="#666666" stroke="#666666" points="13.5,-747 13.5,-747 131.5,-747 131.5,-747 13.5,-747"/>
<polygon fill="none" stroke="#666666" points="0,-355 0,-989 131,-989 131,-355 0,-355"/>
</a>
</g>
</g>
<!-- Node2&#45;&gt;Node1 -->
<g id="edge1_Node000001_Node000002" class="edge">
<title>Node2&#45;&gt;Node1</title>
<g id="a_edge1_Node000001_Node000002"><a xlink:title=" ">
<path fill="none" stroke="#63b8ff" d="M65.5,-344.76C65.5,-336.13 65.5,-327.61 65.5,-319.25"/>
<polygon fill="none" stroke="#63b8ff" points="62,-344.95 65.5,-354.95 69,-344.95 62,-344.95"/>
</a>
</g>
</g>
<!-- Node3 -->
<g id="Node000003" class="node">
<title>Node3</title>
<g id="a_Node000003"><a xlink:title=" ">
<polygon fill="white" stroke="transparent" points="86.5,-1074 44.5,-1074 44.5,-1025 86.5,-1025 86.5,-1074"/>
<text text-anchor="start" x="49.5" y="-1061.5" font-family="Iosevka" font-size="10.00">handle</text>
<text text-anchor="start" x="64" y="-1046.5" font-family="Iosevka" font-size="10.00"> </text>
<text text-anchor="start" x="64" y="-1031.5" font-family="Iosevka" font-size="10.00"> </text>
<polygon fill="#666666" stroke="#666666" points="44.5,-1056.5 44.5,-1056.5 86.5,-1056.5 86.5,-1056.5 44.5,-1056.5"/>
<polygon fill="#666666" stroke="#666666" points="44.5,-1041.5 44.5,-1041.5 86.5,-1041.5 86.5,-1041.5 44.5,-1041.5"/>
<polygon fill="none" stroke="#666666" points="44.5,-1025 44.5,-1074 86.5,-1074 86.5,-1025 44.5,-1025"/>
</a>
</g>
</g>
<!-- Node3&#45;&gt;Node2 -->
<g id="edge2_Node000002_Node000003" class="edge">
<title>Node3&#45;&gt;Node2</title>
<g id="a_edge2_Node000002_Node000003"><a xlink:title=" ">
<path fill="none" stroke="#63b8ff" d="M65.5,-1014.49C65.5,-1006.99 65.5,-998.45 65.5,-989.1"/>
<polygon fill="none" stroke="#63b8ff" points="62,-1014.73 65.5,-1024.73 69,-1014.73 62,-1014.73"/>
</a>
</g>
</g>
</g>
</svg>
