<?xml version="1.0" encoding="UTF-8" standalone="no"?>
<!DOCTYPE svg PUBLIC "-//W3C//DTD SVG 1.1//EN"
 "http://www.w3.org/Graphics/SVG/1.1/DTD/svg11.dtd">
<!-- Generated by graphviz version 2.50.0 (20211204.2007)
 -->
<!-- Title: plaidStimulus Pages: 1 -->
<!--zoomable 1195 -->
<svg id="main" version="1.1" xmlns="http://www.w3.org/2000/svg" xmlns:xlink="http://www.w3.org/1999/xlink" xml:space="preserve" onload="init(evt)">
<style type="text/css"><![CDATA[
.edge:hover path { stroke: red; }
.edge:hover polygon { stroke: red; fill: red; }
]]></style>
<script type="text/javascript"><![CDATA[
var edges = document.getElementsByTagName('g');
if (edges && edges.length) {
  for (var i=0;i<edges.length;i++) {
    if (edges[i].id.substr(0,4)=='edge') {
      edges[i].setAttribute('class','edge');
    }
  }
}
]]></script>
        <defs>
                <circle id="rim" cx="0" cy="0" r="7"/>
                <circle id="rim2" cx="0" cy="0" r="3.5"/>
                <g id="zoomPlus">
                        <use xlink:href="#rim" fill="#404040">
                                <set attributeName="fill" to="#808080" begin="zoomplus.mouseover" end="zoomplus.mouseout"/>
                        </use>
                        <path d="M-4,0h8M0,-4v8" fill="none" stroke="white" stroke-width="1.5" pointer-events="none"/>
                </g>
                <g id="zoomMin">
                        <use xlink:href="#rim" fill="#404040">
                                <set attributeName="fill" to="#808080" begin="zoomminus.mouseover" end="zoomminus.mouseout"/>
                        </use>
                        <path d="M-4,0h8" fill="none" stroke="white" stroke-width="1.5" pointer-events="none"/>
                </g>
                <g id="dirArrow">
                        <path fill="none" stroke="white" stroke-width="1.5" d="M0,-3.0v7 M-2.5,-0.5L0,-3.0L2.5,-0.5"/>
                </g>
               <g id="resetDef">
                       <use xlink:href="#rim2" fill="#404040">
                               <set attributeName="fill" to="#808080" begin="reset.mouseover" end="reset.mouseout"/>
                       </use>
               </g>
        </defs>

<script type="text/javascript">
var viewWidth = 282;
var viewHeight = 1195;
var sectionId = 'dynsection-0';
</script>
<script xlink:href="svgpan.js"/>
<svg id="graph" class="graph">
<g id="viewport">
<title>plaidStimulus</title>
<!-- Node1 -->
<g id="node1" class="node">
<title>Node1</title>
<g id="a_node1"><a xlink:title="plaidStimulus TODO">
<polygon fill="#bfbfbf" stroke="black" points="97,-0.5 97,-123.5 216,-123.5 216,-0.5 97,-0.5"/>
<text text-anchor="middle" x="156.5" y="-111.5" font-family="Iosevka" font-size="10.00">plaidStimulus</text>
<polyline fill="none" stroke="black" points="97,-104.5 216,-104.5 "/>
<text text-anchor="start" x="105" y="-92.5" font-family="Iosevka" font-size="10.00">+ sf1</text>
<text text-anchor="start" x="105" y="-81.5" font-family="Iosevka" font-size="10.00">+ sf2</text>
<text text-anchor="start" x="105" y="-70.5" font-family="Iosevka" font-size="10.00">+ tf1</text>
<text text-anchor="start" x="105" y="-59.5" font-family="Iosevka" font-size="10.00">+ tf2</text>
<text text-anchor="start" x="105" y="-48.5" font-family="Iosevka" font-size="10.00">+ procedural</text>
<polyline fill="none" stroke="black" points="97,-41.5 216,-41.5 "/>
<text text-anchor="start" x="105" y="-29.5" font-family="Iosevka" font-size="10.00">+ plaidStimulus()</text>
<text text-anchor="start" x="105" y="-18.5" font-family="Iosevka" font-size="10.00">+ getColors()</text>
<text text-anchor="start" x="105" y="-7.5" font-family="Iosevka" font-size="10.00">+ setup()</text>
</a>
</g>
</g>
<!-- Node2 -->
<g id="node2" class="node">
<title>Node2</title>
<g id="a_node2"><a xlink:href="classbase_stimulus.html" target="_top" xlink:title="baseStimulus is the superclass for all opticka stimulus objects">
<polygon fill="none" stroke="black" points="79,-160.5 79,-701.5 234,-701.5 234,-160.5 79,-160.5"/>
<text text-anchor="middle" x="156.5" y="-689.5" font-family="Iosevka" font-size="10.00">baseStimulus</text>
<polyline fill="none" stroke="black" points="79,-682.5 234,-682.5 "/>
<text text-anchor="start" x="87" y="-670.5" font-family="Iosevka" font-size="10.00">+ xPosition</text>
<text text-anchor="start" x="87" y="-659.5" font-family="Iosevka" font-size="10.00">+ yPosition</text>
<text text-anchor="start" x="87" y="-648.5" font-family="Iosevka" font-size="10.00">+ size</text>
<text text-anchor="start" x="87" y="-637.5" font-family="Iosevka" font-size="10.00">+ colour</text>
<text text-anchor="start" x="87" y="-626.5" font-family="Iosevka" font-size="10.00">+ alpha</text>
<text text-anchor="start" x="87" y="-615.5" font-family="Iosevka" font-size="10.00">+ startPosition</text>
<text text-anchor="start" x="87" y="-604.5" font-family="Iosevka" font-size="10.00">+ speed</text>
<text text-anchor="start" x="87" y="-593.5" font-family="Iosevka" font-size="10.00">+ angle</text>
<text text-anchor="start" x="87" y="-582.5" font-family="Iosevka" font-size="10.00">+ delayTime</text>
<text text-anchor="start" x="87" y="-571.5" font-family="Iosevka" font-size="10.00">+ offTime</text>
<text text-anchor="start" x="87" y="-560.5" font-family="Iosevka" font-size="10.00">and 17 more...</text>
<text text-anchor="start" x="87" y="-549.5" font-family="Iosevka" font-size="10.00"># family</text>
<text text-anchor="start" x="87" y="-538.5" font-family="Iosevka" font-size="10.00"># texture</text>
<text text-anchor="start" x="87" y="-527.5" font-family="Iosevka" font-size="10.00"># handles</text>
<text text-anchor="start" x="87" y="-516.5" font-family="Iosevka" font-size="10.00"># sM</text>
<text text-anchor="start" x="87" y="-505.5" font-family="Iosevka" font-size="10.00"># screenVals</text>
<text text-anchor="start" x="87" y="-494.5" font-family="Iosevka" font-size="10.00"># isSetup</text>
<text text-anchor="start" x="87" y="-483.5" font-family="Iosevka" font-size="10.00"># isGUI</text>
<text text-anchor="start" x="87" y="-472.5" font-family="Iosevka" font-size="10.00"># mouseValid</text>
<text text-anchor="start" x="87" y="-461.5" font-family="Iosevka" font-size="10.00"># mouseX</text>
<text text-anchor="start" x="87" y="-450.5" font-family="Iosevka" font-size="10.00"># mouseY</text>
<text text-anchor="start" x="87" y="-439.5" font-family="Iosevka" font-size="10.00">and 9 more...</text>
<polyline fill="none" stroke="black" points="79,-432.5 234,-432.5 "/>
<text text-anchor="start" x="87" y="-420.5" font-family="Iosevka" font-size="10.00">+ setup()</text>
<text text-anchor="start" x="87" y="-409.5" font-family="Iosevka" font-size="10.00">+ draw()</text>
<text text-anchor="start" x="87" y="-398.5" font-family="Iosevka" font-size="10.00">+ animate()</text>
<text text-anchor="start" x="87" y="-387.5" font-family="Iosevka" font-size="10.00">+ update()</text>
<text text-anchor="start" x="87" y="-376.5" font-family="Iosevka" font-size="10.00">+ reset()</text>
<text text-anchor="start" x="87" y="-365.5" font-family="Iosevka" font-size="10.00">+ baseStimulus()</text>
<text text-anchor="start" x="87" y="-354.5" font-family="Iosevka" font-size="10.00">+ colour()</text>
<text text-anchor="start" x="87" y="-343.5" font-family="Iosevka" font-size="10.00">+ alpha()</text>
<text text-anchor="start" x="87" y="-332.5" font-family="Iosevka" font-size="10.00">+ delta()</text>
<text text-anchor="start" x="87" y="-321.5" font-family="Iosevka" font-size="10.00">+ dX()</text>
<text text-anchor="start" x="87" y="-310.5" font-family="Iosevka" font-size="10.00">and 13 more...</text>
<text text-anchor="start" x="87" y="-299.5" font-family="Iosevka" font-size="10.00">+ d2r()</text>
<text text-anchor="start" x="87" y="-288.5" font-family="Iosevka" font-size="10.00">+ r2d()</text>
<text text-anchor="start" x="87" y="-277.5" font-family="Iosevka" font-size="10.00">+ findDistance()</text>
<text text-anchor="start" x="87" y="-266.5" font-family="Iosevka" font-size="10.00">+ updatePosition()</text>
<text text-anchor="start" x="87" y="-255.5" font-family="Iosevka" font-size="10.00"># doProperties()</text>
<text text-anchor="start" x="87" y="-244.5" font-family="Iosevka" font-size="10.00"># setRect()</text>
<text text-anchor="start" x="87" y="-233.5" font-family="Iosevka" font-size="10.00"># setAnimationDelta()</text>
<text text-anchor="start" x="87" y="-222.5" font-family="Iosevka" font-size="10.00"># computePosition()</text>
<text text-anchor="start" x="87" y="-211.5" font-family="Iosevka" font-size="10.00"># set_xPositionOut()</text>
<text text-anchor="start" x="87" y="-200.5" font-family="Iosevka" font-size="10.00"># set_yPositionOut()</text>
<text text-anchor="start" x="87" y="-189.5" font-family="Iosevka" font-size="10.00"># toStructure()</text>
<text text-anchor="start" x="87" y="-178.5" font-family="Iosevka" font-size="10.00"># removeTmpProperties()</text>
<text text-anchor="start" x="87" y="-167.5" font-family="Iosevka" font-size="10.00"># delete()</text>
</a>
</g>
</g>
<!-- Node2&#45;&gt;Node1 -->
<g id="edge1" class="edge">
<title>Node2&#45;&gt;Node1</title>
<path fill="none" stroke="midnightblue" d="M156.5,-150.1C156.5,-140.79 156.5,-131.94 156.5,-123.7"/>
<polygon fill="none" stroke="midnightblue" points="153,-150.39 156.5,-160.39 160,-150.39 153,-150.39"/>
</g>
<!-- Node3 -->
<g id="node3" class="node">
<title>Node3</title>
<g id="a_node3"><a xlink:href="classopticka_core.html" target="_top" xlink:title="optickaCore base class inherited by many other opticka classes.">
<polygon fill="none" stroke="black" points="0,-738.5 0,-1092.5 167,-1092.5 167,-738.5 0,-738.5"/>
<text text-anchor="middle" x="83.5" y="-1080.5" font-family="Iosevka" font-size="10.00">optickaCore</text>
<polyline fill="none" stroke="black" points="0,-1073.5 167,-1073.5 "/>
<text text-anchor="start" x="8" y="-1061.5" font-family="Iosevka" font-size="10.00">+ name</text>
<text text-anchor="start" x="8" y="-1050.5" font-family="Iosevka" font-size="10.00">+ comment</text>
<text text-anchor="start" x="8" y="-1039.5" font-family="Iosevka" font-size="10.00">+ verbose</text>
<text text-anchor="start" x="8" y="-1028.5" font-family="Iosevka" font-size="10.00">+ dateStamp</text>
<text text-anchor="start" x="8" y="-1017.5" font-family="Iosevka" font-size="10.00">+ uuid</text>
<text text-anchor="start" x="8" y="-1006.5" font-family="Iosevka" font-size="10.00">+ paths</text>
<text text-anchor="start" x="8" y="-995.5" font-family="Iosevka" font-size="10.00">+ fullName</text>
<text text-anchor="start" x="8" y="-984.5" font-family="Iosevka" font-size="10.00"># cloning</text>
<text text-anchor="start" x="8" y="-973.5" font-family="Iosevka" font-size="10.00"># mversion</text>
<text text-anchor="start" x="8" y="-962.5" font-family="Iosevka" font-size="10.00"># className</text>
<text text-anchor="start" x="8" y="-951.5" font-family="Iosevka" font-size="10.00"># savePrefix</text>
<polyline fill="none" stroke="black" points="0,-944.5 167,-944.5 "/>
<text text-anchor="start" x="8" y="-932.5" font-family="Iosevka" font-size="10.00">+ optickaCore()</text>
<text text-anchor="start" x="8" y="-921.5" font-family="Iosevka" font-size="10.00">+ fullName()</text>
<text text-anchor="start" x="8" y="-910.5" font-family="Iosevka" font-size="10.00">+ initialiseSaveFile()</text>
<text text-anchor="start" x="8" y="-899.5" font-family="Iosevka" font-size="10.00">+ findAttributes()</text>
<text text-anchor="start" x="8" y="-888.5" font-family="Iosevka" font-size="10.00">+ findAttributesandType()</text>
<text text-anchor="start" x="8" y="-877.5" font-family="Iosevka" font-size="10.00">+ clone()</text>
<text text-anchor="start" x="8" y="-866.5" font-family="Iosevka" font-size="10.00">+ checkSuperclasses()</text>
<text text-anchor="start" x="8" y="-855.5" font-family="Iosevka" font-size="10.00">+ editProperties()</text>
<text text-anchor="start" x="8" y="-844.5" font-family="Iosevka" font-size="10.00">+ set()</text>
<text text-anchor="start" x="8" y="-833.5" font-family="Iosevka" font-size="10.00">+ checkPaths()</text>
<text text-anchor="start" x="8" y="-822.5" font-family="Iosevka" font-size="10.00">+ makeArgs()</text>
<text text-anchor="start" x="8" y="-811.5" font-family="Iosevka" font-size="10.00">+ addDefaults()</text>
<text text-anchor="start" x="8" y="-800.5" font-family="Iosevka" font-size="10.00"># parseArgs()</text>
<text text-anchor="start" x="8" y="-789.5" font-family="Iosevka" font-size="10.00"># addArgs()</text>
<text text-anchor="start" x="8" y="-778.5" font-family="Iosevka" font-size="10.00"># setPaths()</text>
<text text-anchor="start" x="8" y="-767.5" font-family="Iosevka" font-size="10.00"># toStructure()</text>
<text text-anchor="start" x="8" y="-756.5" font-family="Iosevka" font-size="10.00"># getType()</text>
<text text-anchor="start" x="8" y="-745.5" font-family="Iosevka" font-size="10.00"># salutation()</text>
</a>
</g>
</g>
<!-- Node3&#45;&gt;Node2 -->
<g id="edge2" class="edge">
<title>Node3&#45;&gt;Node2</title>
<path fill="none" stroke="midnightblue" d="M111.7,-728.1C113.02,-719.4 114.35,-710.61 115.69,-701.76"/>
<polygon fill="none" stroke="midnightblue" points="108.2,-727.85 110.16,-738.26 115.12,-728.89 108.2,-727.85"/>
</g>
<!-- Node4 -->
<g id="node4" class="node">
<title>Node4</title>
<g id="a_node4"><a xlink:title=" ">
<polygon fill="none" stroke="black" points="57,-1129.5 57,-1186.5 110,-1186.5 110,-1129.5 57,-1129.5"/>
<text text-anchor="middle" x="83.5" y="-1174.5" font-family="Iosevka" font-size="10.00">handle</text>
<polyline fill="none" stroke="black" points="57,-1167.5 110,-1167.5 "/>
<text text-anchor="middle" x="83.5" y="-1155.5" font-family="Iosevka" font-size="10.00"> </text>
<polyline fill="none" stroke="black" points="57,-1148.5 110,-1148.5 "/>
<text text-anchor="middle" x="83.5" y="-1136.5" font-family="Iosevka" font-size="10.00"> </text>
</a>
</g>
</g>
<!-- Node4&#45;&gt;Node3 -->
<g id="edge3" class="edge">
<title>Node4&#45;&gt;Node3</title>
<path fill="none" stroke="midnightblue" d="M83.5,-1119.18C83.5,-1111.22 83.5,-1102.35 83.5,-1092.87"/>
<polygon fill="none" stroke="midnightblue" points="80,-1119.41 83.5,-1129.41 87,-1119.41 80,-1119.41"/>
</g>
<!-- Node5 -->
<g id="node5" class="node">
<title>Node5</title>
<g id="a_node5"><a xlink:title=" ">
<polygon fill="none" stroke="black" points="185,-887 185,-944 274,-944 274,-887 185,-887"/>
<text text-anchor="middle" x="229.5" y="-932" font-family="Iosevka" font-size="10.00">dynamicprops</text>
<polyline fill="none" stroke="black" points="185,-925 274,-925 "/>
<text text-anchor="middle" x="229.5" y="-913" font-family="Iosevka" font-size="10.00"> </text>
<polyline fill="none" stroke="black" points="185,-906 274,-906 "/>
<text text-anchor="middle" x="229.5" y="-894" font-family="Iosevka" font-size="10.00"> </text>
</a>
</g>
</g>
<!-- Node5&#45;&gt;Node2 -->
<g id="edge4" class="edge">
<title>Node5&#45;&gt;Node2</title>
<path fill="none" stroke="midnightblue" d="M223.8,-876.86C217.81,-837.23 207.8,-771.09 197.31,-701.77"/>
<polygon fill="none" stroke="midnightblue" points="220.36,-877.46 225.31,-886.83 227.28,-876.41 220.36,-877.46"/>
</g>
</g>
</svg>
        <g id="navigator" transform="translate(0 0)" fill="#404254">
                <rect fill="#f2f5e9" fill-opacity="0.5" stroke="#606060" stroke-width=".5" x="0" y="0" width="60" height="60"/>
                <use id="zoomplus" xlink:href="#zoomPlus" x="17" y="9" onmousedown="handleZoom(evt,'in')"/>
                <use id="zoomminus" xlink:href="#zoomMin" x="42" y="9" onmousedown="handleZoom(evt,'out')"/>
                <use id="reset" xlink:href="#resetDef" x="30" y="36" onmousedown="handleReset()"/>
                <g id="arrowUp" xlink:href="#dirArrow" transform="translate(30 24)" onmousedown="handlePan(0,-1)">
                  <use xlink:href="#rim" fill="#404040">
                        <set attributeName="fill" to="#808080" begin="arrowUp.mouseover" end="arrowUp.mouseout"/>
                  </use>
                  <path fill="none" stroke="white" stroke-width="1.5" d="M0,-3.0v7 M-2.5,-0.5L0,-3.0L2.5,-0.5"/>
                </g>
                <g id="arrowRight" xlink:href="#dirArrow" transform="rotate(90) translate(36 -43)" onmousedown="handlePan(1,0)">
                  <use xlink:href="#rim" fill="#404040">
                        <set attributeName="fill" to="#808080" begin="arrowRight.mouseover" end="arrowRight.mouseout"/>
                  </use>
                  <path fill="none" stroke="white" stroke-width="1.5" d="M0,-3.0v7 M-2.5,-0.5L0,-3.0L2.5,-0.5"/>
                </g>
                <g id="arrowDown" xlink:href="#dirArrow" transform="rotate(180) translate(-30 -48)" onmousedown="handlePan(0,1)">
                  <use xlink:href="#rim" fill="#404040">
                        <set attributeName="fill" to="#808080" begin="arrowDown.mouseover" end="arrowDown.mouseout"/>
                  </use>
                  <path fill="none" stroke="white" stroke-width="1.5" d="M0,-3.0v7 M-2.5,-0.5L0,-3.0L2.5,-0.5"/>
                </g>
                <g id="arrowLeft" xlink:href="#dirArrow" transform="rotate(270) translate(-36 17)" onmousedown="handlePan(-1,0)">
                  <use xlink:href="#rim" fill="#404040">
                        <set attributeName="fill" to="#808080" begin="arrowLeft.mouseover" end="arrowLeft.mouseout"/>
                  </use>
                  <path fill="none" stroke="white" stroke-width="1.5" d="M0,-3.0v7 M-2.5,-0.5L0,-3.0L2.5,-0.5"/>
                </g>
        </g>
        <svg viewBox="0 0 15 15" width="100%" height="30px" preserveAspectRatio="xMaxYMin meet">
         <g id="arrow_out" transform="scale(0.3 0.3)">
          <a xlink:href="classplaid_stimulus__inherit__graph_org.svg" target="_base">
           <rect id="button" ry="5" rx="5" y="6" x="6" height="38" width="38"
                fill="#f2f5e9" fill-opacity="0.5" stroke="#606060" stroke-width="1.0"/>
           <path id="arrow"
             d="M 11.500037,31.436501 C 11.940474,20.09759 22.043105,11.32322 32.158766,21.979434 L 37.068811,17.246167 C 37.068811,17.246167 37.088388,32 37.088388,32 L 22.160133,31.978069 C 22.160133,31.978069 26.997745,27.140456 26.997745,27.140456 C 18.528582,18.264221 13.291696,25.230495 11.500037,31.436501 z"
             style="fill:#404040;"/>
          </a>
         </g>
        </svg>
</svg>
