<?xml version="1.0" encoding="UTF-8" standalone="no"?>
<!DOCTYPE svg PUBLIC "-//W3C//DTD SVG 1.1//EN"
 "http://www.w3.org/Graphics/SVG/1.1/DTD/svg11.dtd">
<!-- Generated by graphviz version 2.43.0 (0)
 -->
<!-- Title: touchManager Pages: 1 -->
<svg width="150pt" height="782pt"
 viewBox="0.00 0.00 150.00 782.00" xmlns="http://www.w3.org/2000/svg" xmlns:xlink="http://www.w3.org/1999/xlink">
<g id="graph0" class="graph" transform="scale(1 1) rotate(0) translate(4 778)">
<title>touchManager</title>
<!-- Node1 -->
<g id="node1" class="node">
<title>Node1</title>
<g id="a_node1"><a xlink:title=" ">
<polygon fill="#bfbfbf" stroke="black" points="3,-0.5 3,-255.5 139,-255.5 139,-0.5 3,-0.5"/>
<text text-anchor="middle" x="71" y="-243.5" font-family="Iosevka" font-size="10.00">touchManager</text>
<polyline fill="none" stroke="black" points="3,-236.5 139,-236.5 "/>
<text text-anchor="start" x="11" y="-224.5" font-family="Iosevka" font-size="10.00">+ device</text>
<text text-anchor="start" x="11" y="-213.5" font-family="Iosevka" font-size="10.00">+ isDummy</text>
<text text-anchor="start" x="11" y="-202.5" font-family="Iosevka" font-size="10.00">+ window</text>
<text text-anchor="start" x="11" y="-191.5" font-family="Iosevka" font-size="10.00">+ exclusionZone</text>
<text text-anchor="start" x="11" y="-180.5" font-family="Iosevka" font-size="10.00">+ nSlots</text>
<text text-anchor="start" x="11" y="-169.5" font-family="Iosevka" font-size="10.00">+ negationBuffer</text>
<text text-anchor="start" x="11" y="-158.5" font-family="Iosevka" font-size="10.00">+ verbose</text>
<polyline fill="none" stroke="black" points="3,-151.5 139,-151.5 "/>
<text text-anchor="start" x="11" y="-139.5" font-family="Iosevka" font-size="10.00">+ touchManager()</text>
<text text-anchor="start" x="11" y="-128.5" font-family="Iosevka" font-size="10.00">+ setup()</text>
<text text-anchor="start" x="11" y="-117.5" font-family="Iosevka" font-size="10.00">+ createQueue()</text>
<text text-anchor="start" x="11" y="-106.5" font-family="Iosevka" font-size="10.00">+ start()</text>
<text text-anchor="start" x="11" y="-95.5" font-family="Iosevka" font-size="10.00">+ stop()</text>
<text text-anchor="start" x="11" y="-84.5" font-family="Iosevka" font-size="10.00">+ close()</text>
<text text-anchor="start" x="11" y="-73.5" font-family="Iosevka" font-size="10.00">+ flush()</text>
<text text-anchor="start" x="11" y="-62.5" font-family="Iosevka" font-size="10.00">+ eventAvail()</text>
<text text-anchor="start" x="11" y="-51.5" font-family="Iosevka" font-size="10.00">+ getEvent()</text>
<text text-anchor="start" x="11" y="-40.5" font-family="Iosevka" font-size="10.00">+ checkTouchWindow()</text>
<text text-anchor="start" x="11" y="-29.5" font-family="Iosevka" font-size="10.00">+ checkTouchWindows()</text>
<text text-anchor="start" x="11" y="-18.5" font-family="Iosevka" font-size="10.00">+ demo()</text>
<text text-anchor="start" x="11" y="-7.5" font-family="Iosevka" font-size="10.00"># calculateWindow()</text>
</a>
</g>
</g>
<!-- Node2 -->
<g id="node2" class="node">
<title>Node2</title>
<g id="a_node2"><a xlink:href="classopticka_core.html" target="_top" xlink:title="optickaCore base class inherited by other opticka classes.">
<polygon fill="none" stroke="black" points="0,-292.5 0,-679.5 142,-679.5 142,-292.5 0,-292.5"/>
<text text-anchor="middle" x="71" y="-667.5" font-family="Iosevka" font-size="10.00">optickaCore</text>
<polyline fill="none" stroke="black" points="0,-660.5 142,-660.5 "/>
<text text-anchor="start" x="8" y="-648.5" font-family="Iosevka" font-size="10.00">+ name</text>
<text text-anchor="start" x="8" y="-637.5" font-family="Iosevka" font-size="10.00">+ comment</text>
<text text-anchor="start" x="8" y="-626.5" font-family="Iosevka" font-size="10.00">+ verbose</text>
<text text-anchor="start" x="8" y="-615.5" font-family="Iosevka" font-size="10.00">+ dateStamp</text>
<text text-anchor="start" x="8" y="-604.5" font-family="Iosevka" font-size="10.00">+ uuid</text>
<text text-anchor="start" x="8" y="-593.5" font-family="Iosevka" font-size="10.00">+ paths</text>
<text text-anchor="start" x="8" y="-582.5" font-family="Iosevka" font-size="10.00">+ fullName</text>
<text text-anchor="start" x="8" y="-571.5" font-family="Iosevka" font-size="10.00"># cloning</text>
<text text-anchor="start" x="8" y="-560.5" font-family="Iosevka" font-size="10.00"># mversion</text>
<text text-anchor="start" x="8" y="-549.5" font-family="Iosevka" font-size="10.00"># className</text>
<text text-anchor="start" x="8" y="-538.5" font-family="Iosevka" font-size="10.00"># savePrefix</text>
<polyline fill="none" stroke="black" points="0,-531.5 142,-531.5 "/>
<text text-anchor="start" x="8" y="-519.5" font-family="Iosevka" font-size="10.00">+ optickaCore()</text>
<text text-anchor="start" x="8" y="-508.5" font-family="Iosevka" font-size="10.00">+ fullName()</text>
<text text-anchor="start" x="8" y="-497.5" font-family="Iosevka" font-size="10.00">+ initialiseSaveFile()</text>
<text text-anchor="start" x="8" y="-486.5" font-family="Iosevka" font-size="10.00">+ findAttributes()</text>
<text text-anchor="start" x="8" y="-475.5" font-family="Iosevka" font-size="10.00">+ findAttributesandType()</text>
<text text-anchor="start" x="8" y="-464.5" font-family="Iosevka" font-size="10.00">+ findPropertyDefault()</text>
<text text-anchor="start" x="8" y="-453.5" font-family="Iosevka" font-size="10.00">+ clone()</text>
<text text-anchor="start" x="8" y="-442.5" font-family="Iosevka" font-size="10.00">+ checkSuperclasses()</text>
<text text-anchor="start" x="8" y="-431.5" font-family="Iosevka" font-size="10.00">+ editProperties()</text>
<text text-anchor="start" x="8" y="-420.5" font-family="Iosevka" font-size="10.00">+ setProp()</text>
<text text-anchor="start" x="8" y="-409.5" font-family="Iosevka" font-size="10.00">+ checkPaths()</text>
<text text-anchor="start" x="8" y="-398.5" font-family="Iosevka" font-size="10.00">+ makeArgs()</text>
<text text-anchor="start" x="8" y="-387.5" font-family="Iosevka" font-size="10.00">+ addDefaults()</text>
<text text-anchor="start" x="8" y="-376.5" font-family="Iosevka" font-size="10.00">+ hasKey()</text>
<text text-anchor="start" x="8" y="-365.5" font-family="Iosevka" font-size="10.00"># parseArgs()</text>
<text text-anchor="start" x="8" y="-354.5" font-family="Iosevka" font-size="10.00"># addArgs()</text>
<text text-anchor="start" x="8" y="-343.5" font-family="Iosevka" font-size="10.00"># setPaths()</text>
<text text-anchor="start" x="8" y="-332.5" font-family="Iosevka" font-size="10.00"># toStructure()</text>
<text text-anchor="start" x="8" y="-321.5" font-family="Iosevka" font-size="10.00"># getType()</text>
<text text-anchor="start" x="8" y="-310.5" font-family="Iosevka" font-size="10.00"># salutation()</text>
<text text-anchor="start" x="8" y="-299.5" font-family="Iosevka" font-size="10.00"># LogOutput()</text>
</a>
</g>
</g>
<!-- Node2&#45;&gt;Node1 -->
<g id="edge1" class="edge">
<title>Node2&#45;&gt;Node1</title>
<path fill="none" stroke="midnightblue" d="M71,-282.23C71,-273.23 71,-264.32 71,-255.59"/>
<polygon fill="none" stroke="midnightblue" points="67.5,-282.41 71,-292.41 74.5,-282.41 67.5,-282.41"/>
</g>
<!-- Node3 -->
<g id="node3" class="node">
<title>Node3</title>
<g id="a_node3"><a xlink:title=" ">
<polygon fill="none" stroke="#bfbfbf" points="46,-716.5 46,-773.5 96,-773.5 96,-716.5 46,-716.5"/>
<text text-anchor="middle" x="71" y="-761.5" font-family="Iosevka" font-size="10.00">handle</text>
<polyline fill="none" stroke="#bfbfbf" points="46,-754.5 96,-754.5 "/>
<text text-anchor="middle" x="71" y="-742.5" font-family="Iosevka" font-size="10.00"> </text>
<polyline fill="none" stroke="#bfbfbf" points="46,-735.5 96,-735.5 "/>
<text text-anchor="middle" x="71" y="-723.5" font-family="Iosevka" font-size="10.00"> </text>
</a>
</g>
</g>
<!-- Node3&#45;&gt;Node2 -->
<g id="edge2" class="edge">
<title>Node3&#45;&gt;Node2</title>
<path fill="none" stroke="midnightblue" d="M71,-706.46C71,-698.38 71,-689.31 71,-679.58"/>
<polygon fill="none" stroke="midnightblue" points="67.5,-706.5 71,-716.5 74.5,-706.5 67.5,-706.5"/>
</g>
</g>
</svg>
