<?xml version="1.0" encoding="UTF-8" standalone="no"?>
<!DOCTYPE svg PUBLIC "-//W3C//DTD SVG 1.1//EN"
 "http://www.w3.org/Graphics/SVG/1.1/DTD/svg11.dtd">
<!-- Generated by graphviz version 2.50.0 (20211204.2007)
 -->
<!-- Title: audioManager Pages: 1 -->
<svg width="175pt" height="749pt"
 viewBox="0.00 0.00 175.00 749.00" xmlns="http://www.w3.org/2000/svg" xmlns:xlink="http://www.w3.org/1999/xlink">
<g id="graph0" class="graph" transform="scale(1 1) rotate(0) translate(4 745)">
<title>audioManager</title>
<!-- Node1 -->
<g id="node1" class="node">
<title>Node1</title>
<g id="a_node1"><a xlink:title=" ">
<polygon fill="#bfbfbf" stroke="black" points="15,-0.5 15,-255.5 152,-255.5 152,-0.5 15,-0.5"/>
<text text-anchor="middle" x="83.5" y="-243.5" font-family="Iosevka" font-size="10.00">audioManager</text>
<polyline fill="none" stroke="black" points="15,-236.5 152,-236.5 "/>
<text text-anchor="start" x="23" y="-224.5" font-family="Iosevka" font-size="10.00">+ device</text>
<text text-anchor="start" x="23" y="-213.5" font-family="Iosevka" font-size="10.00">+ fileName</text>
<text text-anchor="start" x="23" y="-202.5" font-family="Iosevka" font-size="10.00">+ numChannels</text>
<text text-anchor="start" x="23" y="-191.5" font-family="Iosevka" font-size="10.00">+ frequency</text>
<text text-anchor="start" x="23" y="-180.5" font-family="Iosevka" font-size="10.00">+ lowLatency</text>
<text text-anchor="start" x="23" y="-169.5" font-family="Iosevka" font-size="10.00">+ silentMode</text>
<text text-anchor="start" x="23" y="-158.5" font-family="Iosevka" font-size="10.00">+ verbose</text>
<polyline fill="none" stroke="black" points="15,-151.5 152,-151.5 "/>
<text text-anchor="start" x="23" y="-139.5" font-family="Iosevka" font-size="10.00">+ audioManager()</text>
<text text-anchor="start" x="23" y="-128.5" font-family="Iosevka" font-size="10.00">+ open()</text>
<text text-anchor="start" x="23" y="-117.5" font-family="Iosevka" font-size="10.00">+ setup()</text>
<text text-anchor="start" x="23" y="-106.5" font-family="Iosevka" font-size="10.00">+ loadSamples()</text>
<text text-anchor="start" x="23" y="-95.5" font-family="Iosevka" font-size="10.00">+ play()</text>
<text text-anchor="start" x="23" y="-84.5" font-family="Iosevka" font-size="10.00">+ waitUntilStopped()</text>
<text text-anchor="start" x="23" y="-73.5" font-family="Iosevka" font-size="10.00">+ beep()</text>
<text text-anchor="start" x="23" y="-62.5" font-family="Iosevka" font-size="10.00">+ run()</text>
<text text-anchor="start" x="23" y="-51.5" font-family="Iosevka" font-size="10.00">+ reset()</text>
<text text-anchor="start" x="23" y="-40.5" font-family="Iosevka" font-size="10.00">+ close()</text>
<text text-anchor="start" x="23" y="-29.5" font-family="Iosevka" font-size="10.00">+ delete()</text>
<text text-anchor="start" x="23" y="-18.5" font-family="Iosevka" font-size="10.00"># checkFiles()</text>
<text text-anchor="start" x="23" y="-7.5" font-family="Iosevka" font-size="10.00"># findFiles()</text>
</a>
</g>
</g>
<!-- Node2 -->
<g id="node2" class="node">
<title>Node2</title>
<g id="a_node2"><a xlink:href="$classopticka_core.html" xlink:title="optickaCore base class inherited by many other opticka classes.">
<polygon fill="none" stroke="black" points="0,-292.5 0,-646.5 167,-646.5 167,-292.5 0,-292.5"/>
<text text-anchor="middle" x="83.5" y="-634.5" font-family="Iosevka" font-size="10.00">optickaCore</text>
<polyline fill="none" stroke="black" points="0,-627.5 167,-627.5 "/>
<text text-anchor="start" x="8" y="-615.5" font-family="Iosevka" font-size="10.00">+ name</text>
<text text-anchor="start" x="8" y="-604.5" font-family="Iosevka" font-size="10.00">+ comment</text>
<text text-anchor="start" x="8" y="-593.5" font-family="Iosevka" font-size="10.00">+ verbose</text>
<text text-anchor="start" x="8" y="-582.5" font-family="Iosevka" font-size="10.00">+ dateStamp</text>
<text text-anchor="start" x="8" y="-571.5" font-family="Iosevka" font-size="10.00">+ uuid</text>
<text text-anchor="start" x="8" y="-560.5" font-family="Iosevka" font-size="10.00">+ paths</text>
<text text-anchor="start" x="8" y="-549.5" font-family="Iosevka" font-size="10.00">+ fullName</text>
<text text-anchor="start" x="8" y="-538.5" font-family="Iosevka" font-size="10.00"># cloning</text>
<text text-anchor="start" x="8" y="-527.5" font-family="Iosevka" font-size="10.00"># mversion</text>
<text text-anchor="start" x="8" y="-516.5" font-family="Iosevka" font-size="10.00"># className</text>
<text text-anchor="start" x="8" y="-505.5" font-family="Iosevka" font-size="10.00"># savePrefix</text>
<polyline fill="none" stroke="black" points="0,-498.5 167,-498.5 "/>
<text text-anchor="start" x="8" y="-486.5" font-family="Iosevka" font-size="10.00">+ optickaCore()</text>
<text text-anchor="start" x="8" y="-475.5" font-family="Iosevka" font-size="10.00">+ fullName()</text>
<text text-anchor="start" x="8" y="-464.5" font-family="Iosevka" font-size="10.00">+ initialiseSaveFile()</text>
<text text-anchor="start" x="8" y="-453.5" font-family="Iosevka" font-size="10.00">+ findAttributes()</text>
<text text-anchor="start" x="8" y="-442.5" font-family="Iosevka" font-size="10.00">+ findAttributesandType()</text>
<text text-anchor="start" x="8" y="-431.5" font-family="Iosevka" font-size="10.00">+ clone()</text>
<text text-anchor="start" x="8" y="-420.5" font-family="Iosevka" font-size="10.00">+ checkSuperclasses()</text>
<text text-anchor="start" x="8" y="-409.5" font-family="Iosevka" font-size="10.00">+ editProperties()</text>
<text text-anchor="start" x="8" y="-398.5" font-family="Iosevka" font-size="10.00">+ set()</text>
<text text-anchor="start" x="8" y="-387.5" font-family="Iosevka" font-size="10.00">+ checkPaths()</text>
<text text-anchor="start" x="8" y="-376.5" font-family="Iosevka" font-size="10.00">+ makeArgs()</text>
<text text-anchor="start" x="8" y="-365.5" font-family="Iosevka" font-size="10.00">+ addDefaults()</text>
<text text-anchor="start" x="8" y="-354.5" font-family="Iosevka" font-size="10.00"># parseArgs()</text>
<text text-anchor="start" x="8" y="-343.5" font-family="Iosevka" font-size="10.00"># addArgs()</text>
<text text-anchor="start" x="8" y="-332.5" font-family="Iosevka" font-size="10.00"># setPaths()</text>
<text text-anchor="start" x="8" y="-321.5" font-family="Iosevka" font-size="10.00"># toStructure()</text>
<text text-anchor="start" x="8" y="-310.5" font-family="Iosevka" font-size="10.00"># getType()</text>
<text text-anchor="start" x="8" y="-299.5" font-family="Iosevka" font-size="10.00"># salutation()</text>
</a>
</g>
</g>
<!-- Node2&#45;&gt;Node1 -->
<g id="edge1" class="edge">
<title>Node2&#45;&gt;Node1</title>
<path fill="none" stroke="midnightblue" d="M83.5,-282.24C83.5,-273.35 83.5,-264.53 83.5,-255.87"/>
<polygon fill="none" stroke="midnightblue" points="80,-282.29 83.5,-292.29 87,-282.29 80,-282.29"/>
</g>
<!-- Node3 -->
<g id="node3" class="node">
<title>Node3</title>
<g id="a_node3"><a xlink:title=" ">
<polygon fill="none" stroke="black" points="57,-683.5 57,-740.5 110,-740.5 110,-683.5 57,-683.5"/>
<text text-anchor="middle" x="83.5" y="-728.5" font-family="Iosevka" font-size="10.00">handle</text>
<polyline fill="none" stroke="black" points="57,-721.5 110,-721.5 "/>
<text text-anchor="middle" x="83.5" y="-709.5" font-family="Iosevka" font-size="10.00"> </text>
<polyline fill="none" stroke="black" points="57,-702.5 110,-702.5 "/>
<text text-anchor="middle" x="83.5" y="-690.5" font-family="Iosevka" font-size="10.00"> </text>
</a>
</g>
</g>
<!-- Node3&#45;&gt;Node2 -->
<g id="edge2" class="edge">
<title>Node3&#45;&gt;Node2</title>
<path fill="none" stroke="midnightblue" d="M83.5,-673.18C83.5,-665.22 83.5,-656.35 83.5,-646.87"/>
<polygon fill="none" stroke="midnightblue" points="80,-673.41 83.5,-683.41 87,-673.41 80,-673.41"/>
</g>
</g>
</svg>
