<?xml version="1.0" encoding="UTF-8" standalone="no"?>
<!DOCTYPE svg PUBLIC "-//W3C//DTD SVG 1.1//EN"
 "http://www.w3.org/Graphics/SVG/1.1/DTD/svg11.dtd">
<!-- Generated by graphviz version 2.50.0 (20211204.2007)
 -->
<!-- Title: taskSequence Pages: 1 -->
<svg width="282pt" height="782pt"
 viewBox="0.00 0.00 282.00 782.00" xmlns="http://www.w3.org/2000/svg" xmlns:xlink="http://www.w3.org/1999/xlink">
<g id="graph0" class="graph" transform="scale(1 1) rotate(0) translate(4 778)">
<title>taskSequence</title>
<!-- Node1 -->
<g id="node1" class="node">
<title>Node1</title>
<g id="a_node1"><a xlink:title="Block&#45;based variable randomisation manager.">
<polygon fill="#bfbfbf" stroke="black" points="79,-0.5 79,-288.5 234,-288.5 234,-0.5 79,-0.5"/>
<text text-anchor="middle" x="156.5" y="-276.5" font-family="Iosevka" font-size="10.00">taskSequence</text>
<polyline fill="none" stroke="black" points="79,-269.5 234,-269.5 "/>
<text text-anchor="start" x="87" y="-257.5" font-family="Iosevka" font-size="10.00">+ nVar</text>
<text text-anchor="start" x="87" y="-246.5" font-family="Iosevka" font-size="10.00">+ blockVar</text>
<text text-anchor="start" x="87" y="-235.5" font-family="Iosevka" font-size="10.00">+ trialVar</text>
<text text-anchor="start" x="87" y="-224.5" font-family="Iosevka" font-size="10.00">+ nBlocks</text>
<text text-anchor="start" x="87" y="-213.5" font-family="Iosevka" font-size="10.00">+ randomise</text>
<text text-anchor="start" x="87" y="-202.5" font-family="Iosevka" font-size="10.00">+ addBlank</text>
<text text-anchor="start" x="87" y="-191.5" font-family="Iosevka" font-size="10.00">+ realTime</text>
<text text-anchor="start" x="87" y="-180.5" font-family="Iosevka" font-size="10.00">+ randomSeed</text>
<text text-anchor="start" x="87" y="-169.5" font-family="Iosevka" font-size="10.00">+ randomGenerator</text>
<text text-anchor="start" x="87" y="-158.5" font-family="Iosevka" font-size="10.00">+ verbose</text>
<text text-anchor="start" x="87" y="-147.5" font-family="Iosevka" font-size="10.00">and 6 more...</text>
<polyline fill="none" stroke="black" points="79,-140.5 234,-140.5 "/>
<text text-anchor="start" x="87" y="-128.5" font-family="Iosevka" font-size="10.00">+ taskSequence()</text>
<text text-anchor="start" x="87" y="-117.5" font-family="Iosevka" font-size="10.00">+ initialiseGenerator()</text>
<text text-anchor="start" x="87" y="-106.5" font-family="Iosevka" font-size="10.00">+ resetRandom()</text>
<text text-anchor="start" x="87" y="-95.5" font-family="Iosevka" font-size="10.00">+ randomiseTask()</text>
<text text-anchor="start" x="87" y="-84.5" font-family="Iosevka" font-size="10.00">+ initialise()</text>
<text text-anchor="start" x="87" y="-73.5" font-family="Iosevka" font-size="10.00">+ backup()</text>
<text text-anchor="start" x="87" y="-62.5" font-family="Iosevka" font-size="10.00">+ updateTask()</text>
<text text-anchor="start" x="87" y="-51.5" font-family="Iosevka" font-size="10.00">+ findRun()</text>
<text text-anchor="start" x="87" y="-40.5" font-family="Iosevka" font-size="10.00">+ rewindTask()</text>
<text text-anchor="start" x="87" y="-29.5" font-family="Iosevka" font-size="10.00">+ resetRun()</text>
<text text-anchor="start" x="87" y="-18.5" font-family="Iosevka" font-size="10.00">and 10 more...</text>
<text text-anchor="start" x="87" y="-7.5" font-family="Iosevka" font-size="10.00">+ cellStruct()</text>
</a>
</g>
</g>
<!-- Node2 -->
<g id="node2" class="node">
<title>Node2</title>
<g id="a_node2"><a xlink:href="$classopticka_core.html" xlink:title="optickaCore base class inherited by many other opticka classes.">
<polygon fill="none" stroke="black" points="0,-325.5 0,-679.5 167,-679.5 167,-325.5 0,-325.5"/>
<text text-anchor="middle" x="83.5" y="-667.5" font-family="Iosevka" font-size="10.00">optickaCore</text>
<polyline fill="none" stroke="black" points="0,-660.5 167,-660.5 "/>
<text text-anchor="start" x="8" y="-648.5" font-family="Iosevka" font-size="10.00">+ name</text>
<text text-anchor="start" x="8" y="-637.5" font-family="Iosevka" font-size="10.00">+ comment</text>
<text text-anchor="start" x="8" y="-626.5" font-family="Iosevka" font-size="10.00">+ verbose</text>
<text text-anchor="start" x="8" y="-615.5" font-family="Iosevka" font-size="10.00">+ dateStamp</text>
<text text-anchor="start" x="8" y="-604.5" font-family="Iosevka" font-size="10.00">+ uuid</text>
<text text-anchor="start" x="8" y="-593.5" font-family="Iosevka" font-size="10.00">+ paths</text>
<text text-anchor="start" x="8" y="-582.5" font-family="Iosevka" font-size="10.00">+ fullName</text>
<text text-anchor="start" x="8" y="-571.5" font-family="Iosevka" font-size="10.00"># cloning</text>
<text text-anchor="start" x="8" y="-560.5" font-family="Iosevka" font-size="10.00"># mversion</text>
<text text-anchor="start" x="8" y="-549.5" font-family="Iosevka" font-size="10.00"># className</text>
<text text-anchor="start" x="8" y="-538.5" font-family="Iosevka" font-size="10.00"># savePrefix</text>
<polyline fill="none" stroke="black" points="0,-531.5 167,-531.5 "/>
<text text-anchor="start" x="8" y="-519.5" font-family="Iosevka" font-size="10.00">+ optickaCore()</text>
<text text-anchor="start" x="8" y="-508.5" font-family="Iosevka" font-size="10.00">+ fullName()</text>
<text text-anchor="start" x="8" y="-497.5" font-family="Iosevka" font-size="10.00">+ initialiseSaveFile()</text>
<text text-anchor="start" x="8" y="-486.5" font-family="Iosevka" font-size="10.00">+ findAttributes()</text>
<text text-anchor="start" x="8" y="-475.5" font-family="Iosevka" font-size="10.00">+ findAttributesandType()</text>
<text text-anchor="start" x="8" y="-464.5" font-family="Iosevka" font-size="10.00">+ clone()</text>
<text text-anchor="start" x="8" y="-453.5" font-family="Iosevka" font-size="10.00">+ checkSuperclasses()</text>
<text text-anchor="start" x="8" y="-442.5" font-family="Iosevka" font-size="10.00">+ editProperties()</text>
<text text-anchor="start" x="8" y="-431.5" font-family="Iosevka" font-size="10.00">+ set()</text>
<text text-anchor="start" x="8" y="-420.5" font-family="Iosevka" font-size="10.00">+ checkPaths()</text>
<text text-anchor="start" x="8" y="-409.5" font-family="Iosevka" font-size="10.00">+ makeArgs()</text>
<text text-anchor="start" x="8" y="-398.5" font-family="Iosevka" font-size="10.00">+ addDefaults()</text>
<text text-anchor="start" x="8" y="-387.5" font-family="Iosevka" font-size="10.00"># parseArgs()</text>
<text text-anchor="start" x="8" y="-376.5" font-family="Iosevka" font-size="10.00"># addArgs()</text>
<text text-anchor="start" x="8" y="-365.5" font-family="Iosevka" font-size="10.00"># setPaths()</text>
<text text-anchor="start" x="8" y="-354.5" font-family="Iosevka" font-size="10.00"># toStructure()</text>
<text text-anchor="start" x="8" y="-343.5" font-family="Iosevka" font-size="10.00"># getType()</text>
<text text-anchor="start" x="8" y="-332.5" font-family="Iosevka" font-size="10.00"># salutation()</text>
</a>
</g>
</g>
<!-- Node2&#45;&gt;Node1 -->
<g id="edge1" class="edge">
<title>Node2&#45;&gt;Node1</title>
<path fill="none" stroke="midnightblue" d="M121.64,-315.5C123.5,-306.44 125.35,-297.42 127.17,-288.51"/>
<polygon fill="none" stroke="midnightblue" points="118.21,-314.83 119.63,-325.33 125.06,-316.23 118.21,-314.83"/>
</g>
<!-- Node3 -->
<g id="node3" class="node">
<title>Node3</title>
<g id="a_node3"><a xlink:title=" ">
<polygon fill="none" stroke="black" points="57,-716.5 57,-773.5 110,-773.5 110,-716.5 57,-716.5"/>
<text text-anchor="middle" x="83.5" y="-761.5" font-family="Iosevka" font-size="10.00">handle</text>
<polyline fill="none" stroke="black" points="57,-754.5 110,-754.5 "/>
<text text-anchor="middle" x="83.5" y="-742.5" font-family="Iosevka" font-size="10.00"> </text>
<polyline fill="none" stroke="black" points="57,-735.5 110,-735.5 "/>
<text text-anchor="middle" x="83.5" y="-723.5" font-family="Iosevka" font-size="10.00"> </text>
</a>
</g>
</g>
<!-- Node3&#45;&gt;Node2 -->
<g id="edge2" class="edge">
<title>Node3&#45;&gt;Node2</title>
<path fill="none" stroke="midnightblue" d="M83.5,-706.18C83.5,-698.22 83.5,-689.35 83.5,-679.87"/>
<polygon fill="none" stroke="midnightblue" points="80,-706.41 83.5,-716.41 87,-706.41 80,-706.41"/>
</g>
<!-- Node4 -->
<g id="node4" class="node">
<title>Node4</title>
<g id="a_node4"><a xlink:title=" ">
<polygon fill="none" stroke="black" points="185,-474 185,-531 274,-531 274,-474 185,-474"/>
<text text-anchor="middle" x="229.5" y="-519" font-family="Iosevka" font-size="10.00">dynamicprops</text>
<polyline fill="none" stroke="black" points="185,-512 274,-512 "/>
<text text-anchor="middle" x="229.5" y="-500" font-family="Iosevka" font-size="10.00"> </text>
<polyline fill="none" stroke="black" points="185,-493 274,-493 "/>
<text text-anchor="middle" x="229.5" y="-481" font-family="Iosevka" font-size="10.00"> </text>
</a>
</g>
</g>
<!-- Node4&#45;&gt;Node1 -->
<g id="edge3" class="edge">
<title>Node4&#45;&gt;Node1</title>
<path fill="none" stroke="midnightblue" d="M221.79,-463.89C213.24,-422.22 198.94,-352.48 185.9,-288.88"/>
<polygon fill="none" stroke="midnightblue" points="218.4,-464.77 223.83,-473.86 225.25,-463.36 218.4,-464.77"/>
</g>
</g>
</svg>
