<?xml version="1.0" encoding="UTF-8" standalone="no"?>
<!DOCTYPE svg PUBLIC "-//W3C//DTD SVG 1.1//EN"
 "http://www.w3.org/Graphics/SVG/1.1/DTD/svg11.dtd">
<!-- Generated by graphviz version 2.43.0 (0)
 -->
<!-- Title: arduinoManager Pages: 1 -->
<svg width="139pt" height="1067pt"
 viewBox="0.00 0.00 139.00 1067.00" xmlns="http://www.w3.org/2000/svg" xmlns:xlink="http://www.w3.org/1999/xlink">
<g id="graph0" class="graph" transform="scale(1 1) rotate(0) translate(4 1063)">
<title>arduinoManager</title>
<!-- Node1 -->
<g id="Node000001" class="node">
<title>Node1</title>
<g id="a_Node000001"><a xlink:title="Arduino Manager &gt; Connects and manages arduino communication. By default it connects using arduinoIOP...">
<polygon fill="#999999" stroke="transparent" points="117,-334 14,-334 14,0 117,0 117,-334"/>
<text text-anchor="start" x="27" y="-322" font-family="Iosevka" font-size="10.00">arduinoManager</text>
<text text-anchor="start" x="18.5" y="-307" font-family="Iosevka" font-size="10.00">+</text>
<text text-anchor="start" x="29.5" y="-307" font-family="Iosevka" font-size="10.00">port</text>
<text text-anchor="start" x="18.5" y="-292" font-family="Iosevka" font-size="10.00">+</text>
<text text-anchor="start" x="29.5" y="-292" font-family="Iosevka" font-size="10.00">board</text>
<text text-anchor="start" x="18.5" y="-277" font-family="Iosevka" font-size="10.00">+</text>
<text text-anchor="start" x="29.5" y="-277" font-family="Iosevka" font-size="10.00">silentMode</text>
<text text-anchor="start" x="18.5" y="-262" font-family="Iosevka" font-size="10.00">+</text>
<text text-anchor="start" x="29.5" y="-262" font-family="Iosevka" font-size="10.00">verbose</text>
<text text-anchor="start" x="18.5" y="-247" font-family="Iosevka" font-size="10.00">+</text>
<text text-anchor="start" x="29.5" y="-247" font-family="Iosevka" font-size="10.00">reward</text>
<text text-anchor="start" x="18.5" y="-232" font-family="Iosevka" font-size="10.00">+</text>
<text text-anchor="start" x="29.5" y="-232" font-family="Iosevka" font-size="10.00">availablePins</text>
<text text-anchor="start" x="18.5" y="-217" font-family="Iosevka" font-size="10.00">+</text>
<text text-anchor="start" x="29.5" y="-217" font-family="Iosevka" font-size="10.00">device</text>
<text text-anchor="start" x="18.5" y="-202" font-family="Iosevka" font-size="10.00">+</text>
<text text-anchor="start" x="29.5" y="-202" font-family="Iosevka" font-size="10.00">delayLength</text>
<text text-anchor="start" x="18.5" y="-187" font-family="Iosevka" font-size="10.00">+</text>
<text text-anchor="start" x="29.5" y="-187" font-family="Iosevka" font-size="10.00">shield</text>
<text text-anchor="start" x="18.5" y="-172" font-family="Iosevka" font-size="10.00">+</text>
<text text-anchor="start" x="29.5" y="-172" font-family="Iosevka" font-size="10.00">linePWM</text>
<text text-anchor="start" x="18.5" y="-157" font-family="Iosevka" font-size="10.00">+</text>
<text text-anchor="start" x="29.5" y="-157" font-family="Iosevka" font-size="10.00">arduinoManager()</text>
<text text-anchor="start" x="18.5" y="-142" font-family="Iosevka" font-size="10.00">+</text>
<text text-anchor="start" x="29.5" y="-142" font-family="Iosevka" font-size="10.00">open()</text>
<text text-anchor="start" x="18.5" y="-127" font-family="Iosevka" font-size="10.00">+</text>
<text text-anchor="start" x="29.5" y="-127" font-family="Iosevka" font-size="10.00">close()</text>
<text text-anchor="start" x="18.5" y="-112" font-family="Iosevka" font-size="10.00">+</text>
<text text-anchor="start" x="29.5" y="-112" font-family="Iosevka" font-size="10.00">reset()</text>
<text text-anchor="start" x="18.5" y="-97" font-family="Iosevka" font-size="10.00">+</text>
<text text-anchor="start" x="29.5" y="-97" font-family="Iosevka" font-size="10.00">pinMode()</text>
<text text-anchor="start" x="18.5" y="-82" font-family="Iosevka" font-size="10.00">+</text>
<text text-anchor="start" x="29.5" y="-82" font-family="Iosevka" font-size="10.00">analogRead()</text>
<text text-anchor="start" x="18.5" y="-67" font-family="Iosevka" font-size="10.00">+</text>
<text text-anchor="start" x="29.5" y="-67" font-family="Iosevka" font-size="10.00">analogWrite()</text>
<text text-anchor="start" x="18.5" y="-52" font-family="Iosevka" font-size="10.00">+</text>
<text text-anchor="start" x="29.5" y="-52" font-family="Iosevka" font-size="10.00">digitalRead()</text>
<text text-anchor="start" x="18.5" y="-37" font-family="Iosevka" font-size="10.00">+</text>
<text text-anchor="start" x="29.5" y="-37" font-family="Iosevka" font-size="10.00">digitalWrite()</text>
<text text-anchor="start" x="18.5" y="-22" font-family="Iosevka" font-size="10.00">+</text>
<text text-anchor="start" x="29.5" y="-22" font-family="Iosevka" font-size="10.00">giveReward()</text>
<text text-anchor="start" x="29.5" y="-7" font-family="Iosevka" font-size="10.00">and 7 more...</text>
<polygon fill="#666666" stroke="#666666" points="14.5,-317 14.5,-317 117.5,-317 117.5,-317 14.5,-317"/>
<polygon fill="#666666" stroke="#666666" points="14.5,-167 14.5,-167 27.5,-167 27.5,-167 14.5,-167"/>
<polygon fill="#666666" stroke="#666666" points="27.5,-167 27.5,-167 117.5,-167 117.5,-167 27.5,-167"/>
<polygon fill="none" stroke="#666666" points="14,0 14,-334 117,-334 117,0 14,0"/>
</a>
</g>
</g>
<!-- Node2 -->
<g id="Node000002" class="node">
<title>Node2</title>
<g id="a_Node000002"><a xlink:href="classopticka_core.html" target="_top" xlink:title="optickaCore base class inherited by other opticka classes.">
<polygon fill="white" stroke="transparent" points="131,-974 0,-974 0,-370 131,-370 131,-974"/>
<text text-anchor="start" x="38.5" y="-962" font-family="Iosevka" font-size="10.00">optickaCore</text>
<text text-anchor="start" x="4.5" y="-947" font-family="Iosevka" font-size="10.00">+</text>
<text text-anchor="start" x="15.5" y="-947" font-family="Iosevka" font-size="10.00">name</text>
<text text-anchor="start" x="4.5" y="-932" font-family="Iosevka" font-size="10.00">+</text>
<text text-anchor="start" x="15.5" y="-932" font-family="Iosevka" font-size="10.00">comment</text>
<text text-anchor="start" x="4.5" y="-917" font-family="Iosevka" font-size="10.00">+</text>
<text text-anchor="start" x="15.5" y="-917" font-family="Iosevka" font-size="10.00">verbose</text>
<text text-anchor="start" x="4.5" y="-902" font-family="Iosevka" font-size="10.00">+</text>
<text text-anchor="start" x="15.5" y="-902" font-family="Iosevka" font-size="10.00">dateStamp</text>
<text text-anchor="start" x="4.5" y="-887" font-family="Iosevka" font-size="10.00">+</text>
<text text-anchor="start" x="15.5" y="-887" font-family="Iosevka" font-size="10.00">uuid</text>
<text text-anchor="start" x="4.5" y="-872" font-family="Iosevka" font-size="10.00">+</text>
<text text-anchor="start" x="15.5" y="-872" font-family="Iosevka" font-size="10.00">paths</text>
<text text-anchor="start" x="4.5" y="-857" font-family="Iosevka" font-size="10.00">+</text>
<text text-anchor="start" x="15.5" y="-857" font-family="Iosevka" font-size="10.00">fullName</text>
<text text-anchor="start" x="4.5" y="-842" font-family="Iosevka" font-size="10.00">#</text>
<text text-anchor="start" x="15.5" y="-842" font-family="Iosevka" font-size="10.00">cloning</text>
<text text-anchor="start" x="4.5" y="-827" font-family="Iosevka" font-size="10.00">#</text>
<text text-anchor="start" x="15.5" y="-827" font-family="Iosevka" font-size="10.00">mversion</text>
<text text-anchor="start" x="4.5" y="-812" font-family="Iosevka" font-size="10.00">#</text>
<text text-anchor="start" x="15.5" y="-812" font-family="Iosevka" font-size="10.00">sansFont</text>
<text text-anchor="start" x="4.5" y="-797" font-family="Iosevka" font-size="10.00">#</text>
<text text-anchor="start" x="15.5" y="-797" font-family="Iosevka" font-size="10.00">monoFont</text>
<text text-anchor="start" x="4.5" y="-782" font-family="Iosevka" font-size="10.00">#</text>
<text text-anchor="start" x="15.5" y="-782" font-family="Iosevka" font-size="10.00">className</text>
<text text-anchor="start" x="4.5" y="-767" font-family="Iosevka" font-size="10.00">#</text>
<text text-anchor="start" x="15.5" y="-767" font-family="Iosevka" font-size="10.00">savePrefix</text>
<text text-anchor="start" x="4.5" y="-752" font-family="Iosevka" font-size="10.00">#</text>
<text text-anchor="start" x="15.5" y="-752" font-family="Iosevka" font-size="10.00">fullName_</text>
<text text-anchor="start" x="4.5" y="-737" font-family="Iosevka" font-size="10.00">+</text>
<text text-anchor="start" x="15.5" y="-737" font-family="Iosevka" font-size="10.00">optickaCore()</text>
<text text-anchor="start" x="4.5" y="-722" font-family="Iosevka" font-size="10.00">+</text>
<text text-anchor="start" x="15.5" y="-722" font-family="Iosevka" font-size="10.00">fullName()</text>
<text text-anchor="start" x="4.5" y="-707" font-family="Iosevka" font-size="10.00">+</text>
<text text-anchor="start" x="15.5" y="-707" font-family="Iosevka" font-size="10.00">getALF()</text>
<text text-anchor="start" x="4.5" y="-692" font-family="Iosevka" font-size="10.00">+</text>
<text text-anchor="start" x="15.5" y="-692" font-family="Iosevka" font-size="10.00">findAttributes()</text>
<text text-anchor="start" x="4.5" y="-677" font-family="Iosevka" font-size="10.00">+</text>
<text text-anchor="start" x="15.5" y="-677" font-family="Iosevka" font-size="10.00">findAttributesandType()</text>
<text text-anchor="start" x="4.5" y="-662" font-family="Iosevka" font-size="10.00">+</text>
<text text-anchor="start" x="15.5" y="-662" font-family="Iosevka" font-size="10.00">findPropertyDefault()</text>
<text text-anchor="start" x="4.5" y="-647" font-family="Iosevka" font-size="10.00">+</text>
<text text-anchor="start" x="15.5" y="-647" font-family="Iosevka" font-size="10.00">clone()</text>
<text text-anchor="start" x="4.5" y="-632" font-family="Iosevka" font-size="10.00">+</text>
<text text-anchor="start" x="15.5" y="-632" font-family="Iosevka" font-size="10.00">checkSuperclasses()</text>
<text text-anchor="start" x="4.5" y="-617" font-family="Iosevka" font-size="10.00">+</text>
<text text-anchor="start" x="15.5" y="-617" font-family="Iosevka" font-size="10.00">editProperties()</text>
<text text-anchor="start" x="4.5" y="-602" font-family="Iosevka" font-size="10.00">+</text>
<text text-anchor="start" x="15.5" y="-602" font-family="Iosevka" font-size="10.00">setProp()</text>
<text text-anchor="start" x="4.5" y="-587" font-family="Iosevka" font-size="10.00">+</text>
<text text-anchor="start" x="15.5" y="-587" font-family="Iosevka" font-size="10.00">initialiseGlobals()</text>
<text text-anchor="start" x="4.5" y="-572" font-family="Iosevka" font-size="10.00">+</text>
<text text-anchor="start" x="15.5" y="-572" font-family="Iosevka" font-size="10.00">initialiseSaveFile()</text>
<text text-anchor="start" x="4.5" y="-557" font-family="Iosevka" font-size="10.00">+</text>
<text text-anchor="start" x="15.5" y="-557" font-family="Iosevka" font-size="10.00">checkPaths()</text>
<text text-anchor="start" x="4.5" y="-542" font-family="Iosevka" font-size="10.00">+</text>
<text text-anchor="start" x="15.5" y="-542" font-family="Iosevka" font-size="10.00">makeArgs()</text>
<text text-anchor="start" x="4.5" y="-527" font-family="Iosevka" font-size="10.00">+</text>
<text text-anchor="start" x="15.5" y="-527" font-family="Iosevka" font-size="10.00">addDefaults()</text>
<text text-anchor="start" x="4.5" y="-512" font-family="Iosevka" font-size="10.00">+</text>
<text text-anchor="start" x="15.5" y="-512" font-family="Iosevka" font-size="10.00">hasKey()</text>
<text text-anchor="start" x="4.5" y="-497" font-family="Iosevka" font-size="10.00">+</text>
<text text-anchor="start" x="15.5" y="-497" font-family="Iosevka" font-size="10.00">getKeys()</text>
<text text-anchor="start" x="4.5" y="-482" font-family="Iosevka" font-size="10.00">#</text>
<text text-anchor="start" x="15.5" y="-482" font-family="Iosevka" font-size="10.00">parseArgs()</text>
<text text-anchor="start" x="4.5" y="-467" font-family="Iosevka" font-size="10.00">#</text>
<text text-anchor="start" x="15.5" y="-467" font-family="Iosevka" font-size="10.00">addArgs()</text>
<text text-anchor="start" x="4.5" y="-452" font-family="Iosevka" font-size="10.00">#</text>
<text text-anchor="start" x="15.5" y="-452" font-family="Iosevka" font-size="10.00">setPaths()</text>
<text text-anchor="start" x="4.5" y="-437" font-family="Iosevka" font-size="10.00">#</text>
<text text-anchor="start" x="15.5" y="-437" font-family="Iosevka" font-size="10.00">getFonts()</text>
<text text-anchor="start" x="4.5" y="-422" font-family="Iosevka" font-size="10.00">#</text>
<text text-anchor="start" x="15.5" y="-422" font-family="Iosevka" font-size="10.00">toStructure()</text>
<text text-anchor="start" x="4.5" y="-407" font-family="Iosevka" font-size="10.00">#</text>
<text text-anchor="start" x="15.5" y="-407" font-family="Iosevka" font-size="10.00">getType()</text>
<text text-anchor="start" x="4.5" y="-392" font-family="Iosevka" font-size="10.00">#</text>
<text text-anchor="start" x="15.5" y="-392" font-family="Iosevka" font-size="10.00">logOutput()</text>
<text text-anchor="start" x="4.5" y="-377" font-family="Iosevka" font-size="10.00">#</text>
<text text-anchor="start" x="15.5" y="-377" font-family="Iosevka" font-size="10.00">salutation()</text>
<polygon fill="#666666" stroke="#666666" points="0.5,-957 0.5,-957 131.5,-957 131.5,-957 0.5,-957"/>
<polygon fill="#666666" stroke="#666666" points="0.5,-747 0.5,-747 13.5,-747 13.5,-747 0.5,-747"/>
<polygon fill="#666666" stroke="#666666" points="13.5,-747 13.5,-747 131.5,-747 131.5,-747 13.5,-747"/>
<polygon fill="none" stroke="#666666" points="0,-370 0,-974 131,-974 131,-370 0,-370"/>
</a>
</g>
</g>
<!-- Node2&#45;&gt;Node1 -->
<g id="edge1_Node000001_Node000002" class="edge">
<title>Node2&#45;&gt;Node1</title>
<g id="a_edge1_Node000001_Node000002"><a xlink:title=" ">
<path fill="none" stroke="#63b8ff" d="M65.5,-359.58C65.5,-351 65.5,-342.53 65.5,-334.19"/>
<polygon fill="none" stroke="#63b8ff" points="62,-359.69 65.5,-369.69 69,-359.69 62,-359.69"/>
</a>
</g>
</g>
<!-- Node3 -->
<g id="Node000003" class="node">
<title>Node3</title>
<g id="a_Node000003"><a xlink:title=" ">
<polygon fill="white" stroke="transparent" points="86.5,-1059 44.5,-1059 44.5,-1010 86.5,-1010 86.5,-1059"/>
<text text-anchor="start" x="49.5" y="-1046.5" font-family="Iosevka" font-size="10.00">handle</text>
<text text-anchor="start" x="64" y="-1031.5" font-family="Iosevka" font-size="10.00"> </text>
<text text-anchor="start" x="64" y="-1016.5" font-family="Iosevka" font-size="10.00"> </text>
<polygon fill="#666666" stroke="#666666" points="44.5,-1041.5 44.5,-1041.5 86.5,-1041.5 86.5,-1041.5 44.5,-1041.5"/>
<polygon fill="#666666" stroke="#666666" points="44.5,-1026.5 44.5,-1026.5 86.5,-1026.5 86.5,-1026.5 44.5,-1026.5"/>
<polygon fill="none" stroke="#666666" points="44.5,-1010 44.5,-1059 86.5,-1059 86.5,-1010 44.5,-1010"/>
</a>
</g>
</g>
<!-- Node3&#45;&gt;Node2 -->
<g id="edge2_Node000002_Node000003" class="edge">
<title>Node3&#45;&gt;Node2</title>
<g id="a_edge2_Node000002_Node000003"><a xlink:title=" ">
<path fill="none" stroke="#63b8ff" d="M65.5,-999.83C65.5,-992.23 65.5,-983.56 65.5,-974.06"/>
<polygon fill="none" stroke="#63b8ff" points="62,-999.85 65.5,-1009.85 69,-999.85 62,-999.85"/>
</a>
</g>
</g>
</g>
</svg>
