<?xml version="1.0" encoding="UTF-8" standalone="no"?>
<!DOCTYPE svg PUBLIC "-//W3C//DTD SVG 1.1//EN"
 "http://www.w3.org/Graphics/SVG/1.1/DTD/svg11.dtd">
<!-- Generated by graphviz version 2.43.0 (0)
 -->
<!-- Title: userFunctions Pages: 1 -->
<svg width="111pt" height="270pt"
 viewBox="0.00 0.00 111.00 270.00" xmlns="http://www.w3.org/2000/svg" xmlns:xlink="http://www.w3.org/1999/xlink">
<g id="graph0" class="graph" transform="scale(1 1) rotate(0) translate(4 266)">
<title>userFunctions</title>
<!-- Node1 -->
<g id="node1" class="node">
<title>Node1</title>
<g id="a_node1"><a xlink:title="Customised user functions for a task run.">
<polygon fill="#bfbfbf" stroke="black" points="0,-0.5 0,-167.5 103,-167.5 103,-0.5 0,-0.5"/>
<text text-anchor="middle" x="51.5" y="-155.5" font-family="Iosevka" font-size="10.00">userFunctions</text>
<polyline fill="none" stroke="black" points="0,-148.5 103,-148.5 "/>
<text text-anchor="start" x="8" y="-136.5" font-family="Iosevka" font-size="10.00">+ rE</text>
<text text-anchor="start" x="8" y="-125.5" font-family="Iosevka" font-size="10.00">+ sM</text>
<text text-anchor="start" x="8" y="-114.5" font-family="Iosevka" font-size="10.00">+ s</text>
<text text-anchor="start" x="8" y="-103.5" font-family="Iosevka" font-size="10.00">+ task</text>
<text text-anchor="start" x="8" y="-92.5" font-family="Iosevka" font-size="10.00">+ stims</text>
<text text-anchor="start" x="8" y="-81.5" font-family="Iosevka" font-size="10.00">+ rM</text>
<text text-anchor="start" x="8" y="-70.5" font-family="Iosevka" font-size="10.00">+ io</text>
<text text-anchor="start" x="8" y="-59.5" font-family="Iosevka" font-size="10.00">+ eT</text>
<text text-anchor="start" x="8" y="-48.5" font-family="Iosevka" font-size="10.00">+ verbose</text>
<polyline fill="none" stroke="black" points="0,-41.5 103,-41.5 "/>
<text text-anchor="start" x="8" y="-29.5" font-family="Iosevka" font-size="10.00">+ userFunctions()</text>
<text text-anchor="start" x="8" y="-18.5" font-family="Iosevka" font-size="10.00">+ testFunction()</text>
<text text-anchor="start" x="8" y="-7.5" font-family="Iosevka" font-size="10.00">+ myText()</text>
</a>
</g>
</g>
<!-- Node2 -->
<g id="node2" class="node">
<title>Node2</title>
<g id="a_node2"><a xlink:title=" ">
<polygon fill="none" stroke="#bfbfbf" points="26.5,-204.5 26.5,-261.5 76.5,-261.5 76.5,-204.5 26.5,-204.5"/>
<text text-anchor="middle" x="51.5" y="-249.5" font-family="Iosevka" font-size="10.00">handle</text>
<polyline fill="none" stroke="#bfbfbf" points="26.5,-242.5 76.5,-242.5 "/>
<text text-anchor="middle" x="51.5" y="-230.5" font-family="Iosevka" font-size="10.00"> </text>
<polyline fill="none" stroke="#bfbfbf" points="26.5,-223.5 76.5,-223.5 "/>
<text text-anchor="middle" x="51.5" y="-211.5" font-family="Iosevka" font-size="10.00"> </text>
</a>
</g>
</g>
<!-- Node2&#45;&gt;Node1 -->
<g id="edge1" class="edge">
<title>Node2&#45;&gt;Node1</title>
<path fill="none" stroke="midnightblue" d="M51.5,-194.35C51.5,-186.08 51.5,-177.01 51.5,-167.74"/>
<polygon fill="none" stroke="midnightblue" points="48,-194.35 51.5,-204.35 55,-194.35 48,-194.35"/>
</g>
</g>
</svg>
