<?xml version="1.0" encoding="UTF-8" standalone="no"?>
<!DOCTYPE svg PUBLIC "-//W3C//DTD SVG 1.1//EN"
 "http://www.w3.org/Graphics/SVG/1.1/DTD/svg11.dtd">
<!-- Generated by graphviz version 2.43.0 (0)
 -->
<!-- Title: annulusStimulus Pages: 1 -->
<svg width="232pt" height="1737pt"
 viewBox="0.00 0.00 232.00 1737.00" xmlns="http://www.w3.org/2000/svg" xmlns:xlink="http://www.w3.org/1999/xlink">
<g id="graph0" class="graph" transform="scale(1 1) rotate(0) translate(4 1733)">
<title>annulusStimulus</title>
<!-- Node1 -->
<g id="Node000001" class="node">
<title>Node1</title>
<g id="a_Node000001"><a xlink:title="annulusStimulus TODO">
<polygon fill="#999999" stroke="transparent" points="176,-229 75,-229 75,0 176,0 176,-229"/>
<text text-anchor="start" x="88" y="-216.5" font-family="Iosevka" font-size="10.00">annulusStimulus</text>
<text text-anchor="start" x="79.5" y="-201.5" font-family="Iosevka" font-size="10.00">+</text>
<text text-anchor="start" x="90.5" y="-201.5" font-family="Iosevka" font-size="10.00">method</text>
<text text-anchor="start" x="79.5" y="-186.5" font-family="Iosevka" font-size="10.00">+</text>
<text text-anchor="start" x="90.5" y="-186.5" font-family="Iosevka" font-size="10.00">sf1</text>
<text text-anchor="start" x="79.5" y="-171.5" font-family="Iosevka" font-size="10.00">+</text>
<text text-anchor="start" x="90.5" y="-171.5" font-family="Iosevka" font-size="10.00">sf2</text>
<text text-anchor="start" x="79.5" y="-156.5" font-family="Iosevka" font-size="10.00">+</text>
<text text-anchor="start" x="90.5" y="-156.5" font-family="Iosevka" font-size="10.00">tf1</text>
<text text-anchor="start" x="79.5" y="-141.5" font-family="Iosevka" font-size="10.00">+</text>
<text text-anchor="start" x="90.5" y="-141.5" font-family="Iosevka" font-size="10.00">tf2</text>
<text text-anchor="start" x="79.5" y="-126.5" font-family="Iosevka" font-size="10.00">+</text>
<text text-anchor="start" x="90.5" y="-126.5" font-family="Iosevka" font-size="10.00">angle1</text>
<text text-anchor="start" x="79.5" y="-111.5" font-family="Iosevka" font-size="10.00">+</text>
<text text-anchor="start" x="90.5" y="-111.5" font-family="Iosevka" font-size="10.00">angle2</text>
<text text-anchor="start" x="79.5" y="-96.5" font-family="Iosevka" font-size="10.00">+</text>
<text text-anchor="start" x="90.5" y="-96.5" font-family="Iosevka" font-size="10.00">phase1</text>
<text text-anchor="start" x="79.5" y="-81.5" font-family="Iosevka" font-size="10.00">+</text>
<text text-anchor="start" x="90.5" y="-81.5" font-family="Iosevka" font-size="10.00">phase2</text>
<text text-anchor="start" x="79.5" y="-66.5" font-family="Iosevka" font-size="10.00">+</text>
<text text-anchor="start" x="90.5" y="-66.5" font-family="Iosevka" font-size="10.00">contrast1</text>
<text text-anchor="start" x="79.5" y="-51.5" font-family="Iosevka" font-size="10.00">+</text>
<text text-anchor="start" x="90.5" y="-51.5" font-family="Iosevka" font-size="10.00">contrast2</text>
<text text-anchor="start" x="79.5" y="-36.5" font-family="Iosevka" font-size="10.00">+</text>
<text text-anchor="start" x="90.5" y="-36.5" font-family="Iosevka" font-size="10.00">texid</text>
<text text-anchor="start" x="79.5" y="-21.5" font-family="Iosevka" font-size="10.00">+</text>
<text text-anchor="start" x="90.5" y="-21.5" font-family="Iosevka" font-size="10.00">annulusStimulus()</text>
<text text-anchor="start" x="79.5" y="-6.5" font-family="Iosevka" font-size="10.00">+</text>
<text text-anchor="start" x="90.5" y="-6.5" font-family="Iosevka" font-size="10.00">construct()</text>
<polygon fill="#666666" stroke="#666666" points="75.5,-211.5 75.5,-211.5 176.5,-211.5 176.5,-211.5 75.5,-211.5"/>
<polygon fill="#666666" stroke="#666666" points="75.5,-31.5 75.5,-31.5 88.5,-31.5 88.5,-31.5 75.5,-31.5"/>
<polygon fill="#666666" stroke="#666666" points="88.5,-31.5 88.5,-31.5 176.5,-31.5 176.5,-31.5 88.5,-31.5"/>
<polygon fill="none" stroke="#666666" points="75,0 75,-229 176,-229 176,0 75,0"/>
</a>
</g>
</g>
<!-- Node2 -->
<g id="Node000002" class="node">
<title>Node2</title>
<g id="a_Node000002"><a xlink:href="classbase_stimulus.html" target="_top" xlink:title="baseStimulus is the superclass for all stimulus objects">
<polygon fill="white" stroke="transparent" points="198.5,-974 52.5,-974 52.5,-265 198.5,-265 198.5,-974"/>
<text text-anchor="start" x="95" y="-961.5" font-family="Iosevka" font-size="10.00">baseStimulus</text>
<text text-anchor="start" x="56.5" y="-946.5" font-family="Iosevka" font-size="10.00">+</text>
<text text-anchor="start" x="67.5" y="-946.5" font-family="Iosevka" font-size="10.00">type</text>
<text text-anchor="start" x="56.5" y="-931.5" font-family="Iosevka" font-size="10.00">+</text>
<text text-anchor="start" x="67.5" y="-931.5" font-family="Iosevka" font-size="10.00">xPosition</text>
<text text-anchor="start" x="56.5" y="-916.5" font-family="Iosevka" font-size="10.00">+</text>
<text text-anchor="start" x="67.5" y="-916.5" font-family="Iosevka" font-size="10.00">yPosition</text>
<text text-anchor="start" x="56.5" y="-901.5" font-family="Iosevka" font-size="10.00">+</text>
<text text-anchor="start" x="67.5" y="-901.5" font-family="Iosevka" font-size="10.00">size</text>
<text text-anchor="start" x="56.5" y="-886.5" font-family="Iosevka" font-size="10.00">+</text>
<text text-anchor="start" x="67.5" y="-886.5" font-family="Iosevka" font-size="10.00">colour</text>
<text text-anchor="start" x="56.5" y="-871.5" font-family="Iosevka" font-size="10.00">+</text>
<text text-anchor="start" x="67.5" y="-871.5" font-family="Iosevka" font-size="10.00">alpha</text>
<text text-anchor="start" x="56.5" y="-856.5" font-family="Iosevka" font-size="10.00">+</text>
<text text-anchor="start" x="67.5" y="-856.5" font-family="Iosevka" font-size="10.00">startPosition</text>
<text text-anchor="start" x="56.5" y="-841.5" font-family="Iosevka" font-size="10.00">+</text>
<text text-anchor="start" x="67.5" y="-841.5" font-family="Iosevka" font-size="10.00">speed</text>
<text text-anchor="start" x="56.5" y="-826.5" font-family="Iosevka" font-size="10.00">+</text>
<text text-anchor="start" x="67.5" y="-826.5" font-family="Iosevka" font-size="10.00">angle</text>
<text text-anchor="start" x="56.5" y="-811.5" font-family="Iosevka" font-size="10.00">+</text>
<text text-anchor="start" x="67.5" y="-811.5" font-family="Iosevka" font-size="10.00">delayTime</text>
<text text-anchor="start" x="67.5" y="-796.5" font-family="Iosevka" font-size="10.00">and 20 more...</text>
<text text-anchor="start" x="56.5" y="-781.5" font-family="Iosevka" font-size="10.00">#</text>
<text text-anchor="start" x="67.5" y="-781.5" font-family="Iosevka" font-size="10.00">family</text>
<text text-anchor="start" x="56.5" y="-766.5" font-family="Iosevka" font-size="10.00">#</text>
<text text-anchor="start" x="67.5" y="-766.5" font-family="Iosevka" font-size="10.00">texture</text>
<text text-anchor="start" x="56.5" y="-751.5" font-family="Iosevka" font-size="10.00">#</text>
<text text-anchor="start" x="67.5" y="-751.5" font-family="Iosevka" font-size="10.00">handles</text>
<text text-anchor="start" x="56.5" y="-736.5" font-family="Iosevka" font-size="10.00">#</text>
<text text-anchor="start" x="67.5" y="-736.5" font-family="Iosevka" font-size="10.00">sM</text>
<text text-anchor="start" x="56.5" y="-721.5" font-family="Iosevka" font-size="10.00">#</text>
<text text-anchor="start" x="67.5" y="-721.5" font-family="Iosevka" font-size="10.00">animator</text>
<text text-anchor="start" x="56.5" y="-706.5" font-family="Iosevka" font-size="10.00">#</text>
<text text-anchor="start" x="67.5" y="-706.5" font-family="Iosevka" font-size="10.00">screenVals</text>
<text text-anchor="start" x="56.5" y="-691.5" font-family="Iosevka" font-size="10.00">#</text>
<text text-anchor="start" x="67.5" y="-691.5" font-family="Iosevka" font-size="10.00">isSetup</text>
<text text-anchor="start" x="56.5" y="-676.5" font-family="Iosevka" font-size="10.00">#</text>
<text text-anchor="start" x="67.5" y="-676.5" font-family="Iosevka" font-size="10.00">isGUI</text>
<text text-anchor="start" x="56.5" y="-661.5" font-family="Iosevka" font-size="10.00">#</text>
<text text-anchor="start" x="67.5" y="-661.5" font-family="Iosevka" font-size="10.00">dstRect</text>
<text text-anchor="start" x="56.5" y="-646.5" font-family="Iosevka" font-size="10.00">#</text>
<text text-anchor="start" x="67.5" y="-646.5" font-family="Iosevka" font-size="10.00">mouseValid</text>
<text text-anchor="start" x="67.5" y="-631.5" font-family="Iosevka" font-size="10.00">and 12 more...</text>
<text text-anchor="start" x="56.5" y="-616.5" font-family="Iosevka" font-size="10.00">+</text>
<text text-anchor="start" x="67.5" y="-616.5" font-family="Iosevka" font-size="10.00">setup()</text>
<text text-anchor="start" x="56.5" y="-601.5" font-family="Iosevka" font-size="10.00">+</text>
<text text-anchor="start" x="67.5" y="-601.5" font-family="Iosevka" font-size="10.00">draw()</text>
<text text-anchor="start" x="56.5" y="-586.5" font-family="Iosevka" font-size="10.00">+</text>
<text text-anchor="start" x="67.5" y="-586.5" font-family="Iosevka" font-size="10.00">animate()</text>
<text text-anchor="start" x="56.5" y="-571.5" font-family="Iosevka" font-size="10.00">+</text>
<text text-anchor="start" x="67.5" y="-571.5" font-family="Iosevka" font-size="10.00">update()</text>
<text text-anchor="start" x="56.5" y="-556.5" font-family="Iosevka" font-size="10.00">+</text>
<text text-anchor="start" x="67.5" y="-556.5" font-family="Iosevka" font-size="10.00">reset()</text>
<text text-anchor="start" x="56.5" y="-541.5" font-family="Iosevka" font-size="10.00">+</text>
<text text-anchor="start" x="67.5" y="-541.5" font-family="Iosevka" font-size="10.00">baseStimulus()</text>
<text text-anchor="start" x="56.5" y="-526.5" font-family="Iosevka" font-size="10.00">+</text>
<text text-anchor="start" x="67.5" y="-526.5" font-family="Iosevka" font-size="10.00">colour()</text>
<text text-anchor="start" x="56.5" y="-511.5" font-family="Iosevka" font-size="10.00">+</text>
<text text-anchor="start" x="67.5" y="-511.5" font-family="Iosevka" font-size="10.00">alpha()</text>
<text text-anchor="start" x="56.5" y="-496.5" font-family="Iosevka" font-size="10.00">+</text>
<text text-anchor="start" x="67.5" y="-496.5" font-family="Iosevka" font-size="10.00">delta()</text>
<text text-anchor="start" x="56.5" y="-481.5" font-family="Iosevka" font-size="10.00">+</text>
<text text-anchor="start" x="67.5" y="-481.5" font-family="Iosevka" font-size="10.00">dX()</text>
<text text-anchor="start" x="67.5" y="-466.5" font-family="Iosevka" font-size="10.00">and 18 more...</text>
<text text-anchor="start" x="56.5" y="-451.5" font-family="Iosevka" font-size="10.00">+</text>
<text text-anchor="start" x="67.5" y="-451.5" font-family="Iosevka" font-size="10.00">mixColour()</text>
<text text-anchor="start" x="56.5" y="-436.5" font-family="Iosevka" font-size="10.00">+</text>
<text text-anchor="start" x="67.5" y="-436.5" font-family="Iosevka" font-size="10.00">d2r()</text>
<text text-anchor="start" x="56.5" y="-421.5" font-family="Iosevka" font-size="10.00">+</text>
<text text-anchor="start" x="67.5" y="-421.5" font-family="Iosevka" font-size="10.00">r2d()</text>
<text text-anchor="start" x="56.5" y="-406.5" font-family="Iosevka" font-size="10.00">+</text>
<text text-anchor="start" x="67.5" y="-406.5" font-family="Iosevka" font-size="10.00">findDistance()</text>
<text text-anchor="start" x="56.5" y="-391.5" font-family="Iosevka" font-size="10.00">+</text>
<text text-anchor="start" x="67.5" y="-391.5" font-family="Iosevka" font-size="10.00">updatePosition()</text>
<text text-anchor="start" x="56.5" y="-376.5" font-family="Iosevka" font-size="10.00">#</text>
<text text-anchor="start" x="67.5" y="-376.5" font-family="Iosevka" font-size="10.00">addRuntimeProperties()</text>
<text text-anchor="start" x="56.5" y="-361.5" font-family="Iosevka" font-size="10.00">#</text>
<text text-anchor="start" x="67.5" y="-361.5" font-family="Iosevka" font-size="10.00">updateRuntimeProperties()</text>
<text text-anchor="start" x="56.5" y="-346.5" font-family="Iosevka" font-size="10.00">#</text>
<text text-anchor="start" x="67.5" y="-346.5" font-family="Iosevka" font-size="10.00">computePosition()</text>
<text text-anchor="start" x="56.5" y="-331.5" font-family="Iosevka" font-size="10.00">#</text>
<text text-anchor="start" x="67.5" y="-331.5" font-family="Iosevka" font-size="10.00">setAnimationDelta()</text>
<text text-anchor="start" x="56.5" y="-316.5" font-family="Iosevka" font-size="10.00">#</text>
<text text-anchor="start" x="67.5" y="-316.5" font-family="Iosevka" font-size="10.00">setRect()</text>
<text text-anchor="start" x="56.5" y="-301.5" font-family="Iosevka" font-size="10.00">#</text>
<text text-anchor="start" x="67.5" y="-301.5" font-family="Iosevka" font-size="10.00">toStructure()</text>
<text text-anchor="start" x="56.5" y="-286.5" font-family="Iosevka" font-size="10.00">#</text>
<text text-anchor="start" x="67.5" y="-286.5" font-family="Iosevka" font-size="10.00">removeTmpProperties()</text>
<text text-anchor="start" x="56.5" y="-271.5" font-family="Iosevka" font-size="10.00">#</text>
<text text-anchor="start" x="67.5" y="-271.5" font-family="Iosevka" font-size="10.00">delete()</text>
<polygon fill="#666666" stroke="#666666" points="52.5,-956.5 52.5,-956.5 198.5,-956.5 198.5,-956.5 52.5,-956.5"/>
<polygon fill="#666666" stroke="#666666" points="52.5,-626.5 52.5,-626.5 65.5,-626.5 65.5,-626.5 52.5,-626.5"/>
<polygon fill="#666666" stroke="#666666" points="65.5,-626.5 65.5,-626.5 198.5,-626.5 198.5,-626.5 65.5,-626.5"/>
<polygon fill="none" stroke="#666666" points="52.5,-265 52.5,-974 198.5,-974 198.5,-265 52.5,-265"/>
</a>
</g>
</g>
<!-- Node2&#45;&gt;Node1 -->
<g id="edge1_Node000001_Node000002" class="edge">
<title>Node2&#45;&gt;Node1</title>
<g id="a_edge1_Node000001_Node000002"><a xlink:title=" ">
<path fill="none" stroke="#63b8ff" d="M125.5,-254.46C125.5,-245.82 125.5,-237.39 125.5,-229.25"/>
<polygon fill="none" stroke="#63b8ff" points="122,-254.71 125.5,-264.71 129,-254.71 122,-254.71"/>
</a>
</g>
</g>
<!-- Node3 -->
<g id="Node000003" class="node">
<title>Node3</title>
<g id="a_Node000003"><a xlink:href="classopticka_core.html" target="_top" xlink:title="optickaCore base class inherited by other opticka classes.">
<polygon fill="white" stroke="transparent" points="131,-1644 0,-1644 0,-1010 131,-1010 131,-1644"/>
<text text-anchor="start" x="38.5" y="-1632" font-family="Iosevka" font-size="10.00">optickaCore</text>
<text text-anchor="start" x="4.5" y="-1617" font-family="Iosevka" font-size="10.00">+</text>
<text text-anchor="start" x="15.5" y="-1617" font-family="Iosevka" font-size="10.00">name</text>
<text text-anchor="start" x="4.5" y="-1602" font-family="Iosevka" font-size="10.00">+</text>
<text text-anchor="start" x="15.5" y="-1602" font-family="Iosevka" font-size="10.00">comment</text>
<text text-anchor="start" x="4.5" y="-1587" font-family="Iosevka" font-size="10.00">+</text>
<text text-anchor="start" x="15.5" y="-1587" font-family="Iosevka" font-size="10.00">verbose</text>
<text text-anchor="start" x="4.5" y="-1572" font-family="Iosevka" font-size="10.00">+</text>
<text text-anchor="start" x="15.5" y="-1572" font-family="Iosevka" font-size="10.00">optickaVersion</text>
<text text-anchor="start" x="4.5" y="-1557" font-family="Iosevka" font-size="10.00">+</text>
<text text-anchor="start" x="15.5" y="-1557" font-family="Iosevka" font-size="10.00">dateStamp</text>
<text text-anchor="start" x="4.5" y="-1542" font-family="Iosevka" font-size="10.00">+</text>
<text text-anchor="start" x="15.5" y="-1542" font-family="Iosevka" font-size="10.00">uuid</text>
<text text-anchor="start" x="4.5" y="-1527" font-family="Iosevka" font-size="10.00">+</text>
<text text-anchor="start" x="15.5" y="-1527" font-family="Iosevka" font-size="10.00">paths</text>
<text text-anchor="start" x="4.5" y="-1512" font-family="Iosevka" font-size="10.00">+</text>
<text text-anchor="start" x="15.5" y="-1512" font-family="Iosevka" font-size="10.00">fullName</text>
<text text-anchor="start" x="4.5" y="-1497" font-family="Iosevka" font-size="10.00">#</text>
<text text-anchor="start" x="15.5" y="-1497" font-family="Iosevka" font-size="10.00">cloning</text>
<text text-anchor="start" x="4.5" y="-1482" font-family="Iosevka" font-size="10.00">#</text>
<text text-anchor="start" x="15.5" y="-1482" font-family="Iosevka" font-size="10.00">mversion</text>
<text text-anchor="start" x="4.5" y="-1467" font-family="Iosevka" font-size="10.00">#</text>
<text text-anchor="start" x="15.5" y="-1467" font-family="Iosevka" font-size="10.00">sansFont</text>
<text text-anchor="start" x="4.5" y="-1452" font-family="Iosevka" font-size="10.00">#</text>
<text text-anchor="start" x="15.5" y="-1452" font-family="Iosevka" font-size="10.00">monoFont</text>
<text text-anchor="start" x="4.5" y="-1437" font-family="Iosevka" font-size="10.00">#</text>
<text text-anchor="start" x="15.5" y="-1437" font-family="Iosevka" font-size="10.00">className</text>
<text text-anchor="start" x="4.5" y="-1422" font-family="Iosevka" font-size="10.00">#</text>
<text text-anchor="start" x="15.5" y="-1422" font-family="Iosevka" font-size="10.00">savePrefix</text>
<text text-anchor="start" x="4.5" y="-1407" font-family="Iosevka" font-size="10.00">#</text>
<text text-anchor="start" x="15.5" y="-1407" font-family="Iosevka" font-size="10.00">fullName_</text>
<text text-anchor="start" x="4.5" y="-1392" font-family="Iosevka" font-size="10.00">+</text>
<text text-anchor="start" x="15.5" y="-1392" font-family="Iosevka" font-size="10.00">optickaCore()</text>
<text text-anchor="start" x="4.5" y="-1377" font-family="Iosevka" font-size="10.00">+</text>
<text text-anchor="start" x="15.5" y="-1377" font-family="Iosevka" font-size="10.00">fullName()</text>
<text text-anchor="start" x="4.5" y="-1362" font-family="Iosevka" font-size="10.00">+</text>
<text text-anchor="start" x="15.5" y="-1362" font-family="Iosevka" font-size="10.00">getALF()</text>
<text text-anchor="start" x="4.5" y="-1347" font-family="Iosevka" font-size="10.00">+</text>
<text text-anchor="start" x="15.5" y="-1347" font-family="Iosevka" font-size="10.00">makeReport()</text>
<text text-anchor="start" x="4.5" y="-1332" font-family="Iosevka" font-size="10.00">+</text>
<text text-anchor="start" x="15.5" y="-1332" font-family="Iosevka" font-size="10.00">findAttributes()</text>
<text text-anchor="start" x="4.5" y="-1317" font-family="Iosevka" font-size="10.00">+</text>
<text text-anchor="start" x="15.5" y="-1317" font-family="Iosevka" font-size="10.00">findAttributesandType()</text>
<text text-anchor="start" x="4.5" y="-1302" font-family="Iosevka" font-size="10.00">+</text>
<text text-anchor="start" x="15.5" y="-1302" font-family="Iosevka" font-size="10.00">findPropertyDefault()</text>
<text text-anchor="start" x="4.5" y="-1287" font-family="Iosevka" font-size="10.00">+</text>
<text text-anchor="start" x="15.5" y="-1287" font-family="Iosevka" font-size="10.00">clone()</text>
<text text-anchor="start" x="4.5" y="-1272" font-family="Iosevka" font-size="10.00">+</text>
<text text-anchor="start" x="15.5" y="-1272" font-family="Iosevka" font-size="10.00">checkSuperclasses()</text>
<text text-anchor="start" x="4.5" y="-1257" font-family="Iosevka" font-size="10.00">+</text>
<text text-anchor="start" x="15.5" y="-1257" font-family="Iosevka" font-size="10.00">editProperties()</text>
<text text-anchor="start" x="4.5" y="-1242" font-family="Iosevka" font-size="10.00">+</text>
<text text-anchor="start" x="15.5" y="-1242" font-family="Iosevka" font-size="10.00">setProp()</text>
<text text-anchor="start" x="4.5" y="-1227" font-family="Iosevka" font-size="10.00">+</text>
<text text-anchor="start" x="15.5" y="-1227" font-family="Iosevka" font-size="10.00">initialiseSaveFile()</text>
<text text-anchor="start" x="4.5" y="-1212" font-family="Iosevka" font-size="10.00">+</text>
<text text-anchor="start" x="15.5" y="-1212" font-family="Iosevka" font-size="10.00">checkPaths()</text>
<text text-anchor="start" x="4.5" y="-1197" font-family="Iosevka" font-size="10.00">+</text>
<text text-anchor="start" x="15.5" y="-1197" font-family="Iosevka" font-size="10.00">initialiseGlobals()</text>
<text text-anchor="start" x="4.5" y="-1182" font-family="Iosevka" font-size="10.00">+</text>
<text text-anchor="start" x="15.5" y="-1182" font-family="Iosevka" font-size="10.00">makeArgs()</text>
<text text-anchor="start" x="4.5" y="-1167" font-family="Iosevka" font-size="10.00">+</text>
<text text-anchor="start" x="15.5" y="-1167" font-family="Iosevka" font-size="10.00">addDefaults()</text>
<text text-anchor="start" x="4.5" y="-1152" font-family="Iosevka" font-size="10.00">+</text>
<text text-anchor="start" x="15.5" y="-1152" font-family="Iosevka" font-size="10.00">hasKey()</text>
<text text-anchor="start" x="4.5" y="-1137" font-family="Iosevka" font-size="10.00">+</text>
<text text-anchor="start" x="15.5" y="-1137" font-family="Iosevka" font-size="10.00">getKeys()</text>
<text text-anchor="start" x="4.5" y="-1122" font-family="Iosevka" font-size="10.00">#</text>
<text text-anchor="start" x="15.5" y="-1122" font-family="Iosevka" font-size="10.00">parseArgs()</text>
<text text-anchor="start" x="4.5" y="-1107" font-family="Iosevka" font-size="10.00">#</text>
<text text-anchor="start" x="15.5" y="-1107" font-family="Iosevka" font-size="10.00">addArgs()</text>
<text text-anchor="start" x="4.5" y="-1092" font-family="Iosevka" font-size="10.00">#</text>
<text text-anchor="start" x="15.5" y="-1092" font-family="Iosevka" font-size="10.00">setPaths()</text>
<text text-anchor="start" x="4.5" y="-1077" font-family="Iosevka" font-size="10.00">#</text>
<text text-anchor="start" x="15.5" y="-1077" font-family="Iosevka" font-size="10.00">getFonts()</text>
<text text-anchor="start" x="4.5" y="-1062" font-family="Iosevka" font-size="10.00">#</text>
<text text-anchor="start" x="15.5" y="-1062" font-family="Iosevka" font-size="10.00">toStructure()</text>
<text text-anchor="start" x="4.5" y="-1047" font-family="Iosevka" font-size="10.00">#</text>
<text text-anchor="start" x="15.5" y="-1047" font-family="Iosevka" font-size="10.00">getType()</text>
<text text-anchor="start" x="4.5" y="-1032" font-family="Iosevka" font-size="10.00">#</text>
<text text-anchor="start" x="15.5" y="-1032" font-family="Iosevka" font-size="10.00">logOutput()</text>
<text text-anchor="start" x="4.5" y="-1017" font-family="Iosevka" font-size="10.00">#</text>
<text text-anchor="start" x="15.5" y="-1017" font-family="Iosevka" font-size="10.00">salutation()</text>
<polygon fill="#666666" stroke="#666666" points="0.5,-1627 0.5,-1627 131.5,-1627 131.5,-1627 0.5,-1627"/>
<polygon fill="#666666" stroke="#666666" points="0.5,-1402 0.5,-1402 13.5,-1402 13.5,-1402 0.5,-1402"/>
<polygon fill="#666666" stroke="#666666" points="13.5,-1402 13.5,-1402 131.5,-1402 131.5,-1402 13.5,-1402"/>
<polygon fill="none" stroke="#666666" points="0,-1010 0,-1644 131,-1644 131,-1010 0,-1010"/>
</a>
</g>
</g>
<!-- Node3&#45;&gt;Node2 -->
<g id="edge2_Node000002_Node000003" class="edge">
<title>Node3&#45;&gt;Node2</title>
<g id="a_edge2_Node000002_Node000003"><a xlink:title=" ">
<path fill="none" stroke="#63b8ff" d="M93.24,-999.81C93.97,-991.23 94.7,-982.63 95.43,-974.02"/>
<polygon fill="none" stroke="#63b8ff" points="89.74,-999.62 92.38,-1009.88 96.72,-1000.21 89.74,-999.62"/>
</a>
</g>
</g>
<!-- Node4 -->
<g id="Node000004" class="node">
<title>Node4</title>
<g id="a_Node000004"><a xlink:title=" ">
<polygon fill="white" stroke="transparent" points="86.5,-1729 44.5,-1729 44.5,-1680 86.5,-1680 86.5,-1729"/>
<text text-anchor="start" x="49.5" y="-1716.5" font-family="Iosevka" font-size="10.00">handle</text>
<text text-anchor="start" x="64" y="-1701.5" font-family="Iosevka" font-size="10.00"> </text>
<text text-anchor="start" x="64" y="-1686.5" font-family="Iosevka" font-size="10.00"> </text>
<polygon fill="#666666" stroke="#666666" points="44.5,-1711.5 44.5,-1711.5 86.5,-1711.5 86.5,-1711.5 44.5,-1711.5"/>
<polygon fill="#666666" stroke="#666666" points="44.5,-1696.5 44.5,-1696.5 86.5,-1696.5 86.5,-1696.5 44.5,-1696.5"/>
<polygon fill="none" stroke="#666666" points="44.5,-1680 44.5,-1729 86.5,-1729 86.5,-1680 44.5,-1680"/>
</a>
</g>
</g>
<!-- Node4&#45;&gt;Node3 -->
<g id="edge3_Node000003_Node000004" class="edge">
<title>Node4&#45;&gt;Node3</title>
<g id="a_edge3_Node000003_Node000004"><a xlink:title=" ">
<path fill="none" stroke="#63b8ff" d="M65.5,-1669.49C65.5,-1661.99 65.5,-1653.45 65.5,-1644.1"/>
<polygon fill="none" stroke="#63b8ff" points="62,-1669.73 65.5,-1679.73 69,-1669.73 62,-1669.73"/>
</a>
</g>
</g>
<!-- Node5 -->
<g id="Node000005" class="node">
<title>Node5</title>
<g id="a_Node000005"><a xlink:title=" ">
<polygon fill="white" stroke="transparent" points="224,-1351.5 149,-1351.5 149,-1302.5 224,-1302.5 224,-1351.5"/>
<text text-anchor="start" x="154.5" y="-1339" font-family="Iosevka" font-size="10.00">dynamicprops</text>
<text text-anchor="start" x="185.5" y="-1324" font-family="Iosevka" font-size="10.00"> </text>
<text text-anchor="start" x="185.5" y="-1309" font-family="Iosevka" font-size="10.00"> </text>
<polygon fill="#666666" stroke="#666666" points="149.5,-1334 149.5,-1334 224.5,-1334 224.5,-1334 149.5,-1334"/>
<polygon fill="#666666" stroke="#666666" points="149.5,-1319 149.5,-1319 224.5,-1319 224.5,-1319 149.5,-1319"/>
<polygon fill="none" stroke="#666666" points="149,-1302.5 149,-1351.5 224,-1351.5 224,-1302.5 149,-1302.5"/>
</a>
</g>
</g>
<!-- Node5&#45;&gt;Node2 -->
<g id="edge4_Node000002_Node000005" class="edge">
<title>Node5&#45;&gt;Node2</title>
<g id="a_edge4_Node000002_Node000005"><a xlink:title=" ">
<path fill="none" stroke="#63b8ff" d="M183.54,-1291.82C178.39,-1232.22 167.24,-1103.27 156.08,-974.16"/>
<polygon fill="none" stroke="#63b8ff" points="180.09,-1292.46 184.44,-1302.12 187.06,-1291.86 180.09,-1292.46"/>
</a>
</g>
</g>
</g>
</svg>
