<?xml version="1.0" encoding="UTF-8" standalone="no"?>
<!DOCTYPE svg PUBLIC "-//W3C//DTD SVG 1.1//EN"
 "http://www.w3.org/Graphics/SVG/1.1/DTD/svg11.dtd">
<!-- Generated by graphviz version 2.43.0 (0)
 -->
<!-- Title: tittaCalMovieStimulus Pages: 1 -->
<svg width="155pt" height="269pt"
 viewBox="0.00 0.00 155.00 269.00" xmlns="http://www.w3.org/2000/svg" xmlns:xlink="http://www.w3.org/1999/xlink">
<g id="graph0" class="graph" transform="scale(1 1) rotate(0) translate(4 265)">
<title>tittaCalMovieStimulus</title>
<!-- Node1 -->
<g id="node1" class="node">
<title>Node1</title>
<g id="a_node1"><a xlink:title="plays an animated movie for a calibration stimulus">
<polygon fill="#999999" stroke="#666666" points="147,-195 0,-195 0,0 147,0 147,-195"/>
<text text-anchor="middle" x="73.5" y="-183" font-family="Iosevka" font-size="10.00">{tittaCalMovieStimulus</text>
<text text-anchor="start" x="8" y="-172" font-family="Iosevka" font-size="10.00">|+ doShrink</text>
<text text-anchor="start" x="8" y="-161" font-family="Iosevka" font-size="10.00">+ shrinkTime</text>
<text text-anchor="start" x="8" y="-150" font-family="Iosevka" font-size="10.00">+ doMove</text>
<text text-anchor="start" x="8" y="-139" font-family="Iosevka" font-size="10.00">+ moveTime</text>
<text text-anchor="start" x="8" y="-128" font-family="Iosevka" font-size="10.00">+ moveWithAcceleration</text>
<text text-anchor="start" x="8" y="-117" font-family="Iosevka" font-size="10.00">+ doOscillate</text>
<text text-anchor="start" x="8" y="-106" font-family="Iosevka" font-size="10.00">+ oscillatePeriod</text>
<text text-anchor="start" x="8" y="-95" font-family="Iosevka" font-size="10.00">+ blinkInterval</text>
<text text-anchor="start" x="8" y="-84" font-family="Iosevka" font-size="10.00">+ blinkCount</text>
<text text-anchor="start" x="8" y="-73" font-family="Iosevka" font-size="10.00">+ fixBackSizeBlink</text>
<text text-anchor="start" x="8" y="-62" font-family="Iosevka" font-size="10.00">and 8 more...</text>
<text text-anchor="start" x="8" y="-51" font-family="Iosevka" font-size="10.00">|+ tittaCalMovieStimulus()</text>
<text text-anchor="start" x="8" y="-40" font-family="Iosevka" font-size="10.00">+ setCleanState()</text>
<text text-anchor="start" x="8" y="-29" font-family="Iosevka" font-size="10.00">+ initialise()</text>
<text text-anchor="start" x="8" y="-18" font-family="Iosevka" font-size="10.00">+ doDraw()</text>
<text text-anchor="middle" x="73.5" y="-7" font-family="Iosevka" font-size="10.00">}</text>
</a>
</g>
</g>
<!-- Node2 -->
<g id="node2" class="node">
<title>Node2</title>
<g id="a_node2"><a xlink:title=" ">
<polygon fill="white" stroke="#666666" points="101.5,-261 45.5,-261 45.5,-231 101.5,-231 101.5,-261"/>
<text text-anchor="middle" x="73.5" y="-249" font-family="Iosevka" font-size="10.00">{handle</text>
<text text-anchor="middle" x="73.5" y="-238" font-family="Iosevka" font-size="10.00">||}</text>
</a>
</g>
</g>
<!-- Node2&#45;&gt;Node1 -->
<g id="edge1" class="edge">
<title>Node2&#45;&gt;Node1</title>
<path fill="none" stroke="#63b8ff" d="M73.5,-220.91C73.5,-213.36 73.5,-204.53 73.5,-195.12"/>
<polygon fill="none" stroke="#63b8ff" points="70,-220.95 73.5,-230.95 77,-220.95 70,-220.95"/>
</g>
</g>
</svg>
