<?xml version="1.0" encoding="UTF-8" standalone="no"?>
<!DOCTYPE svg PUBLIC "-//W3C//DTD SVG 1.1//EN"
 "http://www.w3.org/Graphics/SVG/1.1/DTD/svg11.dtd">
<!-- Generated by graphviz version 2.50.0 (20211204.2007)
 -->
<!-- Title: annulusStimulus Pages: 1 -->
<svg width="282pt" height="1261pt"
 viewBox="0.00 0.00 282.00 1261.00" xmlns="http://www.w3.org/2000/svg" xmlns:xlink="http://www.w3.org/1999/xlink">
<g id="graph0" class="graph" transform="scale(1 1) rotate(0) translate(4 1257)">
<title>annulusStimulus</title>
<!-- Node1 -->
<g id="node1" class="node">
<title>Node1</title>
<g id="a_node1"><a xlink:title="annulusStimulus TODO">
<polygon fill="#bfbfbf" stroke="black" points="91,-0.5 91,-189.5 222,-189.5 222,-0.5 91,-0.5"/>
<text text-anchor="middle" x="156.5" y="-177.5" font-family="Iosevka" font-size="10.00">annulusStimulus</text>
<polyline fill="none" stroke="black" points="91,-170.5 222,-170.5 "/>
<text text-anchor="start" x="99" y="-158.5" font-family="Iosevka" font-size="10.00">+ method</text>
<text text-anchor="start" x="99" y="-147.5" font-family="Iosevka" font-size="10.00">+ sf1</text>
<text text-anchor="start" x="99" y="-136.5" font-family="Iosevka" font-size="10.00">+ sf2</text>
<text text-anchor="start" x="99" y="-125.5" font-family="Iosevka" font-size="10.00">+ tf1</text>
<text text-anchor="start" x="99" y="-114.5" font-family="Iosevka" font-size="10.00">+ tf2</text>
<text text-anchor="start" x="99" y="-103.5" font-family="Iosevka" font-size="10.00">+ angle1</text>
<text text-anchor="start" x="99" y="-92.5" font-family="Iosevka" font-size="10.00">+ angle2</text>
<text text-anchor="start" x="99" y="-81.5" font-family="Iosevka" font-size="10.00">+ phase1</text>
<text text-anchor="start" x="99" y="-70.5" font-family="Iosevka" font-size="10.00">+ phase2</text>
<text text-anchor="start" x="99" y="-59.5" font-family="Iosevka" font-size="10.00">+ contrast1</text>
<text text-anchor="start" x="99" y="-48.5" font-family="Iosevka" font-size="10.00">+ contrast2</text>
<text text-anchor="start" x="99" y="-37.5" font-family="Iosevka" font-size="10.00">+ texid</text>
<polyline fill="none" stroke="black" points="91,-30.5 222,-30.5 "/>
<text text-anchor="start" x="99" y="-18.5" font-family="Iosevka" font-size="10.00">+ annulusStimulus()</text>
<text text-anchor="start" x="99" y="-7.5" font-family="Iosevka" font-size="10.00">+ construct()</text>
</a>
</g>
</g>
<!-- Node2 -->
<g id="node2" class="node">
<title>Node2</title>
<g id="a_node2"><a xlink:href="classbase_stimulus.html" target="_top" xlink:title="baseStimulus is the superclass for all opticka stimulus objects">
<polygon fill="none" stroke="black" points="79,-226.5 79,-767.5 234,-767.5 234,-226.5 79,-226.5"/>
<text text-anchor="middle" x="156.5" y="-755.5" font-family="Iosevka" font-size="10.00">baseStimulus</text>
<polyline fill="none" stroke="black" points="79,-748.5 234,-748.5 "/>
<text text-anchor="start" x="87" y="-736.5" font-family="Iosevka" font-size="10.00">+ xPosition</text>
<text text-anchor="start" x="87" y="-725.5" font-family="Iosevka" font-size="10.00">+ yPosition</text>
<text text-anchor="start" x="87" y="-714.5" font-family="Iosevka" font-size="10.00">+ size</text>
<text text-anchor="start" x="87" y="-703.5" font-family="Iosevka" font-size="10.00">+ colour</text>
<text text-anchor="start" x="87" y="-692.5" font-family="Iosevka" font-size="10.00">+ alpha</text>
<text text-anchor="start" x="87" y="-681.5" font-family="Iosevka" font-size="10.00">+ startPosition</text>
<text text-anchor="start" x="87" y="-670.5" font-family="Iosevka" font-size="10.00">+ speed</text>
<text text-anchor="start" x="87" y="-659.5" font-family="Iosevka" font-size="10.00">+ angle</text>
<text text-anchor="start" x="87" y="-648.5" font-family="Iosevka" font-size="10.00">+ delayTime</text>
<text text-anchor="start" x="87" y="-637.5" font-family="Iosevka" font-size="10.00">+ offTime</text>
<text text-anchor="start" x="87" y="-626.5" font-family="Iosevka" font-size="10.00">and 17 more...</text>
<text text-anchor="start" x="87" y="-615.5" font-family="Iosevka" font-size="10.00"># family</text>
<text text-anchor="start" x="87" y="-604.5" font-family="Iosevka" font-size="10.00"># texture</text>
<text text-anchor="start" x="87" y="-593.5" font-family="Iosevka" font-size="10.00"># handles</text>
<text text-anchor="start" x="87" y="-582.5" font-family="Iosevka" font-size="10.00"># sM</text>
<text text-anchor="start" x="87" y="-571.5" font-family="Iosevka" font-size="10.00"># screenVals</text>
<text text-anchor="start" x="87" y="-560.5" font-family="Iosevka" font-size="10.00"># isSetup</text>
<text text-anchor="start" x="87" y="-549.5" font-family="Iosevka" font-size="10.00"># isGUI</text>
<text text-anchor="start" x="87" y="-538.5" font-family="Iosevka" font-size="10.00"># mouseValid</text>
<text text-anchor="start" x="87" y="-527.5" font-family="Iosevka" font-size="10.00"># mouseX</text>
<text text-anchor="start" x="87" y="-516.5" font-family="Iosevka" font-size="10.00"># mouseY</text>
<text text-anchor="start" x="87" y="-505.5" font-family="Iosevka" font-size="10.00">and 9 more...</text>
<polyline fill="none" stroke="black" points="79,-498.5 234,-498.5 "/>
<text text-anchor="start" x="87" y="-486.5" font-family="Iosevka" font-size="10.00">+ setup()</text>
<text text-anchor="start" x="87" y="-475.5" font-family="Iosevka" font-size="10.00">+ draw()</text>
<text text-anchor="start" x="87" y="-464.5" font-family="Iosevka" font-size="10.00">+ animate()</text>
<text text-anchor="start" x="87" y="-453.5" font-family="Iosevka" font-size="10.00">+ update()</text>
<text text-anchor="start" x="87" y="-442.5" font-family="Iosevka" font-size="10.00">+ reset()</text>
<text text-anchor="start" x="87" y="-431.5" font-family="Iosevka" font-size="10.00">+ baseStimulus()</text>
<text text-anchor="start" x="87" y="-420.5" font-family="Iosevka" font-size="10.00">+ colour()</text>
<text text-anchor="start" x="87" y="-409.5" font-family="Iosevka" font-size="10.00">+ alpha()</text>
<text text-anchor="start" x="87" y="-398.5" font-family="Iosevka" font-size="10.00">+ delta()</text>
<text text-anchor="start" x="87" y="-387.5" font-family="Iosevka" font-size="10.00">+ dX()</text>
<text text-anchor="start" x="87" y="-376.5" font-family="Iosevka" font-size="10.00">and 13 more...</text>
<text text-anchor="start" x="87" y="-365.5" font-family="Iosevka" font-size="10.00">+ d2r()</text>
<text text-anchor="start" x="87" y="-354.5" font-family="Iosevka" font-size="10.00">+ r2d()</text>
<text text-anchor="start" x="87" y="-343.5" font-family="Iosevka" font-size="10.00">+ findDistance()</text>
<text text-anchor="start" x="87" y="-332.5" font-family="Iosevka" font-size="10.00">+ updatePosition()</text>
<text text-anchor="start" x="87" y="-321.5" font-family="Iosevka" font-size="10.00"># doProperties()</text>
<text text-anchor="start" x="87" y="-310.5" font-family="Iosevka" font-size="10.00"># setRect()</text>
<text text-anchor="start" x="87" y="-299.5" font-family="Iosevka" font-size="10.00"># setAnimationDelta()</text>
<text text-anchor="start" x="87" y="-288.5" font-family="Iosevka" font-size="10.00"># computePosition()</text>
<text text-anchor="start" x="87" y="-277.5" font-family="Iosevka" font-size="10.00"># set_xPositionOut()</text>
<text text-anchor="start" x="87" y="-266.5" font-family="Iosevka" font-size="10.00"># set_yPositionOut()</text>
<text text-anchor="start" x="87" y="-255.5" font-family="Iosevka" font-size="10.00"># toStructure()</text>
<text text-anchor="start" x="87" y="-244.5" font-family="Iosevka" font-size="10.00"># removeTmpProperties()</text>
<text text-anchor="start" x="87" y="-233.5" font-family="Iosevka" font-size="10.00"># delete()</text>
</a>
</g>
</g>
<!-- Node2&#45;&gt;Node1 -->
<g id="edge1" class="edge">
<title>Node2&#45;&gt;Node1</title>
<path fill="none" stroke="midnightblue" d="M156.5,-216.31C156.5,-207.08 156.5,-198.12 156.5,-189.53"/>
<polygon fill="none" stroke="midnightblue" points="153,-216.42 156.5,-226.42 160,-216.42 153,-216.42"/>
</g>
<!-- Node3 -->
<g id="node3" class="node">
<title>Node3</title>
<g id="a_node3"><a xlink:href="classopticka_core.html" target="_top" xlink:title="optickaCore base class inherited by many other opticka classes.">
<polygon fill="none" stroke="black" points="0,-804.5 0,-1158.5 167,-1158.5 167,-804.5 0,-804.5"/>
<text text-anchor="middle" x="83.5" y="-1146.5" font-family="Iosevka" font-size="10.00">optickaCore</text>
<polyline fill="none" stroke="black" points="0,-1139.5 167,-1139.5 "/>
<text text-anchor="start" x="8" y="-1127.5" font-family="Iosevka" font-size="10.00">+ name</text>
<text text-anchor="start" x="8" y="-1116.5" font-family="Iosevka" font-size="10.00">+ comment</text>
<text text-anchor="start" x="8" y="-1105.5" font-family="Iosevka" font-size="10.00">+ verbose</text>
<text text-anchor="start" x="8" y="-1094.5" font-family="Iosevka" font-size="10.00">+ dateStamp</text>
<text text-anchor="start" x="8" y="-1083.5" font-family="Iosevka" font-size="10.00">+ uuid</text>
<text text-anchor="start" x="8" y="-1072.5" font-family="Iosevka" font-size="10.00">+ paths</text>
<text text-anchor="start" x="8" y="-1061.5" font-family="Iosevka" font-size="10.00">+ fullName</text>
<text text-anchor="start" x="8" y="-1050.5" font-family="Iosevka" font-size="10.00"># cloning</text>
<text text-anchor="start" x="8" y="-1039.5" font-family="Iosevka" font-size="10.00"># mversion</text>
<text text-anchor="start" x="8" y="-1028.5" font-family="Iosevka" font-size="10.00"># className</text>
<text text-anchor="start" x="8" y="-1017.5" font-family="Iosevka" font-size="10.00"># savePrefix</text>
<polyline fill="none" stroke="black" points="0,-1010.5 167,-1010.5 "/>
<text text-anchor="start" x="8" y="-998.5" font-family="Iosevka" font-size="10.00">+ optickaCore()</text>
<text text-anchor="start" x="8" y="-987.5" font-family="Iosevka" font-size="10.00">+ fullName()</text>
<text text-anchor="start" x="8" y="-976.5" font-family="Iosevka" font-size="10.00">+ initialiseSaveFile()</text>
<text text-anchor="start" x="8" y="-965.5" font-family="Iosevka" font-size="10.00">+ findAttributes()</text>
<text text-anchor="start" x="8" y="-954.5" font-family="Iosevka" font-size="10.00">+ findAttributesandType()</text>
<text text-anchor="start" x="8" y="-943.5" font-family="Iosevka" font-size="10.00">+ clone()</text>
<text text-anchor="start" x="8" y="-932.5" font-family="Iosevka" font-size="10.00">+ checkSuperclasses()</text>
<text text-anchor="start" x="8" y="-921.5" font-family="Iosevka" font-size="10.00">+ editProperties()</text>
<text text-anchor="start" x="8" y="-910.5" font-family="Iosevka" font-size="10.00">+ set()</text>
<text text-anchor="start" x="8" y="-899.5" font-family="Iosevka" font-size="10.00">+ checkPaths()</text>
<text text-anchor="start" x="8" y="-888.5" font-family="Iosevka" font-size="10.00">+ makeArgs()</text>
<text text-anchor="start" x="8" y="-877.5" font-family="Iosevka" font-size="10.00">+ addDefaults()</text>
<text text-anchor="start" x="8" y="-866.5" font-family="Iosevka" font-size="10.00"># parseArgs()</text>
<text text-anchor="start" x="8" y="-855.5" font-family="Iosevka" font-size="10.00"># addArgs()</text>
<text text-anchor="start" x="8" y="-844.5" font-family="Iosevka" font-size="10.00"># setPaths()</text>
<text text-anchor="start" x="8" y="-833.5" font-family="Iosevka" font-size="10.00"># toStructure()</text>
<text text-anchor="start" x="8" y="-822.5" font-family="Iosevka" font-size="10.00"># getType()</text>
<text text-anchor="start" x="8" y="-811.5" font-family="Iosevka" font-size="10.00"># salutation()</text>
</a>
</g>
</g>
<!-- Node3&#45;&gt;Node2 -->
<g id="edge2" class="edge">
<title>Node3&#45;&gt;Node2</title>
<path fill="none" stroke="midnightblue" d="M111.7,-794.1C113.02,-785.4 114.35,-776.61 115.69,-767.76"/>
<polygon fill="none" stroke="midnightblue" points="108.2,-793.85 110.16,-804.26 115.12,-794.89 108.2,-793.85"/>
</g>
<!-- Node4 -->
<g id="node4" class="node">
<title>Node4</title>
<g id="a_node4"><a xlink:title=" ">
<polygon fill="none" stroke="black" points="57,-1195.5 57,-1252.5 110,-1252.5 110,-1195.5 57,-1195.5"/>
<text text-anchor="middle" x="83.5" y="-1240.5" font-family="Iosevka" font-size="10.00">handle</text>
<polyline fill="none" stroke="black" points="57,-1233.5 110,-1233.5 "/>
<text text-anchor="middle" x="83.5" y="-1221.5" font-family="Iosevka" font-size="10.00"> </text>
<polyline fill="none" stroke="black" points="57,-1214.5 110,-1214.5 "/>
<text text-anchor="middle" x="83.5" y="-1202.5" font-family="Iosevka" font-size="10.00"> </text>
</a>
</g>
</g>
<!-- Node4&#45;&gt;Node3 -->
<g id="edge3" class="edge">
<title>Node4&#45;&gt;Node3</title>
<path fill="none" stroke="midnightblue" d="M83.5,-1185.18C83.5,-1177.22 83.5,-1168.35 83.5,-1158.87"/>
<polygon fill="none" stroke="midnightblue" points="80,-1185.41 83.5,-1195.41 87,-1185.41 80,-1185.41"/>
</g>
<!-- Node5 -->
<g id="node5" class="node">
<title>Node5</title>
<g id="a_node5"><a xlink:title=" ">
<polygon fill="none" stroke="black" points="185,-953 185,-1010 274,-1010 274,-953 185,-953"/>
<text text-anchor="middle" x="229.5" y="-998" font-family="Iosevka" font-size="10.00">dynamicprops</text>
<polyline fill="none" stroke="black" points="185,-991 274,-991 "/>
<text text-anchor="middle" x="229.5" y="-979" font-family="Iosevka" font-size="10.00"> </text>
<polyline fill="none" stroke="black" points="185,-972 274,-972 "/>
<text text-anchor="middle" x="229.5" y="-960" font-family="Iosevka" font-size="10.00"> </text>
</a>
</g>
</g>
<!-- Node5&#45;&gt;Node2 -->
<g id="edge4" class="edge">
<title>Node5&#45;&gt;Node2</title>
<path fill="none" stroke="midnightblue" d="M223.8,-942.86C217.81,-903.23 207.8,-837.09 197.31,-767.77"/>
<polygon fill="none" stroke="midnightblue" points="220.36,-943.46 225.31,-952.83 227.28,-942.41 220.36,-943.46"/>
</g>
</g>
</svg>
