<?xml version="1.0" encoding="UTF-8" standalone="no"?>
<!DOCTYPE svg PUBLIC "-//W3C//DTD SVG 1.1//EN"
 "http://www.w3.org/Graphics/SVG/1.1/DTD/svg11.dtd">
<!-- Generated by graphviz version 2.43.0 (0)
 -->
<!-- Title: gaborStimulus Pages: 1 -->
<!--zoomable 2022 -->

<svg id="main" version="1.1" xmlns="http://www.w3.org/2000/svg" xmlns:xlink="http://www.w3.org/1999/xlink" xml:space="preserve" onload="init(evt)">
<style type="text/css"><![CDATA[
.node, .edge {opacity: 0.7;}
.node.selected, .edge.selected {opacity: 1;}
.edge:hover path { stroke: red; }
.edge:hover polygon { stroke: red; fill: red; }
]]></style>

<defs>
  <circle id="rim" cx="0" cy="0" r="7"/>
  <circle id="rim2" cx="0" cy="0" r="3.5"/>
  <g id="zoomPlus">
    <use xlink:href="#rim" fill="#404040"><set attributeName="fill" to="#808080" begin="zoomplus.mouseover" end="zoomplus.mouseout"/></use>
    <path d="M-4,0h8M0,-4v8" fill="none" stroke="white" stroke-width="1.5" pointer-events="none"/>
  </g>
  <g id="zoomMin">
    <use xlink:href="#rim" fill="#404040"><set attributeName="fill" to="#808080" begin="zoomminus.mouseover" end="zoomminus.mouseout"/></use>
    <path d="M-4,0h8" fill="none" stroke="white" stroke-width="1.5" pointer-events="none"/>
  </g>
  <g id="arrowUp" transform="translate(30 24)">
    <use xlink:href="#rim"/>
    <path pointer-events="none" fill="none" stroke="white" stroke-width="1.5" d="M0,-3.0v7 M-2.5,-0.5L0,-3.0L2.5,-0.5"/>
  </g>
  <g id="arrowRight" transform="rotate(90) translate(36 -43)">
    <use xlink:href="#rim"/>
    <path pointer-events="none" fill="none" stroke="white" stroke-width="1.5" d="M0,-3.0v7 M-2.5,-0.5L0,-3.0L2.5,-0.5"/>
  </g>
  <g id="arrowDown" transform="rotate(180) translate(-30 -48)">
    <use xlink:href="#rim"/>
    <path pointer-events="none" fill="none" stroke="white" stroke-width="1.5" d="M0,-3.0v7 M-2.5,-0.5L0,-3.0L2.5,-0.5"/>
  </g>
  <g id="arrowLeft" transform="rotate(270) translate(-36 17)">
    <use xlink:href="#rim"/>
    <path pointer-events="none" fill="none" stroke="white" stroke-width="1.5" d="M0,-3.0v7 M-2.5,-0.5L0,-3.0L2.5,-0.5"/>
  </g>
  <g id="resetDef">
    <use xlink:href="#rim2" fill="#404040"><set attributeName="fill" to="#808080" begin="reset.mouseover" end="reset.mouseout"/></use>
  </g>
</defs>
<script type="application/ecmascript">
var viewWidth = 232;
var viewHeight = 2022;
var sectionId = 'dynsection-0';
</script>
<script type="application/ecmascript" xlink:href="svg.min.js"/>
<svg id="graph" class="graph">
<g id="viewport">
<title>gaborStimulus</title>
<!-- Node1 -->
<g id="Node000001" class="node">
<title>Node1</title>
<g id="a_Node000001"><a xlink:title="Copyright ©2014&#45;2022 Ian Max Andolina — released: LGPL3, see LICENCE.md.">
<polygon fill="#999999" stroke="transparent" points="196.5,-514 54.5,-514 54.5,0 196.5,0 196.5,-514"/>
<text text-anchor="start" x="92" y="-502" font-family="Iosevka" font-size="10.00">gaborStimulus</text>
<text text-anchor="start" x="58.5" y="-487" font-family="Iosevka" font-size="10.00">+</text>
<text text-anchor="start" x="69.5" y="-487" font-family="Iosevka" font-size="10.00">sf</text>
<text text-anchor="start" x="58.5" y="-472" font-family="Iosevka" font-size="10.00">+</text>
<text text-anchor="start" x="69.5" y="-472" font-family="Iosevka" font-size="10.00">tf</text>
<text text-anchor="start" x="58.5" y="-457" font-family="Iosevka" font-size="10.00">+</text>
<text text-anchor="start" x="69.5" y="-457" font-family="Iosevka" font-size="10.00">rotationMethod</text>
<text text-anchor="start" x="58.5" y="-442" font-family="Iosevka" font-size="10.00">+</text>
<text text-anchor="start" x="69.5" y="-442" font-family="Iosevka" font-size="10.00">phase</text>
<text text-anchor="start" x="58.5" y="-427" font-family="Iosevka" font-size="10.00">+</text>
<text text-anchor="start" x="69.5" y="-427" font-family="Iosevka" font-size="10.00">contrast</text>
<text text-anchor="start" x="58.5" y="-412" font-family="Iosevka" font-size="10.00">+</text>
<text text-anchor="start" x="69.5" y="-412" font-family="Iosevka" font-size="10.00">driftDirection</text>
<text text-anchor="start" x="58.5" y="-397" font-family="Iosevka" font-size="10.00">+</text>
<text text-anchor="start" x="69.5" y="-397" font-family="Iosevka" font-size="10.00">direction</text>
<text text-anchor="start" x="58.5" y="-382" font-family="Iosevka" font-size="10.00">+</text>
<text text-anchor="start" x="69.5" y="-382" font-family="Iosevka" font-size="10.00">contrastMult</text>
<text text-anchor="start" x="58.5" y="-367" font-family="Iosevka" font-size="10.00">+</text>
<text text-anchor="start" x="69.5" y="-367" font-family="Iosevka" font-size="10.00">aspectRatio</text>
<text text-anchor="start" x="58.5" y="-352" font-family="Iosevka" font-size="10.00">+</text>
<text text-anchor="start" x="69.5" y="-352" font-family="Iosevka" font-size="10.00">disableNorm</text>
<text text-anchor="start" x="69.5" y="-337" font-family="Iosevka" font-size="10.00">and 8 more...</text>
<text text-anchor="start" x="58.5" y="-322" font-family="Iosevka" font-size="10.00">#</text>
<text text-anchor="start" x="69.5" y="-322" font-family="Iosevka" font-size="10.00">sfCache</text>
<text text-anchor="start" x="58.5" y="-307" font-family="Iosevka" font-size="10.00">#</text>
<text text-anchor="start" x="69.5" y="-307" font-family="Iosevka" font-size="10.00">sfRecurse</text>
<text text-anchor="start" x="58.5" y="-292" font-family="Iosevka" font-size="10.00">#</text>
<text text-anchor="start" x="69.5" y="-292" font-family="Iosevka" font-size="10.00">allowedProperties</text>
<text text-anchor="start" x="58.5" y="-277" font-family="Iosevka" font-size="10.00">#</text>
<text text-anchor="start" x="69.5" y="-277" font-family="Iosevka" font-size="10.00">ignoreProperties</text>
<text text-anchor="start" x="58.5" y="-262" font-family="Iosevka" font-size="10.00">#</text>
<text text-anchor="start" x="69.5" y="-262" font-family="Iosevka" font-size="10.00">phaseCounter</text>
<text text-anchor="start" x="58.5" y="-247" font-family="Iosevka" font-size="10.00">+</text>
<text text-anchor="start" x="69.5" y="-247" font-family="Iosevka" font-size="10.00">gaborStimulus()</text>
<text text-anchor="start" x="58.5" y="-232" font-family="Iosevka" font-size="10.00">+</text>
<text text-anchor="start" x="69.5" y="-232" font-family="Iosevka" font-size="10.00">setup()</text>
<text text-anchor="start" x="58.5" y="-217" font-family="Iosevka" font-size="10.00">+</text>
<text text-anchor="start" x="69.5" y="-217" font-family="Iosevka" font-size="10.00">set_xPositionOut()</text>
<text text-anchor="start" x="58.5" y="-202" font-family="Iosevka" font-size="10.00">+</text>
<text text-anchor="start" x="69.5" y="-202" font-family="Iosevka" font-size="10.00">set_yPositionOut()</text>
<text text-anchor="start" x="58.5" y="-187" font-family="Iosevka" font-size="10.00">+</text>
<text text-anchor="start" x="69.5" y="-187" font-family="Iosevka" font-size="10.00">set_sfOut()</text>
<text text-anchor="start" x="58.5" y="-172" font-family="Iosevka" font-size="10.00">+</text>
<text text-anchor="start" x="69.5" y="-172" font-family="Iosevka" font-size="10.00">set_tfOut()</text>
<text text-anchor="start" x="58.5" y="-157" font-family="Iosevka" font-size="10.00">+</text>
<text text-anchor="start" x="69.5" y="-157" font-family="Iosevka" font-size="10.00">set_driftDirectionOut()</text>
<text text-anchor="start" x="58.5" y="-142" font-family="Iosevka" font-size="10.00">+</text>
<text text-anchor="start" x="69.5" y="-142" font-family="Iosevka" font-size="10.00">set_sizeOut()</text>
<text text-anchor="start" x="58.5" y="-127" font-family="Iosevka" font-size="10.00">+</text>
<text text-anchor="start" x="69.5" y="-127" font-family="Iosevka" font-size="10.00">update()</text>
<text text-anchor="start" x="58.5" y="-112" font-family="Iosevka" font-size="10.00">+</text>
<text text-anchor="start" x="69.5" y="-112" font-family="Iosevka" font-size="10.00">draw()</text>
<text text-anchor="start" x="58.5" y="-97" font-family="Iosevka" font-size="10.00">+</text>
<text text-anchor="start" x="69.5" y="-97" font-family="Iosevka" font-size="10.00">animate()</text>
<text text-anchor="start" x="58.5" y="-82" font-family="Iosevka" font-size="10.00">+</text>
<text text-anchor="start" x="69.5" y="-82" font-family="Iosevka" font-size="10.00">reset()</text>
<text text-anchor="start" x="58.5" y="-67" font-family="Iosevka" font-size="10.00">+</text>
<text text-anchor="start" x="69.5" y="-67" font-family="Iosevka" font-size="10.00">sf()</text>
<text text-anchor="start" x="58.5" y="-52" font-family="Iosevka" font-size="10.00">+</text>
<text text-anchor="start" x="69.5" y="-52" font-family="Iosevka" font-size="10.00">calculatePhase()</text>
<text text-anchor="start" x="58.5" y="-37" font-family="Iosevka" font-size="10.00">#</text>
<text text-anchor="start" x="69.5" y="-37" font-family="Iosevka" font-size="10.00">setRect()</text>
<text text-anchor="start" x="58.5" y="-22" font-family="Iosevka" font-size="10.00">#</text>
<text text-anchor="start" x="69.5" y="-22" font-family="Iosevka" font-size="10.00">calculateScale()</text>
<text text-anchor="start" x="58.5" y="-7" font-family="Iosevka" font-size="10.00">#</text>
<text text-anchor="start" x="69.5" y="-7" font-family="Iosevka" font-size="10.00">calculatePhaseIncrement()</text>
<polygon fill="#666666" stroke="#666666" points="54.5,-497 54.5,-497 196.5,-497 196.5,-497 54.5,-497"/>
<polygon fill="#666666" stroke="#666666" points="54.5,-257 54.5,-257 67.5,-257 67.5,-257 54.5,-257"/>
<polygon fill="#666666" stroke="#666666" points="67.5,-257 67.5,-257 196.5,-257 196.5,-257 67.5,-257"/>
<polygon fill="none" stroke="#666666" points="54.5,0 54.5,-514 196.5,-514 196.5,0 54.5,0"/>
</a>
</g>
</g>
<!-- Node2 -->
<g id="Node000002" class="node">
<title>Node2</title>
<g id="a_Node000002"><a xlink:href="classbase_stimulus.html" target="_top" xlink:title="baseStimulus is the superclass for all stimulus objects">
<polygon fill="white" stroke="transparent" points="198.5,-1259 52.5,-1259 52.5,-550 198.5,-550 198.5,-1259"/>
<text text-anchor="start" x="95" y="-1246.5" font-family="Iosevka" font-size="10.00">baseStimulus</text>
<text text-anchor="start" x="56.5" y="-1231.5" font-family="Iosevka" font-size="10.00">+</text>
<text text-anchor="start" x="67.5" y="-1231.5" font-family="Iosevka" font-size="10.00">type</text>
<text text-anchor="start" x="56.5" y="-1216.5" font-family="Iosevka" font-size="10.00">+</text>
<text text-anchor="start" x="67.5" y="-1216.5" font-family="Iosevka" font-size="10.00">xPosition</text>
<text text-anchor="start" x="56.5" y="-1201.5" font-family="Iosevka" font-size="10.00">+</text>
<text text-anchor="start" x="67.5" y="-1201.5" font-family="Iosevka" font-size="10.00">yPosition</text>
<text text-anchor="start" x="56.5" y="-1186.5" font-family="Iosevka" font-size="10.00">+</text>
<text text-anchor="start" x="67.5" y="-1186.5" font-family="Iosevka" font-size="10.00">size</text>
<text text-anchor="start" x="56.5" y="-1171.5" font-family="Iosevka" font-size="10.00">+</text>
<text text-anchor="start" x="67.5" y="-1171.5" font-family="Iosevka" font-size="10.00">colour</text>
<text text-anchor="start" x="56.5" y="-1156.5" font-family="Iosevka" font-size="10.00">+</text>
<text text-anchor="start" x="67.5" y="-1156.5" font-family="Iosevka" font-size="10.00">alpha</text>
<text text-anchor="start" x="56.5" y="-1141.5" font-family="Iosevka" font-size="10.00">+</text>
<text text-anchor="start" x="67.5" y="-1141.5" font-family="Iosevka" font-size="10.00">startPosition</text>
<text text-anchor="start" x="56.5" y="-1126.5" font-family="Iosevka" font-size="10.00">+</text>
<text text-anchor="start" x="67.5" y="-1126.5" font-family="Iosevka" font-size="10.00">speed</text>
<text text-anchor="start" x="56.5" y="-1111.5" font-family="Iosevka" font-size="10.00">+</text>
<text text-anchor="start" x="67.5" y="-1111.5" font-family="Iosevka" font-size="10.00">angle</text>
<text text-anchor="start" x="56.5" y="-1096.5" font-family="Iosevka" font-size="10.00">+</text>
<text text-anchor="start" x="67.5" y="-1096.5" font-family="Iosevka" font-size="10.00">delayTime</text>
<text text-anchor="start" x="67.5" y="-1081.5" font-family="Iosevka" font-size="10.00">and 20 more...</text>
<text text-anchor="start" x="56.5" y="-1066.5" font-family="Iosevka" font-size="10.00">#</text>
<text text-anchor="start" x="67.5" y="-1066.5" font-family="Iosevka" font-size="10.00">family</text>
<text text-anchor="start" x="56.5" y="-1051.5" font-family="Iosevka" font-size="10.00">#</text>
<text text-anchor="start" x="67.5" y="-1051.5" font-family="Iosevka" font-size="10.00">texture</text>
<text text-anchor="start" x="56.5" y="-1036.5" font-family="Iosevka" font-size="10.00">#</text>
<text text-anchor="start" x="67.5" y="-1036.5" font-family="Iosevka" font-size="10.00">handles</text>
<text text-anchor="start" x="56.5" y="-1021.5" font-family="Iosevka" font-size="10.00">#</text>
<text text-anchor="start" x="67.5" y="-1021.5" font-family="Iosevka" font-size="10.00">sM</text>
<text text-anchor="start" x="56.5" y="-1006.5" font-family="Iosevka" font-size="10.00">#</text>
<text text-anchor="start" x="67.5" y="-1006.5" font-family="Iosevka" font-size="10.00">animator</text>
<text text-anchor="start" x="56.5" y="-991.5" font-family="Iosevka" font-size="10.00">#</text>
<text text-anchor="start" x="67.5" y="-991.5" font-family="Iosevka" font-size="10.00">screenVals</text>
<text text-anchor="start" x="56.5" y="-976.5" font-family="Iosevka" font-size="10.00">#</text>
<text text-anchor="start" x="67.5" y="-976.5" font-family="Iosevka" font-size="10.00">isSetup</text>
<text text-anchor="start" x="56.5" y="-961.5" font-family="Iosevka" font-size="10.00">#</text>
<text text-anchor="start" x="67.5" y="-961.5" font-family="Iosevka" font-size="10.00">isGUI</text>
<text text-anchor="start" x="56.5" y="-946.5" font-family="Iosevka" font-size="10.00">#</text>
<text text-anchor="start" x="67.5" y="-946.5" font-family="Iosevka" font-size="10.00">dstRect</text>
<text text-anchor="start" x="56.5" y="-931.5" font-family="Iosevka" font-size="10.00">#</text>
<text text-anchor="start" x="67.5" y="-931.5" font-family="Iosevka" font-size="10.00">mouseValid</text>
<text text-anchor="start" x="67.5" y="-916.5" font-family="Iosevka" font-size="10.00">and 12 more...</text>
<text text-anchor="start" x="56.5" y="-901.5" font-family="Iosevka" font-size="10.00">+</text>
<text text-anchor="start" x="67.5" y="-901.5" font-family="Iosevka" font-size="10.00">setup()</text>
<text text-anchor="start" x="56.5" y="-886.5" font-family="Iosevka" font-size="10.00">+</text>
<text text-anchor="start" x="67.5" y="-886.5" font-family="Iosevka" font-size="10.00">draw()</text>
<text text-anchor="start" x="56.5" y="-871.5" font-family="Iosevka" font-size="10.00">+</text>
<text text-anchor="start" x="67.5" y="-871.5" font-family="Iosevka" font-size="10.00">animate()</text>
<text text-anchor="start" x="56.5" y="-856.5" font-family="Iosevka" font-size="10.00">+</text>
<text text-anchor="start" x="67.5" y="-856.5" font-family="Iosevka" font-size="10.00">update()</text>
<text text-anchor="start" x="56.5" y="-841.5" font-family="Iosevka" font-size="10.00">+</text>
<text text-anchor="start" x="67.5" y="-841.5" font-family="Iosevka" font-size="10.00">reset()</text>
<text text-anchor="start" x="56.5" y="-826.5" font-family="Iosevka" font-size="10.00">+</text>
<text text-anchor="start" x="67.5" y="-826.5" font-family="Iosevka" font-size="10.00">baseStimulus()</text>
<text text-anchor="start" x="56.5" y="-811.5" font-family="Iosevka" font-size="10.00">+</text>
<text text-anchor="start" x="67.5" y="-811.5" font-family="Iosevka" font-size="10.00">colour()</text>
<text text-anchor="start" x="56.5" y="-796.5" font-family="Iosevka" font-size="10.00">+</text>
<text text-anchor="start" x="67.5" y="-796.5" font-family="Iosevka" font-size="10.00">alpha()</text>
<text text-anchor="start" x="56.5" y="-781.5" font-family="Iosevka" font-size="10.00">+</text>
<text text-anchor="start" x="67.5" y="-781.5" font-family="Iosevka" font-size="10.00">delta()</text>
<text text-anchor="start" x="56.5" y="-766.5" font-family="Iosevka" font-size="10.00">+</text>
<text text-anchor="start" x="67.5" y="-766.5" font-family="Iosevka" font-size="10.00">dX()</text>
<text text-anchor="start" x="67.5" y="-751.5" font-family="Iosevka" font-size="10.00">and 18 more...</text>
<text text-anchor="start" x="56.5" y="-736.5" font-family="Iosevka" font-size="10.00">+</text>
<text text-anchor="start" x="67.5" y="-736.5" font-family="Iosevka" font-size="10.00">mixColour()</text>
<text text-anchor="start" x="56.5" y="-721.5" font-family="Iosevka" font-size="10.00">+</text>
<text text-anchor="start" x="67.5" y="-721.5" font-family="Iosevka" font-size="10.00">d2r()</text>
<text text-anchor="start" x="56.5" y="-706.5" font-family="Iosevka" font-size="10.00">+</text>
<text text-anchor="start" x="67.5" y="-706.5" font-family="Iosevka" font-size="10.00">r2d()</text>
<text text-anchor="start" x="56.5" y="-691.5" font-family="Iosevka" font-size="10.00">+</text>
<text text-anchor="start" x="67.5" y="-691.5" font-family="Iosevka" font-size="10.00">findDistance()</text>
<text text-anchor="start" x="56.5" y="-676.5" font-family="Iosevka" font-size="10.00">+</text>
<text text-anchor="start" x="67.5" y="-676.5" font-family="Iosevka" font-size="10.00">updatePosition()</text>
<text text-anchor="start" x="56.5" y="-661.5" font-family="Iosevka" font-size="10.00">#</text>
<text text-anchor="start" x="67.5" y="-661.5" font-family="Iosevka" font-size="10.00">addRuntimeProperties()</text>
<text text-anchor="start" x="56.5" y="-646.5" font-family="Iosevka" font-size="10.00">#</text>
<text text-anchor="start" x="67.5" y="-646.5" font-family="Iosevka" font-size="10.00">updateRuntimeProperties()</text>
<text text-anchor="start" x="56.5" y="-631.5" font-family="Iosevka" font-size="10.00">#</text>
<text text-anchor="start" x="67.5" y="-631.5" font-family="Iosevka" font-size="10.00">computePosition()</text>
<text text-anchor="start" x="56.5" y="-616.5" font-family="Iosevka" font-size="10.00">#</text>
<text text-anchor="start" x="67.5" y="-616.5" font-family="Iosevka" font-size="10.00">setAnimationDelta()</text>
<text text-anchor="start" x="56.5" y="-601.5" font-family="Iosevka" font-size="10.00">#</text>
<text text-anchor="start" x="67.5" y="-601.5" font-family="Iosevka" font-size="10.00">setRect()</text>
<text text-anchor="start" x="56.5" y="-586.5" font-family="Iosevka" font-size="10.00">#</text>
<text text-anchor="start" x="67.5" y="-586.5" font-family="Iosevka" font-size="10.00">toStructure()</text>
<text text-anchor="start" x="56.5" y="-571.5" font-family="Iosevka" font-size="10.00">#</text>
<text text-anchor="start" x="67.5" y="-571.5" font-family="Iosevka" font-size="10.00">removeTmpProperties()</text>
<text text-anchor="start" x="56.5" y="-556.5" font-family="Iosevka" font-size="10.00">#</text>
<text text-anchor="start" x="67.5" y="-556.5" font-family="Iosevka" font-size="10.00">delete()</text>
<polygon fill="#666666" stroke="#666666" points="52.5,-1241.5 52.5,-1241.5 198.5,-1241.5 198.5,-1241.5 52.5,-1241.5"/>
<polygon fill="#666666" stroke="#666666" points="52.5,-911.5 52.5,-911.5 65.5,-911.5 65.5,-911.5 52.5,-911.5"/>
<polygon fill="#666666" stroke="#666666" points="65.5,-911.5 65.5,-911.5 198.5,-911.5 198.5,-911.5 65.5,-911.5"/>
<polygon fill="none" stroke="#666666" points="52.5,-550 52.5,-1259 198.5,-1259 198.5,-550 52.5,-550"/>
</a>
</g>
</g>
<!-- Node2&#45;&gt;Node1 -->
<g id="edge1_Node000001_Node000002" class="edge">
<title>Node2&#45;&gt;Node1</title>
<g id="a_edge1_Node000001_Node000002"><a xlink:title=" ">
<path fill="none" stroke="#63b8ff" d="M125.5,-539.57C125.5,-531.05 125.5,-522.57 125.5,-514.15"/>
<polygon fill="none" stroke="#63b8ff" points="122,-539.59 125.5,-549.59 129,-539.59 122,-539.59"/>
</a>
</g>
</g>
<!-- Node3 -->
<g id="Node000003" class="node">
<title>Node3</title>
<g id="a_Node000003"><a xlink:href="classopticka_core.html" target="_top" xlink:title="optickaCore base class inherited by other opticka classes.">
<polygon fill="white" stroke="transparent" points="131,-1929 0,-1929 0,-1295 131,-1295 131,-1929"/>
<text text-anchor="start" x="38.5" y="-1917" font-family="Iosevka" font-size="10.00">optickaCore</text>
<text text-anchor="start" x="4.5" y="-1902" font-family="Iosevka" font-size="10.00">+</text>
<text text-anchor="start" x="15.5" y="-1902" font-family="Iosevka" font-size="10.00">name</text>
<text text-anchor="start" x="4.5" y="-1887" font-family="Iosevka" font-size="10.00">+</text>
<text text-anchor="start" x="15.5" y="-1887" font-family="Iosevka" font-size="10.00">comment</text>
<text text-anchor="start" x="4.5" y="-1872" font-family="Iosevka" font-size="10.00">+</text>
<text text-anchor="start" x="15.5" y="-1872" font-family="Iosevka" font-size="10.00">verbose</text>
<text text-anchor="start" x="4.5" y="-1857" font-family="Iosevka" font-size="10.00">+</text>
<text text-anchor="start" x="15.5" y="-1857" font-family="Iosevka" font-size="10.00">optickaVersion</text>
<text text-anchor="start" x="4.5" y="-1842" font-family="Iosevka" font-size="10.00">+</text>
<text text-anchor="start" x="15.5" y="-1842" font-family="Iosevka" font-size="10.00">dateStamp</text>
<text text-anchor="start" x="4.5" y="-1827" font-family="Iosevka" font-size="10.00">+</text>
<text text-anchor="start" x="15.5" y="-1827" font-family="Iosevka" font-size="10.00">uuid</text>
<text text-anchor="start" x="4.5" y="-1812" font-family="Iosevka" font-size="10.00">+</text>
<text text-anchor="start" x="15.5" y="-1812" font-family="Iosevka" font-size="10.00">paths</text>
<text text-anchor="start" x="4.5" y="-1797" font-family="Iosevka" font-size="10.00">+</text>
<text text-anchor="start" x="15.5" y="-1797" font-family="Iosevka" font-size="10.00">fullName</text>
<text text-anchor="start" x="4.5" y="-1782" font-family="Iosevka" font-size="10.00">#</text>
<text text-anchor="start" x="15.5" y="-1782" font-family="Iosevka" font-size="10.00">cloning</text>
<text text-anchor="start" x="4.5" y="-1767" font-family="Iosevka" font-size="10.00">#</text>
<text text-anchor="start" x="15.5" y="-1767" font-family="Iosevka" font-size="10.00">mversion</text>
<text text-anchor="start" x="4.5" y="-1752" font-family="Iosevka" font-size="10.00">#</text>
<text text-anchor="start" x="15.5" y="-1752" font-family="Iosevka" font-size="10.00">sansFont</text>
<text text-anchor="start" x="4.5" y="-1737" font-family="Iosevka" font-size="10.00">#</text>
<text text-anchor="start" x="15.5" y="-1737" font-family="Iosevka" font-size="10.00">monoFont</text>
<text text-anchor="start" x="4.5" y="-1722" font-family="Iosevka" font-size="10.00">#</text>
<text text-anchor="start" x="15.5" y="-1722" font-family="Iosevka" font-size="10.00">className</text>
<text text-anchor="start" x="4.5" y="-1707" font-family="Iosevka" font-size="10.00">#</text>
<text text-anchor="start" x="15.5" y="-1707" font-family="Iosevka" font-size="10.00">savePrefix</text>
<text text-anchor="start" x="4.5" y="-1692" font-family="Iosevka" font-size="10.00">#</text>
<text text-anchor="start" x="15.5" y="-1692" font-family="Iosevka" font-size="10.00">fullName_</text>
<text text-anchor="start" x="4.5" y="-1677" font-family="Iosevka" font-size="10.00">+</text>
<text text-anchor="start" x="15.5" y="-1677" font-family="Iosevka" font-size="10.00">optickaCore()</text>
<text text-anchor="start" x="4.5" y="-1662" font-family="Iosevka" font-size="10.00">+</text>
<text text-anchor="start" x="15.5" y="-1662" font-family="Iosevka" font-size="10.00">fullName()</text>
<text text-anchor="start" x="4.5" y="-1647" font-family="Iosevka" font-size="10.00">+</text>
<text text-anchor="start" x="15.5" y="-1647" font-family="Iosevka" font-size="10.00">getALF()</text>
<text text-anchor="start" x="4.5" y="-1632" font-family="Iosevka" font-size="10.00">+</text>
<text text-anchor="start" x="15.5" y="-1632" font-family="Iosevka" font-size="10.00">makeReport()</text>
<text text-anchor="start" x="4.5" y="-1617" font-family="Iosevka" font-size="10.00">+</text>
<text text-anchor="start" x="15.5" y="-1617" font-family="Iosevka" font-size="10.00">findAttributes()</text>
<text text-anchor="start" x="4.5" y="-1602" font-family="Iosevka" font-size="10.00">+</text>
<text text-anchor="start" x="15.5" y="-1602" font-family="Iosevka" font-size="10.00">findAttributesandType()</text>
<text text-anchor="start" x="4.5" y="-1587" font-family="Iosevka" font-size="10.00">+</text>
<text text-anchor="start" x="15.5" y="-1587" font-family="Iosevka" font-size="10.00">findPropertyDefault()</text>
<text text-anchor="start" x="4.5" y="-1572" font-family="Iosevka" font-size="10.00">+</text>
<text text-anchor="start" x="15.5" y="-1572" font-family="Iosevka" font-size="10.00">clone()</text>
<text text-anchor="start" x="4.5" y="-1557" font-family="Iosevka" font-size="10.00">+</text>
<text text-anchor="start" x="15.5" y="-1557" font-family="Iosevka" font-size="10.00">checkSuperclasses()</text>
<text text-anchor="start" x="4.5" y="-1542" font-family="Iosevka" font-size="10.00">+</text>
<text text-anchor="start" x="15.5" y="-1542" font-family="Iosevka" font-size="10.00">editProperties()</text>
<text text-anchor="start" x="4.5" y="-1527" font-family="Iosevka" font-size="10.00">+</text>
<text text-anchor="start" x="15.5" y="-1527" font-family="Iosevka" font-size="10.00">setProp()</text>
<text text-anchor="start" x="4.5" y="-1512" font-family="Iosevka" font-size="10.00">+</text>
<text text-anchor="start" x="15.5" y="-1512" font-family="Iosevka" font-size="10.00">initialiseSaveFile()</text>
<text text-anchor="start" x="4.5" y="-1497" font-family="Iosevka" font-size="10.00">+</text>
<text text-anchor="start" x="15.5" y="-1497" font-family="Iosevka" font-size="10.00">checkPaths()</text>
<text text-anchor="start" x="4.5" y="-1482" font-family="Iosevka" font-size="10.00">+</text>
<text text-anchor="start" x="15.5" y="-1482" font-family="Iosevka" font-size="10.00">initialiseGlobals()</text>
<text text-anchor="start" x="4.5" y="-1467" font-family="Iosevka" font-size="10.00">+</text>
<text text-anchor="start" x="15.5" y="-1467" font-family="Iosevka" font-size="10.00">makeArgs()</text>
<text text-anchor="start" x="4.5" y="-1452" font-family="Iosevka" font-size="10.00">+</text>
<text text-anchor="start" x="15.5" y="-1452" font-family="Iosevka" font-size="10.00">addDefaults()</text>
<text text-anchor="start" x="4.5" y="-1437" font-family="Iosevka" font-size="10.00">+</text>
<text text-anchor="start" x="15.5" y="-1437" font-family="Iosevka" font-size="10.00">hasKey()</text>
<text text-anchor="start" x="4.5" y="-1422" font-family="Iosevka" font-size="10.00">+</text>
<text text-anchor="start" x="15.5" y="-1422" font-family="Iosevka" font-size="10.00">getKeys()</text>
<text text-anchor="start" x="4.5" y="-1407" font-family="Iosevka" font-size="10.00">#</text>
<text text-anchor="start" x="15.5" y="-1407" font-family="Iosevka" font-size="10.00">parseArgs()</text>
<text text-anchor="start" x="4.5" y="-1392" font-family="Iosevka" font-size="10.00">#</text>
<text text-anchor="start" x="15.5" y="-1392" font-family="Iosevka" font-size="10.00">addArgs()</text>
<text text-anchor="start" x="4.5" y="-1377" font-family="Iosevka" font-size="10.00">#</text>
<text text-anchor="start" x="15.5" y="-1377" font-family="Iosevka" font-size="10.00">setPaths()</text>
<text text-anchor="start" x="4.5" y="-1362" font-family="Iosevka" font-size="10.00">#</text>
<text text-anchor="start" x="15.5" y="-1362" font-family="Iosevka" font-size="10.00">getFonts()</text>
<text text-anchor="start" x="4.5" y="-1347" font-family="Iosevka" font-size="10.00">#</text>
<text text-anchor="start" x="15.5" y="-1347" font-family="Iosevka" font-size="10.00">toStructure()</text>
<text text-anchor="start" x="4.5" y="-1332" font-family="Iosevka" font-size="10.00">#</text>
<text text-anchor="start" x="15.5" y="-1332" font-family="Iosevka" font-size="10.00">getType()</text>
<text text-anchor="start" x="4.5" y="-1317" font-family="Iosevka" font-size="10.00">#</text>
<text text-anchor="start" x="15.5" y="-1317" font-family="Iosevka" font-size="10.00">logOutput()</text>
<text text-anchor="start" x="4.5" y="-1302" font-family="Iosevka" font-size="10.00">#</text>
<text text-anchor="start" x="15.5" y="-1302" font-family="Iosevka" font-size="10.00">salutation()</text>
<polygon fill="#666666" stroke="#666666" points="0.5,-1912 0.5,-1912 131.5,-1912 131.5,-1912 0.5,-1912"/>
<polygon fill="#666666" stroke="#666666" points="0.5,-1687 0.5,-1687 13.5,-1687 13.5,-1687 0.5,-1687"/>
<polygon fill="#666666" stroke="#666666" points="13.5,-1687 13.5,-1687 131.5,-1687 131.5,-1687 13.5,-1687"/>
<polygon fill="none" stroke="#666666" points="0,-1295 0,-1929 131,-1929 131,-1295 0,-1295"/>
</a>
</g>
</g>
<!-- Node3&#45;&gt;Node2 -->
<g id="edge2_Node000002_Node000003" class="edge">
<title>Node3&#45;&gt;Node2</title>
<g id="a_edge2_Node000002_Node000003"><a xlink:title=" ">
<path fill="none" stroke="#63b8ff" d="M93.24,-1284.81C93.97,-1276.23 94.7,-1267.63 95.43,-1259.02"/>
<polygon fill="none" stroke="#63b8ff" points="89.74,-1284.62 92.38,-1294.88 96.72,-1285.21 89.74,-1284.62"/>
</a>
</g>
</g>
<!-- Node4 -->
<g id="Node000004" class="node">
<title>Node4</title>
<g id="a_Node000004"><a xlink:title=" ">
<polygon fill="white" stroke="transparent" points="86.5,-2014 44.5,-2014 44.5,-1965 86.5,-1965 86.5,-2014"/>
<text text-anchor="start" x="49.5" y="-2001.5" font-family="Iosevka" font-size="10.00">handle</text>
<text text-anchor="start" x="64" y="-1986.5" font-family="Iosevka" font-size="10.00"> </text>
<text text-anchor="start" x="64" y="-1971.5" font-family="Iosevka" font-size="10.00"> </text>
<polygon fill="#666666" stroke="#666666" points="44.5,-1996.5 44.5,-1996.5 86.5,-1996.5 86.5,-1996.5 44.5,-1996.5"/>
<polygon fill="#666666" stroke="#666666" points="44.5,-1981.5 44.5,-1981.5 86.5,-1981.5 86.5,-1981.5 44.5,-1981.5"/>
<polygon fill="none" stroke="#666666" points="44.5,-1965 44.5,-2014 86.5,-2014 86.5,-1965 44.5,-1965"/>
</a>
</g>
</g>
<!-- Node4&#45;&gt;Node3 -->
<g id="edge3_Node000003_Node000004" class="edge">
<title>Node4&#45;&gt;Node3</title>
<g id="a_edge3_Node000003_Node000004"><a xlink:title=" ">
<path fill="none" stroke="#63b8ff" d="M65.5,-1954.49C65.5,-1946.99 65.5,-1938.45 65.5,-1929.1"/>
<polygon fill="none" stroke="#63b8ff" points="62,-1954.73 65.5,-1964.73 69,-1954.73 62,-1954.73"/>
</a>
</g>
</g>
<!-- Node5 -->
<g id="Node000005" class="node">
<title>Node5</title>
<g id="a_Node000005"><a xlink:title=" ">
<polygon fill="white" stroke="transparent" points="224,-1636.5 149,-1636.5 149,-1587.5 224,-1587.5 224,-1636.5"/>
<text text-anchor="start" x="154.5" y="-1624" font-family="Iosevka" font-size="10.00">dynamicprops</text>
<text text-anchor="start" x="185.5" y="-1609" font-family="Iosevka" font-size="10.00"> </text>
<text text-anchor="start" x="185.5" y="-1594" font-family="Iosevka" font-size="10.00"> </text>
<polygon fill="#666666" stroke="#666666" points="149.5,-1619 149.5,-1619 224.5,-1619 224.5,-1619 149.5,-1619"/>
<polygon fill="#666666" stroke="#666666" points="149.5,-1604 149.5,-1604 224.5,-1604 224.5,-1604 149.5,-1604"/>
<polygon fill="none" stroke="#666666" points="149,-1587.5 149,-1636.5 224,-1636.5 224,-1587.5 149,-1587.5"/>
</a>
</g>
</g>
<!-- Node5&#45;&gt;Node2 -->
<g id="edge4_Node000002_Node000005" class="edge">
<title>Node5&#45;&gt;Node2</title>
<g id="a_edge4_Node000002_Node000005"><a xlink:title=" ">
<path fill="none" stroke="#63b8ff" d="M183.54,-1576.82C178.39,-1517.22 167.24,-1388.27 156.08,-1259.16"/>
<polygon fill="none" stroke="#63b8ff" points="180.09,-1577.46 184.44,-1587.12 187.06,-1576.86 180.09,-1577.46"/>
</a>
</g>
</g>
</g>
</svg>

<g id="navigator" transform="translate(0 0)" fill="#404254">
  <rect fill="#f2f5e9" fill-opacity="0.5" stroke="#606060" stroke-width=".5" x="0" y="0" width="60" height="60"/>
  <use id="zoomplus" xlink:href="#zoomPlus" x="17" y="9" onmousedown="handleZoom(evt,'in')"/>
  <use id="zoomminus" xlink:href="#zoomMin" x="42" y="9" onmousedown="handleZoom(evt,'out')"/>
  <use id="reset" xlink:href="#resetDef" x="30" y="36" onmousedown="handleReset()"/>
   <use id="arrowup" xlink:href="#arrowUp" x="0" y="0" onmousedown="handlePan(0,-1)"/>
  <use id="arrowright" xlink:href="#arrowRight" x="0" y="0" onmousedown="handlePan(1,0)"/>
  <use id="arrowdown" xlink:href="#arrowDown" x="0" y="0" onmousedown="handlePan(0,1)"/>
  <use id="arrowleft" xlink:href="#arrowLeft" x="0" y="0" onmousedown="handlePan(-1,0)"/>
</g>
<svg viewBox="0 0 15 15" width="100%" height="30px" preserveAspectRatio="xMaxYMin meet">
 <g id="arrow_out" transform="scale(0.3 0.3)">
  <a xlink:href="classgabor_stimulus__inherit__graph_org.svg" target="_base">
   <rect id="button" ry="5" rx="5" y="6" x="6" height="38" width="38"
        fill="#f2f5e9" fill-opacity="0.5" stroke="#606060" stroke-width="1.0"/>
   <path id="arrow"
     d="M 11.500037,31.436501 C 11.940474,20.09759 22.043105,11.32322 32.158766,21.979434 L 37.068811,17.246167 C 37.068811,17.246167 37.088388,32 37.088388,32 L 22.160133,31.978069 C 22.160133,31.978069 26.997745,27.140456 26.997745,27.140456 C 18.528582,18.264221 13.291696,25.230495 11.500037,31.436501 z"
     style="fill:#404040;"/>
  </a>
 </g>
</svg>

<style type='text/css'>
<![CDATA[
[data-mouse-over-selected='false'] { opacity: 0.7; }
[data-mouse-over-selected='true']  { opacity: 1.0; }
]]>
</style>
<script type="application/ecmascript"><![CDATA[
document.addEventListener('DOMContentLoaded', (event) => {
  highlightEdges();
  highlightAdjacentNodes();
});
]]></script>
</svg>
