<?xml version="1.0" encoding="UTF-8" standalone="no"?>
<!DOCTYPE svg PUBLIC "-//W3C//DTD SVG 1.1//EN"
 "http://www.w3.org/Graphics/SVG/1.1/DTD/svg11.dtd">
<!-- Generated by graphviz version 2.50.0 (20211204.2007)
 -->
<!-- Title: metaStimulus Pages: 1 -->
<svg width="175pt" height="793pt"
 viewBox="0.00 0.00 175.00 793.00" xmlns="http://www.w3.org/2000/svg" xmlns:xlink="http://www.w3.org/1999/xlink">
<g id="graph0" class="graph" transform="scale(1 1) rotate(0) translate(4 789)">
<title>metaStimulus</title>
<!-- Node1 -->
<g id="node1" class="node">
<title>Node1</title>
<g id="a_node1"><a xlink:title="Manager for multiple opticka stimuli.">
<polygon fill="#bfbfbf" stroke="black" points="24,-0.5 24,-299.5 143,-299.5 143,-0.5 24,-0.5"/>
<text text-anchor="middle" x="83.5" y="-287.5" font-family="Iosevka" font-size="10.00">metaStimulus</text>
<polyline fill="none" stroke="black" points="24,-280.5 143,-280.5 "/>
<text text-anchor="start" x="32" y="-268.5" font-family="Iosevka" font-size="10.00">+ stimuli</text>
<text text-anchor="start" x="32" y="-257.5" font-family="Iosevka" font-size="10.00">+ maskStimuli</text>
<text text-anchor="start" x="32" y="-246.5" font-family="Iosevka" font-size="10.00">+ showMask</text>
<text text-anchor="start" x="32" y="-235.5" font-family="Iosevka" font-size="10.00">+ stimulusSets</text>
<text text-anchor="start" x="32" y="-224.5" font-family="Iosevka" font-size="10.00">+ setChoice</text>
<text text-anchor="start" x="32" y="-213.5" font-family="Iosevka" font-size="10.00">+ fixationChoice</text>
<text text-anchor="start" x="32" y="-202.5" font-family="Iosevka" font-size="10.00">+ exclusionChoice</text>
<text text-anchor="start" x="32" y="-191.5" font-family="Iosevka" font-size="10.00">+ stimulusTable</text>
<text text-anchor="start" x="32" y="-180.5" font-family="Iosevka" font-size="10.00">+ tableChoice</text>
<text text-anchor="start" x="32" y="-169.5" font-family="Iosevka" font-size="10.00">+ controlTable</text>
<text text-anchor="start" x="32" y="-158.5" font-family="Iosevka" font-size="10.00">+ screen</text>
<text text-anchor="start" x="32" y="-147.5" font-family="Iosevka" font-size="10.00">+ verbose</text>
<text text-anchor="start" x="32" y="-136.5" font-family="Iosevka" font-size="10.00">+ choice</text>
<polyline fill="none" stroke="black" points="24,-129.5 143,-129.5 "/>
<text text-anchor="start" x="32" y="-117.5" font-family="Iosevka" font-size="10.00">+ metaStimulus()</text>
<text text-anchor="start" x="32" y="-106.5" font-family="Iosevka" font-size="10.00">+ setup()</text>
<text text-anchor="start" x="32" y="-95.5" font-family="Iosevka" font-size="10.00">+ update()</text>
<text text-anchor="start" x="32" y="-84.5" font-family="Iosevka" font-size="10.00">+ draw()</text>
<text text-anchor="start" x="32" y="-73.5" font-family="Iosevka" font-size="10.00">+ animate()</text>
<text text-anchor="start" x="32" y="-62.5" font-family="Iosevka" font-size="10.00">+ resetTicks()</text>
<text text-anchor="start" x="32" y="-51.5" font-family="Iosevka" font-size="10.00">+ reset()</text>
<text text-anchor="start" x="32" y="-40.5" font-family="Iosevka" font-size="10.00">+ randomise()</text>
<text text-anchor="start" x="32" y="-29.5" font-family="Iosevka" font-size="10.00">+ show()</text>
<text text-anchor="start" x="32" y="-18.5" font-family="Iosevka" font-size="10.00">+ hide()</text>
<text text-anchor="start" x="32" y="-7.5" font-family="Iosevka" font-size="10.00">and 13 more...</text>
</a>
</g>
</g>
<!-- Node2 -->
<g id="node2" class="node">
<title>Node2</title>
<g id="a_node2"><a xlink:href="$classopticka_core.html" xlink:title="optickaCore base class inherited by many other opticka classes.">
<polygon fill="none" stroke="black" points="0,-336.5 0,-690.5 167,-690.5 167,-336.5 0,-336.5"/>
<text text-anchor="middle" x="83.5" y="-678.5" font-family="Iosevka" font-size="10.00">optickaCore</text>
<polyline fill="none" stroke="black" points="0,-671.5 167,-671.5 "/>
<text text-anchor="start" x="8" y="-659.5" font-family="Iosevka" font-size="10.00">+ name</text>
<text text-anchor="start" x="8" y="-648.5" font-family="Iosevka" font-size="10.00">+ comment</text>
<text text-anchor="start" x="8" y="-637.5" font-family="Iosevka" font-size="10.00">+ verbose</text>
<text text-anchor="start" x="8" y="-626.5" font-family="Iosevka" font-size="10.00">+ dateStamp</text>
<text text-anchor="start" x="8" y="-615.5" font-family="Iosevka" font-size="10.00">+ uuid</text>
<text text-anchor="start" x="8" y="-604.5" font-family="Iosevka" font-size="10.00">+ paths</text>
<text text-anchor="start" x="8" y="-593.5" font-family="Iosevka" font-size="10.00">+ fullName</text>
<text text-anchor="start" x="8" y="-582.5" font-family="Iosevka" font-size="10.00"># cloning</text>
<text text-anchor="start" x="8" y="-571.5" font-family="Iosevka" font-size="10.00"># mversion</text>
<text text-anchor="start" x="8" y="-560.5" font-family="Iosevka" font-size="10.00"># className</text>
<text text-anchor="start" x="8" y="-549.5" font-family="Iosevka" font-size="10.00"># savePrefix</text>
<polyline fill="none" stroke="black" points="0,-542.5 167,-542.5 "/>
<text text-anchor="start" x="8" y="-530.5" font-family="Iosevka" font-size="10.00">+ optickaCore()</text>
<text text-anchor="start" x="8" y="-519.5" font-family="Iosevka" font-size="10.00">+ fullName()</text>
<text text-anchor="start" x="8" y="-508.5" font-family="Iosevka" font-size="10.00">+ initialiseSaveFile()</text>
<text text-anchor="start" x="8" y="-497.5" font-family="Iosevka" font-size="10.00">+ findAttributes()</text>
<text text-anchor="start" x="8" y="-486.5" font-family="Iosevka" font-size="10.00">+ findAttributesandType()</text>
<text text-anchor="start" x="8" y="-475.5" font-family="Iosevka" font-size="10.00">+ clone()</text>
<text text-anchor="start" x="8" y="-464.5" font-family="Iosevka" font-size="10.00">+ checkSuperclasses()</text>
<text text-anchor="start" x="8" y="-453.5" font-family="Iosevka" font-size="10.00">+ editProperties()</text>
<text text-anchor="start" x="8" y="-442.5" font-family="Iosevka" font-size="10.00">+ set()</text>
<text text-anchor="start" x="8" y="-431.5" font-family="Iosevka" font-size="10.00">+ checkPaths()</text>
<text text-anchor="start" x="8" y="-420.5" font-family="Iosevka" font-size="10.00">+ makeArgs()</text>
<text text-anchor="start" x="8" y="-409.5" font-family="Iosevka" font-size="10.00">+ addDefaults()</text>
<text text-anchor="start" x="8" y="-398.5" font-family="Iosevka" font-size="10.00"># parseArgs()</text>
<text text-anchor="start" x="8" y="-387.5" font-family="Iosevka" font-size="10.00"># addArgs()</text>
<text text-anchor="start" x="8" y="-376.5" font-family="Iosevka" font-size="10.00"># setPaths()</text>
<text text-anchor="start" x="8" y="-365.5" font-family="Iosevka" font-size="10.00"># toStructure()</text>
<text text-anchor="start" x="8" y="-354.5" font-family="Iosevka" font-size="10.00"># getType()</text>
<text text-anchor="start" x="8" y="-343.5" font-family="Iosevka" font-size="10.00"># salutation()</text>
</a>
</g>
</g>
<!-- Node2&#45;&gt;Node1 -->
<g id="edge1" class="edge">
<title>Node2&#45;&gt;Node1</title>
<path fill="none" stroke="midnightblue" d="M83.5,-326.17C83.5,-317.24 83.5,-308.33 83.5,-299.53"/>
<polygon fill="none" stroke="midnightblue" points="80,-326.25 83.5,-336.25 87,-326.25 80,-326.25"/>
</g>
<!-- Node3 -->
<g id="node3" class="node">
<title>Node3</title>
<g id="a_node3"><a xlink:title=" ">
<polygon fill="none" stroke="black" points="57,-727.5 57,-784.5 110,-784.5 110,-727.5 57,-727.5"/>
<text text-anchor="middle" x="83.5" y="-772.5" font-family="Iosevka" font-size="10.00">handle</text>
<polyline fill="none" stroke="black" points="57,-765.5 110,-765.5 "/>
<text text-anchor="middle" x="83.5" y="-753.5" font-family="Iosevka" font-size="10.00"> </text>
<polyline fill="none" stroke="black" points="57,-746.5 110,-746.5 "/>
<text text-anchor="middle" x="83.5" y="-734.5" font-family="Iosevka" font-size="10.00"> </text>
</a>
</g>
</g>
<!-- Node3&#45;&gt;Node2 -->
<g id="edge2" class="edge">
<title>Node3&#45;&gt;Node2</title>
<path fill="none" stroke="midnightblue" d="M83.5,-717.18C83.5,-709.22 83.5,-700.35 83.5,-690.87"/>
<polygon fill="none" stroke="midnightblue" points="80,-717.41 83.5,-727.41 87,-717.41 80,-717.41"/>
</g>
</g>
</svg>
