<?xml version="1.0" encoding="UTF-8" standalone="no"?>
<!DOCTYPE svg PUBLIC "-//W3C//DTD SVG 1.1//EN"
 "http://www.w3.org/Graphics/SVG/1.1/DTD/svg11.dtd">
<!-- Generated by graphviz version 2.43.0 (0)
 -->
<!-- Title: arduinoSerial Pages: 1 -->
<svg width="111pt" height="280pt"
 viewBox="0.00 0.00 111.00 280.00" xmlns="http://www.w3.org/2000/svg" xmlns:xlink="http://www.w3.org/1999/xlink">
<g id="graph0" class="graph" transform="scale(1 1) rotate(0) translate(4 276)">
<title>arduinoSerial</title>
<!-- Node1 -->
<g id="node1" class="node">
<title>Node1</title>
<g id="a_node1"><a xlink:title=" ">
<polygon fill="#999999" stroke="#666666" points="103,-206 0,-206 0,0 103,0 103,-206"/>
<text text-anchor="middle" x="51.5" y="-194" font-family="Iosevka" font-size="10.00">{arduinoSerial</text>
<text text-anchor="start" x="8" y="-183" font-family="Iosevka" font-size="10.00">|+ chks</text>
<text text-anchor="start" x="8" y="-172" font-family="Iosevka" font-size="10.00">+ chkp</text>
<text text-anchor="start" x="8" y="-161" font-family="Iosevka" font-size="10.00">|+ arduinoSerial()</text>
<text text-anchor="start" x="8" y="-150" font-family="Iosevka" font-size="10.00">+ delete()</text>
<text text-anchor="start" x="8" y="-139" font-family="Iosevka" font-size="10.00">+ disp()</text>
<text text-anchor="start" x="8" y="-128" font-family="Iosevka" font-size="10.00">+ serial()</text>
<text text-anchor="start" x="8" y="-117" font-family="Iosevka" font-size="10.00">+ flush()</text>
<text text-anchor="start" x="8" y="-106" font-family="Iosevka" font-size="10.00">+ pinMode()</text>
<text text-anchor="start" x="8" y="-95" font-family="Iosevka" font-size="10.00">+ digitalRead()</text>
<text text-anchor="start" x="8" y="-84" font-family="Iosevka" font-size="10.00">+ digitalWrite()</text>
<text text-anchor="start" x="8" y="-73" font-family="Iosevka" font-size="10.00">+ timedTTL()</text>
<text text-anchor="start" x="8" y="-62" font-family="Iosevka" font-size="10.00">+ analogRead()</text>
<text text-anchor="start" x="8" y="-51" font-family="Iosevka" font-size="10.00">and 18 more...</text>
<text text-anchor="start" x="8" y="-40" font-family="Iosevka" font-size="10.00">+ checknum()</text>
<text text-anchor="start" x="8" y="-29" font-family="Iosevka" font-size="10.00">+ checkstr()</text>
<text text-anchor="start" x="8" y="-18" font-family="Iosevka" font-size="10.00">+ checkser()</text>
<text text-anchor="middle" x="51.5" y="-7" font-family="Iosevka" font-size="10.00">}</text>
</a>
</g>
</g>
<!-- Node2 -->
<g id="node2" class="node">
<title>Node2</title>
<g id="a_node2"><a xlink:title=" ">
<polygon fill="white" stroke="#666666" points="79.5,-272 23.5,-272 23.5,-242 79.5,-242 79.5,-272"/>
<text text-anchor="middle" x="51.5" y="-260" font-family="Iosevka" font-size="10.00">{handle</text>
<text text-anchor="middle" x="51.5" y="-249" font-family="Iosevka" font-size="10.00">||}</text>
</a>
</g>
</g>
<!-- Node2&#45;&gt;Node1 -->
<g id="edge1" class="edge">
<title>Node2&#45;&gt;Node1</title>
<path fill="none" stroke="#63b8ff" d="M51.5,-231.72C51.5,-224.27 51.5,-215.56 51.5,-206.26"/>
<polygon fill="none" stroke="#63b8ff" points="48,-231.97 51.5,-241.97 55,-231.97 48,-231.97"/>
</g>
</g>
</svg>
