<?xml version="1.0" encoding="UTF-8" standalone="no"?>
<!DOCTYPE svg PUBLIC "-//W3C//DTD SVG 1.1//EN"
 "http://www.w3.org/Graphics/SVG/1.1/DTD/svg11.dtd">
<!-- Generated by graphviz version 2.43.0 (0)
 -->
<!-- Title: dotsStimulus Pages: 1 -->
<svg width="232pt" height="1947pt"
 viewBox="0.00 0.00 232.00 1947.00" xmlns="http://www.w3.org/2000/svg" xmlns:xlink="http://www.w3.org/1999/xlink">
<g id="graph0" class="graph" transform="scale(1 1) rotate(0) translate(4 1943)">
<title>dotsStimulus</title>
<!-- Node1 -->
<g id="Node000001" class="node">
<title>Node1</title>
<g id="a_Node000001"><a xlink:title="dotsStimulus simple variable coherence dots stimulus, inherits from baseStimulus">
<polygon fill="#999999" stroke="transparent" points="177.5,-439 73.5,-439 73.5,0 177.5,0 177.5,-439"/>
<text text-anchor="start" x="95.5" y="-426.5" font-family="Iosevka" font-size="10.00">dotsStimulus</text>
<text text-anchor="start" x="77.5" y="-411.5" font-family="Iosevka" font-size="10.00">+</text>
<text text-anchor="start" x="88.5" y="-411.5" font-family="Iosevka" font-size="10.00">type</text>
<text text-anchor="start" x="77.5" y="-396.5" font-family="Iosevka" font-size="10.00">+</text>
<text text-anchor="start" x="88.5" y="-396.5" font-family="Iosevka" font-size="10.00">density</text>
<text text-anchor="start" x="77.5" y="-381.5" font-family="Iosevka" font-size="10.00">+</text>
<text text-anchor="start" x="88.5" y="-381.5" font-family="Iosevka" font-size="10.00">colourType</text>
<text text-anchor="start" x="77.5" y="-366.5" font-family="Iosevka" font-size="10.00">+</text>
<text text-anchor="start" x="88.5" y="-366.5" font-family="Iosevka" font-size="10.00">dotSize</text>
<text text-anchor="start" x="77.5" y="-351.5" font-family="Iosevka" font-size="10.00">+</text>
<text text-anchor="start" x="88.5" y="-351.5" font-family="Iosevka" font-size="10.00">coherence</text>
<text text-anchor="start" x="77.5" y="-336.5" font-family="Iosevka" font-size="10.00">+</text>
<text text-anchor="start" x="88.5" y="-336.5" font-family="Iosevka" font-size="10.00">angleProbability</text>
<text text-anchor="start" x="77.5" y="-321.5" font-family="Iosevka" font-size="10.00">+</text>
<text text-anchor="start" x="88.5" y="-321.5" font-family="Iosevka" font-size="10.00">kill</text>
<text text-anchor="start" x="77.5" y="-306.5" font-family="Iosevka" font-size="10.00">+</text>
<text text-anchor="start" x="88.5" y="-306.5" font-family="Iosevka" font-size="10.00">dotType</text>
<text text-anchor="start" x="77.5" y="-291.5" font-family="Iosevka" font-size="10.00">+</text>
<text text-anchor="start" x="88.5" y="-291.5" font-family="Iosevka" font-size="10.00">mask</text>
<text text-anchor="start" x="77.5" y="-276.5" font-family="Iosevka" font-size="10.00">+</text>
<text text-anchor="start" x="88.5" y="-276.5" font-family="Iosevka" font-size="10.00">maskIsProcedural</text>
<text text-anchor="start" x="88.5" y="-261.5" font-family="Iosevka" font-size="10.00">and 8 more...</text>
<text text-anchor="start" x="77.5" y="-246.5" font-family="Iosevka" font-size="10.00">+</text>
<text text-anchor="start" x="88.5" y="-246.5" font-family="Iosevka" font-size="10.00">dotsStimulus()</text>
<text text-anchor="start" x="77.5" y="-231.5" font-family="Iosevka" font-size="10.00">+</text>
<text text-anchor="start" x="88.5" y="-231.5" font-family="Iosevka" font-size="10.00">setup()</text>
<text text-anchor="start" x="77.5" y="-216.5" font-family="Iosevka" font-size="10.00">+</text>
<text text-anchor="start" x="88.5" y="-216.5" font-family="Iosevka" font-size="10.00">set_xPositionOut()</text>
<text text-anchor="start" x="77.5" y="-201.5" font-family="Iosevka" font-size="10.00">+</text>
<text text-anchor="start" x="88.5" y="-201.5" font-family="Iosevka" font-size="10.00">set_yPositionOut()</text>
<text text-anchor="start" x="77.5" y="-186.5" font-family="Iosevka" font-size="10.00">+</text>
<text text-anchor="start" x="88.5" y="-186.5" font-family="Iosevka" font-size="10.00">set_sizeOut()</text>
<text text-anchor="start" x="77.5" y="-171.5" font-family="Iosevka" font-size="10.00">+</text>
<text text-anchor="start" x="88.5" y="-171.5" font-family="Iosevka" font-size="10.00">set_dotSizeOut()</text>
<text text-anchor="start" x="77.5" y="-156.5" font-family="Iosevka" font-size="10.00">+</text>
<text text-anchor="start" x="88.5" y="-156.5" font-family="Iosevka" font-size="10.00">set_densityOut()</text>
<text text-anchor="start" x="77.5" y="-141.5" font-family="Iosevka" font-size="10.00">+</text>
<text text-anchor="start" x="88.5" y="-141.5" font-family="Iosevka" font-size="10.00">update()</text>
<text text-anchor="start" x="77.5" y="-126.5" font-family="Iosevka" font-size="10.00">+</text>
<text text-anchor="start" x="88.5" y="-126.5" font-family="Iosevka" font-size="10.00">draw()</text>
<text text-anchor="start" x="77.5" y="-111.5" font-family="Iosevka" font-size="10.00">+</text>
<text text-anchor="start" x="88.5" y="-111.5" font-family="Iosevka" font-size="10.00">animate()</text>
<text text-anchor="start" x="77.5" y="-96.5" font-family="Iosevka" font-size="10.00">+</text>
<text text-anchor="start" x="88.5" y="-96.5" font-family="Iosevka" font-size="10.00">reset()</text>
<text text-anchor="start" x="77.5" y="-81.5" font-family="Iosevka" font-size="10.00">+</text>
<text text-anchor="start" x="88.5" y="-81.5" font-family="Iosevka" font-size="10.00">density()</text>
<text text-anchor="start" x="77.5" y="-66.5" font-family="Iosevka" font-size="10.00">+</text>
<text text-anchor="start" x="88.5" y="-66.5" font-family="Iosevka" font-size="10.00">nDots()</text>
<text text-anchor="start" x="77.5" y="-51.5" font-family="Iosevka" font-size="10.00">#</text>
<text text-anchor="start" x="88.5" y="-51.5" font-family="Iosevka" font-size="10.00">setRect()</text>
<text text-anchor="start" x="77.5" y="-36.5" font-family="Iosevka" font-size="10.00">#</text>
<text text-anchor="start" x="88.5" y="-36.5" font-family="Iosevka" font-size="10.00">updateDots()</text>
<text text-anchor="start" x="77.5" y="-21.5" font-family="Iosevka" font-size="10.00">#</text>
<text text-anchor="start" x="88.5" y="-21.5" font-family="Iosevka" font-size="10.00">makeColours()</text>
<text text-anchor="start" x="77.5" y="-6.5" font-family="Iosevka" font-size="10.00">#</text>
<text text-anchor="start" x="88.5" y="-6.5" font-family="Iosevka" font-size="10.00">makeMask()</text>
<polygon fill="#666666" stroke="#666666" points="73.5,-421.5 73.5,-421.5 177.5,-421.5 177.5,-421.5 73.5,-421.5"/>
<polygon fill="#666666" stroke="#666666" points="73.5,-256.5 73.5,-256.5 86.5,-256.5 86.5,-256.5 73.5,-256.5"/>
<polygon fill="#666666" stroke="#666666" points="86.5,-256.5 86.5,-256.5 177.5,-256.5 177.5,-256.5 86.5,-256.5"/>
<polygon fill="none" stroke="#666666" points="73.5,0 73.5,-439 177.5,-439 177.5,0 73.5,0"/>
</a>
</g>
</g>
<!-- Node2 -->
<g id="Node000002" class="node">
<title>Node2</title>
<g id="a_Node000002"><a xlink:href="classbase_stimulus.html" target="_top" xlink:title="baseStimulus is the superclass for all stimulus objects">
<polygon fill="white" stroke="transparent" points="198.5,-1184 52.5,-1184 52.5,-475 198.5,-475 198.5,-1184"/>
<text text-anchor="start" x="95" y="-1171.5" font-family="Iosevka" font-size="10.00">baseStimulus</text>
<text text-anchor="start" x="56.5" y="-1156.5" font-family="Iosevka" font-size="10.00">+</text>
<text text-anchor="start" x="67.5" y="-1156.5" font-family="Iosevka" font-size="10.00">type</text>
<text text-anchor="start" x="56.5" y="-1141.5" font-family="Iosevka" font-size="10.00">+</text>
<text text-anchor="start" x="67.5" y="-1141.5" font-family="Iosevka" font-size="10.00">xPosition</text>
<text text-anchor="start" x="56.5" y="-1126.5" font-family="Iosevka" font-size="10.00">+</text>
<text text-anchor="start" x="67.5" y="-1126.5" font-family="Iosevka" font-size="10.00">yPosition</text>
<text text-anchor="start" x="56.5" y="-1111.5" font-family="Iosevka" font-size="10.00">+</text>
<text text-anchor="start" x="67.5" y="-1111.5" font-family="Iosevka" font-size="10.00">size</text>
<text text-anchor="start" x="56.5" y="-1096.5" font-family="Iosevka" font-size="10.00">+</text>
<text text-anchor="start" x="67.5" y="-1096.5" font-family="Iosevka" font-size="10.00">colour</text>
<text text-anchor="start" x="56.5" y="-1081.5" font-family="Iosevka" font-size="10.00">+</text>
<text text-anchor="start" x="67.5" y="-1081.5" font-family="Iosevka" font-size="10.00">alpha</text>
<text text-anchor="start" x="56.5" y="-1066.5" font-family="Iosevka" font-size="10.00">+</text>
<text text-anchor="start" x="67.5" y="-1066.5" font-family="Iosevka" font-size="10.00">startPosition</text>
<text text-anchor="start" x="56.5" y="-1051.5" font-family="Iosevka" font-size="10.00">+</text>
<text text-anchor="start" x="67.5" y="-1051.5" font-family="Iosevka" font-size="10.00">speed</text>
<text text-anchor="start" x="56.5" y="-1036.5" font-family="Iosevka" font-size="10.00">+</text>
<text text-anchor="start" x="67.5" y="-1036.5" font-family="Iosevka" font-size="10.00">angle</text>
<text text-anchor="start" x="56.5" y="-1021.5" font-family="Iosevka" font-size="10.00">+</text>
<text text-anchor="start" x="67.5" y="-1021.5" font-family="Iosevka" font-size="10.00">delayTime</text>
<text text-anchor="start" x="67.5" y="-1006.5" font-family="Iosevka" font-size="10.00">and 20 more...</text>
<text text-anchor="start" x="56.5" y="-991.5" font-family="Iosevka" font-size="10.00">#</text>
<text text-anchor="start" x="67.5" y="-991.5" font-family="Iosevka" font-size="10.00">family</text>
<text text-anchor="start" x="56.5" y="-976.5" font-family="Iosevka" font-size="10.00">#</text>
<text text-anchor="start" x="67.5" y="-976.5" font-family="Iosevka" font-size="10.00">texture</text>
<text text-anchor="start" x="56.5" y="-961.5" font-family="Iosevka" font-size="10.00">#</text>
<text text-anchor="start" x="67.5" y="-961.5" font-family="Iosevka" font-size="10.00">handles</text>
<text text-anchor="start" x="56.5" y="-946.5" font-family="Iosevka" font-size="10.00">#</text>
<text text-anchor="start" x="67.5" y="-946.5" font-family="Iosevka" font-size="10.00">sM</text>
<text text-anchor="start" x="56.5" y="-931.5" font-family="Iosevka" font-size="10.00">#</text>
<text text-anchor="start" x="67.5" y="-931.5" font-family="Iosevka" font-size="10.00">animator</text>
<text text-anchor="start" x="56.5" y="-916.5" font-family="Iosevka" font-size="10.00">#</text>
<text text-anchor="start" x="67.5" y="-916.5" font-family="Iosevka" font-size="10.00">screenVals</text>
<text text-anchor="start" x="56.5" y="-901.5" font-family="Iosevka" font-size="10.00">#</text>
<text text-anchor="start" x="67.5" y="-901.5" font-family="Iosevka" font-size="10.00">isSetup</text>
<text text-anchor="start" x="56.5" y="-886.5" font-family="Iosevka" font-size="10.00">#</text>
<text text-anchor="start" x="67.5" y="-886.5" font-family="Iosevka" font-size="10.00">isGUI</text>
<text text-anchor="start" x="56.5" y="-871.5" font-family="Iosevka" font-size="10.00">#</text>
<text text-anchor="start" x="67.5" y="-871.5" font-family="Iosevka" font-size="10.00">dstRect</text>
<text text-anchor="start" x="56.5" y="-856.5" font-family="Iosevka" font-size="10.00">#</text>
<text text-anchor="start" x="67.5" y="-856.5" font-family="Iosevka" font-size="10.00">mouseValid</text>
<text text-anchor="start" x="67.5" y="-841.5" font-family="Iosevka" font-size="10.00">and 12 more...</text>
<text text-anchor="start" x="56.5" y="-826.5" font-family="Iosevka" font-size="10.00">+</text>
<text text-anchor="start" x="67.5" y="-826.5" font-family="Iosevka" font-size="10.00">setup()</text>
<text text-anchor="start" x="56.5" y="-811.5" font-family="Iosevka" font-size="10.00">+</text>
<text text-anchor="start" x="67.5" y="-811.5" font-family="Iosevka" font-size="10.00">draw()</text>
<text text-anchor="start" x="56.5" y="-796.5" font-family="Iosevka" font-size="10.00">+</text>
<text text-anchor="start" x="67.5" y="-796.5" font-family="Iosevka" font-size="10.00">animate()</text>
<text text-anchor="start" x="56.5" y="-781.5" font-family="Iosevka" font-size="10.00">+</text>
<text text-anchor="start" x="67.5" y="-781.5" font-family="Iosevka" font-size="10.00">update()</text>
<text text-anchor="start" x="56.5" y="-766.5" font-family="Iosevka" font-size="10.00">+</text>
<text text-anchor="start" x="67.5" y="-766.5" font-family="Iosevka" font-size="10.00">reset()</text>
<text text-anchor="start" x="56.5" y="-751.5" font-family="Iosevka" font-size="10.00">+</text>
<text text-anchor="start" x="67.5" y="-751.5" font-family="Iosevka" font-size="10.00">baseStimulus()</text>
<text text-anchor="start" x="56.5" y="-736.5" font-family="Iosevka" font-size="10.00">+</text>
<text text-anchor="start" x="67.5" y="-736.5" font-family="Iosevka" font-size="10.00">colour()</text>
<text text-anchor="start" x="56.5" y="-721.5" font-family="Iosevka" font-size="10.00">+</text>
<text text-anchor="start" x="67.5" y="-721.5" font-family="Iosevka" font-size="10.00">alpha()</text>
<text text-anchor="start" x="56.5" y="-706.5" font-family="Iosevka" font-size="10.00">+</text>
<text text-anchor="start" x="67.5" y="-706.5" font-family="Iosevka" font-size="10.00">delta()</text>
<text text-anchor="start" x="56.5" y="-691.5" font-family="Iosevka" font-size="10.00">+</text>
<text text-anchor="start" x="67.5" y="-691.5" font-family="Iosevka" font-size="10.00">dX()</text>
<text text-anchor="start" x="67.5" y="-676.5" font-family="Iosevka" font-size="10.00">and 18 more...</text>
<text text-anchor="start" x="56.5" y="-661.5" font-family="Iosevka" font-size="10.00">+</text>
<text text-anchor="start" x="67.5" y="-661.5" font-family="Iosevka" font-size="10.00">mixColour()</text>
<text text-anchor="start" x="56.5" y="-646.5" font-family="Iosevka" font-size="10.00">+</text>
<text text-anchor="start" x="67.5" y="-646.5" font-family="Iosevka" font-size="10.00">d2r()</text>
<text text-anchor="start" x="56.5" y="-631.5" font-family="Iosevka" font-size="10.00">+</text>
<text text-anchor="start" x="67.5" y="-631.5" font-family="Iosevka" font-size="10.00">r2d()</text>
<text text-anchor="start" x="56.5" y="-616.5" font-family="Iosevka" font-size="10.00">+</text>
<text text-anchor="start" x="67.5" y="-616.5" font-family="Iosevka" font-size="10.00">findDistance()</text>
<text text-anchor="start" x="56.5" y="-601.5" font-family="Iosevka" font-size="10.00">+</text>
<text text-anchor="start" x="67.5" y="-601.5" font-family="Iosevka" font-size="10.00">updatePosition()</text>
<text text-anchor="start" x="56.5" y="-586.5" font-family="Iosevka" font-size="10.00">#</text>
<text text-anchor="start" x="67.5" y="-586.5" font-family="Iosevka" font-size="10.00">addRuntimeProperties()</text>
<text text-anchor="start" x="56.5" y="-571.5" font-family="Iosevka" font-size="10.00">#</text>
<text text-anchor="start" x="67.5" y="-571.5" font-family="Iosevka" font-size="10.00">updateRuntimeProperties()</text>
<text text-anchor="start" x="56.5" y="-556.5" font-family="Iosevka" font-size="10.00">#</text>
<text text-anchor="start" x="67.5" y="-556.5" font-family="Iosevka" font-size="10.00">computePosition()</text>
<text text-anchor="start" x="56.5" y="-541.5" font-family="Iosevka" font-size="10.00">#</text>
<text text-anchor="start" x="67.5" y="-541.5" font-family="Iosevka" font-size="10.00">setAnimationDelta()</text>
<text text-anchor="start" x="56.5" y="-526.5" font-family="Iosevka" font-size="10.00">#</text>
<text text-anchor="start" x="67.5" y="-526.5" font-family="Iosevka" font-size="10.00">setRect()</text>
<text text-anchor="start" x="56.5" y="-511.5" font-family="Iosevka" font-size="10.00">#</text>
<text text-anchor="start" x="67.5" y="-511.5" font-family="Iosevka" font-size="10.00">toStructure()</text>
<text text-anchor="start" x="56.5" y="-496.5" font-family="Iosevka" font-size="10.00">#</text>
<text text-anchor="start" x="67.5" y="-496.5" font-family="Iosevka" font-size="10.00">removeTmpProperties()</text>
<text text-anchor="start" x="56.5" y="-481.5" font-family="Iosevka" font-size="10.00">#</text>
<text text-anchor="start" x="67.5" y="-481.5" font-family="Iosevka" font-size="10.00">delete()</text>
<polygon fill="#666666" stroke="#666666" points="52.5,-1166.5 52.5,-1166.5 198.5,-1166.5 198.5,-1166.5 52.5,-1166.5"/>
<polygon fill="#666666" stroke="#666666" points="52.5,-836.5 52.5,-836.5 65.5,-836.5 65.5,-836.5 52.5,-836.5"/>
<polygon fill="#666666" stroke="#666666" points="65.5,-836.5 65.5,-836.5 198.5,-836.5 198.5,-836.5 65.5,-836.5"/>
<polygon fill="none" stroke="#666666" points="52.5,-475 52.5,-1184 198.5,-1184 198.5,-475 52.5,-475"/>
</a>
</g>
</g>
<!-- Node2&#45;&gt;Node1 -->
<g id="edge1_Node000001_Node000002" class="edge">
<title>Node2&#45;&gt;Node1</title>
<g id="a_edge1_Node000001_Node000002"><a xlink:title=" ">
<path fill="none" stroke="#63b8ff" d="M125.5,-464.71C125.5,-456.12 125.5,-447.6 125.5,-439.17"/>
<polygon fill="none" stroke="#63b8ff" points="122,-464.82 125.5,-474.82 129,-464.82 122,-464.82"/>
</a>
</g>
</g>
<!-- Node3 -->
<g id="Node000003" class="node">
<title>Node3</title>
<g id="a_Node000003"><a xlink:href="classopticka_core.html" target="_top" xlink:title="optickaCore base class inherited by other opticka classes.">
<polygon fill="white" stroke="transparent" points="131,-1854 0,-1854 0,-1220 131,-1220 131,-1854"/>
<text text-anchor="start" x="38.5" y="-1842" font-family="Iosevka" font-size="10.00">optickaCore</text>
<text text-anchor="start" x="4.5" y="-1827" font-family="Iosevka" font-size="10.00">+</text>
<text text-anchor="start" x="15.5" y="-1827" font-family="Iosevka" font-size="10.00">name</text>
<text text-anchor="start" x="4.5" y="-1812" font-family="Iosevka" font-size="10.00">+</text>
<text text-anchor="start" x="15.5" y="-1812" font-family="Iosevka" font-size="10.00">comment</text>
<text text-anchor="start" x="4.5" y="-1797" font-family="Iosevka" font-size="10.00">+</text>
<text text-anchor="start" x="15.5" y="-1797" font-family="Iosevka" font-size="10.00">verbose</text>
<text text-anchor="start" x="4.5" y="-1782" font-family="Iosevka" font-size="10.00">+</text>
<text text-anchor="start" x="15.5" y="-1782" font-family="Iosevka" font-size="10.00">optickaVersion</text>
<text text-anchor="start" x="4.5" y="-1767" font-family="Iosevka" font-size="10.00">+</text>
<text text-anchor="start" x="15.5" y="-1767" font-family="Iosevka" font-size="10.00">dateStamp</text>
<text text-anchor="start" x="4.5" y="-1752" font-family="Iosevka" font-size="10.00">+</text>
<text text-anchor="start" x="15.5" y="-1752" font-family="Iosevka" font-size="10.00">uuid</text>
<text text-anchor="start" x="4.5" y="-1737" font-family="Iosevka" font-size="10.00">+</text>
<text text-anchor="start" x="15.5" y="-1737" font-family="Iosevka" font-size="10.00">paths</text>
<text text-anchor="start" x="4.5" y="-1722" font-family="Iosevka" font-size="10.00">+</text>
<text text-anchor="start" x="15.5" y="-1722" font-family="Iosevka" font-size="10.00">fullName</text>
<text text-anchor="start" x="4.5" y="-1707" font-family="Iosevka" font-size="10.00">#</text>
<text text-anchor="start" x="15.5" y="-1707" font-family="Iosevka" font-size="10.00">cloning</text>
<text text-anchor="start" x="4.5" y="-1692" font-family="Iosevka" font-size="10.00">#</text>
<text text-anchor="start" x="15.5" y="-1692" font-family="Iosevka" font-size="10.00">mversion</text>
<text text-anchor="start" x="4.5" y="-1677" font-family="Iosevka" font-size="10.00">#</text>
<text text-anchor="start" x="15.5" y="-1677" font-family="Iosevka" font-size="10.00">sansFont</text>
<text text-anchor="start" x="4.5" y="-1662" font-family="Iosevka" font-size="10.00">#</text>
<text text-anchor="start" x="15.5" y="-1662" font-family="Iosevka" font-size="10.00">monoFont</text>
<text text-anchor="start" x="4.5" y="-1647" font-family="Iosevka" font-size="10.00">#</text>
<text text-anchor="start" x="15.5" y="-1647" font-family="Iosevka" font-size="10.00">className</text>
<text text-anchor="start" x="4.5" y="-1632" font-family="Iosevka" font-size="10.00">#</text>
<text text-anchor="start" x="15.5" y="-1632" font-family="Iosevka" font-size="10.00">savePrefix</text>
<text text-anchor="start" x="4.5" y="-1617" font-family="Iosevka" font-size="10.00">#</text>
<text text-anchor="start" x="15.5" y="-1617" font-family="Iosevka" font-size="10.00">fullName_</text>
<text text-anchor="start" x="4.5" y="-1602" font-family="Iosevka" font-size="10.00">+</text>
<text text-anchor="start" x="15.5" y="-1602" font-family="Iosevka" font-size="10.00">optickaCore()</text>
<text text-anchor="start" x="4.5" y="-1587" font-family="Iosevka" font-size="10.00">+</text>
<text text-anchor="start" x="15.5" y="-1587" font-family="Iosevka" font-size="10.00">fullName()</text>
<text text-anchor="start" x="4.5" y="-1572" font-family="Iosevka" font-size="10.00">+</text>
<text text-anchor="start" x="15.5" y="-1572" font-family="Iosevka" font-size="10.00">getALF()</text>
<text text-anchor="start" x="4.5" y="-1557" font-family="Iosevka" font-size="10.00">+</text>
<text text-anchor="start" x="15.5" y="-1557" font-family="Iosevka" font-size="10.00">makeReport()</text>
<text text-anchor="start" x="4.5" y="-1542" font-family="Iosevka" font-size="10.00">+</text>
<text text-anchor="start" x="15.5" y="-1542" font-family="Iosevka" font-size="10.00">findAttributes()</text>
<text text-anchor="start" x="4.5" y="-1527" font-family="Iosevka" font-size="10.00">+</text>
<text text-anchor="start" x="15.5" y="-1527" font-family="Iosevka" font-size="10.00">findAttributesandType()</text>
<text text-anchor="start" x="4.5" y="-1512" font-family="Iosevka" font-size="10.00">+</text>
<text text-anchor="start" x="15.5" y="-1512" font-family="Iosevka" font-size="10.00">findPropertyDefault()</text>
<text text-anchor="start" x="4.5" y="-1497" font-family="Iosevka" font-size="10.00">+</text>
<text text-anchor="start" x="15.5" y="-1497" font-family="Iosevka" font-size="10.00">clone()</text>
<text text-anchor="start" x="4.5" y="-1482" font-family="Iosevka" font-size="10.00">+</text>
<text text-anchor="start" x="15.5" y="-1482" font-family="Iosevka" font-size="10.00">checkSuperclasses()</text>
<text text-anchor="start" x="4.5" y="-1467" font-family="Iosevka" font-size="10.00">+</text>
<text text-anchor="start" x="15.5" y="-1467" font-family="Iosevka" font-size="10.00">editProperties()</text>
<text text-anchor="start" x="4.5" y="-1452" font-family="Iosevka" font-size="10.00">+</text>
<text text-anchor="start" x="15.5" y="-1452" font-family="Iosevka" font-size="10.00">setProp()</text>
<text text-anchor="start" x="4.5" y="-1437" font-family="Iosevka" font-size="10.00">+</text>
<text text-anchor="start" x="15.5" y="-1437" font-family="Iosevka" font-size="10.00">initialiseSaveFile()</text>
<text text-anchor="start" x="4.5" y="-1422" font-family="Iosevka" font-size="10.00">+</text>
<text text-anchor="start" x="15.5" y="-1422" font-family="Iosevka" font-size="10.00">checkPaths()</text>
<text text-anchor="start" x="4.5" y="-1407" font-family="Iosevka" font-size="10.00">+</text>
<text text-anchor="start" x="15.5" y="-1407" font-family="Iosevka" font-size="10.00">initialiseGlobals()</text>
<text text-anchor="start" x="4.5" y="-1392" font-family="Iosevka" font-size="10.00">+</text>
<text text-anchor="start" x="15.5" y="-1392" font-family="Iosevka" font-size="10.00">makeArgs()</text>
<text text-anchor="start" x="4.5" y="-1377" font-family="Iosevka" font-size="10.00">+</text>
<text text-anchor="start" x="15.5" y="-1377" font-family="Iosevka" font-size="10.00">addDefaults()</text>
<text text-anchor="start" x="4.5" y="-1362" font-family="Iosevka" font-size="10.00">+</text>
<text text-anchor="start" x="15.5" y="-1362" font-family="Iosevka" font-size="10.00">hasKey()</text>
<text text-anchor="start" x="4.5" y="-1347" font-family="Iosevka" font-size="10.00">+</text>
<text text-anchor="start" x="15.5" y="-1347" font-family="Iosevka" font-size="10.00">getKeys()</text>
<text text-anchor="start" x="4.5" y="-1332" font-family="Iosevka" font-size="10.00">#</text>
<text text-anchor="start" x="15.5" y="-1332" font-family="Iosevka" font-size="10.00">parseArgs()</text>
<text text-anchor="start" x="4.5" y="-1317" font-family="Iosevka" font-size="10.00">#</text>
<text text-anchor="start" x="15.5" y="-1317" font-family="Iosevka" font-size="10.00">addArgs()</text>
<text text-anchor="start" x="4.5" y="-1302" font-family="Iosevka" font-size="10.00">#</text>
<text text-anchor="start" x="15.5" y="-1302" font-family="Iosevka" font-size="10.00">setPaths()</text>
<text text-anchor="start" x="4.5" y="-1287" font-family="Iosevka" font-size="10.00">#</text>
<text text-anchor="start" x="15.5" y="-1287" font-family="Iosevka" font-size="10.00">getFonts()</text>
<text text-anchor="start" x="4.5" y="-1272" font-family="Iosevka" font-size="10.00">#</text>
<text text-anchor="start" x="15.5" y="-1272" font-family="Iosevka" font-size="10.00">toStructure()</text>
<text text-anchor="start" x="4.5" y="-1257" font-family="Iosevka" font-size="10.00">#</text>
<text text-anchor="start" x="15.5" y="-1257" font-family="Iosevka" font-size="10.00">getType()</text>
<text text-anchor="start" x="4.5" y="-1242" font-family="Iosevka" font-size="10.00">#</text>
<text text-anchor="start" x="15.5" y="-1242" font-family="Iosevka" font-size="10.00">logOutput()</text>
<text text-anchor="start" x="4.5" y="-1227" font-family="Iosevka" font-size="10.00">#</text>
<text text-anchor="start" x="15.5" y="-1227" font-family="Iosevka" font-size="10.00">salutation()</text>
<polygon fill="#666666" stroke="#666666" points="0.5,-1837 0.5,-1837 131.5,-1837 131.5,-1837 0.5,-1837"/>
<polygon fill="#666666" stroke="#666666" points="0.5,-1612 0.5,-1612 13.5,-1612 13.5,-1612 0.5,-1612"/>
<polygon fill="#666666" stroke="#666666" points="13.5,-1612 13.5,-1612 131.5,-1612 131.5,-1612 13.5,-1612"/>
<polygon fill="none" stroke="#666666" points="0,-1220 0,-1854 131,-1854 131,-1220 0,-1220"/>
</a>
</g>
</g>
<!-- Node3&#45;&gt;Node2 -->
<g id="edge2_Node000002_Node000003" class="edge">
<title>Node3&#45;&gt;Node2</title>
<g id="a_edge2_Node000002_Node000003"><a xlink:title=" ">
<path fill="none" stroke="#63b8ff" d="M93.24,-1209.81C93.97,-1201.23 94.7,-1192.63 95.43,-1184.02"/>
<polygon fill="none" stroke="#63b8ff" points="89.74,-1209.62 92.38,-1219.88 96.72,-1210.21 89.74,-1209.62"/>
</a>
</g>
</g>
<!-- Node4 -->
<g id="Node000004" class="node">
<title>Node4</title>
<g id="a_Node000004"><a xlink:title=" ">
<polygon fill="white" stroke="transparent" points="86.5,-1939 44.5,-1939 44.5,-1890 86.5,-1890 86.5,-1939"/>
<text text-anchor="start" x="49.5" y="-1926.5" font-family="Iosevka" font-size="10.00">handle</text>
<text text-anchor="start" x="64" y="-1911.5" font-family="Iosevka" font-size="10.00"> </text>
<text text-anchor="start" x="64" y="-1896.5" font-family="Iosevka" font-size="10.00"> </text>
<polygon fill="#666666" stroke="#666666" points="44.5,-1921.5 44.5,-1921.5 86.5,-1921.5 86.5,-1921.5 44.5,-1921.5"/>
<polygon fill="#666666" stroke="#666666" points="44.5,-1906.5 44.5,-1906.5 86.5,-1906.5 86.5,-1906.5 44.5,-1906.5"/>
<polygon fill="none" stroke="#666666" points="44.5,-1890 44.5,-1939 86.5,-1939 86.5,-1890 44.5,-1890"/>
</a>
</g>
</g>
<!-- Node4&#45;&gt;Node3 -->
<g id="edge3_Node000003_Node000004" class="edge">
<title>Node4&#45;&gt;Node3</title>
<g id="a_edge3_Node000003_Node000004"><a xlink:title=" ">
<path fill="none" stroke="#63b8ff" d="M65.5,-1879.49C65.5,-1871.99 65.5,-1863.45 65.5,-1854.1"/>
<polygon fill="none" stroke="#63b8ff" points="62,-1879.73 65.5,-1889.73 69,-1879.73 62,-1879.73"/>
</a>
</g>
</g>
<!-- Node5 -->
<g id="Node000005" class="node">
<title>Node5</title>
<g id="a_Node000005"><a xlink:title=" ">
<polygon fill="white" stroke="transparent" points="224,-1561.5 149,-1561.5 149,-1512.5 224,-1512.5 224,-1561.5"/>
<text text-anchor="start" x="154.5" y="-1549" font-family="Iosevka" font-size="10.00">dynamicprops</text>
<text text-anchor="start" x="185.5" y="-1534" font-family="Iosevka" font-size="10.00"> </text>
<text text-anchor="start" x="185.5" y="-1519" font-family="Iosevka" font-size="10.00"> </text>
<polygon fill="#666666" stroke="#666666" points="149.5,-1544 149.5,-1544 224.5,-1544 224.5,-1544 149.5,-1544"/>
<polygon fill="#666666" stroke="#666666" points="149.5,-1529 149.5,-1529 224.5,-1529 224.5,-1529 149.5,-1529"/>
<polygon fill="none" stroke="#666666" points="149,-1512.5 149,-1561.5 224,-1561.5 224,-1512.5 149,-1512.5"/>
</a>
</g>
</g>
<!-- Node5&#45;&gt;Node2 -->
<g id="edge4_Node000002_Node000005" class="edge">
<title>Node5&#45;&gt;Node2</title>
<g id="a_edge4_Node000002_Node000005"><a xlink:title=" ">
<path fill="none" stroke="#63b8ff" d="M183.54,-1501.82C178.39,-1442.22 167.24,-1313.27 156.08,-1184.16"/>
<polygon fill="none" stroke="#63b8ff" points="180.09,-1502.46 184.44,-1512.12 187.06,-1501.86 180.09,-1502.46"/>
</a>
</g>
</g>
</g>
</svg>
