<?xml version="1.0" encoding="UTF-8" standalone="no"?>
<!DOCTYPE svg PUBLIC "-//W3C//DTD SVG 1.1//EN"
 "http://www.w3.org/Graphics/SVG/1.1/DTD/svg11.dtd">
<!-- Generated by graphviz version 2.43.0 (0)
 -->
<!-- Title: parseOpxSpikes Pages: 1 -->
<svg width="124pt" height="192pt"
 viewBox="0.00 0.00 124.00 192.00" xmlns="http://www.w3.org/2000/svg" xmlns:xlink="http://www.w3.org/1999/xlink">
<g id="graph0" class="graph" transform="scale(1 1) rotate(0) translate(4 188)">
<title>parseOpxSpikes</title>
<!-- Node1 -->
<g id="node1" class="node">
<title>Node1</title>
<g id="a_node1"><a xlink:title=" ">
<polygon fill="#999999" stroke="#666666" points="116,-118 0,-118 0,0 116,0 116,-118"/>
<text text-anchor="middle" x="58" y="-106" font-family="Iosevka" font-size="10.00">{parseOpxSpikes</text>
<text text-anchor="start" x="8" y="-95" font-family="Iosevka" font-size="10.00">|+ stimulus</text>
<text text-anchor="start" x="8" y="-84" font-family="Iosevka" font-size="10.00">|+ parseOpxSpikes()</text>
<text text-anchor="start" x="8" y="-73" font-family="Iosevka" font-size="10.00">+ initialize()</text>
<text text-anchor="start" x="8" y="-62" font-family="Iosevka" font-size="10.00">+ parseRun()</text>
<text text-anchor="start" x="8" y="-51" font-family="Iosevka" font-size="10.00">+ parseNextRun()</text>
<text text-anchor="start" x="8" y="-40" font-family="Iosevka" font-size="10.00">+ parseRuns()</text>
<text text-anchor="start" x="8" y="-29" font-family="Iosevka" font-size="10.00">+ parseAllRuns()</text>
<text text-anchor="start" x="8" y="-18" font-family="Iosevka" font-size="10.00">+ parseBursts()</text>
<text text-anchor="middle" x="58" y="-7" font-family="Iosevka" font-size="10.00">}</text>
</a>
</g>
</g>
<!-- Node2 -->
<g id="node2" class="node">
<title>Node2</title>
<g id="a_node2"><a xlink:title=" ">
<polygon fill="white" stroke="#666666" points="86,-184 30,-184 30,-154 86,-154 86,-184"/>
<text text-anchor="middle" x="58" y="-172" font-family="Iosevka" font-size="10.00">{handle</text>
<text text-anchor="middle" x="58" y="-161" font-family="Iosevka" font-size="10.00">||}</text>
</a>
</g>
</g>
<!-- Node2&#45;&gt;Node1 -->
<g id="edge1" class="edge">
<title>Node2&#45;&gt;Node1</title>
<path fill="none" stroke="#63b8ff" d="M58,-143.86C58,-136.14 58,-127.23 58,-118.16"/>
<polygon fill="none" stroke="#63b8ff" points="54.5,-143.88 58,-153.88 61.5,-143.88 54.5,-143.88"/>
</g>
</g>
</svg>
