<?xml version="1.0" encoding="UTF-8" standalone="no"?>
<!DOCTYPE svg PUBLIC "-//W3C//DTD SVG 1.1//EN"
 "http://www.w3.org/Graphics/SVG/1.1/DTD/svg11.dtd">
<!-- Generated by graphviz version 2.43.0 (0)
 -->
<!-- Title: sendSerialIOPort Pages: 1 -->
<svg width="127pt" height="247pt"
 viewBox="0.00 0.00 127.00 247.00" xmlns="http://www.w3.org/2000/svg" xmlns:xlink="http://www.w3.org/1999/xlink">
<g id="graph0" class="graph" transform="scale(1 1) rotate(0) translate(4 243)">
<title>sendSerialIOPort</title>
<!-- Node1 -->
<g id="node1" class="node">
<title>Node1</title>
<g id="a_node1"><a xlink:title=" ">
<polygon fill="#999999" stroke="#666666" points="119,-173 0,-173 0,0 119,0 119,-173"/>
<text text-anchor="middle" x="59.5" y="-161" font-family="Iosevka" font-size="10.00">{sendSerialIOPort</text>
<text text-anchor="start" x="8" y="-150" font-family="Iosevka" font-size="10.00">|+ name</text>
<text text-anchor="start" x="8" y="-139" font-family="Iosevka" font-size="10.00">+ baudRate</text>
<text text-anchor="start" x="8" y="-128" font-family="Iosevka" font-size="10.00">+ silentMode</text>
<text text-anchor="start" x="8" y="-117" font-family="Iosevka" font-size="10.00">+ verbosity</text>
<text text-anchor="start" x="8" y="-106" font-family="Iosevka" font-size="10.00">+ openNow</text>
<text text-anchor="start" x="8" y="-95" font-family="Iosevka" font-size="10.00">|+ sendSerialIOPort()</text>
<text text-anchor="start" x="8" y="-84" font-family="Iosevka" font-size="10.00">+ open()</text>
<text text-anchor="start" x="8" y="-73" font-family="Iosevka" font-size="10.00">+ find()</text>
<text text-anchor="start" x="8" y="-62" font-family="Iosevka" font-size="10.00">+ close()</text>
<text text-anchor="start" x="8" y="-51" font-family="Iosevka" font-size="10.00">+ setRTS()</text>
<text text-anchor="start" x="8" y="-40" font-family="Iosevka" font-size="10.00">+ toggleRTSLine()</text>
<text text-anchor="start" x="8" y="-29" font-family="Iosevka" font-size="10.00">+ setDTR()</text>
<text text-anchor="start" x="8" y="-18" font-family="Iosevka" font-size="10.00">+ toggleDTRLine()</text>
<text text-anchor="middle" x="59.5" y="-7" font-family="Iosevka" font-size="10.00">}</text>
</a>
</g>
</g>
<!-- Node2 -->
<g id="node2" class="node">
<title>Node2</title>
<g id="a_node2"><a xlink:title=" ">
<polygon fill="white" stroke="#666666" points="87.5,-239 31.5,-239 31.5,-209 87.5,-209 87.5,-239"/>
<text text-anchor="middle" x="59.5" y="-227" font-family="Iosevka" font-size="10.00">{handle</text>
<text text-anchor="middle" x="59.5" y="-216" font-family="Iosevka" font-size="10.00">||}</text>
</a>
</g>
</g>
<!-- Node2&#45;&gt;Node1 -->
<g id="edge1" class="edge">
<title>Node2&#45;&gt;Node1</title>
<path fill="none" stroke="#63b8ff" d="M59.5,-198.74C59.5,-191.24 59.5,-182.51 59.5,-173.3"/>
<polygon fill="none" stroke="#63b8ff" points="56,-198.76 59.5,-208.76 63,-198.76 56,-198.76"/>
</g>
</g>
</svg>
