<?xml version="1.0" encoding="UTF-8" standalone="no"?>
<!DOCTYPE svg PUBLIC "-//W3C//DTD SVG 1.1//EN"
 "http://www.w3.org/Graphics/SVG/1.1/DTD/svg11.dtd">
<!-- Generated by graphviz version 2.50.0 (20211204.2007)
 -->
<!-- Title: parseOpxSpikes Pages: 1 -->
<svg width="133pt" height="226pt"
 viewBox="0.00 0.00 133.00 226.00" xmlns="http://www.w3.org/2000/svg" xmlns:xlink="http://www.w3.org/1999/xlink">
<g id="graph0" class="graph" transform="scale(1 1) rotate(0) translate(4 222)">
<title>parseOpxSpikes</title>
<!-- Node1 -->
<g id="node1" class="node">
<title>Node1</title>
<g id="a_node1"><a xlink:title=" ">
<polygon fill="#bfbfbf" stroke="black" points="0,-0.5 0,-123.5 125,-123.5 125,-0.5 0,-0.5"/>
<text text-anchor="middle" x="62.5" y="-111.5" font-family="Iosevka" font-size="10.00">parseOpxSpikes</text>
<polyline fill="none" stroke="black" points="0,-104.5 125,-104.5 "/>
<text text-anchor="start" x="8" y="-92.5" font-family="Iosevka" font-size="10.00">+ stimulus</text>
<polyline fill="none" stroke="black" points="0,-85.5 125,-85.5 "/>
<text text-anchor="start" x="8" y="-73.5" font-family="Iosevka" font-size="10.00">+ parseOpxSpikes()</text>
<text text-anchor="start" x="8" y="-62.5" font-family="Iosevka" font-size="10.00">+ initialize()</text>
<text text-anchor="start" x="8" y="-51.5" font-family="Iosevka" font-size="10.00">+ parseRun()</text>
<text text-anchor="start" x="8" y="-40.5" font-family="Iosevka" font-size="10.00">+ parseNextRun()</text>
<text text-anchor="start" x="8" y="-29.5" font-family="Iosevka" font-size="10.00">+ parseRuns()</text>
<text text-anchor="start" x="8" y="-18.5" font-family="Iosevka" font-size="10.00">+ parseAllRuns()</text>
<text text-anchor="start" x="8" y="-7.5" font-family="Iosevka" font-size="10.00">+ parseBursts()</text>
</a>
</g>
</g>
<!-- Node2 -->
<g id="node2" class="node">
<title>Node2</title>
<g id="a_node2"><a xlink:title=" ">
<polygon fill="none" stroke="black" points="36,-160.5 36,-217.5 89,-217.5 89,-160.5 36,-160.5"/>
<text text-anchor="middle" x="62.5" y="-205.5" font-family="Iosevka" font-size="10.00">handle</text>
<polyline fill="none" stroke="black" points="36,-198.5 89,-198.5 "/>
<text text-anchor="middle" x="62.5" y="-186.5" font-family="Iosevka" font-size="10.00"> </text>
<polyline fill="none" stroke="black" points="36,-179.5 89,-179.5 "/>
<text text-anchor="middle" x="62.5" y="-167.5" font-family="Iosevka" font-size="10.00"> </text>
</a>
</g>
</g>
<!-- Node2&#45;&gt;Node1 -->
<g id="edge1" class="edge">
<title>Node2&#45;&gt;Node1</title>
<path fill="none" stroke="midnightblue" d="M62.5,-150.1C62.5,-141.74 62.5,-132.68 62.5,-123.67"/>
<polygon fill="none" stroke="midnightblue" points="59,-150.26 62.5,-160.26 66,-150.26 59,-150.26"/>
</g>
</g>
</svg>
