<?xml version="1.0" encoding="UTF-8" standalone="no"?>
<!DOCTYPE svg PUBLIC "-//W3C//DTD SVG 1.1//EN"
 "http://www.w3.org/Graphics/SVG/1.1/DTD/svg11.dtd">
<!-- Generated by graphviz version 2.43.0 (0)
 -->
<!-- Title: tobiiManager Pages: 1 -->
<svg width="272pt" height="1129pt"
 viewBox="0.00 0.00 272.00 1129.00" xmlns="http://www.w3.org/2000/svg" xmlns:xlink="http://www.w3.org/1999/xlink">
<g id="graph0" class="graph" transform="scale(1 1) rotate(0) translate(4 1125)">
<title>tobiiManager</title>
<!-- Node1 -->
<g id="node1" class="node">
<title>Node1</title>
<g id="a_node1"><a xlink:title="Manages the Tobii eyetrackers.">
<polygon fill="#bfbfbf" stroke="black" points="69.5,-0.5 69.5,-266.5 191.5,-266.5 191.5,-0.5 69.5,-0.5"/>
<text text-anchor="middle" x="130.5" y="-254.5" font-family="Iosevka" font-size="10.00">tobiiManager</text>
<polyline fill="none" stroke="black" points="69.5,-247.5 191.5,-247.5 "/>
<text text-anchor="start" x="77.5" y="-235.5" font-family="Iosevka" font-size="10.00">+ type</text>
<text text-anchor="start" x="77.5" y="-224.5" font-family="Iosevka" font-size="10.00">+ calibration</text>
<text text-anchor="start" x="77.5" y="-213.5" font-family="Iosevka" font-size="10.00">+ settings</text>
<text text-anchor="start" x="77.5" y="-202.5" font-family="Iosevka" font-size="10.00">+ tobii</text>
<text text-anchor="start" x="77.5" y="-191.5" font-family="Iosevka" font-size="10.00">+ sampletime</text>
<text text-anchor="start" x="77.5" y="-180.5" font-family="Iosevka" font-size="10.00">+ calib</text>
<text text-anchor="start" x="77.5" y="-169.5" font-family="Iosevka" font-size="10.00"># systemTime</text>
<text text-anchor="start" x="77.5" y="-158.5" font-family="Iosevka" font-size="10.00"># calibData</text>
<text text-anchor="start" x="77.5" y="-147.5" font-family="Iosevka" font-size="10.00"># calStim</text>
<text text-anchor="start" x="77.5" y="-136.5" font-family="Iosevka" font-size="10.00"># allowedProperties</text>
<polyline fill="none" stroke="black" points="69.5,-129.5 191.5,-129.5 "/>
<text text-anchor="start" x="77.5" y="-117.5" font-family="Iosevka" font-size="10.00">+ tobiiManager()</text>
<text text-anchor="start" x="77.5" y="-106.5" font-family="Iosevka" font-size="10.00">+ initialise()</text>
<text text-anchor="start" x="77.5" y="-95.5" font-family="Iosevka" font-size="10.00">+ trackerSetup()</text>
<text text-anchor="start" x="77.5" y="-84.5" font-family="Iosevka" font-size="10.00">+ startRecording()</text>
<text text-anchor="start" x="77.5" y="-73.5" font-family="Iosevka" font-size="10.00">+ stopRecording()</text>
<text text-anchor="start" x="77.5" y="-62.5" font-family="Iosevka" font-size="10.00">+ getSample()</text>
<text text-anchor="start" x="77.5" y="-51.5" font-family="Iosevka" font-size="10.00">+ drawEyePositions()</text>
<text text-anchor="start" x="77.5" y="-40.5" font-family="Iosevka" font-size="10.00">+ saveData()</text>
<text text-anchor="start" x="77.5" y="-29.5" font-family="Iosevka" font-size="10.00">+ trackerMessage()</text>
<text text-anchor="start" x="77.5" y="-18.5" font-family="Iosevka" font-size="10.00">+ close()</text>
<text text-anchor="start" x="77.5" y="-7.5" font-family="Iosevka" font-size="10.00">and 17 more...</text>
</a>
</g>
</g>
<!-- Node2 -->
<g id="node2" class="node">
<title>Node2</title>
<g id="a_node2"><a xlink:href="classeyetracker_core.html" target="_top" xlink:title=" ">
<polygon fill="none" stroke="black" points="0,-303.5 0,-602.5 121,-602.5 121,-303.5 0,-303.5"/>
<text text-anchor="middle" x="60.5" y="-590.5" font-family="Iosevka" font-size="10.00">eyetrackerCore</text>
<polyline fill="none" stroke="black" points="0,-583.5 121,-583.5 "/>
<text text-anchor="start" x="8" y="-571.5" font-family="Iosevka" font-size="10.00">+ type</text>
<text text-anchor="start" x="8" y="-560.5" font-family="Iosevka" font-size="10.00">+ fixation</text>
<text text-anchor="start" x="8" y="-549.5" font-family="Iosevka" font-size="10.00">+ exclusionZone</text>
<text text-anchor="start" x="8" y="-538.5" font-family="Iosevka" font-size="10.00">+ fixInit</text>
<text text-anchor="start" x="8" y="-527.5" font-family="Iosevka" font-size="10.00">+ offset</text>
<text text-anchor="start" x="8" y="-516.5" font-family="Iosevka" font-size="10.00">+ sampleRate</text>
<text text-anchor="start" x="8" y="-505.5" font-family="Iosevka" font-size="10.00">+ isDummy</text>
<text text-anchor="start" x="8" y="-494.5" font-family="Iosevka" font-size="10.00">+ recordData</text>
<text text-anchor="start" x="8" y="-483.5" font-family="Iosevka" font-size="10.00">+ useOperatorScreen</text>
<text text-anchor="start" x="8" y="-472.5" font-family="Iosevka" font-size="10.00">+ ignoreBlinks</text>
<text text-anchor="start" x="8" y="-461.5" font-family="Iosevka" font-size="10.00">and 42 more...</text>
<polyline fill="none" stroke="black" points="0,-454.5 121,-454.5 "/>
<text text-anchor="start" x="8" y="-442.5" font-family="Iosevka" font-size="10.00">+ initialise()</text>
<text text-anchor="start" x="8" y="-431.5" font-family="Iosevka" font-size="10.00">+ close()</text>
<text text-anchor="start" x="8" y="-420.5" font-family="Iosevka" font-size="10.00">+ checkConnection()</text>
<text text-anchor="start" x="8" y="-409.5" font-family="Iosevka" font-size="10.00">+ updateDefaults()</text>
<text text-anchor="start" x="8" y="-398.5" font-family="Iosevka" font-size="10.00">+ trackerSetup()</text>
<text text-anchor="start" x="8" y="-387.5" font-family="Iosevka" font-size="10.00">+ startRecording()</text>
<text text-anchor="start" x="8" y="-376.5" font-family="Iosevka" font-size="10.00">+ stopRecording()</text>
<text text-anchor="start" x="8" y="-365.5" font-family="Iosevka" font-size="10.00">+ getSample()</text>
<text text-anchor="start" x="8" y="-354.5" font-family="Iosevka" font-size="10.00">+ trackerMessage()</text>
<text text-anchor="start" x="8" y="-343.5" font-family="Iosevka" font-size="10.00">+ statusMessage()</text>
<text text-anchor="start" x="8" y="-332.5" font-family="Iosevka" font-size="10.00">and 33 more...</text>
<text text-anchor="start" x="8" y="-321.5" font-family="Iosevka" font-size="10.00"># toDegrees()</text>
<text text-anchor="start" x="8" y="-310.5" font-family="Iosevka" font-size="10.00"># toPixels()</text>
</a>
</g>
</g>
<!-- Node2&#45;&gt;Node1 -->
<g id="edge1" class="edge">
<title>Node2&#45;&gt;Node1</title>
<path fill="none" stroke="midnightblue" d="M95.4,-293.69C97.39,-284.67 99.38,-275.64 101.35,-266.73"/>
<polygon fill="none" stroke="midnightblue" points="91.98,-292.96 93.25,-303.48 98.82,-294.46 91.98,-292.96"/>
</g>
<!-- Node3 -->
<g id="node3" class="node">
<title>Node3</title>
<g id="a_node3"><a xlink:href="classopticka_core.html" target="_top" xlink:title="optickaCore base class inherited by other opticka classes.">
<polygon fill="none" stroke="black" points="10.5,-639.5 10.5,-1026.5 152.5,-1026.5 152.5,-639.5 10.5,-639.5"/>
<text text-anchor="middle" x="81.5" y="-1014.5" font-family="Iosevka" font-size="10.00">optickaCore</text>
<polyline fill="none" stroke="black" points="10.5,-1007.5 152.5,-1007.5 "/>
<text text-anchor="start" x="18.5" y="-995.5" font-family="Iosevka" font-size="10.00">+ name</text>
<text text-anchor="start" x="18.5" y="-984.5" font-family="Iosevka" font-size="10.00">+ comment</text>
<text text-anchor="start" x="18.5" y="-973.5" font-family="Iosevka" font-size="10.00">+ verbose</text>
<text text-anchor="start" x="18.5" y="-962.5" font-family="Iosevka" font-size="10.00">+ dateStamp</text>
<text text-anchor="start" x="18.5" y="-951.5" font-family="Iosevka" font-size="10.00">+ uuid</text>
<text text-anchor="start" x="18.5" y="-940.5" font-family="Iosevka" font-size="10.00">+ paths</text>
<text text-anchor="start" x="18.5" y="-929.5" font-family="Iosevka" font-size="10.00">+ fullName</text>
<text text-anchor="start" x="18.5" y="-918.5" font-family="Iosevka" font-size="10.00"># cloning</text>
<text text-anchor="start" x="18.5" y="-907.5" font-family="Iosevka" font-size="10.00"># mversion</text>
<text text-anchor="start" x="18.5" y="-896.5" font-family="Iosevka" font-size="10.00"># className</text>
<text text-anchor="start" x="18.5" y="-885.5" font-family="Iosevka" font-size="10.00"># savePrefix</text>
<polyline fill="none" stroke="black" points="10.5,-878.5 152.5,-878.5 "/>
<text text-anchor="start" x="18.5" y="-866.5" font-family="Iosevka" font-size="10.00">+ optickaCore()</text>
<text text-anchor="start" x="18.5" y="-855.5" font-family="Iosevka" font-size="10.00">+ fullName()</text>
<text text-anchor="start" x="18.5" y="-844.5" font-family="Iosevka" font-size="10.00">+ initialiseSaveFile()</text>
<text text-anchor="start" x="18.5" y="-833.5" font-family="Iosevka" font-size="10.00">+ findAttributes()</text>
<text text-anchor="start" x="18.5" y="-822.5" font-family="Iosevka" font-size="10.00">+ findAttributesandType()</text>
<text text-anchor="start" x="18.5" y="-811.5" font-family="Iosevka" font-size="10.00">+ findPropertyDefault()</text>
<text text-anchor="start" x="18.5" y="-800.5" font-family="Iosevka" font-size="10.00">+ clone()</text>
<text text-anchor="start" x="18.5" y="-789.5" font-family="Iosevka" font-size="10.00">+ checkSuperclasses()</text>
<text text-anchor="start" x="18.5" y="-778.5" font-family="Iosevka" font-size="10.00">+ editProperties()</text>
<text text-anchor="start" x="18.5" y="-767.5" font-family="Iosevka" font-size="10.00">+ setProp()</text>
<text text-anchor="start" x="18.5" y="-756.5" font-family="Iosevka" font-size="10.00">+ checkPaths()</text>
<text text-anchor="start" x="18.5" y="-745.5" font-family="Iosevka" font-size="10.00">+ makeArgs()</text>
<text text-anchor="start" x="18.5" y="-734.5" font-family="Iosevka" font-size="10.00">+ addDefaults()</text>
<text text-anchor="start" x="18.5" y="-723.5" font-family="Iosevka" font-size="10.00">+ hasKey()</text>
<text text-anchor="start" x="18.5" y="-712.5" font-family="Iosevka" font-size="10.00"># parseArgs()</text>
<text text-anchor="start" x="18.5" y="-701.5" font-family="Iosevka" font-size="10.00"># addArgs()</text>
<text text-anchor="start" x="18.5" y="-690.5" font-family="Iosevka" font-size="10.00"># setPaths()</text>
<text text-anchor="start" x="18.5" y="-679.5" font-family="Iosevka" font-size="10.00"># toStructure()</text>
<text text-anchor="start" x="18.5" y="-668.5" font-family="Iosevka" font-size="10.00"># getType()</text>
<text text-anchor="start" x="18.5" y="-657.5" font-family="Iosevka" font-size="10.00"># salutation()</text>
<text text-anchor="start" x="18.5" y="-646.5" font-family="Iosevka" font-size="10.00"># LogOutput()</text>
</a>
</g>
</g>
<!-- Node3&#45;&gt;Node2 -->
<g id="edge2" class="edge">
<title>Node3&#45;&gt;Node2</title>
<path fill="none" stroke="midnightblue" d="M70.24,-629.25C69.74,-620.26 69.24,-611.32 68.75,-602.51"/>
<polygon fill="none" stroke="midnightblue" points="66.75,-629.61 70.8,-639.4 73.74,-629.22 66.75,-629.61"/>
</g>
<!-- Node4 -->
<g id="node4" class="node">
<title>Node4</title>
<g id="a_node4"><a xlink:title=" ">
<polygon fill="none" stroke="#bfbfbf" points="105.5,-1063.5 105.5,-1120.5 155.5,-1120.5 155.5,-1063.5 105.5,-1063.5"/>
<text text-anchor="middle" x="130.5" y="-1108.5" font-family="Iosevka" font-size="10.00">handle</text>
<polyline fill="none" stroke="#bfbfbf" points="105.5,-1101.5 155.5,-1101.5 "/>
<text text-anchor="middle" x="130.5" y="-1089.5" font-family="Iosevka" font-size="10.00"> </text>
<polyline fill="none" stroke="#bfbfbf" points="105.5,-1082.5 155.5,-1082.5 "/>
<text text-anchor="middle" x="130.5" y="-1070.5" font-family="Iosevka" font-size="10.00"> </text>
</a>
</g>
</g>
<!-- Node4&#45;&gt;Node3 -->
<g id="edge3" class="edge">
<title>Node4&#45;&gt;Node3</title>
<path fill="none" stroke="midnightblue" d="M123.34,-1053.46C121.8,-1045.38 120.07,-1036.31 118.22,-1026.58"/>
<polygon fill="none" stroke="midnightblue" points="119.95,-1054.33 125.26,-1063.5 126.82,-1053.02 119.95,-1054.33"/>
</g>
<!-- Node5 -->
<g id="node5" class="node">
<title>Node5</title>
<g id="a_node5"><a xlink:href="classeyetracker_smooth.html" target="_top" xlink:title="Smoothes incoming eye sample data.">
<polygon fill="none" stroke="black" points="139,-402.5 139,-503.5 264,-503.5 264,-402.5 139,-402.5"/>
<text text-anchor="middle" x="201.5" y="-491.5" font-family="Iosevka" font-size="10.00">eyetrackerSmooth</text>
<polyline fill="none" stroke="black" points="139,-484.5 264,-484.5 "/>
<text text-anchor="start" x="147" y="-472.5" font-family="Iosevka" font-size="10.00">+ smoothing</text>
<text text-anchor="start" x="147" y="-461.5" font-family="Iosevka" font-size="10.00">+ smoothingTime</text>
<polyline fill="none" stroke="black" points="139,-454.5 264,-454.5 "/>
<text text-anchor="start" x="147" y="-442.5" font-family="Iosevka" font-size="10.00">+ eyetrackerSmooth()</text>
<text text-anchor="start" x="147" y="-431.5" font-family="Iosevka" font-size="10.00">+ smoothingTime()</text>
<text text-anchor="start" x="147" y="-420.5" font-family="Iosevka" font-size="10.00">+ doSmoothing()</text>
<text text-anchor="start" x="147" y="-409.5" font-family="Iosevka" font-size="10.00">+ heuristicFilter()</text>
</a>
</g>
</g>
<!-- Node4&#45;&gt;Node5 -->
<g id="edge5" class="edge">
<title>Node4&#45;&gt;Node5</title>
<path fill="none" stroke="midnightblue" d="M151.28,-1054.15C155.33,-1045.48 159.07,-1036.11 161.5,-1027 211.63,-838.86 208.56,-604.39 204.28,-503.7"/>
<polygon fill="none" stroke="midnightblue" points="148.09,-1052.71 146.81,-1063.23 154.37,-1055.8 148.09,-1052.71"/>
</g>
<!-- Node5&#45;&gt;Node1 -->
<g id="edge4" class="edge">
<title>Node5&#45;&gt;Node1</title>
<path fill="none" stroke="midnightblue" d="M188.13,-392.22C180.2,-356.74 169.81,-310.3 160.04,-266.62"/>
<polygon fill="none" stroke="midnightblue" points="184.81,-393.4 190.41,-402.39 191.64,-391.87 184.81,-393.4"/>
</g>
</g>
</svg>
