<?xml version="1.0" encoding="UTF-8" standalone="no"?>
<!DOCTYPE svg PUBLIC "-//W3C//DTD SVG 1.1//EN"
 "http://www.w3.org/Graphics/SVG/1.1/DTD/svg11.dtd">
<!-- Generated by graphviz version 2.43.0 (0)
 -->
<!-- Title: userFunctions Pages: 1 -->
<svg width="114pt" height="236pt"
 viewBox="0.00 0.00 114.00 236.00" xmlns="http://www.w3.org/2000/svg" xmlns:xlink="http://www.w3.org/1999/xlink">
<g id="graph0" class="graph" transform="scale(1 1) rotate(0) translate(4 232)">
<title>userFunctions</title>
<!-- Node1 -->
<g id="node1" class="node">
<title>Node1</title>
<g id="a_node1"><a xlink:title="Customised user functions for a task run.">
<polygon fill="#999999" stroke="#666666" points="106,-162 0,-162 0,0 106,0 106,-162"/>
<text text-anchor="middle" x="53" y="-150" font-family="Iosevka" font-size="10.00">{userFunctions</text>
<text text-anchor="start" x="8" y="-139" font-family="Iosevka" font-size="10.00">|+ rE</text>
<text text-anchor="start" x="8" y="-128" font-family="Iosevka" font-size="10.00">+ sM</text>
<text text-anchor="start" x="8" y="-117" font-family="Iosevka" font-size="10.00">+ s</text>
<text text-anchor="start" x="8" y="-106" font-family="Iosevka" font-size="10.00">+ task</text>
<text text-anchor="start" x="8" y="-95" font-family="Iosevka" font-size="10.00">+ stims</text>
<text text-anchor="start" x="8" y="-84" font-family="Iosevka" font-size="10.00">+ rM</text>
<text text-anchor="start" x="8" y="-73" font-family="Iosevka" font-size="10.00">+ io</text>
<text text-anchor="start" x="8" y="-62" font-family="Iosevka" font-size="10.00">+ eT</text>
<text text-anchor="start" x="8" y="-51" font-family="Iosevka" font-size="10.00">+ verbose</text>
<text text-anchor="start" x="8" y="-40" font-family="Iosevka" font-size="10.00">|+ userFunctions()</text>
<text text-anchor="start" x="8" y="-29" font-family="Iosevka" font-size="10.00">+ testFunction()</text>
<text text-anchor="start" x="8" y="-18" font-family="Iosevka" font-size="10.00">+ myText()</text>
<text text-anchor="middle" x="53" y="-7" font-family="Iosevka" font-size="10.00">}</text>
</a>
</g>
</g>
<!-- Node2 -->
<g id="node2" class="node">
<title>Node2</title>
<g id="a_node2"><a xlink:title=" ">
<polygon fill="white" stroke="#666666" points="81,-228 25,-228 25,-198 81,-198 81,-228"/>
<text text-anchor="middle" x="53" y="-216" font-family="Iosevka" font-size="10.00">{handle</text>
<text text-anchor="middle" x="53" y="-205" font-family="Iosevka" font-size="10.00">||}</text>
</a>
</g>
</g>
<!-- Node2&#45;&gt;Node1 -->
<g id="edge1" class="edge">
<title>Node2&#45;&gt;Node1</title>
<path fill="none" stroke="#63b8ff" d="M53,-187.7C53,-180.1 53,-171.27 53,-162"/>
<polygon fill="none" stroke="#63b8ff" points="49.5,-187.84 53,-197.84 56.5,-187.84 49.5,-187.84"/>
</g>
</g>
</svg>
