<?xml version="1.0" encoding="UTF-8" standalone="no"?>
<!DOCTYPE svg PUBLIC "-//W3C//DTD SVG 1.1//EN"
 "http://www.w3.org/Graphics/SVG/1.1/DTD/svg11.dtd">
<!-- Generated by graphviz version 2.43.0 (0)
 -->
<!-- Title: tittaAdvImageStimulus Pages: 1 -->
<svg width="139pt" height="262pt"
 viewBox="0.00 0.00 139.00 262.00" xmlns="http://www.w3.org/2000/svg" xmlns:xlink="http://www.w3.org/1999/xlink">

<svg id="main" version="1.1" xmlns="http://www.w3.org/2000/svg" xmlns:xlink="http://www.w3.org/1999/xlink" xml:space="preserve" onload="init(evt)">
<style type="text/css"><![CDATA[
.node, .edge {opacity: 0.7;}
.node.selected, .edge.selected {opacity: 1;}
.edge:hover path { stroke: red; }
.edge:hover polygon { stroke: red; fill: red; }
]]></style>
<script type="application/ecmascript" xlink:href="svg.min.js"/>
<svg id="graph" class="graph">
<g id="graph0" class="graph" transform="scale(1 1) rotate(0) translate(4 258)">
<title>tittaAdvImageStimulus</title>
<!-- Node1 -->
<g id="Node000001" class="node">
<title>Node1</title>
<g id="a_Node000001"><a xlink:title=" ">
<polygon fill="#999999" stroke="transparent" points="131,-169 0,-169 0,0 131,0 131,-169"/>
<text text-anchor="start" x="13" y="-156.5" font-family="Iosevka" font-size="10.00">tittaAdvImageStimulus</text>
<text text-anchor="start" x="4.5" y="-141.5" font-family="Iosevka" font-size="10.00">+</text>
<text text-anchor="start" x="15.5" y="-141.5" font-family="Iosevka" font-size="10.00">blinkInterval</text>
<text text-anchor="start" x="4.5" y="-126.5" font-family="Iosevka" font-size="10.00">+</text>
<text text-anchor="start" x="15.5" y="-126.5" font-family="Iosevka" font-size="10.00">blinkCount</text>
<text text-anchor="start" x="4.5" y="-111.5" font-family="Iosevka" font-size="10.00">+</text>
<text text-anchor="start" x="15.5" y="-111.5" font-family="Iosevka" font-size="10.00">bgColor</text>
<text text-anchor="start" x="4.5" y="-96.5" font-family="Iosevka" font-size="10.00">+</text>
<text text-anchor="start" x="15.5" y="-96.5" font-family="Iosevka" font-size="10.00">size</text>
<text text-anchor="start" x="4.5" y="-81.5" font-family="Iosevka" font-size="10.00">+</text>
<text text-anchor="start" x="15.5" y="-81.5" font-family="Iosevka" font-size="10.00">videoSize</text>
<text text-anchor="start" x="4.5" y="-66.5" font-family="Iosevka" font-size="10.00">+</text>
<text text-anchor="start" x="15.5" y="-66.5" font-family="Iosevka" font-size="10.00">tittaAdvImageStimulus()</text>
<text text-anchor="start" x="4.5" y="-51.5" font-family="Iosevka" font-size="10.00">+</text>
<text text-anchor="start" x="15.5" y="-51.5" font-family="Iosevka" font-size="10.00">setStimulus()</text>
<text text-anchor="start" x="4.5" y="-36.5" font-family="Iosevka" font-size="10.00">+</text>
<text text-anchor="start" x="15.5" y="-36.5" font-family="Iosevka" font-size="10.00">setCleanState()</text>
<text text-anchor="start" x="4.5" y="-21.5" font-family="Iosevka" font-size="10.00">+</text>
<text text-anchor="start" x="15.5" y="-21.5" font-family="Iosevka" font-size="10.00">pos()</text>
<text text-anchor="start" x="4.5" y="-6.5" font-family="Iosevka" font-size="10.00">+</text>
<text text-anchor="start" x="15.5" y="-6.5" font-family="Iosevka" font-size="10.00">doDraw()</text>
<polygon fill="#666666" stroke="#666666" points="0.5,-151.5 0.5,-151.5 131.5,-151.5 131.5,-151.5 0.5,-151.5"/>
<polygon fill="#666666" stroke="#666666" points="0.5,-76.5 0.5,-76.5 13.5,-76.5 13.5,-76.5 0.5,-76.5"/>
<polygon fill="#666666" stroke="#666666" points="13.5,-76.5 13.5,-76.5 131.5,-76.5 131.5,-76.5 13.5,-76.5"/>
<polygon fill="none" stroke="#666666" points="0,0 0,-169 131,-169 131,0 0,0"/>
</a>
</g>
</g>
<!-- Node2 -->
<g id="Node000002" class="node">
<title>Node2</title>
<g id="a_Node000002"><a xlink:title=" ">
<polygon fill="white" stroke="transparent" points="86.5,-254 44.5,-254 44.5,-205 86.5,-205 86.5,-254"/>
<text text-anchor="start" x="49.5" y="-241.5" font-family="Iosevka" font-size="10.00">handle</text>
<text text-anchor="start" x="64" y="-226.5" font-family="Iosevka" font-size="10.00"> </text>
<text text-anchor="start" x="64" y="-211.5" font-family="Iosevka" font-size="10.00"> </text>
<polygon fill="#666666" stroke="#666666" points="44.5,-236.5 44.5,-236.5 86.5,-236.5 86.5,-236.5 44.5,-236.5"/>
<polygon fill="#666666" stroke="#666666" points="44.5,-221.5 44.5,-221.5 86.5,-221.5 86.5,-221.5 44.5,-221.5"/>
<polygon fill="none" stroke="#666666" points="44.5,-205 44.5,-254 86.5,-254 86.5,-205 44.5,-205"/>
</a>
</g>
</g>
<!-- Node2&#45;&gt;Node1 -->
<g id="edge1_Node000001_Node000002" class="edge">
<title>Node2&#45;&gt;Node1</title>
<g id="a_edge1_Node000001_Node000002"><a xlink:title=" ">
<path fill="none" stroke="#63b8ff" d="M65.5,-194.72C65.5,-186.84 65.5,-178.1 65.5,-169.1"/>
<polygon fill="none" stroke="#63b8ff" points="62,-194.89 65.5,-204.89 69,-194.89 62,-194.89"/>
</a>
</g>
</g>
</g>
</svg>
</svg>

<style type='text/css'>
<![CDATA[
[data-mouse-over-selected='false'] { opacity: 0.7; }
[data-mouse-over-selected='true']  { opacity: 1.0; }
]]>
</style>
<script type="application/ecmascript"><![CDATA[
document.addEventListener('DOMContentLoaded', (event) => {
  highlightEdges();
  highlightAdjacentNodes();
});
]]></script>
</svg>
