<?xml version="1.0" encoding="UTF-8" standalone="no"?>
<!DOCTYPE svg PUBLIC "-//W3C//DTD SVG 1.1//EN"
 "http://www.w3.org/Graphics/SVG/1.1/DTD/svg11.dtd">
<!-- Generated by graphviz version 2.43.0 (0)
 -->
<!-- Title: eyetrackerSmooth Pages: 1 -->
<svg width="266pt" height="507pt"
 viewBox="0.00 0.00 265.50 507.00" xmlns="http://www.w3.org/2000/svg" xmlns:xlink="http://www.w3.org/1999/xlink">
<g id="graph0" class="graph" transform="scale(1 1) rotate(0) translate(4 503)">
<title>eyetrackerSmooth</title>
<!-- Node1 -->
<g id="node1" class="node">
<title>Node1</title>
<g id="a_node1"><a xlink:title="Smoothes incoming eye sample data.">
<polygon fill="#bfbfbf" stroke="black" points="65,-303.5 65,-404.5 190,-404.5 190,-303.5 65,-303.5"/>
<text text-anchor="middle" x="127.5" y="-392.5" font-family="Iosevka" font-size="10.00">eyetrackerSmooth</text>
<polyline fill="none" stroke="black" points="65,-385.5 190,-385.5 "/>
<text text-anchor="start" x="73" y="-373.5" font-family="Iosevka" font-size="10.00">+ smoothing</text>
<text text-anchor="start" x="73" y="-362.5" font-family="Iosevka" font-size="10.00">+ smoothingTime</text>
<polyline fill="none" stroke="black" points="65,-355.5 190,-355.5 "/>
<text text-anchor="start" x="73" y="-343.5" font-family="Iosevka" font-size="10.00">+ eyetrackerSmooth()</text>
<text text-anchor="start" x="73" y="-332.5" font-family="Iosevka" font-size="10.00">+ smoothingTime()</text>
<text text-anchor="start" x="73" y="-321.5" font-family="Iosevka" font-size="10.00">+ doSmoothing()</text>
<text text-anchor="start" x="73" y="-310.5" font-family="Iosevka" font-size="10.00">+ heuristicFilter()</text>
</a>
</g>
</g>
<!-- Node3 -->
<g id="node3" class="node">
<title>Node3</title>
<g id="a_node3"><a xlink:href="classi_rec_manager.html" target="_top" xlink:title="Manages the iRec eyetrackers https://staff.aist.go.jp/k.matsuda/iRecHS2/index_e.html.">
<polygon fill="none" stroke="black" points="0,-0.5 0,-266.5 117,-266.5 117,-0.5 0,-0.5"/>
<text text-anchor="middle" x="58.5" y="-254.5" font-family="Iosevka" font-size="10.00">iRecManager</text>
<polyline fill="none" stroke="black" points="0,-247.5 117,-247.5 "/>
<text text-anchor="start" x="8" y="-235.5" font-family="Iosevka" font-size="10.00">+ type</text>
<text text-anchor="start" x="8" y="-224.5" font-family="Iosevka" font-size="10.00">+ tcp</text>
<text text-anchor="start" x="8" y="-213.5" font-family="Iosevka" font-size="10.00">+ udp</text>
<text text-anchor="start" x="8" y="-202.5" font-family="Iosevka" font-size="10.00">+ calibration</text>
<text text-anchor="start" x="8" y="-191.5" font-family="Iosevka" font-size="10.00">+ useLEDs</text>
<text text-anchor="start" x="8" y="-180.5" font-family="Iosevka" font-size="10.00"># sv</text>
<text text-anchor="start" x="8" y="-169.5" font-family="Iosevka" font-size="10.00"># fInc</text>
<text text-anchor="start" x="8" y="-158.5" font-family="Iosevka" font-size="10.00"># systemTime</text>
<text text-anchor="start" x="8" y="-147.5" font-family="Iosevka" font-size="10.00"># calStim</text>
<text text-anchor="start" x="8" y="-136.5" font-family="Iosevka" font-size="10.00"># allowedProperties</text>
<polyline fill="none" stroke="black" points="0,-129.5 117,-129.5 "/>
<text text-anchor="start" x="8" y="-117.5" font-family="Iosevka" font-size="10.00">+ iRecManager()</text>
<text text-anchor="start" x="8" y="-106.5" font-family="Iosevka" font-size="10.00">+ initialise()</text>
<text text-anchor="start" x="8" y="-95.5" font-family="Iosevka" font-size="10.00">+ trackerSetup()</text>
<text text-anchor="start" x="8" y="-84.5" font-family="Iosevka" font-size="10.00">+ startRecording()</text>
<text text-anchor="start" x="8" y="-73.5" font-family="Iosevka" font-size="10.00">+ stopRecording()</text>
<text text-anchor="start" x="8" y="-62.5" font-family="Iosevka" font-size="10.00">+ getSample()</text>
<text text-anchor="start" x="8" y="-51.5" font-family="Iosevka" font-size="10.00">+ trackerMessage()</text>
<text text-anchor="start" x="8" y="-40.5" font-family="Iosevka" font-size="10.00">+ close()</text>
<text text-anchor="start" x="8" y="-29.5" font-family="Iosevka" font-size="10.00">+ runDemo()</text>
<text text-anchor="start" x="8" y="-18.5" font-family="Iosevka" font-size="10.00">+ syncTrackerTime()</text>
<text text-anchor="start" x="8" y="-7.5" font-family="Iosevka" font-size="10.00">and 16 more...</text>
</a>
</g>
</g>
<!-- Node1&#45;&gt;Node3 -->
<g id="edge2" class="edge">
<title>Node1&#45;&gt;Node3</title>
<path fill="none" stroke="midnightblue" d="M108.82,-293.86C106.08,-285.18 103.17,-275.96 100.18,-266.5"/>
<polygon fill="none" stroke="midnightblue" points="105.49,-294.94 111.84,-303.42 112.17,-292.83 105.49,-294.94"/>
</g>
<!-- Node4 -->
<g id="node4" class="node">
<title>Node4</title>
<g id="a_node4"><a xlink:href="classtobii_manager.html" target="_top" xlink:title="Manages the Tobii eyetrackers.">
<polygon fill="none" stroke="black" points="135.5,-0.5 135.5,-266.5 257.5,-266.5 257.5,-0.5 135.5,-0.5"/>
<text text-anchor="middle" x="196.5" y="-254.5" font-family="Iosevka" font-size="10.00">tobiiManager</text>
<polyline fill="none" stroke="black" points="135.5,-247.5 257.5,-247.5 "/>
<text text-anchor="start" x="143.5" y="-235.5" font-family="Iosevka" font-size="10.00">+ type</text>
<text text-anchor="start" x="143.5" y="-224.5" font-family="Iosevka" font-size="10.00">+ calibration</text>
<text text-anchor="start" x="143.5" y="-213.5" font-family="Iosevka" font-size="10.00">+ settings</text>
<text text-anchor="start" x="143.5" y="-202.5" font-family="Iosevka" font-size="10.00">+ tobii</text>
<text text-anchor="start" x="143.5" y="-191.5" font-family="Iosevka" font-size="10.00">+ sampletime</text>
<text text-anchor="start" x="143.5" y="-180.5" font-family="Iosevka" font-size="10.00">+ calib</text>
<text text-anchor="start" x="143.5" y="-169.5" font-family="Iosevka" font-size="10.00"># systemTime</text>
<text text-anchor="start" x="143.5" y="-158.5" font-family="Iosevka" font-size="10.00"># calibData</text>
<text text-anchor="start" x="143.5" y="-147.5" font-family="Iosevka" font-size="10.00"># calStim</text>
<text text-anchor="start" x="143.5" y="-136.5" font-family="Iosevka" font-size="10.00"># allowedProperties</text>
<polyline fill="none" stroke="black" points="135.5,-129.5 257.5,-129.5 "/>
<text text-anchor="start" x="143.5" y="-117.5" font-family="Iosevka" font-size="10.00">+ tobiiManager()</text>
<text text-anchor="start" x="143.5" y="-106.5" font-family="Iosevka" font-size="10.00">+ initialise()</text>
<text text-anchor="start" x="143.5" y="-95.5" font-family="Iosevka" font-size="10.00">+ trackerSetup()</text>
<text text-anchor="start" x="143.5" y="-84.5" font-family="Iosevka" font-size="10.00">+ startRecording()</text>
<text text-anchor="start" x="143.5" y="-73.5" font-family="Iosevka" font-size="10.00">+ stopRecording()</text>
<text text-anchor="start" x="143.5" y="-62.5" font-family="Iosevka" font-size="10.00">+ getSample()</text>
<text text-anchor="start" x="143.5" y="-51.5" font-family="Iosevka" font-size="10.00">+ drawEyePositions()</text>
<text text-anchor="start" x="143.5" y="-40.5" font-family="Iosevka" font-size="10.00">+ saveData()</text>
<text text-anchor="start" x="143.5" y="-29.5" font-family="Iosevka" font-size="10.00">+ trackerMessage()</text>
<text text-anchor="start" x="143.5" y="-18.5" font-family="Iosevka" font-size="10.00">+ close()</text>
<text text-anchor="start" x="143.5" y="-7.5" font-family="Iosevka" font-size="10.00">and 17 more...</text>
</a>
</g>
</g>
<!-- Node1&#45;&gt;Node4 -->
<g id="edge3" class="edge">
<title>Node1&#45;&gt;Node4</title>
<path fill="none" stroke="midnightblue" d="M146.18,-293.86C148.92,-285.18 151.83,-275.96 154.82,-266.5"/>
<polygon fill="none" stroke="midnightblue" points="142.83,-292.83 143.16,-303.42 149.51,-294.94 142.83,-292.83"/>
</g>
<!-- Node2 -->
<g id="node2" class="node">
<title>Node2</title>
<g id="a_node2"><a xlink:title=" ">
<polygon fill="none" stroke="#bfbfbf" points="102.5,-441.5 102.5,-498.5 152.5,-498.5 152.5,-441.5 102.5,-441.5"/>
<text text-anchor="middle" x="127.5" y="-486.5" font-family="Iosevka" font-size="10.00">handle</text>
<polyline fill="none" stroke="#bfbfbf" points="102.5,-479.5 152.5,-479.5 "/>
<text text-anchor="middle" x="127.5" y="-467.5" font-family="Iosevka" font-size="10.00"> </text>
<polyline fill="none" stroke="#bfbfbf" points="102.5,-460.5 152.5,-460.5 "/>
<text text-anchor="middle" x="127.5" y="-448.5" font-family="Iosevka" font-size="10.00"> </text>
</a>
</g>
</g>
<!-- Node2&#45;&gt;Node1 -->
<g id="edge1" class="edge">
<title>Node2&#45;&gt;Node1</title>
<path fill="none" stroke="midnightblue" d="M127.5,-431.35C127.5,-422.8 127.5,-413.58 127.5,-404.61"/>
<polygon fill="none" stroke="midnightblue" points="124,-431.4 127.5,-441.4 131,-431.4 124,-431.4"/>
</g>
</g>
</svg>
