<?xml version="1.0" encoding="UTF-8" standalone="no"?>
<!DOCTYPE svg PUBLIC "-//W3C//DTD SVG 1.1//EN"
 "http://www.w3.org/Graphics/SVG/1.1/DTD/svg11.dtd">
<!-- Generated by graphviz version 2.50.0 (20211204.2007)
 -->
<!-- Title: dataConnection Pages: 1 -->
<svg width="133pt" height="457pt"
 viewBox="0.00 0.00 133.00 457.00" xmlns="http://www.w3.org/2000/svg" xmlns:xlink="http://www.w3.org/1999/xlink">
<g id="graph0" class="graph" transform="scale(1 1) rotate(0) translate(4 453)">
<title>dataConnection</title>
<!-- Node1 -->
<g id="node1" class="node">
<title>Node1</title>
<g id="a_node1"><a xlink:title="dataConnection Connects and manages a socket connection">
<polygon fill="#bfbfbf" stroke="black" points="0,-0.5 0,-354.5 125,-354.5 125,-0.5 0,-0.5"/>
<text text-anchor="middle" x="62.5" y="-342.5" font-family="Iosevka" font-size="10.00">dataConnection</text>
<polyline fill="none" stroke="black" points="0,-335.5 125,-335.5 "/>
<text text-anchor="start" x="8" y="-323.5" font-family="Iosevka" font-size="10.00">+ type</text>
<text text-anchor="start" x="8" y="-312.5" font-family="Iosevka" font-size="10.00">+ protocol</text>
<text text-anchor="start" x="8" y="-301.5" font-family="Iosevka" font-size="10.00">+ lPort</text>
<text text-anchor="start" x="8" y="-290.5" font-family="Iosevka" font-size="10.00">+ rPort</text>
<text text-anchor="start" x="8" y="-279.5" font-family="Iosevka" font-size="10.00">+ lAddress</text>
<text text-anchor="start" x="8" y="-268.5" font-family="Iosevka" font-size="10.00">+ rAddress</text>
<text text-anchor="start" x="8" y="-257.5" font-family="Iosevka" font-size="10.00">+ autoOpen</text>
<text text-anchor="start" x="8" y="-246.5" font-family="Iosevka" font-size="10.00">+ dataOut</text>
<text text-anchor="start" x="8" y="-235.5" font-family="Iosevka" font-size="10.00">+ dataType</text>
<text text-anchor="start" x="8" y="-224.5" font-family="Iosevka" font-size="10.00">+ verbosity</text>
<text text-anchor="start" x="8" y="-213.5" font-family="Iosevka" font-size="10.00">+ autoServer</text>
<text text-anchor="start" x="8" y="-202.5" font-family="Iosevka" font-size="10.00">+ readTimeOut</text>
<text text-anchor="start" x="8" y="-191.5" font-family="Iosevka" font-size="10.00">+ writeTimeOut</text>
<text text-anchor="start" x="8" y="-180.5" font-family="Iosevka" font-size="10.00">+ cleanup</text>
<polyline fill="none" stroke="black" points="0,-173.5 125,-173.5 "/>
<text text-anchor="start" x="8" y="-161.5" font-family="Iosevka" font-size="10.00">+ dataConnection()</text>
<text text-anchor="start" x="8" y="-150.5" font-family="Iosevka" font-size="10.00">+ open()</text>
<text text-anchor="start" x="8" y="-139.5" font-family="Iosevka" font-size="10.00">+ close()</text>
<text text-anchor="start" x="8" y="-128.5" font-family="Iosevka" font-size="10.00">+ closeAll()</text>
<text text-anchor="start" x="8" y="-117.5" font-family="Iosevka" font-size="10.00">+ checkData()</text>
<text text-anchor="start" x="8" y="-106.5" font-family="Iosevka" font-size="10.00">+ readline()</text>
<text text-anchor="start" x="8" y="-95.5" font-family="Iosevka" font-size="10.00">+ read()</text>
<text text-anchor="start" x="8" y="-84.5" font-family="Iosevka" font-size="10.00">+ write()</text>
<text text-anchor="start" x="8" y="-73.5" font-family="Iosevka" font-size="10.00">+ readVar()</text>
<text text-anchor="start" x="8" y="-62.5" font-family="Iosevka" font-size="10.00">+ writeVar()</text>
<text text-anchor="start" x="8" y="-51.5" font-family="Iosevka" font-size="10.00">+ checkClient()</text>
<text text-anchor="start" x="8" y="-40.5" font-family="Iosevka" font-size="10.00">+ checkStatus()</text>
<text text-anchor="start" x="8" y="-29.5" font-family="Iosevka" font-size="10.00">+ startServer()</text>
<text text-anchor="start" x="8" y="-18.5" font-family="Iosevka" font-size="10.00">+ sendCommand()</text>
<text text-anchor="start" x="8" y="-7.5" font-family="Iosevka" font-size="10.00">+ loadobj()</text>
</a>
</g>
</g>
<!-- Node2 -->
<g id="node2" class="node">
<title>Node2</title>
<g id="a_node2"><a xlink:title=" ">
<polygon fill="none" stroke="black" points="36,-391.5 36,-448.5 89,-448.5 89,-391.5 36,-391.5"/>
<text text-anchor="middle" x="62.5" y="-436.5" font-family="Iosevka" font-size="10.00">handle</text>
<polyline fill="none" stroke="black" points="36,-429.5 89,-429.5 "/>
<text text-anchor="middle" x="62.5" y="-417.5" font-family="Iosevka" font-size="10.00"> </text>
<polyline fill="none" stroke="black" points="36,-410.5 89,-410.5 "/>
<text text-anchor="middle" x="62.5" y="-398.5" font-family="Iosevka" font-size="10.00"> </text>
</a>
</g>
</g>
<!-- Node2&#45;&gt;Node1 -->
<g id="edge1" class="edge">
<title>Node2&#45;&gt;Node1</title>
<path fill="none" stroke="midnightblue" d="M62.5,-381.18C62.5,-373.22 62.5,-364.35 62.5,-354.87"/>
<polygon fill="none" stroke="midnightblue" points="59,-381.41 62.5,-391.41 66,-381.41 59,-381.41"/>
</g>
</g>
</svg>
