<?xml version="1.0" encoding="UTF-8" standalone="no"?>
<!DOCTYPE svg PUBLIC "-//W3C//DTD SVG 1.1//EN"
 "http://www.w3.org/Graphics/SVG/1.1/DTD/svg11.dtd">
<!-- Generated by graphviz version 2.43.0 (0)
 -->
<!-- Title: myUserFunctions Pages: 1 -->
<svg width="158pt" height="467pt"
 viewBox="0.00 0.00 158.00 467.00" xmlns="http://www.w3.org/2000/svg" xmlns:xlink="http://www.w3.org/1999/xlink">
<g id="graph0" class="graph" transform="scale(1 1) rotate(0) translate(4 463)">
<title>myUserFunctions</title>
<!-- Node1 -->
<g id="Node000001" class="node">
<title>Node1</title>
<g id="a_Node000001"><a xlink:title="For DMTS task.">
<polygon fill="#999999" stroke="transparent" points="128.5,-64 21.5,-64 21.5,0 128.5,0 128.5,-64"/>
<text text-anchor="start" x="34.5" y="-52" font-family="Iosevka" font-size="10.00">myUserFunctions</text>
<text text-anchor="start" x="26" y="-37" font-family="Iosevka" font-size="10.00">+</text>
<text text-anchor="start" x="37" y="-37" font-family="Iosevka" font-size="10.00">comment</text>
<text text-anchor="start" x="26" y="-22" font-family="Iosevka" font-size="10.00">+</text>
<text text-anchor="start" x="37" y="-22" font-family="Iosevka" font-size="10.00">myUserFunctions()</text>
<text text-anchor="start" x="26" y="-7" font-family="Iosevka" font-size="10.00">+</text>
<text text-anchor="start" x="37" y="-7" font-family="Iosevka" font-size="10.00">initialSetup()</text>
<polygon fill="#666666" stroke="#666666" points="22,-47 22,-47 129,-47 129,-47 22,-47"/>
<polygon fill="#666666" stroke="#666666" points="22,-32 22,-32 35,-32 35,-32 22,-32"/>
<polygon fill="#666666" stroke="#666666" points="35,-32 35,-32 129,-32 129,-32 35,-32"/>
<polygon fill="none" stroke="#666666" points="21.5,0 21.5,-64 128.5,-64 128.5,0 21.5,0"/>
</a>
</g>
</g>
<!-- Node2 -->
<g id="Node000002" class="node">
<title>Node2</title>
<g id="a_Node000002"><a xlink:href="classuser_functions.html" target="_top" xlink:title="Customised user functions for a task run.">
<polygon fill="white" stroke="transparent" points="150,-374 0,-374 0,-100 150,-100 150,-374"/>
<text text-anchor="start" x="42" y="-362" font-family="Iosevka" font-size="10.00">userFunctions</text>
<text text-anchor="start" x="4" y="-347" font-family="Iosevka" font-size="10.00">+</text>
<text text-anchor="start" x="15" y="-347" font-family="Iosevka" font-size="10.00">rE</text>
<text text-anchor="start" x="4" y="-332" font-family="Iosevka" font-size="10.00">+</text>
<text text-anchor="start" x="15" y="-332" font-family="Iosevka" font-size="10.00">sM</text>
<text text-anchor="start" x="4" y="-317" font-family="Iosevka" font-size="10.00">+</text>
<text text-anchor="start" x="15" y="-317" font-family="Iosevka" font-size="10.00">s</text>
<text text-anchor="start" x="4" y="-302" font-family="Iosevka" font-size="10.00">+</text>
<text text-anchor="start" x="15" y="-302" font-family="Iosevka" font-size="10.00">task</text>
<text text-anchor="start" x="4" y="-287" font-family="Iosevka" font-size="10.00">+</text>
<text text-anchor="start" x="15" y="-287" font-family="Iosevka" font-size="10.00">stims</text>
<text text-anchor="start" x="4" y="-272" font-family="Iosevka" font-size="10.00">+</text>
<text text-anchor="start" x="15" y="-272" font-family="Iosevka" font-size="10.00">rM</text>
<text text-anchor="start" x="4" y="-257" font-family="Iosevka" font-size="10.00">+</text>
<text text-anchor="start" x="15" y="-257" font-family="Iosevka" font-size="10.00">io</text>
<text text-anchor="start" x="4" y="-242" font-family="Iosevka" font-size="10.00">+</text>
<text text-anchor="start" x="15" y="-242" font-family="Iosevka" font-size="10.00">eT</text>
<text text-anchor="start" x="4" y="-227" font-family="Iosevka" font-size="10.00">+</text>
<text text-anchor="start" x="15" y="-227" font-family="Iosevka" font-size="10.00">tM</text>
<text text-anchor="start" x="4" y="-212" font-family="Iosevka" font-size="10.00">+</text>
<text text-anchor="start" x="15" y="-212" font-family="Iosevka" font-size="10.00">tL</text>
<text text-anchor="start" x="4" y="-197" font-family="Iosevka" font-size="10.00">+</text>
<text text-anchor="start" x="15" y="-197" font-family="Iosevka" font-size="10.00">alyx</text>
<text text-anchor="start" x="4" y="-182" font-family="Iosevka" font-size="10.00">+</text>
<text text-anchor="start" x="15" y="-182" font-family="Iosevka" font-size="10.00">verbose</text>
<text text-anchor="start" x="4" y="-167" font-family="Iosevka" font-size="10.00">+</text>
<text text-anchor="start" x="15" y="-167" font-family="Iosevka" font-size="10.00">initialSetup()</text>
<text text-anchor="start" x="4" y="-152" font-family="Iosevka" font-size="10.00">+</text>
<text text-anchor="start" x="15" y="-152" font-family="Iosevka" font-size="10.00">userFunctions()</text>
<text text-anchor="start" x="4" y="-137" font-family="Iosevka" font-size="10.00">+</text>
<text text-anchor="start" x="15" y="-137" font-family="Iosevka" font-size="10.00">setDelayTimeWithStaircase()</text>
<text text-anchor="start" x="4" y="-122" font-family="Iosevka" font-size="10.00">+</text>
<text text-anchor="start" x="15" y="-122" font-family="Iosevka" font-size="10.00">resetDelayTime()</text>
<text text-anchor="start" x="4" y="-107" font-family="Iosevka" font-size="10.00">+</text>
<text text-anchor="start" x="15" y="-107" font-family="Iosevka" font-size="10.00">testFunction()</text>
<polygon fill="#666666" stroke="#666666" points="0,-357 0,-357 150,-357 150,-357 0,-357"/>
<polygon fill="#666666" stroke="#666666" points="0,-177 0,-177 13,-177 13,-177 0,-177"/>
<polygon fill="#666666" stroke="#666666" points="13,-177 13,-177 150,-177 150,-177 13,-177"/>
<polygon fill="none" stroke="#666666" points="0,-100 0,-374 150,-374 150,-100 0,-100"/>
</a>
</g>
</g>
<!-- Node2&#45;&gt;Node1 -->
<g id="edge1_Node000001_Node000002" class="edge">
<title>Node2&#45;&gt;Node1</title>
<g id="a_edge1_Node000001_Node000002"><a xlink:title=" ">
<path fill="none" stroke="#63b8ff" d="M75,-89.52C75,-80.29 75,-71.69 75,-64.12"/>
<polygon fill="none" stroke="#63b8ff" points="71.5,-89.75 75,-99.75 78.5,-89.75 71.5,-89.75"/>
</a>
</g>
</g>
<!-- Node3 -->
<g id="Node000003" class="node">
<title>Node3</title>
<g id="a_Node000003"><a xlink:title=" ">
<polygon fill="white" stroke="transparent" points="96,-459 54,-459 54,-410 96,-410 96,-459"/>
<text text-anchor="start" x="59" y="-446.5" font-family="Iosevka" font-size="10.00">handle</text>
<text text-anchor="start" x="73.5" y="-431.5" font-family="Iosevka" font-size="10.00"> </text>
<text text-anchor="start" x="73.5" y="-416.5" font-family="Iosevka" font-size="10.00"> </text>
<polygon fill="#666666" stroke="#666666" points="54,-441.5 54,-441.5 96,-441.5 96,-441.5 54,-441.5"/>
<polygon fill="#666666" stroke="#666666" points="54,-426.5 54,-426.5 96,-426.5 96,-426.5 54,-426.5"/>
<polygon fill="none" stroke="#666666" points="54,-410 54,-459 96,-459 96,-410 54,-410"/>
</a>
</g>
</g>
<!-- Node3&#45;&gt;Node2 -->
<g id="edge2_Node000002_Node000003" class="edge">
<title>Node3&#45;&gt;Node2</title>
<g id="a_edge2_Node000002_Node000003"><a xlink:title=" ">
<path fill="none" stroke="#63b8ff" d="M75,-399.74C75,-392.08 75,-383.47 75,-374.33"/>
<polygon fill="none" stroke="#63b8ff" points="71.5,-399.92 75,-409.92 78.5,-399.92 71.5,-399.92"/>
</a>
</g>
</g>
</g>
</svg>
