<?xml version="1.0" encoding="UTF-8" standalone="no"?>
<!DOCTYPE svg PUBLIC "-//W3C//DTD SVG 1.1//EN"
 "http://www.w3.org/Graphics/SVG/1.1/DTD/svg11.dtd">
<!-- Generated by graphviz version 2.50.0 (20211204.2007)
 -->
<!-- Title: labJackT Pages: 1 -->
<svg width="139pt" height="380pt"
 viewBox="0.00 0.00 139.00 380.00" xmlns="http://www.w3.org/2000/svg" xmlns:xlink="http://www.w3.org/1999/xlink">
<g id="graph0" class="graph" transform="scale(1 1) rotate(0) translate(4 376)">
<title>labJackT</title>
<!-- Node1 -->
<g id="node1" class="node">
<title>Node1</title>
<g id="a_node1"><a xlink:title="LABJACKT Connects and manages a LabJack T4 / T7 This class handles digital I/O and analog I/O and ana...">
<polygon fill="#bfbfbf" stroke="black" points="0,-0.5 0,-277.5 131,-277.5 131,-0.5 0,-0.5"/>
<text text-anchor="middle" x="65.5" y="-265.5" font-family="Iosevka" font-size="10.00">labJackT</text>
<polyline fill="none" stroke="black" points="0,-258.5 131,-258.5 "/>
<text text-anchor="start" x="8" y="-246.5" font-family="Iosevka" font-size="10.00">+ name</text>
<text text-anchor="start" x="8" y="-235.5" font-family="Iosevka" font-size="10.00">+ deviceID</text>
<text text-anchor="start" x="8" y="-224.5" font-family="Iosevka" font-size="10.00">+ device</text>
<text text-anchor="start" x="8" y="-213.5" font-family="Iosevka" font-size="10.00">+ connectType</text>
<text text-anchor="start" x="8" y="-202.5" font-family="Iosevka" font-size="10.00">+ IP</text>
<text text-anchor="start" x="8" y="-191.5" font-family="Iosevka" font-size="10.00">+ strobeTime</text>
<text text-anchor="start" x="8" y="-180.5" font-family="Iosevka" font-size="10.00">+ streamChannels</text>
<text text-anchor="start" x="8" y="-169.5" font-family="Iosevka" font-size="10.00">+ streamSampleRate</text>
<text text-anchor="start" x="8" y="-158.5" font-family="Iosevka" font-size="10.00">+ streamSamples</text>
<text text-anchor="start" x="8" y="-147.5" font-family="Iosevka" font-size="10.00">+ streamResolution</text>
<text text-anchor="start" x="8" y="-136.5" font-family="Iosevka" font-size="10.00">and 8 more...</text>
<polyline fill="none" stroke="black" points="0,-129.5 131,-129.5 "/>
<text text-anchor="start" x="8" y="-117.5" font-family="Iosevka" font-size="10.00">+ labJackT()</text>
<text text-anchor="start" x="8" y="-106.5" font-family="Iosevka" font-size="10.00">+ open()</text>
<text text-anchor="start" x="8" y="-95.5" font-family="Iosevka" font-size="10.00">+ close()</text>
<text text-anchor="start" x="8" y="-84.5" font-family="Iosevka" font-size="10.00">+ reset()</text>
<text text-anchor="start" x="8" y="-73.5" font-family="Iosevka" font-size="10.00">+ listAll()</text>
<text text-anchor="start" x="8" y="-62.5" font-family="Iosevka" font-size="10.00">+ isHandleValid()</text>
<text text-anchor="start" x="8" y="-51.5" font-family="Iosevka" font-size="10.00">+ strobeServer()</text>
<text text-anchor="start" x="8" y="-40.5" font-family="Iosevka" font-size="10.00">+ sendStrobe()</text>
<text text-anchor="start" x="8" y="-29.5" font-family="Iosevka" font-size="10.00">+ isServerRunning()</text>
<text text-anchor="start" x="8" y="-18.5" font-family="Iosevka" font-size="10.00">+ sendStrobedEIO()</text>
<text text-anchor="start" x="8" y="-7.5" font-family="Iosevka" font-size="10.00">and 24 more...</text>
</a>
</g>
</g>
<!-- Node2 -->
<g id="node2" class="node">
<title>Node2</title>
<g id="a_node2"><a xlink:title=" ">
<polygon fill="none" stroke="black" points="39,-314.5 39,-371.5 92,-371.5 92,-314.5 39,-314.5"/>
<text text-anchor="middle" x="65.5" y="-359.5" font-family="Iosevka" font-size="10.00">handle</text>
<polyline fill="none" stroke="black" points="39,-352.5 92,-352.5 "/>
<text text-anchor="middle" x="65.5" y="-340.5" font-family="Iosevka" font-size="10.00"> </text>
<polyline fill="none" stroke="black" points="39,-333.5 92,-333.5 "/>
<text text-anchor="middle" x="65.5" y="-321.5" font-family="Iosevka" font-size="10.00"> </text>
</a>
</g>
</g>
<!-- Node2&#45;&gt;Node1 -->
<g id="edge1" class="edge">
<title>Node2&#45;&gt;Node1</title>
<path fill="none" stroke="midnightblue" d="M65.5,-304.27C65.5,-296.18 65.5,-287.19 65.5,-277.7"/>
<polygon fill="none" stroke="midnightblue" points="62,-304.34 65.5,-314.34 69,-304.34 62,-304.34"/>
</g>
</g>
</svg>
