<?xml version="1.0" encoding="UTF-8" standalone="no"?>
<!DOCTYPE svg PUBLIC "-//W3C//DTD SVG 1.1//EN"
 "http://www.w3.org/Graphics/SVG/1.1/DTD/svg11.dtd">
<!-- Generated by graphviz version 2.43.0 (0)
 -->
<!-- Title: arduinoIOPort Pages: 1 -->
<svg width="110pt" height="325pt"
 viewBox="0.00 0.00 110.00 325.00" xmlns="http://www.w3.org/2000/svg" xmlns:xlink="http://www.w3.org/1999/xlink">
<g id="graph0" class="graph" transform="scale(1 1) rotate(0) translate(4 321)">
<title>arduinoIOPort</title>
<!-- Node1 -->
<g id="node1" class="node">
<title>Node1</title>
<g id="a_node1"><a xlink:title="arduinoIOPort &#45; modified legacy ardino interface using PTB IOPort interface for serial communication ...">
<polygon fill="#bfbfbf" stroke="black" points="0,-0.5 0,-222.5 102,-222.5 102,-0.5 0,-0.5"/>
<text text-anchor="middle" x="51" y="-210.5" font-family="Iosevka" font-size="10.00">arduinoIOPort</text>
<polyline fill="none" stroke="black" points="0,-203.5 102,-203.5 "/>
<text text-anchor="start" x="8" y="-191.5" font-family="Iosevka" font-size="10.00">+ port</text>
<text text-anchor="start" x="8" y="-180.5" font-family="Iosevka" font-size="10.00">+ endPin</text>
<text text-anchor="start" x="8" y="-169.5" font-family="Iosevka" font-size="10.00">+ startPin</text>
<text text-anchor="start" x="8" y="-158.5" font-family="Iosevka" font-size="10.00">+ params</text>
<text text-anchor="start" x="8" y="-147.5" font-family="Iosevka" font-size="10.00">+ verbose</text>
<polyline fill="none" stroke="black" points="0,-140.5 102,-140.5 "/>
<text text-anchor="start" x="8" y="-128.5" font-family="Iosevka" font-size="10.00">+ arduinoIOPort()</text>
<text text-anchor="start" x="8" y="-117.5" font-family="Iosevka" font-size="10.00">+ delete()</text>
<text text-anchor="start" x="8" y="-106.5" font-family="Iosevka" font-size="10.00">+ close()</text>
<text text-anchor="start" x="8" y="-95.5" font-family="Iosevka" font-size="10.00">+ pinMode()</text>
<text text-anchor="start" x="8" y="-84.5" font-family="Iosevka" font-size="10.00">+ digitalRead()</text>
<text text-anchor="start" x="8" y="-73.5" font-family="Iosevka" font-size="10.00">+ digitalWrite()</text>
<text text-anchor="start" x="8" y="-62.5" font-family="Iosevka" font-size="10.00">+ analogRead()</text>
<text text-anchor="start" x="8" y="-51.5" font-family="Iosevka" font-size="10.00">+ analogWrite()</text>
<text text-anchor="start" x="8" y="-40.5" font-family="Iosevka" font-size="10.00">+ timedTTL()</text>
<text text-anchor="start" x="8" y="-29.5" font-family="Iosevka" font-size="10.00">+ strobeWord()</text>
<text text-anchor="start" x="8" y="-18.5" font-family="Iosevka" font-size="10.00">and 11 more...</text>
<text text-anchor="start" x="8" y="-7.5" font-family="Iosevka" font-size="10.00">+ cleanup()</text>
</a>
</g>
</g>
<!-- Node2 -->
<g id="node2" class="node">
<title>Node2</title>
<g id="a_node2"><a xlink:title=" ">
<polygon fill="none" stroke="#bfbfbf" points="26,-259.5 26,-316.5 76,-316.5 76,-259.5 26,-259.5"/>
<text text-anchor="middle" x="51" y="-304.5" font-family="Iosevka" font-size="10.00">handle</text>
<polyline fill="none" stroke="#bfbfbf" points="26,-297.5 76,-297.5 "/>
<text text-anchor="middle" x="51" y="-285.5" font-family="Iosevka" font-size="10.00"> </text>
<polyline fill="none" stroke="#bfbfbf" points="26,-278.5 76,-278.5 "/>
<text text-anchor="middle" x="51" y="-266.5" font-family="Iosevka" font-size="10.00"> </text>
</a>
</g>
</g>
<!-- Node2&#45;&gt;Node1 -->
<g id="edge1" class="edge">
<title>Node2&#45;&gt;Node1</title>
<path fill="none" stroke="midnightblue" d="M51,-249.2C51,-241.08 51,-232.1 51,-222.75"/>
<polygon fill="none" stroke="midnightblue" points="47.5,-249.35 51,-259.35 54.5,-249.35 47.5,-249.35"/>
</g>
</g>
</svg>
