<?xml version="1.0" encoding="UTF-8" standalone="no"?>
<!DOCTYPE svg PUBLIC "-//W3C//DTD SVG 1.1//EN"
 "http://www.w3.org/Graphics/SVG/1.1/DTD/svg11.dtd">
<!-- Generated by graphviz version 2.43.0 (0)
 -->
<!-- Title: ioManager Pages: 1 -->
<svg width="150pt" height="760pt"
 viewBox="0.00 0.00 150.00 760.00" xmlns="http://www.w3.org/2000/svg" xmlns:xlink="http://www.w3.org/1999/xlink">
<g id="graph0" class="graph" transform="scale(1 1) rotate(0) translate(4 756)">
<title>ioManager</title>
<!-- Node1 -->
<g id="node1" class="node">
<title>Node1</title>
<g id="a_node1"><a xlink:title="Input Output manager, currently just a dummy class.">
<polygon fill="#bfbfbf" stroke="black" points="17.5,-0.5 17.5,-233.5 124.5,-233.5 124.5,-0.5 17.5,-0.5"/>
<text text-anchor="middle" x="71" y="-221.5" font-family="Iosevka" font-size="10.00">ioManager</text>
<polyline fill="none" stroke="black" points="17.5,-214.5 124.5,-214.5 "/>
<text text-anchor="start" x="25.5" y="-202.5" font-family="Iosevka" font-size="10.00">+ verbose</text>
<text text-anchor="start" x="25.5" y="-191.5" font-family="Iosevka" font-size="10.00">+ io</text>
<text text-anchor="start" x="25.5" y="-180.5" font-family="Iosevka" font-size="10.00">+ silentMode</text>
<text text-anchor="start" x="25.5" y="-169.5" font-family="Iosevka" font-size="10.00">+ stimOFFValue</text>
<text text-anchor="start" x="25.5" y="-158.5" font-family="Iosevka" font-size="10.00">+ isOpen</text>
<text text-anchor="start" x="25.5" y="-147.5" font-family="Iosevka" font-size="10.00">+ sendValue</text>
<text text-anchor="start" x="25.5" y="-136.5" font-family="Iosevka" font-size="10.00">+ lastValue</text>
<polyline fill="none" stroke="black" points="17.5,-129.5 124.5,-129.5 "/>
<text text-anchor="start" x="25.5" y="-117.5" font-family="Iosevka" font-size="10.00">+ ioManager()</text>
<text text-anchor="start" x="25.5" y="-106.5" font-family="Iosevka" font-size="10.00">+ open()</text>
<text text-anchor="start" x="25.5" y="-95.5" font-family="Iosevka" font-size="10.00">+ close()</text>
<text text-anchor="start" x="25.5" y="-84.5" font-family="Iosevka" font-size="10.00">+ resetStrobe()</text>
<text text-anchor="start" x="25.5" y="-73.5" font-family="Iosevka" font-size="10.00">+ triggerStrobe()</text>
<text text-anchor="start" x="25.5" y="-62.5" font-family="Iosevka" font-size="10.00">+ prepareStrobe()</text>
<text text-anchor="start" x="25.5" y="-51.5" font-family="Iosevka" font-size="10.00">+ sendStrobe()</text>
<text text-anchor="start" x="25.5" y="-40.5" font-family="Iosevka" font-size="10.00">+ strobeServer()</text>
<text text-anchor="start" x="25.5" y="-29.5" font-family="Iosevka" font-size="10.00">+ sendTTL()</text>
<text text-anchor="start" x="25.5" y="-18.5" font-family="Iosevka" font-size="10.00">+ startRecording()</text>
<text text-anchor="start" x="25.5" y="-7.5" font-family="Iosevka" font-size="10.00">and 12 more...</text>
</a>
</g>
</g>
<!-- Node2 -->
<g id="node2" class="node">
<title>Node2</title>
<g id="a_node2"><a xlink:href="classopticka_core.html" target="_top" xlink:title="optickaCore base class inherited by other opticka classes.">
<polygon fill="none" stroke="black" points="0,-270.5 0,-657.5 142,-657.5 142,-270.5 0,-270.5"/>
<text text-anchor="middle" x="71" y="-645.5" font-family="Iosevka" font-size="10.00">optickaCore</text>
<polyline fill="none" stroke="black" points="0,-638.5 142,-638.5 "/>
<text text-anchor="start" x="8" y="-626.5" font-family="Iosevka" font-size="10.00">+ name</text>
<text text-anchor="start" x="8" y="-615.5" font-family="Iosevka" font-size="10.00">+ comment</text>
<text text-anchor="start" x="8" y="-604.5" font-family="Iosevka" font-size="10.00">+ verbose</text>
<text text-anchor="start" x="8" y="-593.5" font-family="Iosevka" font-size="10.00">+ dateStamp</text>
<text text-anchor="start" x="8" y="-582.5" font-family="Iosevka" font-size="10.00">+ uuid</text>
<text text-anchor="start" x="8" y="-571.5" font-family="Iosevka" font-size="10.00">+ paths</text>
<text text-anchor="start" x="8" y="-560.5" font-family="Iosevka" font-size="10.00">+ fullName</text>
<text text-anchor="start" x="8" y="-549.5" font-family="Iosevka" font-size="10.00"># cloning</text>
<text text-anchor="start" x="8" y="-538.5" font-family="Iosevka" font-size="10.00"># mversion</text>
<text text-anchor="start" x="8" y="-527.5" font-family="Iosevka" font-size="10.00"># className</text>
<text text-anchor="start" x="8" y="-516.5" font-family="Iosevka" font-size="10.00"># savePrefix</text>
<polyline fill="none" stroke="black" points="0,-509.5 142,-509.5 "/>
<text text-anchor="start" x="8" y="-497.5" font-family="Iosevka" font-size="10.00">+ optickaCore()</text>
<text text-anchor="start" x="8" y="-486.5" font-family="Iosevka" font-size="10.00">+ fullName()</text>
<text text-anchor="start" x="8" y="-475.5" font-family="Iosevka" font-size="10.00">+ initialiseSaveFile()</text>
<text text-anchor="start" x="8" y="-464.5" font-family="Iosevka" font-size="10.00">+ findAttributes()</text>
<text text-anchor="start" x="8" y="-453.5" font-family="Iosevka" font-size="10.00">+ findAttributesandType()</text>
<text text-anchor="start" x="8" y="-442.5" font-family="Iosevka" font-size="10.00">+ findPropertyDefault()</text>
<text text-anchor="start" x="8" y="-431.5" font-family="Iosevka" font-size="10.00">+ clone()</text>
<text text-anchor="start" x="8" y="-420.5" font-family="Iosevka" font-size="10.00">+ checkSuperclasses()</text>
<text text-anchor="start" x="8" y="-409.5" font-family="Iosevka" font-size="10.00">+ editProperties()</text>
<text text-anchor="start" x="8" y="-398.5" font-family="Iosevka" font-size="10.00">+ setProp()</text>
<text text-anchor="start" x="8" y="-387.5" font-family="Iosevka" font-size="10.00">+ checkPaths()</text>
<text text-anchor="start" x="8" y="-376.5" font-family="Iosevka" font-size="10.00">+ makeArgs()</text>
<text text-anchor="start" x="8" y="-365.5" font-family="Iosevka" font-size="10.00">+ addDefaults()</text>
<text text-anchor="start" x="8" y="-354.5" font-family="Iosevka" font-size="10.00">+ hasKey()</text>
<text text-anchor="start" x="8" y="-343.5" font-family="Iosevka" font-size="10.00"># parseArgs()</text>
<text text-anchor="start" x="8" y="-332.5" font-family="Iosevka" font-size="10.00"># addArgs()</text>
<text text-anchor="start" x="8" y="-321.5" font-family="Iosevka" font-size="10.00"># setPaths()</text>
<text text-anchor="start" x="8" y="-310.5" font-family="Iosevka" font-size="10.00"># toStructure()</text>
<text text-anchor="start" x="8" y="-299.5" font-family="Iosevka" font-size="10.00"># getType()</text>
<text text-anchor="start" x="8" y="-288.5" font-family="Iosevka" font-size="10.00"># salutation()</text>
<text text-anchor="start" x="8" y="-277.5" font-family="Iosevka" font-size="10.00"># LogOutput()</text>
</a>
</g>
</g>
<!-- Node2&#45;&gt;Node1 -->
<g id="edge1" class="edge">
<title>Node2&#45;&gt;Node1</title>
<path fill="none" stroke="midnightblue" d="M71,-260.11C71,-251.1 71,-242.2 71,-233.52"/>
<polygon fill="none" stroke="midnightblue" points="67.5,-260.33 71,-270.33 74.5,-260.33 67.5,-260.33"/>
</g>
<!-- Node3 -->
<g id="node3" class="node">
<title>Node3</title>
<g id="a_node3"><a xlink:title=" ">
<polygon fill="none" stroke="#bfbfbf" points="46,-694.5 46,-751.5 96,-751.5 96,-694.5 46,-694.5"/>
<text text-anchor="middle" x="71" y="-739.5" font-family="Iosevka" font-size="10.00">handle</text>
<polyline fill="none" stroke="#bfbfbf" points="46,-732.5 96,-732.5 "/>
<text text-anchor="middle" x="71" y="-720.5" font-family="Iosevka" font-size="10.00"> </text>
<polyline fill="none" stroke="#bfbfbf" points="46,-713.5 96,-713.5 "/>
<text text-anchor="middle" x="71" y="-701.5" font-family="Iosevka" font-size="10.00"> </text>
</a>
</g>
</g>
<!-- Node3&#45;&gt;Node2 -->
<g id="edge2" class="edge">
<title>Node3&#45;&gt;Node2</title>
<path fill="none" stroke="midnightblue" d="M71,-684.46C71,-676.38 71,-667.31 71,-657.58"/>
<polygon fill="none" stroke="midnightblue" points="67.5,-684.5 71,-694.5 74.5,-684.5 67.5,-684.5"/>
</g>
</g>
</svg>
