<?xml version="1.0" encoding="UTF-8" standalone="no"?>
<!DOCTYPE svg PUBLIC "-//W3C//DTD SVG 1.1//EN"
 "http://www.w3.org/Graphics/SVG/1.1/DTD/svg11.dtd">
<!-- Generated by graphviz version 2.43.0 (0)
 -->
<!-- Title: labJack Pages: 1 -->
<svg width="111pt" height="413pt"
 viewBox="0.00 0.00 111.00 413.00" xmlns="http://www.w3.org/2000/svg" xmlns:xlink="http://www.w3.org/1999/xlink">
<g id="graph0" class="graph" transform="scale(1 1) rotate(0) translate(4 409)">
<title>labJack</title>
<!-- Node1 -->
<g id="node1" class="node">
<title>Node1</title>
<g id="a_node1"><a xlink:title="LABJACK Connects and manages a LabJack U3 / U6.">
<polygon fill="#bfbfbf" stroke="black" points="0,-0.5 0,-310.5 103,-310.5 103,-0.5 0,-0.5"/>
<text text-anchor="middle" x="51.5" y="-298.5" font-family="Iosevka" font-size="10.00">labJack</text>
<polyline fill="none" stroke="black" points="0,-291.5 103,-291.5 "/>
<text text-anchor="start" x="8" y="-279.5" font-family="Iosevka" font-size="10.00">+ name</text>
<text text-anchor="start" x="8" y="-268.5" font-family="Iosevka" font-size="10.00">+ deviceID</text>
<text text-anchor="start" x="8" y="-257.5" font-family="Iosevka" font-size="10.00">+ device</text>
<text text-anchor="start" x="8" y="-246.5" font-family="Iosevka" font-size="10.00">+ silentMode</text>
<text text-anchor="start" x="8" y="-235.5" font-family="Iosevka" font-size="10.00">+ header</text>
<text text-anchor="start" x="8" y="-224.5" font-family="Iosevka" font-size="10.00">+ library</text>
<text text-anchor="start" x="8" y="-213.5" font-family="Iosevka" font-size="10.00">+ timeOut</text>
<text text-anchor="start" x="8" y="-202.5" font-family="Iosevka" font-size="10.00">+ verbose</text>
<text text-anchor="start" x="8" y="-191.5" font-family="Iosevka" font-size="10.00">+ openNow</text>
<text text-anchor="start" x="8" y="-180.5" font-family="Iosevka" font-size="10.00">+ readResponse</text>
<text text-anchor="start" x="8" y="-169.5" font-family="Iosevka" font-size="10.00">+ strobeTime</text>
<polyline fill="none" stroke="black" points="0,-162.5 103,-162.5 "/>
<text text-anchor="start" x="8" y="-150.5" font-family="Iosevka" font-size="10.00">+ labJack()</text>
<text text-anchor="start" x="8" y="-139.5" font-family="Iosevka" font-size="10.00">+ open()</text>
<text text-anchor="start" x="8" y="-128.5" font-family="Iosevka" font-size="10.00">+ close()</text>
<text text-anchor="start" x="8" y="-117.5" font-family="Iosevka" font-size="10.00">+ validHandle()</text>
<text text-anchor="start" x="8" y="-106.5" font-family="Iosevka" font-size="10.00">+ rawWrite()</text>
<text text-anchor="start" x="8" y="-95.5" font-family="Iosevka" font-size="10.00">+ rawRead()</text>
<text text-anchor="start" x="8" y="-84.5" font-family="Iosevka" font-size="10.00">+ waitShort()</text>
<text text-anchor="start" x="8" y="-73.5" font-family="Iosevka" font-size="10.00">+ waitLong()</text>
<text text-anchor="start" x="8" y="-62.5" font-family="Iosevka" font-size="10.00">+ timedTTL()</text>
<text text-anchor="start" x="8" y="-51.5" font-family="Iosevka" font-size="10.00">+ setDIO()</text>
<text text-anchor="start" x="8" y="-40.5" font-family="Iosevka" font-size="10.00">and 12 more...</text>
<text text-anchor="start" x="8" y="-29.5" font-family="Iosevka" font-size="10.00">+ checksum8()</text>
<text text-anchor="start" x="8" y="-18.5" font-family="Iosevka" font-size="10.00">+ checksum16()</text>
<text text-anchor="start" x="8" y="-7.5" font-family="Iosevka" font-size="10.00">+ prepareWords()</text>
</a>
</g>
</g>
<!-- Node2 -->
<g id="node2" class="node">
<title>Node2</title>
<g id="a_node2"><a xlink:title=" ">
<polygon fill="none" stroke="#bfbfbf" points="26.5,-347.5 26.5,-404.5 76.5,-404.5 76.5,-347.5 26.5,-347.5"/>
<text text-anchor="middle" x="51.5" y="-392.5" font-family="Iosevka" font-size="10.00">handle</text>
<polyline fill="none" stroke="#bfbfbf" points="26.5,-385.5 76.5,-385.5 "/>
<text text-anchor="middle" x="51.5" y="-373.5" font-family="Iosevka" font-size="10.00"> </text>
<polyline fill="none" stroke="#bfbfbf" points="26.5,-366.5 76.5,-366.5 "/>
<text text-anchor="middle" x="51.5" y="-354.5" font-family="Iosevka" font-size="10.00"> </text>
</a>
</g>
</g>
<!-- Node2&#45;&gt;Node1 -->
<g id="edge1" class="edge">
<title>Node2&#45;&gt;Node1</title>
<path fill="none" stroke="midnightblue" d="M51.5,-337.28C51.5,-329.21 51.5,-320.21 51.5,-310.65"/>
<polygon fill="none" stroke="midnightblue" points="48,-337.33 51.5,-347.33 55,-337.33 48,-337.33"/>
</g>
</g>
</svg>
