<?xml version="1.0" encoding="UTF-8" standalone="no"?>
<!DOCTYPE svg PUBLIC "-//W3C//DTD SVG 1.1//EN"
 "http://www.w3.org/Graphics/SVG/1.1/DTD/svg11.dtd">
<!-- Generated by graphviz version 2.43.0 (0)
 -->
<!-- Title: fixationCrossStimulus Pages: 1 -->
<svg width="232pt" height="1842pt"
 viewBox="0.00 0.00 232.00 1842.00" xmlns="http://www.w3.org/2000/svg" xmlns:xlink="http://www.w3.org/1999/xlink">
<g id="graph0" class="graph" transform="scale(1 1) rotate(0) translate(4 1838)">
<title>fixationCrossStimulus</title>
<!-- Node1 -->
<g id="Node000001" class="node">
<title>Node1</title>
<g id="a_Node000001"><a xlink:title="draw fixation cross from Thaler L, Schütz AC, Goodale MA, &amp; Gegenfurtner KR (2013) &quot;What is the best ...">
<polygon fill="#999999" stroke="transparent" points="187.5,-379 63.5,-379 63.5,0 187.5,0 187.5,-379"/>
<text text-anchor="start" x="76" y="-366.5" font-family="Iosevka" font-size="10.00">fixationCrossStimulus</text>
<text text-anchor="start" x="67.5" y="-351.5" font-family="Iosevka" font-size="10.00">+</text>
<text text-anchor="start" x="78.5" y="-351.5" font-family="Iosevka" font-size="10.00">alpha2</text>
<text text-anchor="start" x="67.5" y="-336.5" font-family="Iosevka" font-size="10.00">+</text>
<text text-anchor="start" x="78.5" y="-336.5" font-family="Iosevka" font-size="10.00">colour2</text>
<text text-anchor="start" x="67.5" y="-321.5" font-family="Iosevka" font-size="10.00">+</text>
<text text-anchor="start" x="78.5" y="-321.5" font-family="Iosevka" font-size="10.00">lineWidth</text>
<text text-anchor="start" x="67.5" y="-306.5" font-family="Iosevka" font-size="10.00">+</text>
<text text-anchor="start" x="78.5" y="-306.5" font-family="Iosevka" font-size="10.00">showDisk</text>
<text text-anchor="start" x="67.5" y="-291.5" font-family="Iosevka" font-size="10.00">+</text>
<text text-anchor="start" x="78.5" y="-291.5" font-family="Iosevka" font-size="10.00">type</text>
<text text-anchor="start" x="67.5" y="-276.5" font-family="Iosevka" font-size="10.00">+</text>
<text text-anchor="start" x="78.5" y="-276.5" font-family="Iosevka" font-size="10.00">flashTime</text>
<text text-anchor="start" x="67.5" y="-261.5" font-family="Iosevka" font-size="10.00">+</text>
<text text-anchor="start" x="78.5" y="-261.5" font-family="Iosevka" font-size="10.00">flashOn</text>
<text text-anchor="start" x="67.5" y="-246.5" font-family="Iosevka" font-size="10.00">+</text>
<text text-anchor="start" x="78.5" y="-246.5" font-family="Iosevka" font-size="10.00">flashColour</text>
<text text-anchor="start" x="67.5" y="-231.5" font-family="Iosevka" font-size="10.00">+</text>
<text text-anchor="start" x="78.5" y="-231.5" font-family="Iosevka" font-size="10.00">pulseFrequency</text>
<text text-anchor="start" x="67.5" y="-216.5" font-family="Iosevka" font-size="10.00">+</text>
<text text-anchor="start" x="78.5" y="-216.5" font-family="Iosevka" font-size="10.00">pulseRange</text>
<text text-anchor="start" x="67.5" y="-201.5" font-family="Iosevka" font-size="10.00">+</text>
<text text-anchor="start" x="78.5" y="-201.5" font-family="Iosevka" font-size="10.00">family</text>
<text text-anchor="start" x="67.5" y="-186.5" font-family="Iosevka" font-size="10.00">+</text>
<text text-anchor="start" x="78.5" y="-186.5" font-family="Iosevka" font-size="10.00">ignorePropertiesUI</text>
<text text-anchor="start" x="67.5" y="-171.5" font-family="Iosevka" font-size="10.00">+</text>
<text text-anchor="start" x="78.5" y="-171.5" font-family="Iosevka" font-size="10.00">fixationCrossStimulus()</text>
<text text-anchor="start" x="67.5" y="-156.5" font-family="Iosevka" font-size="10.00">+</text>
<text text-anchor="start" x="78.5" y="-156.5" font-family="Iosevka" font-size="10.00">setup()</text>
<text text-anchor="start" x="67.5" y="-141.5" font-family="Iosevka" font-size="10.00">+</text>
<text text-anchor="start" x="78.5" y="-141.5" font-family="Iosevka" font-size="10.00">set_xPositionOut()</text>
<text text-anchor="start" x="67.5" y="-126.5" font-family="Iosevka" font-size="10.00">+</text>
<text text-anchor="start" x="78.5" y="-126.5" font-family="Iosevka" font-size="10.00">set_yPositionOut()</text>
<text text-anchor="start" x="67.5" y="-111.5" font-family="Iosevka" font-size="10.00">+</text>
<text text-anchor="start" x="78.5" y="-111.5" font-family="Iosevka" font-size="10.00">set_alphaOut()</text>
<text text-anchor="start" x="67.5" y="-96.5" font-family="Iosevka" font-size="10.00">+</text>
<text text-anchor="start" x="78.5" y="-96.5" font-family="Iosevka" font-size="10.00">set_alpha2Out()</text>
<text text-anchor="start" x="67.5" y="-81.5" font-family="Iosevka" font-size="10.00">+</text>
<text text-anchor="start" x="78.5" y="-81.5" font-family="Iosevka" font-size="10.00">set_sizeOut()</text>
<text text-anchor="start" x="67.5" y="-66.5" font-family="Iosevka" font-size="10.00">+</text>
<text text-anchor="start" x="78.5" y="-66.5" font-family="Iosevka" font-size="10.00">set_lineWidthOut()</text>
<text text-anchor="start" x="67.5" y="-51.5" font-family="Iosevka" font-size="10.00">+</text>
<text text-anchor="start" x="78.5" y="-51.5" font-family="Iosevka" font-size="10.00">set_colourOut()</text>
<text text-anchor="start" x="67.5" y="-36.5" font-family="Iosevka" font-size="10.00">+</text>
<text text-anchor="start" x="78.5" y="-36.5" font-family="Iosevka" font-size="10.00">set_colour2Out()</text>
<text text-anchor="start" x="78.5" y="-21.5" font-family="Iosevka" font-size="10.00">and 7 more...</text>
<text text-anchor="start" x="67.5" y="-6.5" font-family="Iosevka" font-size="10.00">#</text>
<text text-anchor="start" x="78.5" y="-6.5" font-family="Iosevka" font-size="10.00">setupFlash()</text>
<polygon fill="#666666" stroke="#666666" points="63.5,-361.5 63.5,-361.5 187.5,-361.5 187.5,-361.5 63.5,-361.5"/>
<polygon fill="#666666" stroke="#666666" points="63.5,-181.5 63.5,-181.5 76.5,-181.5 76.5,-181.5 63.5,-181.5"/>
<polygon fill="#666666" stroke="#666666" points="76.5,-181.5 76.5,-181.5 187.5,-181.5 187.5,-181.5 76.5,-181.5"/>
<polygon fill="none" stroke="#666666" points="63.5,0 63.5,-379 187.5,-379 187.5,0 63.5,0"/>
</a>
</g>
</g>
<!-- Node2 -->
<g id="Node000002" class="node">
<title>Node2</title>
<g id="a_Node000002"><a xlink:href="classbase_stimulus.html" target="_top" xlink:title="baseStimulus is the superclass for all stimulus objects">
<polygon fill="white" stroke="transparent" points="198.5,-1109 52.5,-1109 52.5,-415 198.5,-415 198.5,-1109"/>
<text text-anchor="start" x="95" y="-1097" font-family="Iosevka" font-size="10.00">baseStimulus</text>
<text text-anchor="start" x="56.5" y="-1082" font-family="Iosevka" font-size="10.00">+</text>
<text text-anchor="start" x="67.5" y="-1082" font-family="Iosevka" font-size="10.00">type</text>
<text text-anchor="start" x="56.5" y="-1067" font-family="Iosevka" font-size="10.00">+</text>
<text text-anchor="start" x="67.5" y="-1067" font-family="Iosevka" font-size="10.00">xPosition</text>
<text text-anchor="start" x="56.5" y="-1052" font-family="Iosevka" font-size="10.00">+</text>
<text text-anchor="start" x="67.5" y="-1052" font-family="Iosevka" font-size="10.00">yPosition</text>
<text text-anchor="start" x="56.5" y="-1037" font-family="Iosevka" font-size="10.00">+</text>
<text text-anchor="start" x="67.5" y="-1037" font-family="Iosevka" font-size="10.00">size</text>
<text text-anchor="start" x="56.5" y="-1022" font-family="Iosevka" font-size="10.00">+</text>
<text text-anchor="start" x="67.5" y="-1022" font-family="Iosevka" font-size="10.00">colour</text>
<text text-anchor="start" x="56.5" y="-1007" font-family="Iosevka" font-size="10.00">+</text>
<text text-anchor="start" x="67.5" y="-1007" font-family="Iosevka" font-size="10.00">alpha</text>
<text text-anchor="start" x="56.5" y="-992" font-family="Iosevka" font-size="10.00">+</text>
<text text-anchor="start" x="67.5" y="-992" font-family="Iosevka" font-size="10.00">startPosition</text>
<text text-anchor="start" x="56.5" y="-977" font-family="Iosevka" font-size="10.00">+</text>
<text text-anchor="start" x="67.5" y="-977" font-family="Iosevka" font-size="10.00">speed</text>
<text text-anchor="start" x="56.5" y="-962" font-family="Iosevka" font-size="10.00">+</text>
<text text-anchor="start" x="67.5" y="-962" font-family="Iosevka" font-size="10.00">angle</text>
<text text-anchor="start" x="56.5" y="-947" font-family="Iosevka" font-size="10.00">+</text>
<text text-anchor="start" x="67.5" y="-947" font-family="Iosevka" font-size="10.00">delayTime</text>
<text text-anchor="start" x="67.5" y="-932" font-family="Iosevka" font-size="10.00">and 20 more...</text>
<text text-anchor="start" x="56.5" y="-917" font-family="Iosevka" font-size="10.00">#</text>
<text text-anchor="start" x="67.5" y="-917" font-family="Iosevka" font-size="10.00">family</text>
<text text-anchor="start" x="56.5" y="-902" font-family="Iosevka" font-size="10.00">#</text>
<text text-anchor="start" x="67.5" y="-902" font-family="Iosevka" font-size="10.00">texture</text>
<text text-anchor="start" x="56.5" y="-887" font-family="Iosevka" font-size="10.00">#</text>
<text text-anchor="start" x="67.5" y="-887" font-family="Iosevka" font-size="10.00">handles</text>
<text text-anchor="start" x="56.5" y="-872" font-family="Iosevka" font-size="10.00">#</text>
<text text-anchor="start" x="67.5" y="-872" font-family="Iosevka" font-size="10.00">sM</text>
<text text-anchor="start" x="56.5" y="-857" font-family="Iosevka" font-size="10.00">#</text>
<text text-anchor="start" x="67.5" y="-857" font-family="Iosevka" font-size="10.00">animator</text>
<text text-anchor="start" x="56.5" y="-842" font-family="Iosevka" font-size="10.00">#</text>
<text text-anchor="start" x="67.5" y="-842" font-family="Iosevka" font-size="10.00">screenVals</text>
<text text-anchor="start" x="56.5" y="-827" font-family="Iosevka" font-size="10.00">#</text>
<text text-anchor="start" x="67.5" y="-827" font-family="Iosevka" font-size="10.00">isSetup</text>
<text text-anchor="start" x="56.5" y="-812" font-family="Iosevka" font-size="10.00">#</text>
<text text-anchor="start" x="67.5" y="-812" font-family="Iosevka" font-size="10.00">isGUI</text>
<text text-anchor="start" x="56.5" y="-797" font-family="Iosevka" font-size="10.00">#</text>
<text text-anchor="start" x="67.5" y="-797" font-family="Iosevka" font-size="10.00">dstRect</text>
<text text-anchor="start" x="56.5" y="-782" font-family="Iosevka" font-size="10.00">#</text>
<text text-anchor="start" x="67.5" y="-782" font-family="Iosevka" font-size="10.00">mouseValid</text>
<text text-anchor="start" x="67.5" y="-767" font-family="Iosevka" font-size="10.00">and 12 more...</text>
<text text-anchor="start" x="56.5" y="-752" font-family="Iosevka" font-size="10.00">+</text>
<text text-anchor="start" x="67.5" y="-752" font-family="Iosevka" font-size="10.00">setup()</text>
<text text-anchor="start" x="56.5" y="-737" font-family="Iosevka" font-size="10.00">+</text>
<text text-anchor="start" x="67.5" y="-737" font-family="Iosevka" font-size="10.00">draw()</text>
<text text-anchor="start" x="56.5" y="-722" font-family="Iosevka" font-size="10.00">+</text>
<text text-anchor="start" x="67.5" y="-722" font-family="Iosevka" font-size="10.00">animate()</text>
<text text-anchor="start" x="56.5" y="-707" font-family="Iosevka" font-size="10.00">+</text>
<text text-anchor="start" x="67.5" y="-707" font-family="Iosevka" font-size="10.00">update()</text>
<text text-anchor="start" x="56.5" y="-692" font-family="Iosevka" font-size="10.00">+</text>
<text text-anchor="start" x="67.5" y="-692" font-family="Iosevka" font-size="10.00">reset()</text>
<text text-anchor="start" x="56.5" y="-677" font-family="Iosevka" font-size="10.00">+</text>
<text text-anchor="start" x="67.5" y="-677" font-family="Iosevka" font-size="10.00">baseStimulus()</text>
<text text-anchor="start" x="56.5" y="-662" font-family="Iosevka" font-size="10.00">+</text>
<text text-anchor="start" x="67.5" y="-662" font-family="Iosevka" font-size="10.00">colour()</text>
<text text-anchor="start" x="56.5" y="-647" font-family="Iosevka" font-size="10.00">+</text>
<text text-anchor="start" x="67.5" y="-647" font-family="Iosevka" font-size="10.00">alpha()</text>
<text text-anchor="start" x="56.5" y="-632" font-family="Iosevka" font-size="10.00">+</text>
<text text-anchor="start" x="67.5" y="-632" font-family="Iosevka" font-size="10.00">delta()</text>
<text text-anchor="start" x="56.5" y="-617" font-family="Iosevka" font-size="10.00">+</text>
<text text-anchor="start" x="67.5" y="-617" font-family="Iosevka" font-size="10.00">dX()</text>
<text text-anchor="start" x="67.5" y="-602" font-family="Iosevka" font-size="10.00">and 18 more...</text>
<text text-anchor="start" x="56.5" y="-587" font-family="Iosevka" font-size="10.00">+</text>
<text text-anchor="start" x="67.5" y="-587" font-family="Iosevka" font-size="10.00">d2r()</text>
<text text-anchor="start" x="56.5" y="-572" font-family="Iosevka" font-size="10.00">+</text>
<text text-anchor="start" x="67.5" y="-572" font-family="Iosevka" font-size="10.00">r2d()</text>
<text text-anchor="start" x="56.5" y="-557" font-family="Iosevka" font-size="10.00">+</text>
<text text-anchor="start" x="67.5" y="-557" font-family="Iosevka" font-size="10.00">findDistance()</text>
<text text-anchor="start" x="56.5" y="-542" font-family="Iosevka" font-size="10.00">+</text>
<text text-anchor="start" x="67.5" y="-542" font-family="Iosevka" font-size="10.00">updatePosition()</text>
<text text-anchor="start" x="56.5" y="-527" font-family="Iosevka" font-size="10.00">#</text>
<text text-anchor="start" x="67.5" y="-527" font-family="Iosevka" font-size="10.00">addRuntimeProperties()</text>
<text text-anchor="start" x="56.5" y="-512" font-family="Iosevka" font-size="10.00">#</text>
<text text-anchor="start" x="67.5" y="-512" font-family="Iosevka" font-size="10.00">updateRuntimeProperties()</text>
<text text-anchor="start" x="56.5" y="-497" font-family="Iosevka" font-size="10.00">#</text>
<text text-anchor="start" x="67.5" y="-497" font-family="Iosevka" font-size="10.00">computePosition()</text>
<text text-anchor="start" x="56.5" y="-482" font-family="Iosevka" font-size="10.00">#</text>
<text text-anchor="start" x="67.5" y="-482" font-family="Iosevka" font-size="10.00">setAnimationDelta()</text>
<text text-anchor="start" x="56.5" y="-467" font-family="Iosevka" font-size="10.00">#</text>
<text text-anchor="start" x="67.5" y="-467" font-family="Iosevka" font-size="10.00">setRect()</text>
<text text-anchor="start" x="56.5" y="-452" font-family="Iosevka" font-size="10.00">#</text>
<text text-anchor="start" x="67.5" y="-452" font-family="Iosevka" font-size="10.00">toStructure()</text>
<text text-anchor="start" x="56.5" y="-437" font-family="Iosevka" font-size="10.00">#</text>
<text text-anchor="start" x="67.5" y="-437" font-family="Iosevka" font-size="10.00">removeTmpProperties()</text>
<text text-anchor="start" x="56.5" y="-422" font-family="Iosevka" font-size="10.00">#</text>
<text text-anchor="start" x="67.5" y="-422" font-family="Iosevka" font-size="10.00">delete()</text>
<polygon fill="#666666" stroke="#666666" points="52.5,-1092 52.5,-1092 198.5,-1092 198.5,-1092 52.5,-1092"/>
<polygon fill="#666666" stroke="#666666" points="52.5,-762 52.5,-762 65.5,-762 65.5,-762 52.5,-762"/>
<polygon fill="#666666" stroke="#666666" points="65.5,-762 65.5,-762 198.5,-762 198.5,-762 65.5,-762"/>
<polygon fill="none" stroke="#666666" points="52.5,-415 52.5,-1109 198.5,-1109 198.5,-415 52.5,-415"/>
</a>
</g>
</g>
<!-- Node2&#45;&gt;Node1 -->
<g id="edge1_Node000001_Node000002" class="edge">
<title>Node2&#45;&gt;Node1</title>
<g id="a_edge1_Node000001_Node000002"><a xlink:title=" ">
<path fill="none" stroke="#63b8ff" d="M125.5,-404.63C125.5,-396.05 125.5,-387.56 125.5,-379.2"/>
<polygon fill="none" stroke="#63b8ff" points="122,-404.75 125.5,-414.75 129,-404.75 122,-404.75"/>
</a>
</g>
</g>
<!-- Node3 -->
<g id="Node000003" class="node">
<title>Node3</title>
<g id="a_Node000003"><a xlink:href="classopticka_core.html" target="_top" xlink:title="optickaCore base class inherited by other opticka classes.">
<polygon fill="white" stroke="transparent" points="131,-1749 0,-1749 0,-1145 131,-1145 131,-1749"/>
<text text-anchor="start" x="38.5" y="-1737" font-family="Iosevka" font-size="10.00">optickaCore</text>
<text text-anchor="start" x="4.5" y="-1722" font-family="Iosevka" font-size="10.00">+</text>
<text text-anchor="start" x="15.5" y="-1722" font-family="Iosevka" font-size="10.00">name</text>
<text text-anchor="start" x="4.5" y="-1707" font-family="Iosevka" font-size="10.00">+</text>
<text text-anchor="start" x="15.5" y="-1707" font-family="Iosevka" font-size="10.00">comment</text>
<text text-anchor="start" x="4.5" y="-1692" font-family="Iosevka" font-size="10.00">+</text>
<text text-anchor="start" x="15.5" y="-1692" font-family="Iosevka" font-size="10.00">verbose</text>
<text text-anchor="start" x="4.5" y="-1677" font-family="Iosevka" font-size="10.00">+</text>
<text text-anchor="start" x="15.5" y="-1677" font-family="Iosevka" font-size="10.00">dateStamp</text>
<text text-anchor="start" x="4.5" y="-1662" font-family="Iosevka" font-size="10.00">+</text>
<text text-anchor="start" x="15.5" y="-1662" font-family="Iosevka" font-size="10.00">uuid</text>
<text text-anchor="start" x="4.5" y="-1647" font-family="Iosevka" font-size="10.00">+</text>
<text text-anchor="start" x="15.5" y="-1647" font-family="Iosevka" font-size="10.00">paths</text>
<text text-anchor="start" x="4.5" y="-1632" font-family="Iosevka" font-size="10.00">+</text>
<text text-anchor="start" x="15.5" y="-1632" font-family="Iosevka" font-size="10.00">fullName</text>
<text text-anchor="start" x="4.5" y="-1617" font-family="Iosevka" font-size="10.00">#</text>
<text text-anchor="start" x="15.5" y="-1617" font-family="Iosevka" font-size="10.00">cloning</text>
<text text-anchor="start" x="4.5" y="-1602" font-family="Iosevka" font-size="10.00">#</text>
<text text-anchor="start" x="15.5" y="-1602" font-family="Iosevka" font-size="10.00">mversion</text>
<text text-anchor="start" x="4.5" y="-1587" font-family="Iosevka" font-size="10.00">#</text>
<text text-anchor="start" x="15.5" y="-1587" font-family="Iosevka" font-size="10.00">sansFont</text>
<text text-anchor="start" x="4.5" y="-1572" font-family="Iosevka" font-size="10.00">#</text>
<text text-anchor="start" x="15.5" y="-1572" font-family="Iosevka" font-size="10.00">monoFont</text>
<text text-anchor="start" x="4.5" y="-1557" font-family="Iosevka" font-size="10.00">#</text>
<text text-anchor="start" x="15.5" y="-1557" font-family="Iosevka" font-size="10.00">className</text>
<text text-anchor="start" x="4.5" y="-1542" font-family="Iosevka" font-size="10.00">#</text>
<text text-anchor="start" x="15.5" y="-1542" font-family="Iosevka" font-size="10.00">savePrefix</text>
<text text-anchor="start" x="4.5" y="-1527" font-family="Iosevka" font-size="10.00">#</text>
<text text-anchor="start" x="15.5" y="-1527" font-family="Iosevka" font-size="10.00">fullName_</text>
<text text-anchor="start" x="4.5" y="-1512" font-family="Iosevka" font-size="10.00">+</text>
<text text-anchor="start" x="15.5" y="-1512" font-family="Iosevka" font-size="10.00">optickaCore()</text>
<text text-anchor="start" x="4.5" y="-1497" font-family="Iosevka" font-size="10.00">+</text>
<text text-anchor="start" x="15.5" y="-1497" font-family="Iosevka" font-size="10.00">fullName()</text>
<text text-anchor="start" x="4.5" y="-1482" font-family="Iosevka" font-size="10.00">+</text>
<text text-anchor="start" x="15.5" y="-1482" font-family="Iosevka" font-size="10.00">getALF()</text>
<text text-anchor="start" x="4.5" y="-1467" font-family="Iosevka" font-size="10.00">+</text>
<text text-anchor="start" x="15.5" y="-1467" font-family="Iosevka" font-size="10.00">findAttributes()</text>
<text text-anchor="start" x="4.5" y="-1452" font-family="Iosevka" font-size="10.00">+</text>
<text text-anchor="start" x="15.5" y="-1452" font-family="Iosevka" font-size="10.00">findAttributesandType()</text>
<text text-anchor="start" x="4.5" y="-1437" font-family="Iosevka" font-size="10.00">+</text>
<text text-anchor="start" x="15.5" y="-1437" font-family="Iosevka" font-size="10.00">findPropertyDefault()</text>
<text text-anchor="start" x="4.5" y="-1422" font-family="Iosevka" font-size="10.00">+</text>
<text text-anchor="start" x="15.5" y="-1422" font-family="Iosevka" font-size="10.00">clone()</text>
<text text-anchor="start" x="4.5" y="-1407" font-family="Iosevka" font-size="10.00">+</text>
<text text-anchor="start" x="15.5" y="-1407" font-family="Iosevka" font-size="10.00">checkSuperclasses()</text>
<text text-anchor="start" x="4.5" y="-1392" font-family="Iosevka" font-size="10.00">+</text>
<text text-anchor="start" x="15.5" y="-1392" font-family="Iosevka" font-size="10.00">editProperties()</text>
<text text-anchor="start" x="4.5" y="-1377" font-family="Iosevka" font-size="10.00">+</text>
<text text-anchor="start" x="15.5" y="-1377" font-family="Iosevka" font-size="10.00">setProp()</text>
<text text-anchor="start" x="4.5" y="-1362" font-family="Iosevka" font-size="10.00">+</text>
<text text-anchor="start" x="15.5" y="-1362" font-family="Iosevka" font-size="10.00">initialiseGlobals()</text>
<text text-anchor="start" x="4.5" y="-1347" font-family="Iosevka" font-size="10.00">+</text>
<text text-anchor="start" x="15.5" y="-1347" font-family="Iosevka" font-size="10.00">initialiseSaveFile()</text>
<text text-anchor="start" x="4.5" y="-1332" font-family="Iosevka" font-size="10.00">+</text>
<text text-anchor="start" x="15.5" y="-1332" font-family="Iosevka" font-size="10.00">checkPaths()</text>
<text text-anchor="start" x="4.5" y="-1317" font-family="Iosevka" font-size="10.00">+</text>
<text text-anchor="start" x="15.5" y="-1317" font-family="Iosevka" font-size="10.00">makeArgs()</text>
<text text-anchor="start" x="4.5" y="-1302" font-family="Iosevka" font-size="10.00">+</text>
<text text-anchor="start" x="15.5" y="-1302" font-family="Iosevka" font-size="10.00">addDefaults()</text>
<text text-anchor="start" x="4.5" y="-1287" font-family="Iosevka" font-size="10.00">+</text>
<text text-anchor="start" x="15.5" y="-1287" font-family="Iosevka" font-size="10.00">hasKey()</text>
<text text-anchor="start" x="4.5" y="-1272" font-family="Iosevka" font-size="10.00">+</text>
<text text-anchor="start" x="15.5" y="-1272" font-family="Iosevka" font-size="10.00">getKeys()</text>
<text text-anchor="start" x="4.5" y="-1257" font-family="Iosevka" font-size="10.00">#</text>
<text text-anchor="start" x="15.5" y="-1257" font-family="Iosevka" font-size="10.00">parseArgs()</text>
<text text-anchor="start" x="4.5" y="-1242" font-family="Iosevka" font-size="10.00">#</text>
<text text-anchor="start" x="15.5" y="-1242" font-family="Iosevka" font-size="10.00">addArgs()</text>
<text text-anchor="start" x="4.5" y="-1227" font-family="Iosevka" font-size="10.00">#</text>
<text text-anchor="start" x="15.5" y="-1227" font-family="Iosevka" font-size="10.00">setPaths()</text>
<text text-anchor="start" x="4.5" y="-1212" font-family="Iosevka" font-size="10.00">#</text>
<text text-anchor="start" x="15.5" y="-1212" font-family="Iosevka" font-size="10.00">getFonts()</text>
<text text-anchor="start" x="4.5" y="-1197" font-family="Iosevka" font-size="10.00">#</text>
<text text-anchor="start" x="15.5" y="-1197" font-family="Iosevka" font-size="10.00">toStructure()</text>
<text text-anchor="start" x="4.5" y="-1182" font-family="Iosevka" font-size="10.00">#</text>
<text text-anchor="start" x="15.5" y="-1182" font-family="Iosevka" font-size="10.00">getType()</text>
<text text-anchor="start" x="4.5" y="-1167" font-family="Iosevka" font-size="10.00">#</text>
<text text-anchor="start" x="15.5" y="-1167" font-family="Iosevka" font-size="10.00">logOutput()</text>
<text text-anchor="start" x="4.5" y="-1152" font-family="Iosevka" font-size="10.00">#</text>
<text text-anchor="start" x="15.5" y="-1152" font-family="Iosevka" font-size="10.00">salutation()</text>
<polygon fill="#666666" stroke="#666666" points="0.5,-1732 0.5,-1732 131.5,-1732 131.5,-1732 0.5,-1732"/>
<polygon fill="#666666" stroke="#666666" points="0.5,-1522 0.5,-1522 13.5,-1522 13.5,-1522 0.5,-1522"/>
<polygon fill="#666666" stroke="#666666" points="13.5,-1522 13.5,-1522 131.5,-1522 131.5,-1522 13.5,-1522"/>
<polygon fill="none" stroke="#666666" points="0,-1145 0,-1749 131,-1749 131,-1145 0,-1145"/>
</a>
</g>
</g>
<!-- Node3&#45;&gt;Node2 -->
<g id="edge2_Node000002_Node000003" class="edge">
<title>Node3&#45;&gt;Node2</title>
<g id="a_edge2_Node000002_Node000003"><a xlink:title=" ">
<path fill="none" stroke="#63b8ff" d="M92.83,-1134.89C93.58,-1126.32 94.34,-1117.72 95.09,-1109.12"/>
<polygon fill="none" stroke="#63b8ff" points="89.34,-1134.67 91.95,-1144.94 96.31,-1135.28 89.34,-1134.67"/>
</a>
</g>
</g>
<!-- Node4 -->
<g id="Node000004" class="node">
<title>Node4</title>
<g id="a_Node000004"><a xlink:title=" ">
<polygon fill="white" stroke="transparent" points="86.5,-1834 44.5,-1834 44.5,-1785 86.5,-1785 86.5,-1834"/>
<text text-anchor="start" x="49.5" y="-1821.5" font-family="Iosevka" font-size="10.00">handle</text>
<text text-anchor="start" x="64" y="-1806.5" font-family="Iosevka" font-size="10.00"> </text>
<text text-anchor="start" x="64" y="-1791.5" font-family="Iosevka" font-size="10.00"> </text>
<polygon fill="#666666" stroke="#666666" points="44.5,-1816.5 44.5,-1816.5 86.5,-1816.5 86.5,-1816.5 44.5,-1816.5"/>
<polygon fill="#666666" stroke="#666666" points="44.5,-1801.5 44.5,-1801.5 86.5,-1801.5 86.5,-1801.5 44.5,-1801.5"/>
<polygon fill="none" stroke="#666666" points="44.5,-1785 44.5,-1834 86.5,-1834 86.5,-1785 44.5,-1785"/>
</a>
</g>
</g>
<!-- Node4&#45;&gt;Node3 -->
<g id="edge3_Node000003_Node000004" class="edge">
<title>Node4&#45;&gt;Node3</title>
<g id="a_edge3_Node000003_Node000004"><a xlink:title=" ">
<path fill="none" stroke="#63b8ff" d="M65.5,-1774.83C65.5,-1767.23 65.5,-1758.56 65.5,-1749.06"/>
<polygon fill="none" stroke="#63b8ff" points="62,-1774.85 65.5,-1784.85 69,-1774.85 62,-1774.85"/>
</a>
</g>
</g>
<!-- Node5 -->
<g id="Node000005" class="node">
<title>Node5</title>
<g id="a_Node000005"><a xlink:title=" ">
<polygon fill="white" stroke="transparent" points="224,-1471.5 149,-1471.5 149,-1422.5 224,-1422.5 224,-1471.5"/>
<text text-anchor="start" x="154.5" y="-1459" font-family="Iosevka" font-size="10.00">dynamicprops</text>
<text text-anchor="start" x="185.5" y="-1444" font-family="Iosevka" font-size="10.00"> </text>
<text text-anchor="start" x="185.5" y="-1429" font-family="Iosevka" font-size="10.00"> </text>
<polygon fill="#666666" stroke="#666666" points="149.5,-1454 149.5,-1454 224.5,-1454 224.5,-1454 149.5,-1454"/>
<polygon fill="#666666" stroke="#666666" points="149.5,-1439 149.5,-1439 224.5,-1439 224.5,-1439 149.5,-1439"/>
<polygon fill="none" stroke="#666666" points="149,-1422.5 149,-1471.5 224,-1471.5 224,-1422.5 149,-1422.5"/>
</a>
</g>
</g>
<!-- Node5&#45;&gt;Node2 -->
<g id="edge4_Node000002_Node000005" class="edge">
<title>Node5&#45;&gt;Node2</title>
<g id="a_edge4_Node000002_Node000005"><a xlink:title=" ">
<path fill="none" stroke="#63b8ff" d="M183.48,-1412.22C178.36,-1354.82 167.43,-1232.46 156.43,-1109.26"/>
<polygon fill="none" stroke="#63b8ff" points="180.02,-1412.84 184.4,-1422.49 187,-1412.22 180.02,-1412.84"/>
</a>
</g>
</g>
</g>
</svg>
