<?xml version="1.0" encoding="UTF-8" standalone="no"?>
<!DOCTYPE svg PUBLIC "-//W3C//DTD SVG 1.1//EN"
 "http://www.w3.org/Graphics/SVG/1.1/DTD/svg11.dtd">
<!-- Generated by graphviz version 2.43.0 (0)
 -->
<!-- Title: Graphical Class Hierarchy Pages: 1 -->
<svg width="639pt" height="1137pt"
 viewBox="0.00 0.00 639.00 1137.00" xmlns="http://www.w3.org/2000/svg" xmlns:xlink="http://www.w3.org/1999/xlink">
<g id="graph0" class="graph" transform="scale(1 1) rotate(0) translate(4 1133)">
<title>Graphical Class Hierarchy</title>
<!-- Node0 -->
<g id="node1" class="node">
<title>Node0</title>
<g id="a_node1"><a xlink:title=" ">
<polygon fill="#e0e0e0" stroke="#999999" points="191.5,-814 105.5,-814 105.5,-795 191.5,-795 191.5,-814"/>
<text text-anchor="middle" x="148.5" y="-802" font-family="Iosevka" font-size="10.00">dynamicprops</text>
</a>
</g>
</g>
<!-- Node1 -->
<g id="node2" class="node">
<title>Node1</title>
<g id="a_node2"><a xlink:href="classbase_stimulus.html" target="_top" xlink:title="baseStimulus is the superclass for all opticka stimulus objects">
<polygon fill="white" stroke="#666666" points="343,-796 260,-796 260,-777 343,-777 343,-796"/>
<text text-anchor="middle" x="301.5" y="-784" font-family="Iosevka" font-size="10.00">baseStimulus</text>
</a>
</g>
</g>
<!-- Node0&#45;&gt;Node1 -->
<g id="edge1" class="edge">
<title>Node0&#45;&gt;Node1</title>
<path fill="none" stroke="#63b8ff" d="M201.61,-798.29C220.71,-796.01 242.03,-793.47 259.96,-791.33"/>
<polygon fill="#63b8ff" stroke="#63b8ff" points="201.08,-794.83 191.56,-799.49 201.91,-801.78 201.08,-794.83"/>
</g>
<!-- Node44 -->
<g id="node22" class="node">
<title>Node44</title>
<g id="a_node22"><a xlink:href="classtask_sequence.html" target="_top" xlink:title="Block&#45;based variable randomisation manager.">
<polygon fill="white" stroke="#666666" points="344,-833 259,-833 259,-814 344,-814 344,-833"/>
<text text-anchor="middle" x="301.5" y="-821" font-family="Iosevka" font-size="10.00">taskSequence</text>
</a>
</g>
</g>
<!-- Node0&#45;&gt;Node44 -->
<g id="edge21" class="edge">
<title>Node0&#45;&gt;Node44</title>
<path fill="none" stroke="#63b8ff" d="M201.7,-811.07C220.41,-813.42 241.24,-816.04 258.92,-818.27"/>
<polygon fill="#63b8ff" stroke="#63b8ff" points="201.92,-807.57 191.56,-809.79 201.05,-814.51 201.92,-807.57"/>
</g>
<!-- Node2 -->
<g id="node3" class="node">
<title>Node2</title>
<g id="a_node3"><a xlink:href="classannulus_stimulus.html" target="_top" xlink:title="annulusStimulus TODO">
<polygon fill="white" stroke="#666666" points="509.5,-574 411.5,-574 411.5,-555 509.5,-555 509.5,-574"/>
<text text-anchor="middle" x="460.5" y="-562" font-family="Iosevka" font-size="10.00">annulusStimulus</text>
</a>
</g>
</g>
<!-- Node1&#45;&gt;Node2 -->
<g id="edge2" class="edge">
<title>Node1&#45;&gt;Node2</title>
<path fill="none" stroke="#63b8ff" d="M314.51,-768.52C326.23,-750.4 344,-721.36 356,-694.5 377.16,-647.15 354.61,-619.45 392,-583.5 397.44,-578.27 404.21,-574.46 411.33,-571.68"/>
<polygon fill="#63b8ff" stroke="#63b8ff" points="311.55,-766.65 308.99,-776.93 317.4,-770.48 311.55,-766.65"/>
</g>
<!-- Node3 -->
<g id="node4" class="node">
<title>Node3</title>
<g id="a_node4"><a xlink:href="classapparent_motion_stimulus.html" target="_top" xlink:title="apparentMotionStimulus, inherits from baseStimulus">
<polygon fill="white" stroke="#666666" points="529,-537 392,-537 392,-518 529,-518 529,-537"/>
<text text-anchor="middle" x="460.5" y="-525" font-family="Iosevka" font-size="10.00">apparentMotionStimulus</text>
</a>
</g>
</g>
<!-- Node1&#45;&gt;Node3 -->
<g id="edge3" class="edge">
<title>Node1&#45;&gt;Node3</title>
<path fill="none" stroke="#63b8ff" d="M315.15,-768.42C327.2,-750.43 345.09,-721.66 356,-694.5 381.39,-631.28 344.4,-594.24 392,-545.5 395.31,-542.12 399.17,-539.35 403.35,-537.08"/>
<polygon fill="#63b8ff" stroke="#63b8ff" points="312.19,-766.55 309.44,-776.78 317.97,-770.49 312.19,-766.55"/>
</g>
<!-- Node4 -->
<g id="node5" class="node">
<title>Node4</title>
<g id="a_node5"><a xlink:href="classbar_stimulus.html" target="_top" xlink:title="barStimulus single bar stimulus, inherits from baseStimulus">
<polygon fill="white" stroke="#666666" points="498,-1129 423,-1129 423,-1110 498,-1110 498,-1129"/>
<text text-anchor="middle" x="460.5" y="-1117" font-family="Iosevka" font-size="10.00">barStimulus</text>
</a>
</g>
</g>
<!-- Node1&#45;&gt;Node4 -->
<g id="edge4" class="edge">
<title>Node1&#45;&gt;Node4</title>
<path fill="none" stroke="#63b8ff" d="M351.71,-801.05C353.26,-802.41 354.71,-803.88 356,-805.5 438.84,-908.94 305.05,-1001.48 392,-1101.5 399.72,-1110.38 411.28,-1115.11 422.66,-1117.57"/>
<polygon fill="#63b8ff" stroke="#63b8ff" points="353.37,-797.96 343.12,-795.28 349.47,-803.77 353.37,-797.96"/>
</g>
<!-- Node6 -->
<g id="node7" class="node">
<title>Node6</title>
<g id="a_node7"><a xlink:href="classcheckerboard_stimulus.html" target="_top" xlink:title="checkerBoardStimulus – using a GLSL shader to make the checkerboard">
<polygon fill="white" stroke="#666666" points="523,-1092 398,-1092 398,-1073 523,-1073 523,-1092"/>
<text text-anchor="middle" x="460.5" y="-1080" font-family="Iosevka" font-size="10.00">checkerboardStimulus</text>
</a>
</g>
</g>
<!-- Node1&#45;&gt;Node6 -->
<g id="edge6" class="edge">
<title>Node1&#45;&gt;Node6</title>
<path fill="none" stroke="#63b8ff" d="M351.67,-801.08C353.24,-802.43 354.69,-803.9 356,-805.5 429.42,-895.59 315.01,-977.45 392,-1064.5 394.97,-1067.86 398.5,-1070.63 402.35,-1072.9"/>
<polygon fill="#63b8ff" stroke="#63b8ff" points="353.32,-797.97 343.05,-795.34 349.43,-803.79 353.32,-797.97"/>
</g>
<!-- Node7 -->
<g id="node8" class="node">
<title>Node7</title>
<g id="a_node8"><a xlink:href="classcolour_grating_stimulus.html" target="_top" xlink:title="colour grating stimulus, inherits from baseStimulus COLOURGRATINGSTIMULUS colour grating stimulus,...">
<polygon fill="white" stroke="#666666" points="523,-1055 398,-1055 398,-1036 523,-1036 523,-1055"/>
<text text-anchor="middle" x="460.5" y="-1043" font-family="Iosevka" font-size="10.00">colourGratingStimulus</text>
</a>
</g>
</g>
<!-- Node1&#45;&gt;Node7 -->
<g id="edge7" class="edge">
<title>Node1&#45;&gt;Node7</title>
<path fill="none" stroke="#63b8ff" d="M351.71,-801.19C353.26,-802.51 354.7,-803.94 356,-805.5 420.02,-882.26 324.94,-953.38 392,-1027.5 395.01,-1030.83 398.56,-1033.57 402.43,-1035.82"/>
<polygon fill="#63b8ff" stroke="#63b8ff" points="353.5,-798.17 343.23,-795.55 349.62,-804 353.5,-798.17"/>
</g>
<!-- Node8 -->
<g id="node9" class="node">
<title>Node8</title>
<g id="a_node9"><a xlink:href="classdisc_stimulus.html" target="_top" xlink:title="single disc stimulus, inherits from baseStimulus DISCSTIMULUS single disc stimulus,...">
<polygon fill="white" stroke="#666666" points="500,-1018 421,-1018 421,-999 500,-999 500,-1018"/>
<text text-anchor="middle" x="460.5" y="-1006" font-family="Iosevka" font-size="10.00">discStimulus</text>
</a>
</g>
</g>
<!-- Node1&#45;&gt;Node8 -->
<g id="edge8" class="edge">
<title>Node1&#45;&gt;Node8</title>
<path fill="none" stroke="#63b8ff" d="M351.65,-801.24C353.21,-802.54 354.67,-803.96 356,-805.5 410.66,-868.98 334.83,-929.28 392,-990.5 399.53,-998.57 410.24,-1003.17 420.91,-1005.76"/>
<polygon fill="#63b8ff" stroke="#63b8ff" points="353.39,-798.2 343.11,-795.65 349.56,-804.06 353.39,-798.2"/>
</g>
<!-- Node9 -->
<g id="node10" class="node">
<title>Node9</title>
<g id="a_node10"><a xlink:href="classdots_stimulus.html" target="_top" xlink:title="dotsStimulus simple variable coherence dots stimulus, inherits from baseStimulus">
<polygon fill="white" stroke="#666666" points="500.5,-981 420.5,-981 420.5,-962 500.5,-962 500.5,-981"/>
<text text-anchor="middle" x="460.5" y="-969" font-family="Iosevka" font-size="10.00">dotsStimulus</text>
</a>
</g>
</g>
<!-- Node1&#45;&gt;Node9 -->
<g id="edge9" class="edge">
<title>Node1&#45;&gt;Node9</title>
<path fill="none" stroke="#63b8ff" d="M351.65,-801.39C353.2,-802.65 354.66,-804.02 356,-805.5 401.35,-855.76 344.66,-905.11 392,-953.5 399.55,-961.22 410.01,-965.74 420.44,-968.36"/>
<polygon fill="#63b8ff" stroke="#63b8ff" points="353.5,-798.42 343.2,-795.94 349.7,-804.3 353.5,-798.42"/>
</g>
<!-- Node10 -->
<g id="node11" class="node">
<title>Node10</title>
<g id="a_node11"><a xlink:href="classfixation_cross_stimulus.html" target="_top" xlink:title="draw fixation cross from Thaler L, Schütz AC, Goodale MA, &amp; Gegenfurtner KR (2013) &quot;What is the best ...">
<polygon fill="white" stroke="#666666" points="522,-944 399,-944 399,-925 522,-925 522,-944"/>
<text text-anchor="middle" x="460.5" y="-932" font-family="Iosevka" font-size="10.00">fixationCrossStimulus</text>
</a>
</g>
</g>
<!-- Node1&#45;&gt;Node10 -->
<g id="edge10" class="edge">
<title>Node1&#45;&gt;Node10</title>
<path fill="none" stroke="#63b8ff" d="M351.42,-801.45C353.05,-802.7 354.58,-804.04 356,-805.5 392.16,-842.68 354.37,-880.81 392,-916.5 395.61,-919.92 399.79,-922.71 404.27,-924.98"/>
<polygon fill="#63b8ff" stroke="#63b8ff" points="353.01,-798.32 342.66,-796.06 349.34,-804.28 353.01,-798.32"/>
</g>
<!-- Node11 -->
<g id="node12" class="node">
<title>Node11</title>
<g id="a_node12"><a xlink:href="classgabor_stimulus.html" target="_top" xlink:title="Copyright ©2014&#45;2022 Ian Max Andolina — released: LGPL3, see LICENCE.md.">
<polygon fill="white" stroke="#666666" points="504,-907 417,-907 417,-888 504,-888 504,-907"/>
<text text-anchor="middle" x="460.5" y="-895" font-family="Iosevka" font-size="10.00">gaborStimulus</text>
</a>
</g>
</g>
<!-- Node1&#45;&gt;Node11 -->
<g id="edge11" class="edge">
<title>Node1&#45;&gt;Node11</title>
<path fill="none" stroke="#63b8ff" d="M349.88,-800.85C352.05,-802.26 354.1,-803.8 356,-805.5 383.26,-829.88 363.78,-856.24 392,-879.5 399.11,-885.36 407.95,-889.33 416.86,-892.01"/>
<polygon fill="#63b8ff" stroke="#63b8ff" points="351.54,-797.77 341.08,-796.05 348.19,-803.91 351.54,-797.77"/>
</g>
<!-- Node12 -->
<g id="node13" class="node">
<title>Node12</title>
<g id="a_node13"><a xlink:href="classgrating_stimulus.html" target="_top" xlink:title="single grating stimulus, inherits from baseStimulus GRATINGSTIMULUS single grating stimulus,...">
<polygon fill="white" stroke="#666666" points="507.5,-870 413.5,-870 413.5,-851 507.5,-851 507.5,-870"/>
<text text-anchor="middle" x="460.5" y="-858" font-family="Iosevka" font-size="10.00">gratingStimulus</text>
</a>
</g>
</g>
<!-- Node1&#45;&gt;Node12 -->
<g id="edge12" class="edge">
<title>Node1&#45;&gt;Node12</title>
<path fill="none" stroke="#63b8ff" d="M346.03,-800.01C349.5,-801.67 352.87,-803.49 356,-805.5 375.31,-817.88 372.2,-830.9 392,-842.5 398.59,-846.36 406.03,-849.41 413.49,-851.82"/>
<polygon fill="#63b8ff" stroke="#63b8ff" points="347.28,-796.73 336.71,-796.01 344.52,-803.17 347.28,-796.73"/>
</g>
<!-- Node13 -->
<g id="node14" class="node">
<title>Node13</title>
<g id="a_node14"><a xlink:href="classimage_stimulus.html" target="_top" xlink:title="textureStimulus">
<polygon fill="white" stroke="#666666" points="505.5,-833 415.5,-833 415.5,-814 505.5,-814 505.5,-833"/>
<text text-anchor="middle" x="460.5" y="-821" font-family="Iosevka" font-size="10.00">imageStimulus</text>
</a>
</g>
</g>
<!-- Node1&#45;&gt;Node13 -->
<g id="edge13" class="edge">
<title>Node1&#45;&gt;Node13</title>
<path fill="none" stroke="#63b8ff" d="M352.81,-798.36C374.18,-803.39 398.76,-809.18 418.93,-813.94"/>
<polygon fill="#63b8ff" stroke="#63b8ff" points="353.47,-794.92 342.93,-796.03 351.86,-801.73 353.47,-794.92"/>
</g>
<!-- Node14 -->
<g id="node15" class="node">
<title>Node14</title>
<g id="a_node15"><a xlink:href="classlog_gabor_stimulus.html" target="_top" xlink:title="logGaborStimulus: orientation &amp; SF band&#45;pass limited filter">
<polygon fill="white" stroke="#666666" points="512.5,-796 408.5,-796 408.5,-777 512.5,-777 512.5,-796"/>
<text text-anchor="middle" x="460.5" y="-784" font-family="Iosevka" font-size="10.00">logGaborStimulus</text>
</a>
</g>
</g>
<!-- Node1&#45;&gt;Node14 -->
<g id="edge14" class="edge">
<title>Node1&#45;&gt;Node14</title>
<path fill="none" stroke="#63b8ff" d="M353.44,-786.5C371.07,-786.5 390.83,-786.5 408.46,-786.5"/>
<polygon fill="#63b8ff" stroke="#63b8ff" points="353.34,-783 343.34,-786.5 353.34,-790 353.34,-783"/>
</g>
<!-- Node15 -->
<g id="node16" class="node">
<title>Node15</title>
<g id="a_node16"><a xlink:href="classmovie_stimulus.html" target="_top" xlink:title="movieStimulus is the class for movie based stimulus objects">
<polygon fill="white" stroke="#666666" points="505.5,-759 415.5,-759 415.5,-740 505.5,-740 505.5,-759"/>
<text text-anchor="middle" x="460.5" y="-747" font-family="Iosevka" font-size="10.00">movieStimulus</text>
</a>
</g>
</g>
<!-- Node1&#45;&gt;Node15 -->
<g id="edge15" class="edge">
<title>Node1&#45;&gt;Node15</title>
<path fill="none" stroke="#63b8ff" d="M352.81,-774.64C374.18,-769.61 398.76,-763.82 418.93,-759.06"/>
<polygon fill="#63b8ff" stroke="#63b8ff" points="351.86,-771.27 342.93,-776.97 353.47,-778.08 351.86,-771.27"/>
</g>
<!-- Node16 -->
<g id="node17" class="node">
<title>Node16</title>
<g id="a_node17"><a xlink:href="classndots_stimulus.html" target="_top" xlink:title="ndotsStimulus limited lifetime coherence dots stimulus">
<polygon fill="white" stroke="#666666" points="503.5,-722 417.5,-722 417.5,-703 503.5,-703 503.5,-722"/>
<text text-anchor="middle" x="460.5" y="-710" font-family="Iosevka" font-size="10.00">ndotsStimulus</text>
</a>
</g>
</g>
<!-- Node1&#45;&gt;Node16 -->
<g id="edge16" class="edge">
<title>Node1&#45;&gt;Node16</title>
<path fill="none" stroke="#63b8ff" d="M323.89,-771.01C341.46,-758.86 367.39,-742.28 392,-731.5 400.36,-727.84 409.62,-724.69 418.53,-722.07"/>
<polygon fill="#63b8ff" stroke="#63b8ff" points="321.68,-768.28 315.51,-776.9 325.7,-774.01 321.68,-768.28"/>
</g>
<!-- Node17 -->
<g id="node18" class="node">
<title>Node17</title>
<g id="a_node18"><a xlink:href="classplaid_stimulus.html" target="_top" xlink:title="plaidStimulus TODO">
<polygon fill="white" stroke="#666666" points="502,-685 419,-685 419,-666 502,-666 502,-685"/>
<text text-anchor="middle" x="460.5" y="-673" font-family="Iosevka" font-size="10.00">plaidStimulus</text>
</a>
</g>
</g>
<!-- Node1&#45;&gt;Node17 -->
<g id="edge17" class="edge">
<title>Node1&#45;&gt;Node17</title>
<path fill="none" stroke="#63b8ff" d="M315.27,-768.52C331,-747.68 359.64,-713.76 392,-694.5 400.16,-689.64 409.61,-685.98 418.82,-683.24"/>
<polygon fill="#63b8ff" stroke="#63b8ff" points="312.27,-766.69 309.17,-776.82 317.91,-770.83 312.27,-766.69"/>
</g>
<!-- Node18 -->
<g id="node19" class="node">
<title>Node18</title>
<g id="a_node19"><a xlink:href="classspot_stimulus.html" target="_top" xlink:title="single disc stimulus, inherits from baseStimulus SPOTSTIMULUS single spot stimulus,...">
<polygon fill="white" stroke="#666666" points="500.5,-648 420.5,-648 420.5,-629 500.5,-629 500.5,-648"/>
<text text-anchor="middle" x="460.5" y="-636" font-family="Iosevka" font-size="10.00">spotStimulus</text>
</a>
</g>
</g>
<!-- Node1&#45;&gt;Node18 -->
<g id="edge18" class="edge">
<title>Node1&#45;&gt;Node18</title>
<path fill="none" stroke="#63b8ff" d="M313.25,-767.9C332.07,-735.91 370.98,-672.48 392,-657.5 400.33,-651.56 410.46,-647.48 420.31,-644.67"/>
<polygon fill="#63b8ff" stroke="#63b8ff" points="310.12,-766.32 308.1,-776.72 316.16,-769.85 310.12,-766.32"/>
</g>
<!-- Node20 -->
<g id="node21" class="node">
<title>Node20</title>
<g id="a_node21"><a xlink:href="classtarget_inducer_stimulus.html" target="_top" xlink:title="target inducer stimulus, inherits from baseStimulus">
<polygon fill="white" stroke="#666666" points="523,-611 398,-611 398,-592 523,-592 523,-611"/>
<text text-anchor="middle" x="460.5" y="-599" font-family="Iosevka" font-size="10.00">targetInducerStimulus</text>
</a>
</g>
</g>
<!-- Node1&#45;&gt;Node20 -->
<g id="edge20" class="edge">
<title>Node1&#45;&gt;Node20</title>
<path fill="none" stroke="#63b8ff" d="M313.69,-768.17C324.81,-749.77 342.15,-720.48 356,-694.5 373.2,-662.22 363.94,-643.96 392,-620.5 396.67,-616.6 402.09,-613.49 407.79,-611.03"/>
<polygon fill="#63b8ff" stroke="#63b8ff" points="310.56,-766.6 308.36,-776.96 316.54,-770.23 310.56,-766.6"/>
</g>
<!-- Node5 -->
<g id="node6" class="node">
<title>Node5</title>
<g id="a_node6"><a xlink:href="classrf_mapper.html" target="_top" xlink:title="receptive field mapper rfMapper is a mouse driven receptive field mapper, using various keyboard comm...">
<polygon fill="white" stroke="#666666" points="628.5,-1129 567.5,-1129 567.5,-1110 628.5,-1110 628.5,-1129"/>
<text text-anchor="middle" x="598" y="-1117" font-family="Iosevka" font-size="10.00">rfMapper</text>
</a>
</g>
</g>
<!-- Node4&#45;&gt;Node5 -->
<g id="edge5" class="edge">
<title>Node4&#45;&gt;Node5</title>
<path fill="none" stroke="#63b8ff" d="M508.39,-1119.5C527.88,-1119.5 549.93,-1119.5 567.15,-1119.5"/>
<polygon fill="#63b8ff" stroke="#63b8ff" points="508.17,-1116 498.17,-1119.5 508.17,-1123 508.17,-1116"/>
</g>
<!-- Node19 -->
<g id="node20" class="node">
<title>Node19</title>
<g id="a_node20"><a xlink:href="classcolour_test.html" target="_top" xlink:title="colour test is a simple RGB colour blender for teaching">
<polygon fill="white" stroke="#666666" points="631,-648 565,-648 565,-629 631,-629 631,-648"/>
<text text-anchor="middle" x="598" y="-636" font-family="Iosevka" font-size="10.00">colourTest</text>
</a>
</g>
</g>
<!-- Node18&#45;&gt;Node19 -->
<g id="edge19" class="edge">
<title>Node18&#45;&gt;Node19</title>
<path fill="none" stroke="#63b8ff" d="M510.74,-638.5C528.73,-638.5 548.61,-638.5 564.74,-638.5"/>
<polygon fill="#63b8ff" stroke="#63b8ff" points="510.69,-635 500.69,-638.5 510.69,-642 510.69,-635"/>
</g>
<!-- Node47 -->
<g id="node23" class="node">
<title>Node47</title>
<g id="a_node23"><a xlink:title=" ">
<polygon fill="#e0e0e0" stroke="#999999" points="50,-278 0,-278 0,-259 50,-259 50,-278"/>
<text text-anchor="middle" x="25" y="-266" font-family="Iosevka" font-size="10.00">handle</text>
</a>
</g>
</g>
<!-- Node48 -->
<g id="node24" class="node">
<title>Node48</title>
<g id="a_node24"><a xlink:href="classarduino_i_o_port.html" target="_top" xlink:title="arduinoIOPort &#45; modified legacy ardino interface using PTB IOPort interface for serial communication ...">
<polygon fill="white" stroke="#666666" points="190,-352 107,-352 107,-333 190,-333 190,-352"/>
<text text-anchor="middle" x="148.5" y="-340" font-family="Iosevka" font-size="10.00">arduinoIOPort</text>
</a>
</g>
</g>
<!-- Node47&#45;&gt;Node48 -->
<g id="edge22" class="edge">
<title>Node47&#45;&gt;Node48</title>
<path fill="none" stroke="#63b8ff" d="M40.89,-285.73C52.18,-297.82 68.67,-313.56 86,-323.5 92.59,-327.28 100.02,-330.39 107.38,-332.93"/>
<polygon fill="#63b8ff" stroke="#63b8ff" points="43.26,-283.13 33.96,-278.05 38.06,-287.82 43.26,-283.13"/>
</g>
<!-- Node49 -->
<g id="node25" class="node">
<title>Node49</title>
<g id="a_node25"><a xlink:href="classarduino_serial.html" target="_top" xlink:title=" ">
<polygon fill="white" stroke="#666666" points="189,-315 108,-315 108,-296 189,-296 189,-315"/>
<text text-anchor="middle" x="148.5" y="-303" font-family="Iosevka" font-size="10.00">arduinoSerial</text>
</a>
</g>
</g>
<!-- Node47&#45;&gt;Node49 -->
<g id="edge23" class="edge">
<title>Node47&#45;&gt;Node49</title>
<path fill="none" stroke="#63b8ff" d="M59.89,-278.82C77.52,-284.19 98.93,-290.71 116.17,-295.96"/>
<polygon fill="#63b8ff" stroke="#63b8ff" points="60.59,-275.38 50,-275.81 58.55,-282.07 60.59,-275.38"/>
</g>
<!-- Node50 -->
<g id="node26" class="node">
<title>Node50</title>
<g id="a_node26"><a xlink:href="classarduino_serial_port.html" target="_top" xlink:title=" ">
<polygon fill="white" stroke="#666666" points="199,-278 98,-278 98,-259 199,-259 199,-278"/>
<text text-anchor="middle" x="148.5" y="-266" font-family="Iosevka" font-size="10.00">arduinoSerialPort</text>
</a>
</g>
</g>
<!-- Node47&#45;&gt;Node50 -->
<g id="edge24" class="edge">
<title>Node47&#45;&gt;Node50</title>
<path fill="none" stroke="#63b8ff" d="M60.22,-268.5C71.92,-268.5 85.26,-268.5 97.92,-268.5"/>
<polygon fill="#63b8ff" stroke="#63b8ff" points="60,-265 50,-268.5 60,-272 60,-265"/>
</g>
<!-- Node51 -->
<g id="node27" class="node">
<title>Node51</title>
<g id="a_node27"><a xlink:href="classcalibrate_luminance.html" target="_top" xlink:title="calibrateLuminance: automatic luminance calibration">
<polygon fill="white" stroke="#666666" points="205,-241 92,-241 92,-222 205,-222 205,-241"/>
<text text-anchor="middle" x="148.5" y="-229" font-family="Iosevka" font-size="10.00">calibrateLuminance</text>
</a>
</g>
</g>
<!-- Node47&#45;&gt;Node51 -->
<g id="edge25" class="edge">
<title>Node47&#45;&gt;Node51</title>
<path fill="none" stroke="#63b8ff" d="M59.84,-257.64C68.37,-254.94 77.51,-252.09 86,-249.5 95.15,-246.71 105.1,-243.77 114.27,-241.08"/>
<polygon fill="#63b8ff" stroke="#63b8ff" points="58.66,-254.34 50.19,-260.71 60.78,-261.01 58.66,-254.34"/>
</g>
<!-- Node52 -->
<g id="node28" class="node">
<title>Node52</title>
<g id="a_node28"><a xlink:href="classdata_connection.html" target="_top" xlink:title="dataConnection Connects and manages a socket connection">
<polygon fill="white" stroke="#666666" points="195,-204 102,-204 102,-185 195,-185 195,-204"/>
<text text-anchor="middle" x="148.5" y="-192" font-family="Iosevka" font-size="10.00">dataConnection</text>
</a>
</g>
</g>
<!-- Node47&#45;&gt;Node52 -->
<g id="edge26" class="edge">
<title>Node47&#45;&gt;Node52</title>
<path fill="none" stroke="#63b8ff" d="M40.79,-250.87C52.03,-238.51 68.5,-222.47 86,-212.5 91.9,-209.14 98.47,-206.36 105.08,-204.07"/>
<polygon fill="#63b8ff" stroke="#63b8ff" points="37.86,-248.9 33.89,-258.72 43.12,-253.52 37.86,-248.9"/>
</g>
<!-- Node53 -->
<g id="node29" class="node">
<title>Node53</title>
<g id="a_node29"><a xlink:href="classlab_jack.html" target="_top" xlink:title="LABJACK Connects and manages a LabJack U3 / U6.">
<polygon fill="white" stroke="#666666" points="174.5,-167 122.5,-167 122.5,-148 174.5,-148 174.5,-167"/>
<text text-anchor="middle" x="148.5" y="-155" font-family="Iosevka" font-size="10.00">labJack</text>
</a>
</g>
</g>
<!-- Node47&#45;&gt;Node53 -->
<g id="edge27" class="edge">
<title>Node47&#45;&gt;Node53</title>
<path fill="none" stroke="#63b8ff" d="M33.42,-249.48C42.63,-228.35 60.32,-194.67 86,-175.5 96.52,-167.65 110.41,-163.21 122.32,-160.71"/>
<polygon fill="#63b8ff" stroke="#63b8ff" points="30.08,-248.42 29.48,-258.99 36.54,-251.09 30.08,-248.42"/>
</g>
<!-- Node54 -->
<g id="node30" class="node">
<title>Node54</title>
<g id="a_node30"><a xlink:href="classlab_jack_t.html" target="_top" xlink:title="LABJACKT Connects and manages a LabJack T4 / T7 This class handles digital I/O and analog I/O and ana...">
<polygon fill="white" stroke="#666666" points="177.5,-130 119.5,-130 119.5,-111 177.5,-111 177.5,-130"/>
<text text-anchor="middle" x="148.5" y="-118" font-family="Iosevka" font-size="10.00">labJackT</text>
</a>
</g>
</g>
<!-- Node47&#45;&gt;Node54 -->
<g id="edge28" class="edge">
<title>Node47&#45;&gt;Node54</title>
<path fill="none" stroke="#63b8ff" d="M29.75,-248.7C36.2,-220.17 52.1,-167.73 86,-138.5 95.27,-130.51 107.93,-126.06 119.35,-123.59"/>
<polygon fill="#63b8ff" stroke="#63b8ff" points="26.29,-248.18 27.67,-258.69 33.14,-249.61 26.29,-248.18"/>
</g>
<!-- Node21 -->
<g id="node31" class="node">
<title>Node21</title>
<g id="a_node31"><a xlink:href="classopticka_core.html" target="_top" xlink:title="optickaCore base class inherited by many other opticka classes.">
<polygon fill="white" stroke="#666666" points="185.5,-389 111.5,-389 111.5,-370 185.5,-370 185.5,-389"/>
<text text-anchor="middle" x="148.5" y="-377" font-family="Iosevka" font-size="10.00">optickaCore</text>
</a>
</g>
</g>
<!-- Node47&#45;&gt;Node21 -->
<g id="edge29" class="edge">
<title>Node47&#45;&gt;Node21</title>
<path fill="none" stroke="#63b8ff" d="M33.67,-287.56C43.01,-308.43 60.74,-341.44 86,-360.5 93.4,-366.09 102.47,-370.05 111.35,-372.85"/>
<polygon fill="#63b8ff" stroke="#63b8ff" points="36.8,-285.98 29.66,-278.15 30.36,-288.73 36.8,-285.98"/>
</g>
<!-- Node55 -->
<g id="node56" class="node">
<title>Node55</title>
<g id="a_node56"><a xlink:href="classopx_online.html" target="_top" xlink:title="opxOnline Provides an interface between Opticka and the Plexon for online data display">
<polygon fill="white" stroke="#666666" points="181.5,-93 115.5,-93 115.5,-74 181.5,-74 181.5,-93"/>
<text text-anchor="middle" x="148.5" y="-81" font-family="Iosevka" font-size="10.00">opxOnline</text>
</a>
</g>
</g>
<!-- Node47&#45;&gt;Node55 -->
<g id="edge56" class="edge">
<title>Node47&#45;&gt;Node55</title>
<path fill="none" stroke="#63b8ff" d="M27.43,-248.69C31.03,-213.85 43.48,-141.54 86,-101.5 93.94,-94.03 104.81,-89.64 115.21,-87.07"/>
<polygon fill="#63b8ff" stroke="#63b8ff" points="23.92,-248.69 26.52,-258.96 30.89,-249.31 23.92,-248.69"/>
</g>
<!-- Node56 -->
<g id="node57" class="node">
<title>Node56</title>
<g id="a_node57"><a xlink:href="classparse_opx_spikes.html" target="_top" xlink:title=" ">
<polygon fill="white" stroke="#666666" points="196,-56 101,-56 101,-37 196,-37 196,-56"/>
<text text-anchor="middle" x="148.5" y="-44" font-family="Iosevka" font-size="10.00">parseOpxSpikes</text>
</a>
</g>
</g>
<!-- Node47&#45;&gt;Node56 -->
<g id="edge57" class="edge">
<title>Node47&#45;&gt;Node56</title>
<path fill="none" stroke="#63b8ff" d="M25.9,-248.62C26.82,-208.15 34.78,-115.66 86,-64.5 90.25,-60.25 95.44,-57 100.99,-54.51"/>
<polygon fill="#63b8ff" stroke="#63b8ff" points="22.4,-248.76 25.8,-258.79 29.4,-248.83 22.4,-248.76"/>
</g>
<!-- Node57 -->
<g id="node58" class="node">
<title>Node57</title>
<g id="a_node58"><a xlink:href="classsend_serial_i_o_port.html" target="_top" xlink:title=" ">
<polygon fill="white" stroke="#666666" points="197.5,-500 99.5,-500 99.5,-481 197.5,-481 197.5,-500"/>
<text text-anchor="middle" x="148.5" y="-488" font-family="Iosevka" font-size="10.00">sendSerialIOPort</text>
</a>
</g>
</g>
<!-- Node47&#45;&gt;Node57 -->
<g id="edge58" class="edge">
<title>Node47&#45;&gt;Node57</title>
<path fill="none" stroke="#63b8ff" d="M26,-288.22C27.09,-328.39 35.35,-420.23 86,-471.5 89.85,-475.4 94.48,-478.5 99.44,-480.96"/>
<polygon fill="#63b8ff" stroke="#63b8ff" points="29.5,-288.08 25.85,-278.13 22.5,-288.18 29.5,-288.08"/>
</g>
<!-- Node58 -->
<g id="node59" class="node">
<title>Node58</title>
<g id="a_node59"><a xlink:href="classtitta_cal_movie_stimulus.html" target="_top" xlink:title="plays an animated movie for a calibration stimulus">
<polygon fill="white" stroke="#666666" points="211,-463 86,-463 86,-444 211,-444 211,-463"/>
<text text-anchor="middle" x="148.5" y="-451" font-family="Iosevka" font-size="10.00">tittaCalMovieStimulus</text>
</a>
</g>
</g>
<!-- Node47&#45;&gt;Node58 -->
<g id="edge59" class="edge">
<title>Node47&#45;&gt;Node58</title>
<path fill="none" stroke="#63b8ff" d="M27.59,-288.63C31.4,-323.34 44.16,-394.59 86,-434.5 90.04,-438.36 94.85,-441.43 99.98,-443.88"/>
<polygon fill="#63b8ff" stroke="#63b8ff" points="31.04,-287.97 26.61,-278.35 24.07,-288.64 31.04,-287.97"/>
</g>
<!-- Node59 -->
<g id="node60" class="node">
<title>Node59</title>
<g id="a_node60"><a xlink:href="classuser_functions.html" target="_top" xlink:title="Customised user functions for a task run.">
<polygon fill="white" stroke="#666666" points="190.5,-426 106.5,-426 106.5,-407 190.5,-407 190.5,-426"/>
<text text-anchor="middle" x="148.5" y="-414" font-family="Iosevka" font-size="10.00">userFunctions</text>
</a>
</g>
</g>
<!-- Node47&#45;&gt;Node59 -->
<g id="edge60" class="edge">
<title>Node47&#45;&gt;Node59</title>
<path fill="none" stroke="#63b8ff" d="M29.86,-288.08C36.43,-316.31 52.49,-368.25 86,-397.5 91.81,-402.57 98.96,-406.29 106.29,-409.01"/>
<polygon fill="#63b8ff" stroke="#63b8ff" points="33.26,-287.24 27.72,-278.2 26.41,-288.72 33.26,-287.24"/>
</g>
<!-- Node21&#45;&gt;Node1 -->
<g id="edge39" class="edge">
<title>Node21&#45;&gt;Node1</title>
<path fill="none" stroke="#63b8ff" d="M195.35,-386.26C201.31,-388.91 206.8,-392.54 211,-397.5 254,-448.21 225.86,-631.47 247,-694.5 257.93,-727.08 281.22,-760.88 293.14,-776.93"/>
<polygon fill="#63b8ff" stroke="#63b8ff" points="196.29,-382.88 185.69,-382.85 193.95,-389.48 196.29,-382.88"/>
</g>
<!-- Node21&#45;&gt;Node44 -->
<g id="edge53" class="edge">
<title>Node21&#45;&gt;Node44</title>
<path fill="none" stroke="#63b8ff" d="M195.29,-386.05C201.31,-388.73 206.83,-392.42 211,-397.5 268.73,-467.87 190.68,-734 247,-805.5 250.21,-809.58 254.39,-812.74 258.99,-815.19"/>
<polygon fill="#63b8ff" stroke="#63b8ff" points="196.13,-382.63 185.53,-382.63 193.81,-389.24 196.13,-382.63"/>
</g>
<!-- Node22 -->
<g id="node32" class="node">
<title>Node22</title>
<g id="a_node32"><a xlink:href="classanalysis_core.html" target="_top" xlink:title="analysisCore base class inherited by other analysis classes. analysisCore is itself derived from opti...">
<polygon fill="white" stroke="#666666" points="341.5,-463 261.5,-463 261.5,-444 341.5,-444 341.5,-463"/>
<text text-anchor="middle" x="301.5" y="-451" font-family="Iosevka" font-size="10.00">analysisCore</text>
</a>
</g>
</g>
<!-- Node21&#45;&gt;Node22 -->
<g id="edge30" class="edge">
<title>Node21&#45;&gt;Node22</title>
<path fill="none" stroke="#63b8ff" d="M195.42,-390.06C200.85,-392.14 206.17,-394.6 211,-397.5 230.66,-409.33 227.69,-422.12 247,-434.5 252.89,-438.28 259.63,-441.42 266.29,-443.99"/>
<polygon fill="#63b8ff" stroke="#63b8ff" points="196.2,-386.63 185.6,-386.72 193.94,-393.25 196.2,-386.63"/>
</g>
<!-- Node28 -->
<g id="node38" class="node">
<title>Node28</title>
<g id="a_node38"><a xlink:href="classanimation_manager.html" target="_top" xlink:title="ANIMATIONMANAGER TODO provides per frame paths for stimuli.">
<polygon fill="white" stroke="#666666" points="356,-426 247,-426 247,-407 356,-407 356,-426"/>
<text text-anchor="middle" x="301.5" y="-414" font-family="Iosevka" font-size="10.00">animationManager</text>
</a>
</g>
</g>
<!-- Node21&#45;&gt;Node28 -->
<g id="edge36" class="edge">
<title>Node21&#45;&gt;Node28</title>
<path fill="none" stroke="#63b8ff" d="M195.42,-390.75C216.61,-395.94 241.49,-402.04 261.72,-407"/>
<polygon fill="#63b8ff" stroke="#63b8ff" points="196.21,-387.34 185.67,-388.36 194.55,-394.14 196.21,-387.34"/>
</g>
<!-- Node29 -->
<g id="node39" class="node">
<title>Node29</title>
<g id="a_node39"><a xlink:href="classarduino_manager.html" target="_top" xlink:title="Arduino Manager &gt; Connects and manages arduino communication. By default it connects using arduinoIOP...">
<polygon fill="white" stroke="#666666" points="349.5,-389 253.5,-389 253.5,-370 349.5,-370 349.5,-389"/>
<text text-anchor="middle" x="301.5" y="-377" font-family="Iosevka" font-size="10.00">arduinoManager</text>
</a>
</g>
</g>
<!-- Node21&#45;&gt;Node29 -->
<g id="edge37" class="edge">
<title>Node21&#45;&gt;Node29</title>
<path fill="none" stroke="#63b8ff" d="M195.8,-379.5C214.1,-379.5 235.11,-379.5 253.48,-379.5"/>
<polygon fill="#63b8ff" stroke="#63b8ff" points="195.67,-376 185.67,-379.5 195.67,-383 195.67,-376"/>
</g>
<!-- Node30 -->
<g id="node40" class="node">
<title>Node30</title>
<g id="a_node40"><a xlink:href="classaudio_manager.html" target="_top" xlink:title=" ">
<polygon fill="white" stroke="#666666" points="344.5,-352 258.5,-352 258.5,-333 344.5,-333 344.5,-352"/>
<text text-anchor="middle" x="301.5" y="-340" font-family="Iosevka" font-size="10.00">audioManager</text>
</a>
</g>
</g>
<!-- Node21&#45;&gt;Node30 -->
<g id="edge38" class="edge">
<title>Node21&#45;&gt;Node30</title>
<path fill="none" stroke="#63b8ff" d="M195.42,-368.25C216.61,-363.06 241.49,-356.96 261.72,-352"/>
<polygon fill="#63b8ff" stroke="#63b8ff" points="194.55,-364.86 185.67,-370.64 196.21,-371.66 194.55,-364.86"/>
</g>
<!-- Node31 -->
<g id="node41" class="node">
<title>Node31</title>
<g id="a_node41"><a xlink:href="classcolour_manager.html" target="_top" xlink:title="colourManager manages colours wrapping the CRS Color Toolbox">
<polygon fill="white" stroke="#666666" points="346,-315 257,-315 257,-296 346,-296 346,-315"/>
<text text-anchor="middle" x="301.5" y="-303" font-family="Iosevka" font-size="10.00">colourManager</text>
</a>
</g>
</g>
<!-- Node21&#45;&gt;Node31 -->
<g id="edge40" class="edge">
<title>Node21&#45;&gt;Node31</title>
<path fill="none" stroke="#63b8ff" d="M195.42,-368.14C200.85,-365.98 206.18,-363.45 211,-360.5 230.57,-348.52 227.58,-335.72 247,-323.5 252.31,-320.16 258.31,-317.36 264.32,-315.05"/>
<polygon fill="#63b8ff" stroke="#63b8ff" points="193.85,-364.98 185.6,-371.63 196.2,-371.58 193.85,-364.98"/>
</g>
<!-- Node32 -->
<g id="node42" class="node">
<title>Node32</title>
<g id="a_node42"><a xlink:href="classd_pixx_manager.html" target="_top" xlink:title="DataPixx Communication Class.">
<polygon fill="white" stroke="#666666" points="344.5,-278 258.5,-278 258.5,-259 344.5,-259 344.5,-278"/>
<text text-anchor="middle" x="301.5" y="-266" font-family="Iosevka" font-size="10.00">dPixxManager</text>
</a>
</g>
</g>
<!-- Node21&#45;&gt;Node32 -->
<g id="edge41" class="edge">
<title>Node21&#45;&gt;Node32</title>
<path fill="none" stroke="#63b8ff" d="M195.25,-370.08C200.94,-367.6 206.38,-364.46 211,-360.5 238.76,-336.69 219.53,-310.65 247,-286.5 250.9,-283.07 255.48,-280.29 260.29,-278.03"/>
<polygon fill="#63b8ff" stroke="#63b8ff" points="193.68,-366.93 185.51,-373.67 196.1,-373.49 193.68,-366.93"/>
</g>
<!-- Node33 -->
<g id="node43" class="node">
<title>Node33</title>
<g id="a_node43"><a xlink:href="classeye_occluder.html" target="_top" xlink:title=" ">
<polygon fill="white" stroke="#666666" points="340,-241 263,-241 263,-222 340,-222 340,-241"/>
<text text-anchor="middle" x="301.5" y="-229" font-family="Iosevka" font-size="10.00">eyeOccluder</text>
</a>
</g>
</g>
<!-- Node21&#45;&gt;Node33 -->
<g id="edge42" class="edge">
<title>Node21&#45;&gt;Node33</title>
<path fill="none" stroke="#63b8ff" d="M195.16,-370.94C201.01,-368.33 206.51,-364.93 211,-360.5 247.93,-324.08 210.53,-286.37 247,-249.5 251.41,-245.04 256.96,-241.69 262.8,-239.16"/>
<polygon fill="#63b8ff" stroke="#63b8ff" points="193.94,-367.66 185.79,-374.42 196.38,-374.22 193.94,-367.66"/>
</g>
<!-- Node34 -->
<g id="node44" class="node">
<title>Node34</title>
<g id="a_node44"><a xlink:href="classeyelink_manager.html" target="_top" xlink:title="eyelinkManager wraps around the eyelink toolbox functions offering a consistent interface and methods...">
<polygon fill="white" stroke="#666666" points="349,-204 254,-204 254,-185 349,-185 349,-204"/>
<text text-anchor="middle" x="301.5" y="-192" font-family="Iosevka" font-size="10.00">eyelinkManager</text>
</a>
</g>
</g>
<!-- Node21&#45;&gt;Node34 -->
<g id="edge43" class="edge">
<title>Node21&#45;&gt;Node34</title>
<path fill="none" stroke="#63b8ff" d="M195.27,-371.33C201.15,-368.67 206.63,-365.15 211,-360.5 257.39,-311.19 201.23,-262.38 247,-212.5 250.11,-209.11 253.89,-206.35 257.97,-204.12"/>
<polygon fill="#63b8ff" stroke="#63b8ff" points="193.96,-368.08 185.81,-374.85 196.4,-374.64 193.96,-368.08"/>
</g>
<!-- Node35 -->
<g id="node45" class="node">
<title>Node35</title>
<g id="a_node45"><a xlink:href="classio_manager.html" target="_top" xlink:title="Input Output manager, currently just a dummy class.">
<polygon fill="white" stroke="#666666" points="335.5,-167 267.5,-167 267.5,-148 335.5,-148 335.5,-167"/>
<text text-anchor="middle" x="301.5" y="-155" font-family="Iosevka" font-size="10.00">ioManager</text>
</a>
</g>
</g>
<!-- Node21&#45;&gt;Node35 -->
<g id="edge44" class="edge">
<title>Node21&#45;&gt;Node35</title>
<path fill="none" stroke="#63b8ff" d="M195.27,-371.6C201.19,-368.9 206.69,-365.3 211,-360.5 266.96,-298.17 191.82,-238.52 247,-175.5 252.29,-169.45 259.69,-165.44 267.29,-162.76"/>
<polygon fill="#63b8ff" stroke="#63b8ff" points="193.87,-368.39 185.71,-375.15 196.3,-374.95 193.87,-368.39"/>
</g>
<!-- Node36 -->
<g id="node46" class="node">
<title>Node36</title>
<g id="a_node46"><a xlink:href="classmagstim_manager.html" target="_top" xlink:title="magstimManager &#45; controls a MagStim Rapid TMS system using a LabJack">
<polygon fill="white" stroke="#666666" points="353,-130 250,-130 250,-111 353,-111 353,-130"/>
<text text-anchor="middle" x="301.5" y="-118" font-family="Iosevka" font-size="10.00">magstimManager</text>
</a>
</g>
</g>
<!-- Node21&#45;&gt;Node36 -->
<g id="edge45" class="edge">
<title>Node21&#45;&gt;Node36</title>
<path fill="none" stroke="#63b8ff" d="M195.2,-371.82C201.19,-369.09 206.72,-365.42 211,-360.5 276.6,-285.09 182.34,-214.72 247,-138.5 249.92,-135.06 253.51,-132.28 257.45,-130.03"/>
<polygon fill="#63b8ff" stroke="#63b8ff" points="193.71,-368.64 185.54,-375.37 196.13,-375.2 193.71,-368.64"/>
</g>
<!-- Node37 -->
<g id="node47" class="node">
<title>Node37</title>
<g id="a_node47"><a xlink:href="classmeta_stimulus.html" target="_top" xlink:title="Manager for multiple opticka stimuli.">
<polygon fill="white" stroke="#666666" points="344,-93 259,-93 259,-74 344,-74 344,-93"/>
<text text-anchor="middle" x="301.5" y="-81" font-family="Iosevka" font-size="10.00">metaStimulus</text>
</a>
</g>
</g>
<!-- Node21&#45;&gt;Node37 -->
<g id="edge46" class="edge">
<title>Node21&#45;&gt;Node37</title>
<path fill="none" stroke="#63b8ff" d="M195.3,-371.9C201.27,-369.17 206.77,-365.47 211,-360.5 286.28,-271.96 172.83,-190.97 247,-101.5 250.25,-97.58 254.39,-94.5 258.92,-92.1"/>
<polygon fill="#63b8ff" stroke="#63b8ff" points="193.81,-368.72 185.64,-375.47 196.24,-375.29 193.81,-368.72"/>
</g>
<!-- Node38 -->
<g id="node48" class="node">
<title>Node38</title>
<g id="a_node48"><a xlink:href="classopticka.html" target="_top" xlink:title="GUI Manager for runExperiment() class.">
<polygon fill="white" stroke="#666666" points="327.5,-56 275.5,-56 275.5,-37 327.5,-37 327.5,-56"/>
<text text-anchor="middle" x="301.5" y="-44" font-family="Iosevka" font-size="10.00">opticka</text>
</a>
</g>
</g>
<!-- Node21&#45;&gt;Node38 -->
<g id="edge47" class="edge">
<title>Node21&#45;&gt;Node38</title>
<path fill="none" stroke="#63b8ff" d="M195.38,-371.97C201.34,-369.22 206.81,-365.51 211,-360.5 295.98,-258.81 163.3,-167.24 247,-64.5 253.93,-55.99 265.04,-51.48 275.34,-49.1"/>
<polygon fill="#63b8ff" stroke="#63b8ff" points="193.89,-368.78 185.73,-375.54 196.32,-375.35 193.89,-368.78"/>
</g>
<!-- Node39 -->
<g id="node49" class="node">
<title>Node39</title>
<g id="a_node49"><a xlink:href="classplusplus_manager.html" target="_top" xlink:title="Display++ Communication Class.">
<polygon fill="white" stroke="#666666" points="351.5,-19 251.5,-19 251.5,0 351.5,0 351.5,-19"/>
<text text-anchor="middle" x="301.5" y="-7" font-family="Iosevka" font-size="10.00">plusplusManager</text>
</a>
</g>
</g>
<!-- Node21&#45;&gt;Node39 -->
<g id="edge48" class="edge">
<title>Node21&#45;&gt;Node39</title>
<path fill="none" stroke="#63b8ff" d="M195.44,-372.02C201.39,-369.26 206.85,-365.54 211,-360.5 305.69,-245.64 153.75,-143.53 247,-27.5 249.76,-24.06 253.21,-21.28 257.01,-19.02"/>
<polygon fill="#63b8ff" stroke="#63b8ff" points="193.95,-368.83 185.79,-375.59 196.39,-375.4 193.95,-368.83"/>
</g>
<!-- Node40 -->
<g id="node50" class="node">
<title>Node40</title>
<g id="a_node50"><a xlink:href="classplx_reader.html" target="_top" xlink:title=" ">
<polygon fill="white" stroke="#666666" points="334.5,-685 268.5,-685 268.5,-666 334.5,-666 334.5,-685"/>
<text text-anchor="middle" x="301.5" y="-673" font-family="Iosevka" font-size="10.00">plxReader</text>
</a>
</g>
</g>
<!-- Node21&#45;&gt;Node40 -->
<g id="edge49" class="edge">
<title>Node21&#45;&gt;Node40</title>
<path fill="none" stroke="#63b8ff" d="M195.27,-386.32C201.25,-388.97 206.76,-392.58 211,-397.5 287.2,-485.83 172.57,-567.67 247,-657.5 252.44,-664.07 260.36,-668.25 268.45,-670.91"/>
<polygon fill="#63b8ff" stroke="#63b8ff" points="196.21,-382.94 185.61,-382.91 193.88,-389.54 196.21,-382.94"/>
</g>
<!-- Node41 -->
<g id="node51" class="node">
<title>Node41</title>
<g id="a_node51"><a xlink:href="classrun_experiment.html" target="_top" xlink:title="The main experiment manager.">
<polygon fill="white" stroke="#666666" points="346,-648 257,-648 257,-629 346,-629 346,-648"/>
<text text-anchor="middle" x="301.5" y="-636" font-family="Iosevka" font-size="10.00">runExperiment</text>
</a>
</g>
</g>
<!-- Node21&#45;&gt;Node41 -->
<g id="edge50" class="edge">
<title>Node21&#45;&gt;Node41</title>
<path fill="none" stroke="#63b8ff" d="M195.17,-386.41C201.16,-389.04 206.7,-392.63 211,-397.5 277.43,-472.77 182.08,-543.92 247,-620.5 249.91,-623.94 253.51,-626.72 257.45,-628.98"/>
<polygon fill="#63b8ff" stroke="#63b8ff" points="196.1,-383.03 185.5,-383.01 193.78,-389.63 196.1,-383.03"/>
</g>
<!-- Node42 -->
<g id="node52" class="node">
<title>Node42</title>
<g id="a_node52"><a xlink:href="classscreen_manager.html" target="_top" xlink:title="screenManager — manage opening and configuring the PTB screen">
<polygon fill="white" stroke="#666666" points="347.5,-611 255.5,-611 255.5,-592 347.5,-592 347.5,-611"/>
<text text-anchor="middle" x="301.5" y="-599" font-family="Iosevka" font-size="10.00">screenManager</text>
</a>
</g>
</g>
<!-- Node21&#45;&gt;Node42 -->
<g id="edge51" class="edge">
<title>Node21&#45;&gt;Node42</title>
<path fill="none" stroke="#63b8ff" d="M195.24,-386.62C201.17,-389.23 206.67,-392.75 211,-397.5 267.69,-459.76 191.56,-520.13 247,-583.5 249.97,-586.89 253.6,-589.65 257.55,-591.88"/>
<polygon fill="#63b8ff" stroke="#63b8ff" points="196.27,-383.27 185.68,-383.23 193.93,-389.87 196.27,-383.27"/>
</g>
<!-- Node43 -->
<g id="node53" class="node">
<title>Node43</title>
<g id="a_node53"><a xlink:href="classstate_machine.html" target="_top" xlink:title="run a task via a series of states.">
<polygon fill="white" stroke="#666666" points="343,-574 260,-574 260,-555 343,-555 343,-574"/>
<text text-anchor="middle" x="301.5" y="-562" font-family="Iosevka" font-size="10.00">stateMachine</text>
</a>
</g>
</g>
<!-- Node21&#45;&gt;Node43 -->
<g id="edge52" class="edge">
<title>Node21&#45;&gt;Node43</title>
<path fill="none" stroke="#63b8ff" d="M195.24,-386.89C201.12,-389.47 206.61,-392.91 211,-397.5 257.75,-446.46 201.65,-495.24 247,-545.5 250.57,-549.45 255.01,-552.58 259.8,-555.06"/>
<polygon fill="#63b8ff" stroke="#63b8ff" points="196.37,-383.58 185.78,-383.52 194.03,-390.18 196.37,-383.58"/>
</g>
<!-- Node45 -->
<g id="node54" class="node">
<title>Node45</title>
<g id="a_node54"><a xlink:href="classtobii_manager.html" target="_top" xlink:title="Manages the Tobii eyetrackers.">
<polygon fill="white" stroke="#666666" points="342,-537 261,-537 261,-518 342,-518 342,-537"/>
<text text-anchor="middle" x="301.5" y="-525" font-family="Iosevka" font-size="10.00">tobiiManager</text>
</a>
</g>
</g>
<!-- Node21&#45;&gt;Node45 -->
<g id="edge54" class="edge">
<title>Node21&#45;&gt;Node45</title>
<path fill="none" stroke="#63b8ff" d="M195.56,-387.47C201.25,-389.96 206.6,-393.23 211,-397.5 248.2,-433.64 210.84,-471.32 247,-508.5 250.92,-512.53 255.74,-515.7 260.88,-518.21"/>
<polygon fill="#63b8ff" stroke="#63b8ff" points="196.36,-384.03 185.76,-383.95 193.99,-390.62 196.36,-384.03"/>
</g>
<!-- Node46 -->
<g id="node55" class="node">
<title>Node46</title>
<g id="a_node55"><a xlink:href="classtouch_manager.html" target="_top" xlink:title=" ">
<polygon fill="white" stroke="#666666" points="344.5,-500 258.5,-500 258.5,-481 344.5,-481 344.5,-500"/>
<text text-anchor="middle" x="301.5" y="-488" font-family="Iosevka" font-size="10.00">touchManager</text>
</a>
</g>
</g>
<!-- Node21&#45;&gt;Node46 -->
<g id="edge55" class="edge">
<title>Node21&#45;&gt;Node46</title>
<path fill="none" stroke="#63b8ff" d="M195.43,-388.22C201.06,-390.6 206.43,-393.64 211,-397.5 238.94,-421.1 219.74,-447.12 247,-471.5 251.33,-475.38 256.51,-478.48 261.92,-480.95"/>
<polygon fill="#63b8ff" stroke="#63b8ff" points="196.41,-384.85 185.81,-384.79 194.06,-391.45 196.41,-384.85"/>
</g>
<!-- Node23 -->
<g id="node33" class="node">
<title>Node23</title>
<g id="a_node33"><a xlink:href="class_l_f_p_analysis.html" target="_top" xlink:title=" ">
<polygon fill="white" stroke="#666666" points="497.5,-463 423.5,-463 423.5,-444 497.5,-444 497.5,-463"/>
<text text-anchor="middle" x="460.5" y="-451" font-family="Iosevka" font-size="10.00">LFPAnalysis</text>
</a>
</g>
</g>
<!-- Node22&#45;&gt;Node23 -->
<g id="edge31" class="edge">
<title>Node22&#45;&gt;Node23</title>
<path fill="none" stroke="#63b8ff" d="M351.73,-453.5C374.97,-453.5 402.2,-453.5 423.47,-453.5"/>
<polygon fill="#63b8ff" stroke="#63b8ff" points="351.71,-450 341.71,-453.5 351.71,-457 351.71,-450"/>
</g>
<!-- Node24 -->
<g id="node34" class="node">
<title>Node24</title>
<g id="a_node34"><a xlink:href="class_l_f_p_meta.html" target="_top" xlink:title=" ">
<polygon fill="white" stroke="#666666" points="490,-426 431,-426 431,-407 490,-407 490,-426"/>
<text text-anchor="middle" x="460.5" y="-414" font-family="Iosevka" font-size="10.00">LFPMeta</text>
</a>
</g>
</g>
<!-- Node22&#45;&gt;Node24 -->
<g id="edge32" class="edge">
<title>Node22&#45;&gt;Node24</title>
<path fill="none" stroke="#63b8ff" d="M351.75,-441.89C377.69,-435.78 408.6,-428.5 430.65,-423.3"/>
<polygon fill="#63b8ff" stroke="#63b8ff" points="350.64,-438.56 341.71,-444.26 352.25,-445.37 350.64,-438.56"/>
</g>
<!-- Node25 -->
<g id="node35" class="node">
<title>Node25</title>
<g id="a_node35"><a xlink:href="classeyelink_analysis.html" target="_top" xlink:title="eyelinkAnalysis offers a set of methods to load, parse &amp; plot raw EDF files. It understands opticka t...">
<polygon fill="white" stroke="#666666" points="507.5,-389 413.5,-389 413.5,-370 507.5,-370 507.5,-389"/>
<text text-anchor="middle" x="460.5" y="-377" font-family="Iosevka" font-size="10.00">eyelinkAnalysis</text>
</a>
</g>
</g>
<!-- Node22&#45;&gt;Node25 -->
<g id="edge33" class="edge">
<title>Node22&#45;&gt;Node25</title>
<path fill="none" stroke="#63b8ff" d="M346.03,-439.99C349.5,-438.33 352.87,-436.51 356,-434.5 375.31,-422.12 372.2,-409.1 392,-397.5 398.59,-393.64 406.03,-390.59 413.49,-388.18"/>
<polygon fill="#63b8ff" stroke="#63b8ff" points="344.52,-436.83 336.71,-443.99 347.28,-443.27 344.52,-436.83"/>
</g>
<!-- Node26 -->
<g id="node36" class="node">
<title>Node26</title>
<g id="a_node36"><a xlink:href="classspike_analysis.html" target="_top" xlink:title=" ">
<polygon fill="white" stroke="#666666" points="502,-352 419,-352 419,-333 502,-333 502,-352"/>
<text text-anchor="middle" x="460.5" y="-340" font-family="Iosevka" font-size="10.00">spikeAnalysis</text>
</a>
</g>
</g>
<!-- Node22&#45;&gt;Node26 -->
<g id="edge34" class="edge">
<title>Node22&#45;&gt;Node26</title>
<path fill="none" stroke="#63b8ff" d="M349.88,-439.15C352.05,-437.74 354.1,-436.2 356,-434.5 383.26,-410.12 363.78,-383.76 392,-360.5 399.67,-354.17 409.36,-350.05 418.98,-347.38"/>
<polygon fill="#63b8ff" stroke="#63b8ff" points="348.19,-436.09 341.08,-443.95 351.54,-442.23 348.19,-436.09"/>
</g>
<!-- Node27 -->
<g id="node37" class="node">
<title>Node27</title>
<g id="a_node37"><a xlink:href="classtobii_analysis.html" target="_top" xlink:title="eyelinkAnalysis offers a set of methods to load, parse &amp; plot raw EDF files. It understands opticka t...">
<polygon fill="white" stroke="#666666" points="500.5,-500 420.5,-500 420.5,-481 500.5,-481 500.5,-500"/>
<text text-anchor="middle" x="460.5" y="-488" font-family="Iosevka" font-size="10.00">tobiiAnalysis</text>
</a>
</g>
</g>
<!-- Node22&#45;&gt;Node27 -->
<g id="edge35" class="edge">
<title>Node22&#45;&gt;Node27</title>
<path fill="none" stroke="#63b8ff" d="M351.58,-465.07C373.69,-470.28 399.44,-476.35 420.24,-481.25"/>
<polygon fill="#63b8ff" stroke="#63b8ff" points="352.25,-461.63 341.71,-462.74 350.64,-468.44 352.25,-461.63"/>
</g>
</g>
</svg>
