<?xml version="1.0" encoding="UTF-8" standalone="no"?>
<!DOCTYPE svg PUBLIC "-//W3C//DTD SVG 1.1//EN"
 "http://www.w3.org/Graphics/SVG/1.1/DTD/svg11.dtd">
<!-- Generated by graphviz version 2.50.0 (20211204.2007)
 -->
<!-- Title: Graphical Class Hierarchy Pages: 1 -->
<svg width="687pt" height="1130pt"
 viewBox="0.00 0.00 687.00 1130.00" xmlns="http://www.w3.org/2000/svg" xmlns:xlink="http://www.w3.org/1999/xlink">
<g id="graph0" class="graph" transform="scale(1 1) rotate(0) translate(4 1126)">
<title>Graphical Class Hierarchy</title>
<!-- Node0 -->
<g id="node1" class="node">
<title>Node0</title>
<g id="a_node1"><a xlink:title=" ">
<polygon fill="none" stroke="#bfbfbf" points="116,-731.5 116,-750.5 205,-750.5 205,-731.5 116,-731.5"/>
<text text-anchor="middle" x="160.5" y="-738.5" font-family="Iosevka" font-size="10.00">dynamicprops</text>
</a>
</g>
</g>
<!-- Node1 -->
<g id="node2" class="node">
<title>Node1</title>
<g id="a_node2"><a xlink:href="classbase_stimulus.html" target="_top" xlink:title="baseStimulus is the superclass for all opticka stimulus objects">
<polygon fill="none" stroke="black" points="280,-760.5 280,-779.5 369,-779.5 369,-760.5 280,-760.5"/>
<text text-anchor="middle" x="324.5" y="-767.5" font-family="Iosevka" font-size="10.00">baseStimulus</text>
</a>
</g>
</g>
<!-- Node0&#45;&gt;Node1 -->
<g id="edge1" class="edge">
<title>Node0&#45;&gt;Node1</title>
<path fill="none" stroke="midnightblue" d="M215.38,-750.65C236.34,-754.4 260.05,-758.64 279.91,-762.2"/>
<polygon fill="midnightblue" stroke="midnightblue" points="215.8,-747.16 205.34,-748.85 214.57,-754.06 215.8,-747.16"/>
</g>
<!-- Node44 -->
<g id="node22" class="node">
<title>Node44</title>
<g id="a_node22"><a xlink:href="classtask_sequence.html" target="_top" xlink:title="Block&#45;based variable randomisation manager.">
<polygon fill="none" stroke="black" points="280,-703.5 280,-722.5 369,-722.5 369,-703.5 280,-703.5"/>
<text text-anchor="middle" x="324.5" y="-710.5" font-family="Iosevka" font-size="10.00">taskSequence</text>
</a>
</g>
</g>
<!-- Node0&#45;&gt;Node44 -->
<g id="edge21" class="edge">
<title>Node0&#45;&gt;Node44</title>
<path fill="none" stroke="midnightblue" d="M215.38,-731.69C236.34,-728.06 260.05,-723.97 279.91,-720.53"/>
<polygon fill="midnightblue" stroke="midnightblue" points="214.6,-728.27 205.34,-733.42 215.79,-735.17 214.6,-728.27"/>
</g>
<!-- Node2 -->
<g id="node3" class="node">
<title>Node2</title>
<g id="a_node3"><a xlink:href="classannulus_stimulus.html" target="_top" xlink:title="annulusStimulus TODO">
<polygon fill="none" stroke="black" points="438,-532.5 438,-551.5 545,-551.5 545,-532.5 438,-532.5"/>
<text text-anchor="middle" x="491.5" y="-539.5" font-family="Iosevka" font-size="10.00">annulusStimulus</text>
</a>
</g>
</g>
<!-- Node1&#45;&gt;Node2 -->
<g id="edge2" class="edge">
<title>Node1&#45;&gt;Node2</title>
<path fill="none" stroke="midnightblue" d="M355.63,-755.27C365.07,-749.28 374.66,-741.49 381,-732 424.14,-667.42 363.34,-617.15 417,-561 422.74,-555 430.1,-550.8 437.94,-547.88"/>
<polygon fill="midnightblue" stroke="midnightblue" points="353.61,-752.4 346.75,-760.47 357.15,-758.44 353.61,-752.4"/>
</g>
<!-- Node3 -->
<g id="node4" class="node">
<title>Node3</title>
<g id="a_node4"><a xlink:href="classapparent_motion_stimulus.html" target="_top" xlink:title="apparentMotionStimulus, inherits from baseStimulus">
<polygon fill="none" stroke="black" points="417,-494.5 417,-513.5 566,-513.5 566,-494.5 417,-494.5"/>
<text text-anchor="middle" x="491.5" y="-501.5" font-family="Iosevka" font-size="10.00">apparentMotionStimulus</text>
</a>
</g>
</g>
<!-- Node1&#45;&gt;Node3 -->
<g id="edge3" class="edge">
<title>Node1&#45;&gt;Node3</title>
<path fill="none" stroke="midnightblue" d="M356.05,-755.27C365.43,-749.3 374.88,-741.53 381,-732 431.9,-652.67 353.15,-592.34 417,-523 420.48,-519.22 424.61,-516.15 429.1,-513.66"/>
<polygon fill="midnightblue" stroke="midnightblue" points="354.07,-752.37 347.2,-760.44 357.6,-758.42 354.07,-752.37"/>
</g>
<!-- Node4 -->
<g id="node5" class="node">
<title>Node4</title>
<g id="a_node5"><a xlink:href="classbar_stimulus.html" target="_top" xlink:title="barStimulus single bar stimulus, inherits from baseStimulus">
<polygon fill="none" stroke="black" points="450,-1102.5 450,-1121.5 533,-1121.5 533,-1102.5 450,-1102.5"/>
<text text-anchor="middle" x="491.5" y="-1109.5" font-family="Iosevka" font-size="10.00">barStimulus</text>
</a>
</g>
</g>
<!-- Node1&#45;&gt;Node4 -->
<g id="edge4" class="edge">
<title>Node1&#45;&gt;Node4</title>
<path fill="none" stroke="midnightblue" d="M324.82,-789.6C323.99,-845.58 329.64,-1007.64 417,-1093 425.77,-1101.57 437.86,-1106.42 449.71,-1109.12"/>
<polygon fill="midnightblue" stroke="midnightblue" points="328.32,-789.68 325.05,-779.6 321.32,-789.52 328.32,-789.68"/>
</g>
<!-- Node6 -->
<g id="node7" class="node">
<title>Node6</title>
<g id="a_node7"><a xlink:href="classcheckerboard_stimulus.html" target="_top" xlink:title="checkerBoardStimulus – using a GLSL shader to make the checkerboard">
<polygon fill="none" stroke="black" points="423,-1064.5 423,-1083.5 560,-1083.5 560,-1064.5 423,-1064.5"/>
<text text-anchor="middle" x="491.5" y="-1071.5" font-family="Iosevka" font-size="10.00">checkerboardStimulus</text>
</a>
</g>
</g>
<!-- Node1&#45;&gt;Node6 -->
<g id="edge6" class="edge">
<title>Node1&#45;&gt;Node6</title>
<path fill="none" stroke="midnightblue" d="M325.69,-789.67C327.3,-841.22 339,-981.38 417,-1055 421.03,-1058.8 425.71,-1061.86 430.72,-1064.33"/>
<polygon fill="midnightblue" stroke="midnightblue" points="329.19,-789.48 325.47,-779.56 322.19,-789.63 329.19,-789.48"/>
</g>
<!-- Node7 -->
<g id="node8" class="node">
<title>Node7</title>
<g id="a_node8"><a xlink:href="classcolour_grating_stimulus.html" target="_top" xlink:title="colour grating stimulus, inherits from baseStimulus COLOURGRATINGSTIMULUS colour grating stimulus,...">
<polygon fill="none" stroke="black" points="420,-1026.5 420,-1045.5 563,-1045.5 563,-1026.5 420,-1026.5"/>
<text text-anchor="middle" x="491.5" y="-1033.5" font-family="Iosevka" font-size="10.00">colourGratingStimulus</text>
</a>
</g>
</g>
<!-- Node1&#45;&gt;Node7 -->
<g id="edge7" class="edge">
<title>Node1&#45;&gt;Node7</title>
<path fill="none" stroke="midnightblue" d="M326.8,-789.53C330.97,-836.18 348.18,-954.85 417,-1017 421.3,-1020.89 426.3,-1024 431.62,-1026.49"/>
<polygon fill="midnightblue" stroke="midnightblue" points="330.28,-789.22 326.01,-779.53 323.3,-789.77 330.28,-789.22"/>
</g>
<!-- Node8 -->
<g id="node9" class="node">
<title>Node8</title>
<g id="a_node9"><a xlink:href="classdisc_stimulus.html" target="_top" xlink:title="single disc stimulus, inherits from baseStimulus DISCSTIMULUS single disc stimulus,...">
<polygon fill="none" stroke="black" points="447,-988.5 447,-1007.5 536,-1007.5 536,-988.5 447,-988.5"/>
<text text-anchor="middle" x="491.5" y="-995.5" font-family="Iosevka" font-size="10.00">discStimulus</text>
</a>
</g>
</g>
<!-- Node1&#45;&gt;Node8 -->
<g id="edge8" class="edge">
<title>Node1&#45;&gt;Node8</title>
<path fill="none" stroke="midnightblue" d="M328.28,-789.58C335.24,-831.07 357.34,-928.18 417,-979 425.43,-986.18 436.24,-990.69 446.96,-993.52"/>
<polygon fill="midnightblue" stroke="midnightblue" points="331.73,-788.99 326.73,-779.65 324.82,-790.07 331.73,-788.99"/>
</g>
<!-- Node9 -->
<g id="node10" class="node">
<title>Node9</title>
<g id="a_node10"><a xlink:href="classdots_stimulus.html" target="_top" xlink:title="dotsStimulus simple variable coherence dots stimulus, inherits from baseStimulus">
<polygon fill="none" stroke="black" points="447,-950.5 447,-969.5 536,-969.5 536,-950.5 447,-950.5"/>
<text text-anchor="middle" x="491.5" y="-957.5" font-family="Iosevka" font-size="10.00">dotsStimulus</text>
</a>
</g>
</g>
<!-- Node1&#45;&gt;Node9 -->
<g id="edge9" class="edge">
<title>Node1&#45;&gt;Node9</title>
<path fill="none" stroke="midnightblue" d="M330.38,-789.62C340.31,-825.39 366.36,-901.19 417,-941 425.6,-947.76 436.35,-952.13 446.95,-954.96"/>
<polygon fill="midnightblue" stroke="midnightblue" points="333.64,-788.28 327.71,-779.51 326.88,-790.07 333.64,-788.28"/>
</g>
<!-- Node10 -->
<g id="node11" class="node">
<title>Node10</title>
<g id="a_node11"><a xlink:href="classfixation_cross_stimulus.html" target="_top" xlink:title="draw fixation cross from Thaler L, Schütz AC, Goodale MA, &amp; Gegenfurtner KR (2013) &quot;What is the best ...">
<polygon fill="none" stroke="black" points="420,-912.5 420,-931.5 563,-931.5 563,-912.5 420,-912.5"/>
<text text-anchor="middle" x="491.5" y="-919.5" font-family="Iosevka" font-size="10.00">fixationCrossStimulus</text>
</a>
</g>
</g>
<!-- Node1&#45;&gt;Node10 -->
<g id="edge10" class="edge">
<title>Node1&#45;&gt;Node10</title>
<path fill="none" stroke="midnightblue" d="M333.42,-789.31C346.41,-818.52 375.07,-873.66 417,-903 422.51,-906.85 428.74,-909.93 435.18,-912.38"/>
<polygon fill="midnightblue" stroke="midnightblue" points="336.5,-787.62 329.34,-779.81 330.07,-790.38 336.5,-787.62"/>
</g>
<!-- Node11 -->
<g id="node12" class="node">
<title>Node11</title>
<g id="a_node12"><a xlink:href="classgabor_stimulus.html" target="_top" xlink:title="Copyright ©2014&#45;2022 Ian Max Andolina — released: LGPL3, see LICENCE.md.">
<polygon fill="none" stroke="black" points="444,-874.5 444,-893.5 539,-893.5 539,-874.5 444,-874.5"/>
<text text-anchor="middle" x="491.5" y="-881.5" font-family="Iosevka" font-size="10.00">gaborStimulus</text>
</a>
</g>
</g>
<!-- Node1&#45;&gt;Node11 -->
<g id="edge11" class="edge">
<title>Node1&#45;&gt;Node11</title>
<path fill="none" stroke="midnightblue" d="M337.98,-788.08C353.85,-809.66 383.26,-845.3 417,-865 425.19,-869.79 434.59,-873.38 443.87,-876.08"/>
<polygon fill="midnightblue" stroke="midnightblue" points="340.71,-785.87 332.04,-779.78 335.02,-789.94 340.71,-785.87"/>
</g>
<!-- Node12 -->
<g id="node13" class="node">
<title>Node12</title>
<g id="a_node13"><a xlink:href="classgrating_stimulus.html" target="_top" xlink:title="single grating stimulus, inherits from baseStimulus GRATINGSTIMULUS single grating stimulus,...">
<polygon fill="none" stroke="black" points="438,-836.5 438,-855.5 545,-855.5 545,-836.5 438,-836.5"/>
<text text-anchor="middle" x="491.5" y="-843.5" font-family="Iosevka" font-size="10.00">gratingStimulus</text>
</a>
</g>
</g>
<!-- Node1&#45;&gt;Node12 -->
<g id="edge12" class="edge">
<title>Node1&#45;&gt;Node12</title>
<path fill="none" stroke="midnightblue" d="M346.65,-785.78C364.57,-798.5 391.37,-816.01 417,-827 425.72,-830.74 435.35,-833.88 444.69,-836.46"/>
<polygon fill="midnightblue" stroke="midnightblue" points="348.3,-782.66 338.14,-779.63 344.2,-788.33 348.3,-782.66"/>
</g>
<!-- Node13 -->
<g id="node14" class="node">
<title>Node13</title>
<g id="a_node14"><a xlink:href="classimage_stimulus.html" target="_top" xlink:title="textureStimulus">
<polygon fill="none" stroke="black" points="444,-798.5 444,-817.5 539,-817.5 539,-798.5 444,-798.5"/>
<text text-anchor="middle" x="491.5" y="-805.5" font-family="Iosevka" font-size="10.00">imageStimulus</text>
</a>
</g>
</g>
<!-- Node1&#45;&gt;Node13 -->
<g id="edge13" class="edge">
<title>Node1&#45;&gt;Node13</title>
<path fill="none" stroke="midnightblue" d="M377.15,-781.9C400.35,-787.24 427.34,-793.45 449.16,-798.48"/>
<polygon fill="midnightblue" stroke="midnightblue" points="377.67,-778.42 367.14,-779.59 376.1,-785.24 377.67,-778.42"/>
</g>
<!-- Node14 -->
<g id="node15" class="node">
<title>Node14</title>
<g id="a_node15"><a xlink:href="classlog_gabor_stimulus.html" target="_top" xlink:title="logGaborStimulus: orientation &amp; SF band&#45;pass limited filter">
<polygon fill="none" stroke="black" points="435,-760.5 435,-779.5 548,-779.5 548,-760.5 435,-760.5"/>
<text text-anchor="middle" x="491.5" y="-767.5" font-family="Iosevka" font-size="10.00">logGaborStimulus</text>
</a>
</g>
</g>
<!-- Node1&#45;&gt;Node14 -->
<g id="edge14" class="edge">
<title>Node1&#45;&gt;Node14</title>
<path fill="none" stroke="midnightblue" d="M379.49,-770C397.27,-770 417.07,-770 434.96,-770"/>
<polygon fill="midnightblue" stroke="midnightblue" points="379.28,-766.5 369.28,-770 379.28,-773.5 379.28,-766.5"/>
</g>
<!-- Node15 -->
<g id="node16" class="node">
<title>Node15</title>
<g id="a_node16"><a xlink:href="classmovie_stimulus.html" target="_top" xlink:title="movieStimulus is the class for movie based stimulus objects">
<polygon fill="none" stroke="black" points="444,-722.5 444,-741.5 539,-741.5 539,-722.5 444,-722.5"/>
<text text-anchor="middle" x="491.5" y="-729.5" font-family="Iosevka" font-size="10.00">movieStimulus</text>
</a>
</g>
</g>
<!-- Node1&#45;&gt;Node15 -->
<g id="edge15" class="edge">
<title>Node1&#45;&gt;Node15</title>
<path fill="none" stroke="midnightblue" d="M377.15,-758.1C400.35,-752.76 427.34,-746.55 449.16,-741.52"/>
<polygon fill="midnightblue" stroke="midnightblue" points="376.1,-754.76 367.14,-760.41 377.67,-761.58 376.1,-754.76"/>
</g>
<!-- Node16 -->
<g id="node17" class="node">
<title>Node16</title>
<g id="a_node17"><a xlink:href="classndots_stimulus.html" target="_top" xlink:title="ndotsStimulus limited lifetime coherence dots stimulus">
<polygon fill="none" stroke="black" points="444,-684.5 444,-703.5 539,-703.5 539,-684.5 444,-684.5"/>
<text text-anchor="middle" x="491.5" y="-691.5" font-family="Iosevka" font-size="10.00">ndotsStimulus</text>
</a>
</g>
</g>
<!-- Node1&#45;&gt;Node16 -->
<g id="edge16" class="edge">
<title>Node1&#45;&gt;Node16</title>
<path fill="none" stroke="midnightblue" d="M348.3,-754.69C370.6,-739.91 403.17,-718.93 417,-713 425.72,-709.26 435.35,-706.12 444.69,-703.54"/>
<polygon fill="midnightblue" stroke="midnightblue" points="346.12,-751.93 339.74,-760.38 350,-757.76 346.12,-751.93"/>
</g>
<!-- Node17 -->
<g id="node18" class="node">
<title>Node17</title>
<g id="a_node18"><a xlink:href="classplaid_stimulus.html" target="_top" xlink:title="plaidStimulus TODO">
<polygon fill="none" stroke="black" points="444,-646.5 444,-665.5 539,-665.5 539,-646.5 444,-646.5"/>
<text text-anchor="middle" x="491.5" y="-653.5" font-family="Iosevka" font-size="10.00">plaidStimulus</text>
</a>
</g>
</g>
<!-- Node1&#45;&gt;Node17 -->
<g id="edge17" class="edge">
<title>Node1&#45;&gt;Node17</title>
<path fill="none" stroke="midnightblue" d="M351.8,-755.13C361.65,-748.79 372.5,-740.82 381,-732 401.79,-710.42 392.79,-692.66 417,-675 424.88,-669.25 434.35,-665.24 443.82,-662.44"/>
<polygon fill="midnightblue" stroke="midnightblue" points="349.81,-752.24 343.13,-760.47 353.48,-758.2 349.81,-752.24"/>
</g>
<!-- Node18 -->
<g id="node19" class="node">
<title>Node18</title>
<g id="a_node19"><a xlink:href="classspot_stimulus.html" target="_top" xlink:title="single disc stimulus, inherits from baseStimulus SPOTSTIMULUS single spot stimulus,...">
<polygon fill="none" stroke="black" points="447,-608.5 447,-627.5 536,-627.5 536,-608.5 447,-608.5"/>
<text text-anchor="middle" x="491.5" y="-615.5" font-family="Iosevka" font-size="10.00">spotStimulus</text>
</a>
</g>
</g>
<!-- Node1&#45;&gt;Node18 -->
<g id="edge18" class="edge">
<title>Node1&#45;&gt;Node18</title>
<path fill="none" stroke="midnightblue" d="M353.86,-755.29C363.52,-749.15 373.71,-741.28 381,-732 408.91,-696.51 383.38,-667.14 417,-637 425.24,-629.61 435.99,-625.02 446.71,-622.2"/>
<polygon fill="midnightblue" stroke="midnightblue" points="352.04,-752.3 345.24,-760.42 355.63,-758.31 352.04,-752.3"/>
</g>
<!-- Node20 -->
<g id="node21" class="node">
<title>Node20</title>
<g id="a_node21"><a xlink:href="classtarget_inducer_stimulus.html" target="_top" xlink:title="target inducer stimulus, inherits from baseStimulus">
<polygon fill="none" stroke="black" points="420,-570.5 420,-589.5 563,-589.5 563,-570.5 420,-570.5"/>
<text text-anchor="middle" x="491.5" y="-577.5" font-family="Iosevka" font-size="10.00">targetInducerStimulus</text>
</a>
</g>
</g>
<!-- Node1&#45;&gt;Node20 -->
<g id="edge20" class="edge">
<title>Node1&#45;&gt;Node20</title>
<path fill="none" stroke="midnightblue" d="M355.11,-755.2C364.59,-749.17 374.34,-741.38 381,-732 416.45,-682.07 373.45,-642.05 417,-599 420.84,-595.2 425.34,-592.13 430.18,-589.65"/>
<polygon fill="midnightblue" stroke="midnightblue" points="353.05,-752.35 346.21,-760.44 356.61,-758.38 353.05,-752.35"/>
</g>
<!-- Node5 -->
<g id="node6" class="node">
<title>Node5</title>
<g id="a_node6"><a xlink:href="classrf_mapper.html" target="_top" xlink:title="receptive field mapper rfMapper is a mouse driven receptive field mapper, using various keyboard comm...">
<polygon fill="none" stroke="black" points="608,-1102.5 608,-1121.5 673,-1121.5 673,-1102.5 608,-1102.5"/>
<text text-anchor="middle" x="640.5" y="-1109.5" font-family="Iosevka" font-size="10.00">rfMapper</text>
</a>
</g>
</g>
<!-- Node4&#45;&gt;Node5 -->
<g id="edge5" class="edge">
<title>Node4&#45;&gt;Node5</title>
<path fill="none" stroke="midnightblue" d="M543.33,-1112C564.79,-1112 589.11,-1112 607.93,-1112"/>
<polygon fill="midnightblue" stroke="midnightblue" points="543.06,-1108.5 533.06,-1112 543.06,-1115.5 543.06,-1108.5"/>
</g>
<!-- Node19 -->
<g id="node20" class="node">
<title>Node19</title>
<g id="a_node20"><a xlink:href="classcolour_test.html" target="_top" xlink:title="colour test is a simple RGB colour blender for teaching">
<polygon fill="none" stroke="black" points="602,-608.5 602,-627.5 679,-627.5 679,-608.5 602,-608.5"/>
<text text-anchor="middle" x="640.5" y="-615.5" font-family="Iosevka" font-size="10.00">colourTest</text>
</a>
</g>
</g>
<!-- Node18&#45;&gt;Node19 -->
<g id="edge19" class="edge">
<title>Node18&#45;&gt;Node19</title>
<path fill="none" stroke="midnightblue" d="M546.21,-618C564.62,-618 584.81,-618 601.69,-618"/>
<polygon fill="midnightblue" stroke="midnightblue" points="546.21,-614.5 536.21,-618 546.21,-621.5 546.21,-614.5"/>
</g>
<!-- Node46 -->
<g id="node23" class="node">
<title>Node46</title>
<g id="a_node23"><a xlink:title=" ">
<polygon fill="none" stroke="#bfbfbf" points="0,-266.5 0,-285.5 53,-285.5 53,-266.5 0,-266.5"/>
<text text-anchor="middle" x="26.5" y="-273.5" font-family="Iosevka" font-size="10.00">handle</text>
</a>
</g>
</g>
<!-- Node47 -->
<g id="node24" class="node">
<title>Node47</title>
<g id="a_node24"><a xlink:href="classarduino_i_o_port.html" target="_top" xlink:title="arduinoIOPort &#45; modified legacy ardino interface using PTB IOPort interface for serial communication ...">
<polygon fill="none" stroke="black" points="113,-323.5 113,-342.5 208,-342.5 208,-323.5 113,-323.5"/>
<text text-anchor="middle" x="160.5" y="-330.5" font-family="Iosevka" font-size="10.00">arduinoIOPort</text>
</a>
</g>
</g>
<!-- Node46&#45;&gt;Node47 -->
<g id="edge22" class="edge">
<title>Node46&#45;&gt;Node47</title>
<path fill="none" stroke="midnightblue" d="M49,-291.43C60.44,-299.08 75,-307.94 89,-314 97.61,-317.73 107.13,-320.88 116.32,-323.49"/>
<polygon fill="midnightblue" stroke="midnightblue" points="50.79,-288.41 40.56,-285.64 46.82,-294.18 50.79,-288.41"/>
</g>
<!-- Node48 -->
<g id="node25" class="node">
<title>Node48</title>
<g id="a_node25"><a xlink:href="classarduino_serial.html" target="_top" xlink:title=" ">
<polygon fill="none" stroke="black" points="113,-285.5 113,-304.5 208,-304.5 208,-285.5 113,-285.5"/>
<text text-anchor="middle" x="160.5" y="-292.5" font-family="Iosevka" font-size="10.00">arduinoSerial</text>
</a>
</g>
</g>
<!-- Node46&#45;&gt;Node48 -->
<g id="edge23" class="edge">
<title>Node46&#45;&gt;Node48</title>
<path fill="none" stroke="midnightblue" d="M63.35,-281.16C78.64,-283.36 96.67,-285.96 112.96,-288.3"/>
<polygon fill="midnightblue" stroke="midnightblue" points="63.66,-277.67 53.26,-279.71 62.66,-284.6 63.66,-277.67"/>
</g>
<!-- Node49 -->
<g id="node26" class="node">
<title>Node49</title>
<g id="a_node26"><a xlink:href="classarduino_serial_port.html" target="_top" xlink:title=" ">
<polygon fill="none" stroke="black" points="101,-247.5 101,-266.5 220,-266.5 220,-247.5 101,-247.5"/>
<text text-anchor="middle" x="160.5" y="-254.5" font-family="Iosevka" font-size="10.00">arduinoSerialPort</text>
</a>
</g>
</g>
<!-- Node46&#45;&gt;Node49 -->
<g id="edge24" class="edge">
<title>Node46&#45;&gt;Node49</title>
<path fill="none" stroke="midnightblue" d="M63.36,-270.84C74.9,-269.18 88,-267.29 100.73,-265.46"/>
<polygon fill="midnightblue" stroke="midnightblue" points="62.66,-267.4 53.26,-272.29 63.66,-274.33 62.66,-267.4"/>
</g>
<!-- Node50 -->
<g id="node27" class="node">
<title>Node50</title>
<g id="a_node27"><a xlink:href="classcalibrate_luminance.html" target="_top" xlink:title="calibrateLuminance: automatic luminance calibration">
<polygon fill="none" stroke="black" points="98,-209.5 98,-228.5 223,-228.5 223,-209.5 98,-209.5"/>
<text text-anchor="middle" x="160.5" y="-216.5" font-family="Iosevka" font-size="10.00">calibrateLuminance</text>
</a>
</g>
</g>
<!-- Node46&#45;&gt;Node50 -->
<g id="edge25" class="edge">
<title>Node46&#45;&gt;Node50</title>
<path fill="none" stroke="midnightblue" d="M49,-260.57C60.44,-252.92 75,-244.06 89,-238 97.61,-234.27 107.13,-231.12 116.32,-228.51"/>
<polygon fill="midnightblue" stroke="midnightblue" points="46.82,-257.82 40.56,-266.36 50.79,-263.59 46.82,-257.82"/>
</g>
<!-- Node51 -->
<g id="node28" class="node">
<title>Node51</title>
<g id="a_node28"><a xlink:href="classdata_connection.html" target="_top" xlink:title="dataConnection Connects and manages a socket connection">
<polygon fill="none" stroke="black" points="110,-171.5 110,-190.5 211,-190.5 211,-171.5 110,-171.5"/>
<text text-anchor="middle" x="160.5" y="-178.5" font-family="Iosevka" font-size="10.00">dataConnection</text>
</a>
</g>
</g>
<!-- Node46&#45;&gt;Node51 -->
<g id="edge26" class="edge">
<title>Node46&#45;&gt;Node51</title>
<path fill="none" stroke="midnightblue" d="M37.63,-257.75C48.22,-240.35 66.43,-214.68 89,-200 95.27,-195.92 102.39,-192.71 109.64,-190.19"/>
<polygon fill="midnightblue" stroke="midnightblue" points="34.57,-256.05 32.55,-266.45 40.62,-259.58 34.57,-256.05"/>
</g>
<!-- Node52 -->
<g id="node29" class="node">
<title>Node52</title>
<g id="a_node29"><a xlink:href="classlab_jack.html" target="_top" xlink:title="LABJACK Connects and manages a LabJack U3 / U6.">
<polygon fill="none" stroke="black" points="131,-133.5 131,-152.5 190,-152.5 190,-133.5 131,-133.5"/>
<text text-anchor="middle" x="160.5" y="-140.5" font-family="Iosevka" font-size="10.00">labJack</text>
</a>
</g>
</g>
<!-- Node46&#45;&gt;Node52 -->
<g id="edge27" class="edge">
<title>Node46&#45;&gt;Node52</title>
<path fill="none" stroke="midnightblue" d="M32.69,-256.7C40.56,-231.17 57.99,-186.55 89,-162 100.83,-152.64 116.89,-147.87 130.7,-145.46"/>
<polygon fill="midnightblue" stroke="midnightblue" points="29.31,-255.78 29.89,-266.36 36.04,-257.73 29.31,-255.78"/>
</g>
<!-- Node53 -->
<g id="node30" class="node">
<title>Node53</title>
<g id="a_node30"><a xlink:href="classlab_jack_t.html" target="_top" xlink:title="LABJACKT Connects and manages a LabJack T4 / T7 This class handles digital I/O and analog I/O and ana...">
<polygon fill="none" stroke="black" points="128,-95.5 128,-114.5 193,-114.5 193,-95.5 128,-95.5"/>
<text text-anchor="middle" x="160.5" y="-102.5" font-family="Iosevka" font-size="10.00">labJackT</text>
</a>
</g>
</g>
<!-- Node46&#45;&gt;Node53 -->
<g id="edge28" class="edge">
<title>Node46&#45;&gt;Node53</title>
<path fill="none" stroke="midnightblue" d="M29.81,-256.49C34.71,-224.1 49.16,-159.28 89,-124 99.63,-114.59 114.45,-109.77 127.76,-107.34"/>
<polygon fill="midnightblue" stroke="midnightblue" points="26.33,-256.12 28.45,-266.5 33.27,-257.06 26.33,-256.12"/>
</g>
<!-- Node21 -->
<g id="node31" class="node">
<title>Node21</title>
<g id="a_node31"><a xlink:href="classopticka_core.html" target="_top" xlink:title="optickaCore base class inherited by many other opticka classes.">
<polygon fill="none" stroke="black" points="119,-361.5 119,-380.5 202,-380.5 202,-361.5 119,-361.5"/>
<text text-anchor="middle" x="160.5" y="-368.5" font-family="Iosevka" font-size="10.00">optickaCore</text>
</a>
</g>
</g>
<!-- Node46&#45;&gt;Node21 -->
<g id="edge29" class="edge">
<title>Node46&#45;&gt;Node21</title>
<path fill="none" stroke="midnightblue" d="M37.63,-294.25C48.22,-311.65 66.43,-337.32 89,-352 97.93,-357.81 108.58,-361.85 118.88,-364.66"/>
<polygon fill="midnightblue" stroke="midnightblue" points="40.62,-292.42 32.55,-285.55 34.57,-295.95 40.62,-292.42"/>
</g>
<!-- Node54 -->
<g id="node55" class="node">
<title>Node54</title>
<g id="a_node55"><a xlink:href="classopx_online.html" target="_top" xlink:title="opxOnline Provides an interface between Opticka and the Plexon for online data display">
<polygon fill="none" stroke="black" points="125,-57.5 125,-76.5 196,-76.5 196,-57.5 125,-57.5"/>
<text text-anchor="middle" x="160.5" y="-64.5" font-family="Iosevka" font-size="10.00">opxOnline</text>
</a>
</g>
</g>
<!-- Node46&#45;&gt;Node54 -->
<g id="edge55" class="edge">
<title>Node46&#45;&gt;Node54</title>
<path fill="none" stroke="midnightblue" d="M28,-256.09C30.08,-217.52 40.29,-132.35 89,-86 98.64,-76.83 112.24,-71.98 124.92,-69.46"/>
<polygon fill="midnightblue" stroke="midnightblue" points="24.49,-256.33 27.58,-266.47 31.48,-256.61 24.49,-256.33"/>
</g>
<!-- Node55 -->
<g id="node56" class="node">
<title>Node55</title>
<g id="a_node56"><a xlink:href="classparse_opx_spikes.html" target="_top" xlink:title=" ">
<polygon fill="none" stroke="black" points="110,-475.5 110,-494.5 211,-494.5 211,-475.5 110,-475.5"/>
<text text-anchor="middle" x="160.5" y="-482.5" font-family="Iosevka" font-size="10.00">parseOpxSpikes</text>
</a>
</g>
</g>
<!-- Node46&#45;&gt;Node55 -->
<g id="edge56" class="edge">
<title>Node46&#45;&gt;Node55</title>
<path fill="none" stroke="midnightblue" d="M28,-295.91C30.08,-334.48 40.29,-419.65 89,-466 94.88,-471.59 102.22,-475.58 109.93,-478.41"/>
<polygon fill="midnightblue" stroke="midnightblue" points="31.48,-295.39 27.58,-285.53 24.49,-295.67 31.48,-295.39"/>
</g>
<!-- Node56 -->
<g id="node57" class="node">
<title>Node56</title>
<g id="a_node57"><a xlink:href="classsend_serial_i_o_port.html" target="_top" xlink:title=" ">
<polygon fill="none" stroke="black" points="104,-437.5 104,-456.5 217,-456.5 217,-437.5 104,-437.5"/>
<text text-anchor="middle" x="160.5" y="-444.5" font-family="Iosevka" font-size="10.00">sendSerialIOPort</text>
</a>
</g>
</g>
<!-- Node46&#45;&gt;Node56 -->
<g id="edge57" class="edge">
<title>Node46&#45;&gt;Node56</title>
<path fill="none" stroke="midnightblue" d="M29.81,-295.51C34.71,-327.9 49.16,-392.72 89,-428 93.37,-431.87 98.44,-434.96 103.82,-437.42"/>
<polygon fill="midnightblue" stroke="midnightblue" points="33.27,-294.94 28.45,-285.5 26.33,-295.88 33.27,-294.94"/>
</g>
<!-- Node57 -->
<g id="node58" class="node">
<title>Node57</title>
<g id="a_node58"><a xlink:href="classtitta_cal_movie_stimulus.html" target="_top" xlink:title="plays an animated movie for a calibration stimulus">
<polygon fill="none" stroke="black" points="89,-399.5 89,-418.5 232,-418.5 232,-399.5 89,-399.5"/>
<text text-anchor="middle" x="160.5" y="-406.5" font-family="Iosevka" font-size="10.00">tittaCalMovieStimulus</text>
</a>
</g>
</g>
<!-- Node46&#45;&gt;Node57 -->
<g id="edge58" class="edge">
<title>Node46&#45;&gt;Node57</title>
<path fill="none" stroke="midnightblue" d="M32.69,-295.3C40.56,-320.83 57.99,-365.45 89,-390 93.87,-393.86 99.46,-396.93 105.31,-399.38"/>
<polygon fill="midnightblue" stroke="midnightblue" points="36.04,-294.27 29.89,-285.64 29.31,-296.22 36.04,-294.27"/>
</g>
<!-- Node21&#45;&gt;Node1 -->
<g id="edge39" class="edge">
<title>Node21&#45;&gt;Node1</title>
<path fill="none" stroke="midnightblue" d="M211.85,-376.52C219.54,-379.46 226.68,-383.76 232,-390 281.59,-448.14 228.86,-666.36 268,-732 275.59,-744.74 289.31,-754.19 301.21,-760.48"/>
<polygon fill="midnightblue" stroke="midnightblue" points="212.87,-373.17 202.28,-373.57 210.8,-379.86 212.87,-373.17"/>
</g>
<!-- Node21&#45;&gt;Node44 -->
<g id="edge53" class="edge">
<title>Node21&#45;&gt;Node44</title>
<path fill="none" stroke="midnightblue" d="M211.74,-376.61C219.45,-379.54 226.61,-383.82 232,-390 315.86,-486.27 201.48,-566.02 268,-675 275.73,-687.66 289.45,-697.11 301.31,-703.42"/>
<polygon fill="midnightblue" stroke="midnightblue" points="212.75,-373.26 202.17,-373.66 210.69,-379.95 212.75,-373.26"/>
</g>
<!-- Node22 -->
<g id="node32" class="node">
<title>Node22</title>
<g id="a_node32"><a xlink:href="classanalysis_core.html" target="_top" xlink:title="analysisCore base class inherited by other analysis classes. analysisCore is itself derived from opti...">
<polygon fill="none" stroke="black" points="280,-418.5 280,-437.5 369,-437.5 369,-418.5 280,-418.5"/>
<text text-anchor="middle" x="324.5" y="-425.5" font-family="Iosevka" font-size="10.00">analysisCore</text>
</a>
</g>
</g>
<!-- Node21&#45;&gt;Node22 -->
<g id="edge30" class="edge">
<title>Node21&#45;&gt;Node22</title>
<path fill="none" stroke="midnightblue" d="M212.11,-383.17C218.87,-385.22 225.66,-387.51 232,-390 248.84,-396.62 251.39,-401.83 268,-409 275.95,-412.43 284.74,-415.68 292.93,-418.49"/>
<polygon fill="midnightblue" stroke="midnightblue" points="212.84,-379.74 202.27,-380.33 210.9,-386.47 212.84,-379.74"/>
</g>
<!-- Node28 -->
<g id="node38" class="node">
<title>Node28</title>
<g id="a_node38"><a xlink:href="classanimation_manager.html" target="_top" xlink:title="ANIMATIONMANAGER TODO provides per frame paths for stimuli.">
<polygon fill="none" stroke="black" points="268,-380.5 268,-399.5 381,-399.5 381,-380.5 268,-380.5"/>
<text text-anchor="middle" x="324.5" y="-387.5" font-family="Iosevka" font-size="10.00">animationManager</text>
</a>
</g>
</g>
<!-- Node21&#45;&gt;Node28 -->
<g id="edge36" class="edge">
<title>Node21&#45;&gt;Node28</title>
<path fill="none" stroke="midnightblue" d="M212.48,-376.98C230.11,-379.05 249.96,-381.38 267.95,-383.48"/>
<polygon fill="midnightblue" stroke="midnightblue" points="212.72,-373.48 202.38,-375.79 211.9,-380.44 212.72,-373.48"/>
</g>
<!-- Node29 -->
<g id="node39" class="node">
<title>Node29</title>
<g id="a_node39"><a xlink:href="classarduino_manager.html" target="_top" xlink:title="Arduino Manager &gt; Connects and manages arduino communication. By default it connects using arduinoIOP...">
<polygon fill="none" stroke="black" points="274,-342.5 274,-361.5 375,-361.5 375,-342.5 274,-342.5"/>
<text text-anchor="middle" x="324.5" y="-349.5" font-family="Iosevka" font-size="10.00">arduinoManager</text>
</a>
</g>
</g>
<!-- Node21&#45;&gt;Node29 -->
<g id="edge37" class="edge">
<title>Node21&#45;&gt;Node29</title>
<path fill="none" stroke="midnightblue" d="M212.37,-365.03C232.03,-362.73 254.44,-360.1 273.96,-357.81"/>
<polygon fill="midnightblue" stroke="midnightblue" points="211.9,-361.56 202.38,-366.21 212.72,-368.52 211.9,-361.56"/>
</g>
<!-- Node30 -->
<g id="node40" class="node">
<title>Node30</title>
<g id="a_node40"><a xlink:href="classaudio_manager.html" target="_top" xlink:title=" ">
<polygon fill="none" stroke="black" points="280,-304.5 280,-323.5 369,-323.5 369,-304.5 280,-304.5"/>
<text text-anchor="middle" x="324.5" y="-311.5" font-family="Iosevka" font-size="10.00">audioManager</text>
</a>
</g>
</g>
<!-- Node21&#45;&gt;Node30 -->
<g id="edge38" class="edge">
<title>Node21&#45;&gt;Node30</title>
<path fill="none" stroke="midnightblue" d="M212.11,-358.83C218.87,-356.78 225.66,-354.49 232,-352 248.84,-345.38 251.39,-340.17 268,-333 275.95,-329.57 284.74,-326.32 292.93,-323.51"/>
<polygon fill="midnightblue" stroke="midnightblue" points="210.9,-355.53 202.27,-361.67 212.84,-362.26 210.9,-355.53"/>
</g>
<!-- Node31 -->
<g id="node41" class="node">
<title>Node31</title>
<g id="a_node41"><a xlink:href="classcolour_manager.html" target="_top" xlink:title="colourManager manages colours wrapping the CRS Color Toolbox">
<polygon fill="none" stroke="black" points="277,-266.5 277,-285.5 372,-285.5 372,-266.5 277,-266.5"/>
<text text-anchor="middle" x="324.5" y="-273.5" font-family="Iosevka" font-size="10.00">colourManager</text>
</a>
</g>
</g>
<!-- Node21&#45;&gt;Node31 -->
<g id="edge40" class="edge">
<title>Node21&#45;&gt;Node31</title>
<path fill="none" stroke="midnightblue" d="M212,-362.37C219.12,-359.78 226.04,-356.4 232,-352 256.12,-334.22 244.49,-313.58 268,-295 272.87,-291.15 278.58,-288.05 284.44,-285.57"/>
<polygon fill="midnightblue" stroke="midnightblue" points="210.72,-359.11 202.24,-365.45 212.83,-365.78 210.72,-359.11"/>
</g>
<!-- Node32 -->
<g id="node42" class="node">
<title>Node32</title>
<g id="a_node42"><a xlink:href="classd_pixx_manager.html" target="_top" xlink:title="DataPixx Communication Class.">
<polygon fill="none" stroke="black" points="280,-228.5 280,-247.5 369,-247.5 369,-228.5 280,-228.5"/>
<text text-anchor="middle" x="324.5" y="-235.5" font-family="Iosevka" font-size="10.00">dPixxManager</text>
</a>
</g>
</g>
<!-- Node21&#45;&gt;Node32 -->
<g id="edge41" class="edge">
<title>Node21&#45;&gt;Node32</title>
<path fill="none" stroke="midnightblue" d="M211.61,-363.88C219.06,-361.09 226.19,-357.27 232,-352 265.47,-321.69 235.56,-288.41 268,-257 272.02,-253.1 276.88,-250 282.03,-247.54"/>
<polygon fill="midnightblue" stroke="midnightblue" points="210.55,-360.54 202.05,-366.87 212.64,-367.22 210.55,-360.54"/>
</g>
<!-- Node33 -->
<g id="node43" class="node">
<title>Node33</title>
<g id="a_node43"><a xlink:href="classeye_occluder.html" target="_top" xlink:title=" ">
<polygon fill="none" stroke="black" points="283,-190.5 283,-209.5 366,-209.5 366,-190.5 283,-190.5"/>
<text text-anchor="middle" x="324.5" y="-197.5" font-family="Iosevka" font-size="10.00">eyeOccluder</text>
</a>
</g>
</g>
<!-- Node21&#45;&gt;Node33 -->
<g id="edge42" class="edge">
<title>Node21&#45;&gt;Node33</title>
<path fill="none" stroke="midnightblue" d="M211.81,-364.45C219.31,-361.61 226.39,-357.61 232,-352 275.33,-308.72 226.14,-263.7 268,-219 272.11,-214.61 277.27,-211.24 282.78,-208.65"/>
<polygon fill="midnightblue" stroke="midnightblue" points="210.67,-361.14 202.17,-367.47 212.76,-367.82 210.67,-361.14"/>
</g>
<!-- Node34 -->
<g id="node44" class="node">
<title>Node34</title>
<g id="a_node44"><a xlink:href="classeyelink_manager.html" target="_top" xlink:title="eyelinkManager wraps around the eyelink toolbox functions offering a consistent interface and methods...">
<polygon fill="none" stroke="black" points="274,-152.5 274,-171.5 375,-171.5 375,-152.5 274,-152.5"/>
<text text-anchor="middle" x="324.5" y="-159.5" font-family="Iosevka" font-size="10.00">eyelinkManager</text>
</a>
</g>
</g>
<!-- Node21&#45;&gt;Node34 -->
<g id="edge43" class="edge">
<title>Node21&#45;&gt;Node34</title>
<path fill="none" stroke="midnightblue" d="M211.84,-364.82C219.39,-361.94 226.49,-357.83 232,-352 285.37,-295.57 216.54,-239.17 268,-181 271.44,-177.11 275.71,-174.02 280.35,-171.55"/>
<polygon fill="midnightblue" stroke="midnightblue" points="210.61,-361.53 202.1,-367.85 212.69,-368.22 210.61,-361.53"/>
</g>
<!-- Node35 -->
<g id="node45" class="node">
<title>Node35</title>
<g id="a_node45"><a xlink:href="classio_manager.html" target="_top" xlink:title="Input Output manager, currently just a dummy class.">
<polygon fill="none" stroke="black" points="289,-114.5 289,-133.5 360,-133.5 360,-114.5 289,-114.5"/>
<text text-anchor="middle" x="324.5" y="-121.5" font-family="Iosevka" font-size="10.00">ioManager</text>
</a>
</g>
</g>
<!-- Node21&#45;&gt;Node35 -->
<g id="edge44" class="edge">
<title>Node21&#45;&gt;Node35</title>
<path fill="none" stroke="midnightblue" d="M212.02,-364.99C219.56,-362.09 226.6,-357.93 232,-352 295.49,-282.33 206.86,-214.74 268,-143 273.42,-136.64 281.06,-132.41 288.94,-129.59"/>
<polygon fill="midnightblue" stroke="midnightblue" points="210.79,-361.71 202.29,-368.03 212.88,-368.39 210.79,-361.71"/>
</g>
<!-- Node36 -->
<g id="node46" class="node">
<title>Node36</title>
<g id="a_node46"><a xlink:href="classmagstim_manager.html" target="_top" xlink:title="magstimManager &#45; controls a MagStim Rapid TMS system using a LabJack">
<polygon fill="none" stroke="black" points="274,-76.5 274,-95.5 375,-95.5 375,-76.5 274,-76.5"/>
<text text-anchor="middle" x="324.5" y="-83.5" font-family="Iosevka" font-size="10.00">magstimManager</text>
</a>
</g>
</g>
<!-- Node21&#45;&gt;Node36 -->
<g id="edge45" class="edge">
<title>Node21&#45;&gt;Node36</title>
<path fill="none" stroke="midnightblue" d="M211.65,-365.3C219.36,-362.38 226.55,-358.13 232,-352 305.66,-269.05 197.14,-190.36 268,-105 271.19,-101.16 275.19,-98.09 279.57,-95.65"/>
<polygon fill="midnightblue" stroke="midnightblue" points="210.59,-361.96 202.06,-368.25 212.65,-368.65 210.59,-361.96"/>
</g>
<!-- Node37 -->
<g id="node47" class="node">
<title>Node37</title>
<g id="a_node47"><a xlink:href="classmeta_stimulus.html" target="_top" xlink:title="Manager for multiple opticka stimuli.">
<polygon fill="none" stroke="black" points="280,-38.5 280,-57.5 369,-57.5 369,-38.5 280,-38.5"/>
<text text-anchor="middle" x="324.5" y="-45.5" font-family="Iosevka" font-size="10.00">metaStimulus</text>
</a>
</g>
</g>
<!-- Node21&#45;&gt;Node37 -->
<g id="edge46" class="edge">
<title>Node21&#45;&gt;Node37</title>
<path fill="none" stroke="midnightblue" d="M211.74,-365.39C219.45,-362.46 226.61,-358.18 232,-352 315.86,-255.73 187.39,-166.01 268,-67 271.22,-63.05 275.29,-59.92 279.77,-57.44"/>
<polygon fill="midnightblue" stroke="midnightblue" points="210.69,-362.05 202.17,-368.34 212.75,-368.74 210.69,-362.05"/>
</g>
<!-- Node38 -->
<g id="node48" class="node">
<title>Node38</title>
<g id="a_node48"><a xlink:href="classopticka.html" target="_top" xlink:title="Stimulus generator GUI.">
<polygon fill="none" stroke="black" points="295,-0.5 295,-19.5 354,-19.5 354,-0.5 295,-0.5"/>
<text text-anchor="middle" x="324.5" y="-7.5" font-family="Iosevka" font-size="10.00">opticka</text>
</a>
</g>
</g>
<!-- Node21&#45;&gt;Node38 -->
<g id="edge47" class="edge">
<title>Node21&#45;&gt;Node38</title>
<path fill="none" stroke="midnightblue" d="M211.82,-365.45C219.51,-362.51 226.66,-358.22 232,-352 326.07,-242.39 177.63,-141.68 268,-29 274.56,-20.82 284.83,-16.14 294.76,-13.48"/>
<polygon fill="midnightblue" stroke="midnightblue" points="210.77,-362.11 202.25,-368.4 212.83,-368.8 210.77,-362.11"/>
</g>
<!-- Node39 -->
<g id="node49" class="node">
<title>Node39</title>
<g id="a_node49"><a xlink:href="classplusplus_manager.html" target="_top" xlink:title="Display++ Communication Class.">
<polygon fill="none" stroke="black" points="271,-646.5 271,-665.5 378,-665.5 378,-646.5 271,-646.5"/>
<text text-anchor="middle" x="324.5" y="-653.5" font-family="Iosevka" font-size="10.00">plusplusManager</text>
</a>
</g>
</g>
<!-- Node21&#45;&gt;Node39 -->
<g id="edge48" class="edge">
<title>Node21&#45;&gt;Node39</title>
<path fill="none" stroke="midnightblue" d="M211.65,-376.7C219.36,-379.62 226.55,-383.87 232,-390 305.66,-472.95 197.14,-551.64 268,-637 271.19,-640.84 275.19,-643.91 279.57,-646.35"/>
<polygon fill="midnightblue" stroke="midnightblue" points="212.65,-373.35 202.06,-373.75 210.59,-380.04 212.65,-373.35"/>
</g>
<!-- Node40 -->
<g id="node50" class="node">
<title>Node40</title>
<g id="a_node50"><a xlink:href="classplx_reader.html" target="_top" xlink:title=" ">
<polygon fill="none" stroke="black" points="289,-608.5 289,-627.5 360,-627.5 360,-608.5 289,-608.5"/>
<text text-anchor="middle" x="324.5" y="-615.5" font-family="Iosevka" font-size="10.00">plxReader</text>
</a>
</g>
</g>
<!-- Node21&#45;&gt;Node40 -->
<g id="edge49" class="edge">
<title>Node21&#45;&gt;Node40</title>
<path fill="none" stroke="midnightblue" d="M212.02,-377.01C219.56,-379.91 226.6,-384.07 232,-390 295.49,-459.67 206.86,-527.26 268,-599 273.42,-605.36 281.06,-609.59 288.94,-612.41"/>
<polygon fill="midnightblue" stroke="midnightblue" points="212.88,-373.61 202.29,-373.97 210.79,-380.29 212.88,-373.61"/>
</g>
<!-- Node41 -->
<g id="node51" class="node">
<title>Node41</title>
<g id="a_node51"><a xlink:href="classrun_experiment.html" target="_top" xlink:title="The main experiment manager.">
<polygon fill="none" stroke="black" points="277,-570.5 277,-589.5 372,-589.5 372,-570.5 277,-570.5"/>
<text text-anchor="middle" x="324.5" y="-577.5" font-family="Iosevka" font-size="10.00">runExperiment</text>
</a>
</g>
</g>
<!-- Node21&#45;&gt;Node41 -->
<g id="edge50" class="edge">
<title>Node21&#45;&gt;Node41</title>
<path fill="none" stroke="midnightblue" d="M211.84,-377.18C219.39,-380.06 226.49,-384.17 232,-390 285.37,-446.43 216.54,-502.83 268,-561 271.44,-564.89 275.71,-567.98 280.35,-570.45"/>
<polygon fill="midnightblue" stroke="midnightblue" points="212.69,-373.78 202.1,-374.15 210.61,-380.47 212.69,-373.78"/>
</g>
<!-- Node42 -->
<g id="node52" class="node">
<title>Node42</title>
<g id="a_node52"><a xlink:href="classscreen_manager.html" target="_top" xlink:title="screenManager — manage opening and configuring the PTB screen">
<polygon fill="none" stroke="black" points="277,-532.5 277,-551.5 372,-551.5 372,-532.5 277,-532.5"/>
<text text-anchor="middle" x="324.5" y="-539.5" font-family="Iosevka" font-size="10.00">screenManager</text>
</a>
</g>
</g>
<!-- Node21&#45;&gt;Node42 -->
<g id="edge51" class="edge">
<title>Node21&#45;&gt;Node42</title>
<path fill="none" stroke="midnightblue" d="M211.81,-377.55C219.31,-380.39 226.39,-384.39 232,-390 275.33,-433.28 226.14,-478.3 268,-523 271.62,-526.87 276.06,-529.94 280.84,-532.4"/>
<polygon fill="midnightblue" stroke="midnightblue" points="212.76,-374.18 202.17,-374.53 210.67,-380.86 212.76,-374.18"/>
</g>
<!-- Node43 -->
<g id="node53" class="node">
<title>Node43</title>
<g id="a_node53"><a xlink:href="classstate_machine.html" target="_top" xlink:title="run a task via a series of states.">
<polygon fill="none" stroke="black" points="280,-494.5 280,-513.5 369,-513.5 369,-494.5 280,-494.5"/>
<text text-anchor="middle" x="324.5" y="-501.5" font-family="Iosevka" font-size="10.00">stateMachine</text>
</a>
</g>
</g>
<!-- Node21&#45;&gt;Node43 -->
<g id="edge52" class="edge">
<title>Node21&#45;&gt;Node43</title>
<path fill="none" stroke="midnightblue" d="M211.61,-378.12C219.06,-380.91 226.19,-384.73 232,-390 265.47,-420.31 235.56,-453.59 268,-485 272.02,-488.9 276.88,-492 282.03,-494.46"/>
<polygon fill="midnightblue" stroke="midnightblue" points="212.64,-374.78 202.05,-375.13 210.55,-381.46 212.64,-374.78"/>
</g>
<!-- Node45 -->
<g id="node54" class="node">
<title>Node45</title>
<g id="a_node54"><a xlink:href="classtobii_manager.html" target="_top" xlink:title="tobiiManager wraps around the Titta toolbox functions offering a interface consistent with eyelinkMan...">
<polygon fill="none" stroke="black" points="280,-456.5 280,-475.5 369,-475.5 369,-456.5 280,-456.5"/>
<text text-anchor="middle" x="324.5" y="-463.5" font-family="Iosevka" font-size="10.00">tobiiManager</text>
</a>
</g>
</g>
<!-- Node21&#45;&gt;Node45 -->
<g id="edge54" class="edge">
<title>Node21&#45;&gt;Node45</title>
<path fill="none" stroke="midnightblue" d="M212,-379.63C219.12,-382.22 226.04,-385.6 232,-390 256.12,-407.78 244.49,-428.42 268,-447 272.87,-450.85 278.58,-453.95 284.44,-456.43"/>
<polygon fill="midnightblue" stroke="midnightblue" points="212.83,-376.22 202.24,-376.55 210.72,-382.89 212.83,-376.22"/>
</g>
<!-- Node23 -->
<g id="node33" class="node">
<title>Node23</title>
<g id="a_node33"><a xlink:href="class_l_f_p_analysis.html" target="_top" xlink:title=" ">
<polygon fill="none" stroke="black" points="450,-418.5 450,-437.5 533,-437.5 533,-418.5 450,-418.5"/>
<text text-anchor="middle" x="491.5" y="-425.5" font-family="Iosevka" font-size="10.00">LFPAnalysis</text>
</a>
</g>
</g>
<!-- Node22&#45;&gt;Node23 -->
<g id="edge31" class="edge">
<title>Node22&#45;&gt;Node23</title>
<path fill="none" stroke="midnightblue" d="M379.55,-428C402.46,-428 428.7,-428 449.91,-428"/>
<polygon fill="midnightblue" stroke="midnightblue" points="379.28,-424.5 369.28,-428 379.28,-431.5 379.28,-424.5"/>
</g>
<!-- Node24 -->
<g id="node34" class="node">
<title>Node24</title>
<g id="a_node34"><a xlink:href="class_l_f_p_meta.html" target="_top" xlink:title=" ">
<polygon fill="none" stroke="black" points="462,-380.5 462,-399.5 521,-399.5 521,-380.5 462,-380.5"/>
<text text-anchor="middle" x="491.5" y="-387.5" font-family="Iosevka" font-size="10.00">LFPMeta</text>
</a>
</g>
</g>
<!-- Node22&#45;&gt;Node24 -->
<g id="edge32" class="edge">
<title>Node22&#45;&gt;Node24</title>
<path fill="none" stroke="midnightblue" d="M377.16,-416.1C405.11,-409.67 438.57,-401.96 461.87,-396.59"/>
<polygon fill="midnightblue" stroke="midnightblue" points="376.1,-412.76 367.14,-418.41 377.67,-419.58 376.1,-412.76"/>
</g>
<!-- Node25 -->
<g id="node35" class="node">
<title>Node25</title>
<g id="a_node35"><a xlink:href="classeyelink_analysis.html" target="_top" xlink:title="eyelinkAnalysis offers a set of methods to load, parse &amp; plot raw EDF files. It understands opticka t...">
<polygon fill="none" stroke="black" points="438,-342.5 438,-361.5 545,-361.5 545,-342.5 438,-342.5"/>
<text text-anchor="middle" x="491.5" y="-349.5" font-family="Iosevka" font-size="10.00">eyelinkAnalysis</text>
</a>
</g>
</g>
<!-- Node22&#45;&gt;Node25 -->
<g id="edge33" class="edge">
<title>Node22&#45;&gt;Node25</title>
<path fill="none" stroke="midnightblue" d="M371,-414.5C374.48,-412.85 377.86,-411.02 381,-409 400.57,-396.42 396.96,-382.81 417,-371 423.59,-367.12 430.96,-364.02 438.43,-361.55"/>
<polygon fill="midnightblue" stroke="midnightblue" points="369.46,-411.35 361.61,-418.48 372.19,-417.8 369.46,-411.35"/>
</g>
<!-- Node26 -->
<g id="node36" class="node">
<title>Node26</title>
<g id="a_node36"><a xlink:href="classspike_analysis.html" target="_top" xlink:title=" ">
<polygon fill="none" stroke="black" points="444,-304.5 444,-323.5 539,-323.5 539,-304.5 444,-304.5"/>
<text text-anchor="middle" x="491.5" y="-311.5" font-family="Iosevka" font-size="10.00">spikeAnalysis</text>
</a>
</g>
</g>
<!-- Node22&#45;&gt;Node26 -->
<g id="edge34" class="edge">
<title>Node22&#45;&gt;Node26</title>
<path fill="none" stroke="midnightblue" d="M375.35,-413.34C377.35,-412.01 379.24,-410.57 381,-409 408.87,-384.1 388.19,-356.81 417,-333 424.62,-326.7 434.08,-322.46 443.66,-319.62"/>
<polygon fill="midnightblue" stroke="midnightblue" points="373.2,-410.53 366.12,-418.42 376.57,-416.66 373.2,-410.53"/>
</g>
<!-- Node27 -->
<g id="node37" class="node">
<title>Node27</title>
<g id="a_node37"><a xlink:href="classtobii_analysis.html" target="_top" xlink:title="eyelinkAnalysis offers a set of methods to load, parse &amp; plot raw EDF files. It understands opticka t...">
<polygon fill="none" stroke="black" points="444,-456.5 444,-475.5 539,-475.5 539,-456.5 444,-456.5"/>
<text text-anchor="middle" x="491.5" y="-463.5" font-family="Iosevka" font-size="10.00">tobiiAnalysis</text>
</a>
</g>
</g>
<!-- Node22&#45;&gt;Node27 -->
<g id="edge35" class="edge">
<title>Node22&#45;&gt;Node27</title>
<path fill="none" stroke="midnightblue" d="M377.15,-439.9C400.35,-445.24 427.34,-451.45 449.16,-456.48"/>
<polygon fill="midnightblue" stroke="midnightblue" points="377.67,-436.42 367.14,-437.59 376.1,-443.24 377.67,-436.42"/>
</g>
</g>
</svg>
